<svg xmlns="http://www.w3.org/2000/svg" style="display: none;">

  <!-- pipeline icons  -->

  <symbol id="leadin" viewBox="0 0 138 106" fill="none" xmlns="http://www.w3.org/2000/svg">
    <path
      d="M97.5002 59.5459C66 59.5459 59.1669 89.3792 60.5002 103.046H134.5C136.5 90.5459 129.001 59.5459 97.5002 59.5459Z"
      stroke="#ff6a21" stroke-width="5" stroke-linejoin="round" />
    <circle cx="97" cy="37.5459" r="22" stroke="#ff6a21" stroke-width="5" />
    <circle cx="23" cy="19.5459" r="7" stroke="#ff6a21" stroke-width="5" />
    <circle cx="23" cy="45.5459" r="7" stroke="#ff6a21" stroke-width="5" />
    <circle cx="60" cy="45.5459" r="7" stroke="#ff6a21" stroke-width="5" />
    <circle cx="23" cy="70.5459" r="7" stroke="#ff6a21" stroke-width="5" />
    <path
      d="M30 20.0459H43.5V70.5459H29.5M30 45.5459H53.5M105.5 17.0459V11.0459C105.833 8.37921 104.6 3.04587 97 3.04587C89.4 3.04587 37.1667 3.04587 12 3.04587C9 2.71254 3 4.04587 3 12.0459C3 20.0459 3 59.3792 3 78.0459C3 81.3792 5 88.0459 13 88.0459C21 88.0459 48.6667 88.0459 61.5 88.0459"
      stroke="#ff6a21" stroke-width="5" />
  </symbol>

  <symbol id="hometask" viewBox="0 0 100 130" fill="none" xmlns="http://www.w3.org/2000/svg">
    <circle cx="73" cy="95" r="32.5" stroke="#ff6a21" stroke-width="5" />
    <path
      d="M73.5 73.5V92C73.5 93.1667 74.2 95.5 77 95.5C79.8 95.5 86.1667 95.5 89 95.5M30 14C30 10.4 34 9.16667 36 9H40.5C40.5 4.2 44.5 3 46.5 3C46.8333 3 48.4 3 52 3C55.6 3 57.1667 6.66667 57.5 8.5C58.3333 8.5 60.4 8.5 62 8.5C64 8.5 68 10 68 14.5C68 18.1 64.6667 19.3333 63 19.5H49C44.6667 19.5 35.9 19.5 35.5 19.5C35 19.5 30 18.5 30 14ZM30 14H9.5C7.33333 14.1667 3 15.7 3 20.5C3 25.3 3 89.8333 3 121.5C3.16667 123.5 4.6 127.5 9 127.5C13.4 127.5 55.3333 127.5 72 127.5M95.5 70.5V19C95.1667 17.3333 93.7 14 90.5 14C87.3 14 73.983 14 67.983 14M41.5 84.5H19C17.3333 84.6667 14 85.9 14 89.5C14 93.1 14 99.6667 14 102.5C14.1667 103.667 15.1 106 17.5 106C19.9 106 34.1667 106 41 106M14 117H35M14 73.5H35M14 63H45.5M19.5 30.5H78.5C80.5 30.5 84.5 31.7 84.5 36.5C84.5 41.3 84.5 45.8333 84.5 47.5C84.3333 49 83.2 52 80 52C76.8 52 38.3333 52 19.5 52C17.6667 51.8333 14 50.5 14 46.5C14 42.5 14 38.1667 14 36.5C14.1667 34.5 15.5 30.5 19.5 30.5Z"
      stroke="#ff6a21" stroke-width="5" stroke-linecap="round" stroke-linejoin="round" />
    <path d="M95.5 70.5V14.5H68M30 14.5H3V128H69.5" stroke="#ff6a21" />
  </symbol>

  <symbol id="warmup" viewBox="0 0 128 153" fill="none" xmlns="http://www.w3.org/2000/svg">
    <path
      d="M18.5 81C14 73.6666 6.8 54.4999 14 36.5M21 85C21.8333 86.1667 23.7 88.6 24.5 89M115 71C117.333 65.3333 120.6 50.7 115 37.5M97.5 95.5C103 91.5 105.5 88 107.5 85M110 81.5C110 81.5 112 78.5 113 76.5M3 27.5001L13 14.0001C13.3333 13.6667 14.2 13.2001 15 14.0001C15.8 14.8001 42.6667 33.6667 56 43H72L115 13L125.5 27.5L82.5 58.5V84.5L98 145L80.5 150.5L66 93H63L48.5 150.5L31 145L46.5 84.5V58.5L3 27.5001Z"
      stroke="#ff6a21" stroke-width="5" stroke-linejoin="round" />
    <circle cx="64.5" cy="17.5" r="15" stroke="#ff6a21" stroke-width="5" />
  </symbol>


  <symbol id="presentation" viewBox="0 0 112 120" fill="none" xmlns="http://www.w3.org/2000/svg">
    <path
      d="M106.5 104.5H69.4999V117H109V104.5H106.5ZM106.5 104.5V97L109 90.5V76.5C109 74.5 107.8 70.2 103 69C98.1999 67.8 88.6666 65.5 84.4999 64.5V48C84.4999 46.1667 83.5999 42.5 79.9999 42.5C75.4999 42.5 74.4999 45.5 74.4999 48C74.4999 50 74.4999 66.8333 74.4999 75H71.9999L67.9999 70.5C67.1666 69.5 64.7999 67.9 61.9999 69.5C59.1999 71.1 59.8333 74.1667 60.4999 75.5L67.5 88.5C68.6666 90.6667 71.6999 95.4 74.4999 97C74.4999 103 74.4999 103.833 74.4999 103.5"
      stroke="#ff6a21" stroke-width="5" stroke-linecap="round" stroke-linejoin="round" />
    <path
      d="M61.5 112H7.5C4.73858 112 2.5 109.761 2.5 107V8C2.5 5.23858 4.73858 3 7.5 3H101.5C104.261 3 106.5 5.23858 106.5 8V59.5"
      stroke="#ff6a21" stroke-width="5" stroke-linecap="round" stroke-linejoin="round" />
    <line x1="59.5" y1="32.5" x2="94.5" y2="32.5" stroke="#ff6a21" stroke-width="5" stroke-linecap="round"
      stroke-linejoin="round" />
    <line x1="59.5" y1="44.5" x2="64.5" y2="44.5" stroke="#ff6a21" stroke-width="5" stroke-linecap="round"
      stroke-linejoin="round" />
    <line x1="59.5" y1="56.5" x2="64.5" y2="56.5" stroke="#ff6a21" stroke-width="5" stroke-linecap="round"
      stroke-linejoin="round" />
    <line x1="5.5" y1="17.5" x2="103.5" y2="17.5" stroke="#ff6a21" stroke-width="5" stroke-linecap="round"
      stroke-linejoin="round" />
    <path d="M36.5 32.5H17V57H44.5V47.5M47 32.5L32 49.5L24.5 42.5" stroke="#ff6a21" stroke-width="5"
      stroke-linecap="round" stroke-linejoin="round" />
    <path d="M44 71H17V95H44V71Z" stroke="#ff6a21" stroke-width="5" stroke-linecap="round" stroke-linejoin="round" />
  </symbol>

  <symbol id="production" viewBox="0 0 137 136" fill="none" xmlns="http://www.w3.org/2000/svg">
    <path
      d="M3.01302 30V106.5C3.01302 113.7 7.34638 117.5 9.51306 118.5C20.3464 122.667 44.1131 131.5 52.5131 133.5C59.7131 133.5 60.0131 127.5 60.0131 124.5V55C60.0131 50.2 62.3464 47.6667 63.5131 47C64.5131 46.6667 67.5131 45.7 71.5131 44.5C75.5131 44.1 76.8464 40.3333 77.0131 38.5V9.5C77.0131 4.5 74.5131 3 69.0131 3C64.6131 3 59.5131 3.66667 57.5131 4C44.8464 7.66667 17.813 15.5 11.013 17.5C4.21302 19.5 2.84635 26.6667 3.01302 30Z"
      stroke="#ff6a21" stroke-width="5" stroke-linecap="round" />
    <path
      d="M61 122C67.5 122.333 80.3686 122 81.5 122C83 122 93.5 122 93.5 110C93.5 100.4 93.5 91.6667 93.5 88.5M93.5 53.5V25.5C93.6667 21.8333 91.7 14.5 82.5 14.5C73.3 14.5 74 14.5 75.5 14.5M60 70C60.5 70 62.5 53.5 84 53.5C101.2 53.5 105.833 53.5 106 53.5C109.833 54 118.8 56.5 124 62.5C130.5 70 133.5 84 133.5 86.5C133.5 89 135 101.5 127.5 104.5C121.5 106.9 114.333 101.5 111.5 98.5C110.867 97.4877 109.581 95.2455 108.473 92.8241C107.814 91.3826 106.615 90.2125 105.107 89.7235C100.843 88.3408 93.1377 86.2993 82.2138 89.5929C80.5167 90.1046 79.3496 91.5979 78.6295 93.2177C76.2693 98.5267 69.8206 104.924 60.5 104.5M78 64.5V76M72 70.5H83.5"
      stroke="#ff6a21" stroke-width="5" stroke-linecap="round" stroke-linejoin="round" />
    <path d="M109.28 65H109.72" stroke="#ff6a21" stroke-width="5" stroke-linecap="round" />
    <path d="M104 70.5H104.44" stroke="#ff6a21" stroke-width="5" stroke-linecap="round" stroke-linejoin="round" />
    <path d="M114.56 70.5H115" stroke="#ff6a21" stroke-width="5" stroke-linecap="round" />
    <path d="M109.28 76H109.72" stroke="#ff6a21" stroke-width="5" stroke-linecap="round" />
  </symbol>

  <!--  pricing -->

  <symbol id="pricing-circles" viewBox="0 0 1196 529" fill="none">
    <ellipse cx="1067.5" cy="218" rx="7.5" ry="7" fill="white" fill-opacity="0.8" />

    <ellipse cx="735.5" cy="17" rx="5.5" ry="5" fill="white" fill-opacity="0.6" />

    <path
      d="M882 203.479C882 222.526 875.116 245.42 862.581 269.086C850.054 292.739 831.916 317.098 809.492 339.064C764.633 383.007 702.725 417.277 634.417 417.277C565.933 417.277 487.974 398.166 427.152 369.439C396.742 355.077 370.664 338.333 352.205 320.415C333.732 302.484 323 283.489 323 264.609C323 188.18 390.169 103.087 526.997 103.087C595.599 103.087 684.523 109.165 756.268 124.859C792.149 132.708 823.662 142.946 846.18 155.988C868.725 169.046 882 184.754 882 203.479Z"
      stroke="white" stroke-opacity="0.9" stroke-width="2" />

    <path
      d="M962.247 199.012C962.051 222.35 952.887 250.258 936.448 278.992C920.013 307.718 896.326 337.234 867.133 363.78C808.742 416.877 728.371 458.051 640.015 457.313C551.575 456.574 451.127 432.439 372.896 396.771C333.78 378.937 300.243 358.231 276.543 336.146C252.834 314.051 239.034 290.64 239.229 267.391C240.014 173.92 327.896 70.7799 504.724 72.2572C593.219 72.9965 707.884 81.3559 800.314 101.249C846.533 111.197 887.157 124.021 916.165 140.198C945.195 156.387 962.442 175.844 962.247 199.012Z"
      stroke="white" stroke-opacity="0.8" />

    <path
      d="M1072.91 187.367C1072.68 214.584 1060.85 247.122 1039.59 280.614C1018.33 314.097 987.684 348.495 949.902 379.424C874.334 441.284 770.267 489.231 655.791 488.274C541.241 487.317 411.12 459.062 309.759 417.381C259.079 396.54 215.614 372.354 184.887 346.565C154.144 320.762 136.24 293.434 136.467 266.314C137.383 157.316 251.103 37.0824 480.189 38.9963C594.789 39.9537 743.291 49.8246 863.015 73.1227C922.882 84.7727 975.52 99.7737 1013.12 118.678C1050.76 137.601 1073.14 160.333 1072.91 187.367Z"
      stroke="white" stroke-opacity="0.5" />

    <path
      d="M1195.09 175.864C1194.82 207.76 1179.75 245.878 1152.68 285.103C1125.61 324.319 1086.58 364.597 1038.44 400.805C942.163 473.221 809.534 529.32 663.58 528.101C517.56 526.881 351.672 493.663 222.432 444.74C157.811 420.278 102.379 391.9 63.1799 361.65C23.9577 331.384 1.09864 299.333 1.36559 267.542C2.43811 139.817 147.326 -0.987748 439.386 1.4522C585.453 2.67248 774.741 14.3644 927.366 41.7636C1003.68 55.464 1070.8 73.0862 1118.76 95.2739C1142.74 106.368 1161.9 118.59 1175.03 132.011C1188.15 145.425 1195.22 160.013 1195.09 175.864Z"
      stroke="white" stroke-opacity="0.3" />

    <ellipse cx="784.5" cy="102" rx="5.5" ry="5" fill="white" />

    <circle cx="1144.5" cy="107.5" r="5.5" fill="white" fill-opacity="0.2" />

    <circle cx="652" cy="219" r="6" fill="white" stroke="white" stroke-width="2" />

    <path
      d="M821 213.901C821 279.955 735.297 398 629.577 398C523.858 398 389 332.348 389 266.294C389 200.24 441.139 127 546.859 127C652.578 127 821 147.847 821 213.901Z"
      stroke="white" stroke-width="2" stroke-linecap="round" stroke-linejoin="round" stroke-dasharray="8 26" />

    <path
      d="M811 185C811 187.209 809.209 189 807 189C804.791 189 803 187.209 803 185C803 182.791 804.791 181 807 181C809.209 181 811 182.791 811 185Z"
      fill="white" stroke="white" stroke-width="2" />

    <path
      d="M771 227.35C771 253.424 755.959 289.967 731.511 320.022C707.068 350.071 673.426 373.389 636.409 373.389C599.171 373.389 556.743 360.342 523.633 340.716C507.082 330.906 492.901 319.476 482.869 307.255C472.833 295.03 467 282.078 467 269.196C467 216.864 503.604 158.943 577.817 158.943C615.206 158.943 663.655 163.102 702.725 173.827C722.266 179.192 739.387 186.179 751.602 195.058C763.806 203.928 771 214.595 771 227.35Z"
      stroke="white" stroke-width="2" />

    <path
      d="M729 237.269C729 256.84 718.115 284.311 700.401 306.916C682.688 329.52 658.353 347 631.63 347C604.679 347 573.951 337.195 549.966 322.438C537.979 315.063 527.717 306.475 520.462 297.301C513.204 288.123 509 278.419 509 268.782C509 249.128 515.631 228.418 528.952 212.637C542.254 196.88 562.256 186 589.122 186C616.23 186 651.35 189.13 679.66 197.197C693.82 201.232 706.203 206.483 715.025 213.139C723.835 219.785 729 227.754 729 237.269Z"
      stroke="white" stroke-width="2" />

    <path
      d="M687.5 246.594C687.5 259.715 680.718 278.264 669.616 293.562C658.5 308.879 643.383 320.5 626.965 320.5C610.181 320.5 590.974 313.895 575.965 303.923C560.876 293.899 550.5 280.804 550.5 268.054C550.5 254.814 554.64 240.888 562.913 230.305C571.155 219.762 583.52 212.5 600.158 212.5C617.198 212.5 639.248 214.627 656.986 220.085C665.861 222.816 673.548 226.349 678.989 230.781C684.403 235.193 687.5 240.408 687.5 246.594Z"
      stroke="white" stroke-width="3" />
  </symbol>


  <symbol id="leading-arrow" viewBox="0 0 116 115" fill="none">
    <path d="M42.1652 3.30163C38.4386 10.4235 29.4733 25.4312 23.4243 28.4868" stroke="white" stroke-width="2" />
    <path d="M77.1506 113.623C53.1323 101.055 12.3749 62.3628 41.492 8.1341" stroke="white" stroke-width="2"
      stroke-dasharray="2 4" />
    <path d="M42.6976 2.28516C40.1661 8.30439 37.2866 21.4854 46.0205 26.0554" stroke="white" stroke-width="2" />
  </symbol>
</svg>