<svg width="121" height="145" viewBox="0 0 121 145" fill="none" xmlns="http://www.w3.org/2000/svg">
<path fill-rule="evenodd" clip-rule="evenodd" d="M49.7821 0.123299C49.7821 0.191114 49.5455 0.248325 49.2566 0.250544C48.9676 0.25264 48.6231 0.335867 48.4911 0.435493C48.3591 0.534996 48.1505 0.616497 48.0275 0.616497C47.9044 0.616497 47.8038 0.671981 47.8038 0.739796C47.8038 0.807611 47.6647 0.863095 47.4947 0.863095C47.3247 0.863095 47.1856 0.91858 47.1856 0.986395C47.1856 1.05421 47.0743 1.10969 46.9383 1.10969C46.8023 1.10969 46.691 1.16518 46.691 1.23299C46.691 1.30081 46.6278 1.35629 46.5507 1.35629C46.4734 1.35629 46.2921 1.48107 46.1479 1.63372C46.0034 1.78636 45.7328 1.98993 45.5463 2.0861C45.3599 2.18227 45.2073 2.31112 45.2073 2.37228C45.2073 2.50433 44.8918 2.83588 44.7662 2.83588C44.6381 2.83588 44.3503 3.24068 44.3458 3.4271C44.3435 3.51502 44.2027 3.72561 44.0327 3.89515C43.8627 4.06469 43.7236 4.28403 43.7236 4.38267C43.7236 4.48131 43.668 4.56207 43.6 4.56207C43.532 4.56207 43.4763 4.67304 43.4763 4.80867C43.4763 4.9443 43.4207 5.05527 43.3527 5.05527C43.2847 5.05527 43.229 5.17019 43.229 5.31063C43.229 5.88298 42.9337 5.97915 41.1358 5.9921C38.747 6.00924 36.676 6.21059 36.676 6.42562C36.676 6.48567 36.4813 6.53486 36.2432 6.53486C36.0052 6.53486 35.8105 6.59035 35.8105 6.65816C35.8105 6.72598 35.6992 6.78146 35.5632 6.78146C35.4272 6.78146 35.3159 6.83091 35.3159 6.89145C35.3159 6.95186 35.1768 7.0362 35.0068 7.07874C34.8368 7.12128 34.6977 7.21054 34.6977 7.277C34.6977 7.34358 34.5864 7.39796 34.4504 7.39796C34.3144 7.39796 34.2032 7.45344 34.2032 7.52126C34.2032 7.58907 34.1439 7.64456 34.0716 7.64456C33.9081 7.64456 32.1012 9.45743 32.1012 9.62142C32.1012 9.68701 32.0456 9.74065 31.9776 9.74065C31.9096 9.74065 31.8539 9.85162 31.8539 9.98725C31.8539 10.1229 31.7983 10.2338 31.7303 10.2338C31.6623 10.2338 31.6067 10.3389 31.6067 10.4672C31.6067 10.5956 31.5372 10.7274 31.4521 10.76C31.3672 10.7926 31.2225 11.074 31.1306 11.3853C31.0252 11.7432 30.8754 11.9791 30.7236 12.0272C30.5916 12.069 25.2456 12.1151 18.8438 12.1298C9.89806 12.1502 7.19264 12.1906 7.15456 12.3048C7.12587 12.3906 6.87463 12.4532 6.55885 12.4532C6.25852 12.4532 6.01248 12.4949 6.01223 12.5457C6.01198 12.5965 5.7616 12.7408 5.45584 12.8662C5.15007 12.9916 4.89994 13.1442 4.89994 13.2052C4.89994 13.2664 4.78866 13.3163 4.65266 13.3163C4.51665 13.3163 4.40537 13.3718 4.40537 13.4396C4.40537 13.5074 4.34578 13.5629 4.27295 13.5629C4.2 13.5629 4.06288 13.6323 3.96805 13.717C3.61023 14.037 3.42477 14.1794 3.36554 14.1794C3.28567 14.1794 2.05617 15.4055 2.05617 15.4852C2.05617 15.5442 1.91336 15.7292 1.59251 16.086C1.50745 16.1806 1.43796 16.3173 1.43796 16.3901C1.43796 16.4627 1.38232 16.5221 1.31432 16.5221C1.24631 16.5221 1.19067 16.6331 1.19067 16.7687C1.19067 16.9043 1.1406 17.0153 1.07927 17.0153C1.01807 17.0153 0.865001 17.2647 0.739257 17.5697C0.613513 17.8746 0.468851 18.1243 0.417911 18.1245C0.36697 18.1248 0.325179 18.3701 0.325179 18.6696C0.325179 18.9956 0.263111 19.2348 0.170626 19.2655C-0.0568754 19.3411 -0.0568754 137.866 0.170626 137.941C0.255692 137.969 0.325179 138.182 0.325179 138.414C0.325179 138.646 0.373894 138.835 0.433366 138.835C0.492838 138.835 0.572464 138.988 0.610298 139.174C0.648133 139.361 0.794278 139.636 0.934859 139.785C1.07556 139.935 1.19067 140.171 1.19067 140.309C1.19067 140.448 1.23271 140.561 1.28415 140.561C1.33558 140.561 1.45144 140.728 1.54182 140.931C1.63208 141.135 1.78478 141.301 1.88109 141.301C1.97741 141.301 2.05617 141.358 2.05617 141.428C2.05617 141.568 3.4762 143.027 3.61196 143.027C3.65845 143.027 3.7863 143.126 3.89634 143.246C4.17688 143.553 4.73191 143.89 4.95744 143.89C5.06179 143.89 5.14723 143.946 5.14723 144.014C5.14723 144.081 5.2585 144.137 5.39451 144.137C5.53052 144.137 5.6418 144.192 5.6418 144.26C5.6418 144.328 5.76692 144.385 5.91999 144.387C6.07306 144.39 6.30625 144.473 6.43817 144.572C6.57022 144.672 6.86227 144.753 7.0873 144.753C7.31232 144.753 7.49643 144.809 7.49643 144.877C7.49643 144.959 20.4995 145 46.2583 145C72.017 145 85.0201 144.959 85.0201 144.877C85.0201 144.804 85.4556 144.753 86.0792 144.753C86.6617 144.753 87.2462 144.696 87.3781 144.625C87.51 144.555 87.9794 144.464 88.421 144.423C88.8625 144.382 89.2239 144.3 89.2239 144.242C89.2239 144.184 89.53 144.137 89.904 144.137C90.278 144.137 90.584 144.081 90.584 144.014C90.584 143.946 90.7754 143.89 91.0095 143.89C91.2435 143.89 91.4647 143.842 91.5013 143.783C91.5378 143.724 91.8448 143.64 92.1834 143.595C92.5222 143.55 92.8328 143.459 92.8736 143.394C92.9144 143.328 93.1114 143.274 93.3114 143.274C93.5115 143.274 93.6751 143.218 93.6751 143.151C93.6751 143.083 93.842 143.027 94.046 143.027C94.25 143.027 94.4169 142.977 94.4169 142.915C94.4169 142.853 94.6392 142.765 94.9109 142.719C95.1825 142.673 95.4361 142.585 95.4746 142.523C95.5129 142.461 95.6522 142.411 95.7843 142.411C95.9163 142.411 96.0243 142.355 96.0243 142.287C96.0243 142.22 96.219 142.164 96.457 142.164C96.695 142.164 96.8898 142.109 96.8898 142.041C96.8898 141.973 96.9983 141.918 97.1309 141.918C97.2635 141.918 97.4165 141.848 97.4709 141.763C97.5794 141.593 98.3313 141.301 98.6604 141.301C98.7746 141.301 98.868 141.257 98.868 141.203C98.868 141.149 99.1184 141.002 99.4244 140.876C99.7304 140.75 99.9808 140.6 99.9808 140.543C99.9808 140.485 100.064 140.438 100.166 140.438C100.268 140.438 100.352 140.382 100.352 140.315C100.352 140.247 100.463 140.191 100.599 140.191C100.735 140.191 100.846 140.136 100.846 140.068C100.846 140 100.925 139.945 101.022 139.945C101.242 139.945 101.957 139.545 101.958 139.421C101.959 139.37 102.043 139.328 102.145 139.328C102.247 139.328 102.33 139.273 102.33 139.205C102.33 139.137 102.441 139.082 102.577 139.082C102.713 139.082 102.825 139.025 102.825 138.956C102.825 138.887 103.019 138.738 103.257 138.625C103.495 138.512 103.69 138.385 103.69 138.342C103.69 138.299 103.885 138.188 104.123 138.095C104.361 138.002 104.556 137.853 104.556 137.764C104.556 137.675 104.639 137.602 104.741 137.602C104.843 137.602 104.927 137.547 104.927 137.479C104.927 137.411 105.014 137.355 105.12 137.355C105.227 137.355 105.498 137.161 105.722 136.924C105.947 136.687 106.194 136.492 106.273 136.492C106.351 136.492 106.717 136.187 107.085 135.814C107.453 135.441 107.788 135.136 107.829 135.136C107.955 135.136 108.233 134.882 109.698 133.427C110.474 132.657 111.109 131.975 111.109 131.912C111.109 131.848 111.415 131.498 111.789 131.134C112.163 130.77 112.469 130.423 112.469 130.364C112.469 130.304 112.663 130.05 112.901 129.798C113.139 129.546 113.334 129.298 113.334 129.247C113.334 129.196 113.473 129.004 113.643 128.821C113.813 128.638 113.952 128.431 113.952 128.36C113.952 128.289 114.008 128.231 114.076 128.231C114.144 128.231 114.2 128.146 114.2 128.041C114.2 127.936 114.339 127.701 114.509 127.518C114.679 127.335 114.818 127.116 114.818 127.03C114.818 126.945 114.874 126.875 114.942 126.875C115.01 126.875 115.065 126.792 115.065 126.69C115.065 126.588 115.121 126.505 115.189 126.505C115.257 126.505 115.312 126.418 115.312 126.311C115.312 126.205 115.382 126.04 115.467 125.946C115.834 125.538 115.931 125.398 115.931 125.277C115.931 125.207 115.986 125.149 116.054 125.149C116.122 125.149 116.178 125.07 116.178 124.974C116.178 124.754 116.579 124.041 116.703 124.04C116.754 124.039 116.796 123.9 116.796 123.731C116.796 123.561 116.852 123.423 116.92 123.423C116.988 123.423 117.043 123.312 117.043 123.176C117.043 123.04 117.099 122.929 117.167 122.929C117.235 122.929 117.292 122.832 117.295 122.714C117.297 122.595 117.38 122.39 117.48 122.259C117.58 122.127 117.662 121.919 117.662 121.796C117.662 121.674 117.717 121.573 117.785 121.573C117.853 121.573 117.909 121.434 117.909 121.265C117.909 121.095 117.965 120.957 118.033 120.957C118.101 120.957 118.156 120.818 118.156 120.648C118.156 120.479 118.209 120.34 118.274 120.34C118.339 120.34 118.429 120.146 118.474 119.909C118.518 119.671 118.604 119.477 118.665 119.477C118.725 119.477 118.774 119.283 118.774 119.045C118.774 118.808 118.83 118.614 118.898 118.614C118.966 118.614 119.022 118.447 119.022 118.244C119.022 118.041 119.075 117.874 119.14 117.874C119.205 117.874 119.294 117.679 119.339 117.441C119.384 117.203 119.47 116.978 119.53 116.941C119.591 116.904 119.64 116.655 119.64 116.387C119.64 116.12 119.696 115.901 119.764 115.901C119.832 115.901 119.887 115.679 119.887 115.408C119.887 115.137 119.943 114.915 120.011 114.915C120.079 114.915 120.137 114.735 120.14 114.514C120.143 114.294 120.226 113.892 120.324 113.62C120.421 113.349 120.503 112.891 120.504 112.603C120.505 112.315 120.561 112.079 120.629 112.079C120.701 112.079 120.753 111.668 120.753 111.093C120.753 110.517 120.804 110.106 120.876 110.106C120.956 110.106 121 108.606 121 105.852C121 103.099 120.956 101.599 120.876 101.599C120.804 101.599 120.753 101.188 120.753 100.612C120.753 100.037 120.701 99.6259 120.629 99.6259C120.561 99.6259 120.505 99.4128 120.505 99.1523C120.505 98.8917 120.423 98.4063 120.321 98.0734C120.22 97.7405 120.137 97.3156 120.136 97.129C120.135 96.9425 120.079 96.79 120.011 96.79C119.943 96.79 119.887 96.5403 119.887 96.2351C119.887 95.93 119.832 95.6803 119.764 95.6803C119.696 95.6803 119.64 95.4929 119.64 95.2638C119.64 95.0348 119.556 94.7783 119.454 94.6939C119.352 94.6094 119.269 94.4118 119.269 94.2546C119.269 94.0972 119.213 93.9344 119.145 93.8924C119.077 93.8505 119.022 93.6254 119.022 93.392C119.022 93.1586 118.966 92.9677 118.898 92.9677C118.83 92.9677 118.774 92.8012 118.774 92.5978C118.774 92.3943 118.719 92.2279 118.651 92.2279C118.583 92.2279 118.527 92.1275 118.527 92.0048C118.527 91.8822 118.445 91.6742 118.346 91.5425C118.246 91.4109 118.162 91.206 118.16 91.0874C118.158 90.9688 118.101 90.8716 118.033 90.8716C117.965 90.8716 117.909 90.7098 117.909 90.5119C117.909 90.3142 117.867 90.1339 117.816 90.1112C117.682 90.0517 117.291 89.2796 117.291 89.0738C117.291 88.9776 117.235 88.8988 117.167 88.8988C117.099 88.8988 117.043 88.7878 117.043 88.6522C117.043 88.5166 116.988 88.4056 116.92 88.4056C116.852 88.4056 116.796 88.2669 116.796 88.0974C116.796 87.9278 116.742 87.7891 116.675 87.7891C116.608 87.7891 116.519 87.6504 116.476 87.4809C116.433 87.3113 116.349 87.1726 116.288 87.1726C116.228 87.1726 116.178 87.0617 116.178 86.926C116.178 86.7904 116.122 86.6794 116.054 86.6794C115.986 86.6794 115.931 86.5685 115.931 86.4328C115.931 86.2972 115.875 86.1862 115.807 86.1862C115.739 86.1862 115.683 86.103 115.683 86.0013C115.683 85.8996 115.629 85.8163 115.562 85.8163C115.495 85.8163 115.406 85.6776 115.363 85.5081C115.321 85.3385 115.236 85.1998 115.175 85.1998C115.115 85.1998 115.065 85.0889 115.065 84.9532C115.065 84.8176 115.022 84.7066 114.968 84.7066C114.915 84.7066 114.766 84.5264 114.637 84.3059C114.508 84.0855 114.309 83.822 114.195 83.7202C114.081 83.6185 113.948 83.4104 113.9 83.2579C113.852 83.1053 113.76 82.9804 113.697 82.9804C113.633 82.9804 113.581 82.8972 113.581 82.7955C113.581 82.6938 113.526 82.6105 113.458 82.6105C113.39 82.6105 113.334 82.5273 113.334 82.4256C113.334 82.3239 113.279 82.2406 113.211 82.2406C113.143 82.2406 113.087 82.1827 113.087 82.1119C113.087 82.0411 112.948 81.8336 112.778 81.6509C112.608 81.4681 112.469 81.2608 112.469 81.1903C112.469 81.1197 112.357 80.9821 112.221 80.8844C112.085 80.7866 111.974 80.6357 111.974 80.5489C111.974 80.4622 111.915 80.3912 111.842 80.3912C111.67 80.3912 111.356 80.0775 111.356 79.9067C111.356 79.8341 111.3 79.7747 111.232 79.7747C111.164 79.7747 111.109 79.7048 111.109 79.6193C111.109 79.534 110.915 79.2981 110.679 79.0953C110.442 78.8926 110.247 78.681 110.246 78.6254C110.243 78.5044 109.923 78.1718 109.81 78.1718C109.686 78.1718 109.378 77.8333 109.378 77.6977C109.378 77.6306 109.316 77.5555 109.242 77.5306C109.143 77.4979 109.107 69.7795 109.111 49.6239C109.115 25.5791 109.09 21.5596 108.93 20.2827C108.828 19.469 108.692 18.7847 108.628 18.7621C108.564 18.7394 108.512 18.5869 108.512 18.423C108.512 18.259 108.456 18.125 108.388 18.125C108.32 18.125 108.265 17.9863 108.265 17.8168C108.265 17.6472 108.209 17.5085 108.141 17.5085C108.073 17.5085 108.018 17.4015 108.018 17.2707C108.018 17.14 107.934 16.9497 107.832 16.848C107.73 16.7463 107.647 16.6036 107.647 16.5309C107.647 16.4582 107.591 16.3988 107.523 16.3988C107.455 16.3988 107.399 16.3089 107.399 16.1991C107.399 16.0892 107.149 15.7601 106.843 15.4677C106.537 15.1753 106.287 14.9006 106.287 14.8572C106.287 14.7594 105.959 14.426 105.863 14.426C105.824 14.426 105.586 14.2318 105.334 13.9945C105.081 13.7571 104.803 13.5629 104.715 13.5629C104.627 13.5629 104.556 13.5074 104.556 13.4396C104.556 13.3718 104.444 13.3163 104.308 13.3163C104.172 13.3163 104.061 13.2669 104.061 13.2063C104.061 13.1459 103.922 13.0616 103.752 13.0191C103.582 12.9765 103.443 12.8872 103.443 12.8208C103.443 12.7542 103.304 12.6998 103.134 12.6998C102.964 12.6998 102.825 12.6443 102.825 12.5765C102.825 12.5087 102.634 12.4532 102.402 12.4532C102.17 12.4532 101.957 12.3843 101.929 12.3001C101.888 12.1798 99.3705 12.145 90.1412 12.1371C77.3351 12.1261 77.8489 12.1553 77.8489 11.4371C77.8489 11.2501 77.7993 11.0969 77.7386 11.0969C77.678 11.0969 77.5934 10.9582 77.5508 10.7887C77.5081 10.6192 77.4186 10.4804 77.3519 10.4804C77.2852 10.4804 77.2307 10.3972 77.2307 10.2955C77.2307 10.1938 77.175 10.1105 77.107 10.1105C77.039 10.1105 76.9834 10.0313 76.9834 9.93447C76.9834 9.69983 74.9288 7.64456 74.6943 7.64456C74.5932 7.64456 74.5105 7.59512 74.5105 7.53458C74.5105 7.47416 74.3714 7.38982 74.2014 7.34728C74.0314 7.30475 73.8923 7.21548 73.8923 7.14902C73.8923 7.08244 73.781 7.02806 73.645 7.02806C73.509 7.02806 73.3977 6.97258 73.3977 6.90476C73.3977 6.83695 73.2586 6.78146 73.0886 6.78146C72.9186 6.78146 72.7795 6.72598 72.7795 6.65816C72.7795 6.59035 72.5848 6.53486 72.3468 6.53486C72.1088 6.53486 71.914 6.49085 71.914 6.43709C71.914 6.38321 71.2386 6.23648 70.413 6.11084C69.277 5.93797 68.5553 5.90037 67.4456 5.95597L65.9792 6.02946L65.7937 5.67177C65.6917 5.47511 65.6083 5.2126 65.6083 5.08856C65.6083 4.96465 65.497 4.78315 65.361 4.68537C65.225 4.5876 65.1137 4.42805 65.1137 4.33077C65.1137 4.15013 64.5233 3.30085 64.346 3.22637C64.2922 3.20369 64.2482 3.10665 64.2482 3.0106C64.2482 2.91443 64.1901 2.83588 64.119 2.83588C63.9511 2.83588 63.3827 2.26908 63.3827 2.10164C63.3827 2.03074 63.2714 1.97279 63.1354 1.97279C62.9994 1.97279 62.8882 1.9173 62.8882 1.84949C62.8882 1.78168 62.8286 1.72619 62.7557 1.72619C62.6828 1.72619 62.5457 1.65677 62.4508 1.57207C62.0108 1.17849 61.8926 1.10969 61.6569 1.10969C61.5181 1.10969 61.4044 1.05421 61.4044 0.986395C61.4044 0.91858 61.3202 0.863095 61.2173 0.863095C61.0291 0.863095 60.9268 0.82105 60.2108 0.449179C59.9963 0.337717 59.6485 0.246599 59.438 0.246599C59.2275 0.246599 59.0552 0.191114 59.0552 0.123299C59.0552 0.0432781 57.4272 0 54.4187 0C51.4101 0 49.7821 0.0432781 49.7821 0.123299ZM58.3719 6.12255C58.5059 6.21367 58.7146 6.28827 58.8355 6.28827C58.9563 6.28827 59.0552 6.34375 59.0552 6.41156C59.0552 6.47938 59.1131 6.53486 59.1838 6.53486C59.4087 6.53486 60.2917 7.52151 60.2917 7.77279C60.2917 7.90571 60.3473 8.01446 60.4153 8.01446C60.488 8.01446 60.5389 8.446 60.5389 9.0625C60.5389 9.679 60.5899 10.1105 60.6626 10.1105C60.7306 10.1105 60.7862 10.2193 60.7862 10.3522C60.7862 10.6035 61.6692 11.5901 61.8941 11.5901C61.9648 11.5901 62.0227 11.6361 62.0227 11.6922C62.0227 11.9523 63.5401 12.0918 67.1402 12.163C69.2557 12.2048 71.0053 12.2871 71.0279 12.3461C71.0506 12.405 71.1241 12.4532 71.1913 12.4532C71.2585 12.4532 71.3862 12.5226 71.475 12.6074C71.5638 12.6922 71.7545 12.8431 71.8988 12.9429C72.0432 13.0426 72.1613 13.2183 72.1613 13.3332C72.1613 13.4483 72.217 13.5608 72.285 13.5835C72.3531 13.6061 72.4756 13.9428 72.5575 14.3317C72.6753 14.8923 72.6732 15.1986 72.5472 15.8113C72.4598 16.2362 72.3371 16.6023 72.2748 16.6248C72.2124 16.6475 72.1613 16.719 72.1613 16.7839C72.1613 17.0004 71.1655 17.8784 70.92 17.8784C70.7867 17.8784 70.6776 17.9339 70.6776 18.0017C70.6776 18.0833 65.1755 18.125 54.4187 18.125C43.6618 18.125 38.1597 18.0833 38.1597 18.0017C38.1597 17.9339 38.0206 17.8784 37.8506 17.8784C37.6582 17.8784 37.5415 17.8085 37.5415 17.6935C37.5415 17.5917 37.4834 17.5085 37.4123 17.5085C37.1869 17.5085 36.676 16.9135 36.676 16.651C36.676 16.5122 36.6204 16.3988 36.5524 16.3988C36.4778 16.3988 36.4287 15.885 36.4287 15.1042C36.4287 14.3233 36.4778 13.8095 36.5524 13.8095C36.6204 13.8095 36.676 13.7198 36.676 13.61C36.676 13.3565 37.5738 12.4532 37.8257 12.4532C37.9301 12.4532 38.0387 12.3839 38.0671 12.2991C38.1072 12.1798 38.9248 12.1509 41.694 12.1714C45.5487 12.1997 46.6344 12.0817 47.0642 11.5875C47.1809 11.4534 47.3357 11.3435 47.408 11.3435C47.5832 11.3435 48.0511 10.6792 48.0511 10.4306C48.0511 10.3224 48.1067 10.2338 48.1747 10.2338C48.2427 10.2338 48.3003 9.9981 48.3028 9.70982C48.3084 9.03944 48.6217 7.72199 48.7886 7.66651C48.859 7.6432 48.9166 7.51768 48.9166 7.38773C48.9166 7.25764 48.9722 7.15136 49.0402 7.15136C49.1082 7.15136 49.1639 7.09193 49.1639 7.01931C49.1639 6.85273 49.4768 6.53486 49.6408 6.53486C49.7088 6.53486 49.8582 6.44128 49.9729 6.32698C50.1466 6.15375 50.5545 6.1064 52.4236 6.04228C56.2355 5.91159 58.0984 5.93674 58.3719 6.12255ZM30.9885 18.4332C30.9885 18.6028 31.0441 18.7415 31.1121 18.7415C31.1801 18.7415 31.2357 18.8525 31.2357 18.9881C31.2357 19.1237 31.2903 19.2347 31.357 19.2347C31.4237 19.2347 31.5132 19.3734 31.5558 19.5429C31.5985 19.7125 31.6831 19.8512 31.7437 19.8512C31.8044 19.8512 31.8539 19.9369 31.8539 20.0414C31.8539 20.1461 32.16 20.5394 32.534 20.9154C32.908 21.2913 33.214 21.6496 33.214 21.7115C33.214 21.7733 33.2771 21.824 33.3541 21.824C33.4311 21.824 33.5841 21.925 33.6941 22.0485C33.804 22.1721 34.0748 22.3782 34.2959 22.5067C34.517 22.6352 34.6977 22.7837 34.6977 22.837C34.6977 22.8901 34.809 22.9337 34.945 22.9337C35.081 22.9337 35.1923 22.9831 35.1923 23.0437C35.1923 23.1041 35.3314 23.1884 35.5014 23.2309C35.6714 23.2735 35.8105 23.3628 35.8105 23.4292C35.8105 23.4958 35.9496 23.5502 36.1196 23.5502C36.2896 23.5502 36.4287 23.6057 36.4287 23.6735C36.4287 23.7413 36.6745 23.7968 36.9748 23.7968C37.3017 23.7968 37.5416 23.8587 37.5724 23.9509C37.6466 24.1728 71.8107 24.1678 71.8849 23.9458C71.9122 23.8638 72.1247 23.7968 72.357 23.7968C72.5894 23.7968 72.7795 23.7413 72.7795 23.6735C72.7795 23.6057 72.8802 23.5502 73.0032 23.5502C73.1262 23.5502 73.3348 23.4687 73.4669 23.3692C73.5988 23.2695 73.8043 23.1863 73.9232 23.1842C74.0422 23.182 74.1396 23.1248 74.1396 23.057C74.1396 22.9892 74.2231 22.9337 74.3251 22.9337C74.4271 22.9337 74.5105 22.8819 74.5105 22.8186C74.5105 22.7554 74.6199 22.6691 74.7537 22.6267C75.0481 22.5336 76.7361 20.9145 76.7361 20.7253C76.7361 20.6514 76.7777 20.5904 76.8288 20.5896C76.8799 20.5888 77.0279 20.3668 77.1578 20.0964C77.2878 19.8259 77.4407 19.6046 77.4978 19.6046C77.5548 19.6046 77.6016 19.4659 77.6016 19.2963C77.6016 19.1268 77.6572 18.9881 77.7252 18.9881C77.7932 18.9881 77.8489 18.8732 77.8489 18.7327C77.8489 18.0994 77.3554 18.125 89.5243 18.125C96.9899 18.125 100.846 18.167 100.846 18.2483C100.846 18.3161 100.983 18.3716 101.15 18.3716C101.317 18.3716 101.592 18.5103 101.762 18.6798C101.932 18.8494 102.11 18.9881 102.156 18.9881C102.296 18.9881 102.569 19.405 102.573 19.6252C102.576 19.7381 102.642 19.8523 102.722 19.8787C102.832 19.9153 102.867 26.2345 102.867 46.1504C102.868 60.5735 102.834 72.408 102.793 72.4496C102.751 72.491 102.561 72.3806 102.37 72.2042C102.18 72.0279 101.953 71.8835 101.868 71.8835C101.782 71.8835 101.712 71.828 101.712 71.7602C101.712 71.6924 101.605 71.6369 101.475 71.6369C101.344 71.6369 101.219 71.5954 101.197 71.5444C101.142 71.4213 99.8329 70.7738 99.6388 70.7738C99.5549 70.7738 99.4863 70.7183 99.4863 70.6505C99.4863 70.5827 99.3472 70.5272 99.1771 70.5272C99.0071 70.5272 98.868 70.4717 98.868 70.4039C98.868 70.3361 98.7706 70.2789 98.6517 70.2767C98.5327 70.2746 98.3272 70.1913 98.1953 70.0917C98.0633 69.9922 97.8547 69.9107 97.7316 69.9107C97.6086 69.9107 97.508 69.8552 97.508 69.7874C97.508 69.7196 97.3689 69.6641 97.1989 69.6641C97.0289 69.6641 96.8898 69.6086 96.8898 69.5408C96.8898 69.473 96.7745 69.4175 96.6337 69.4175C96.4928 69.4175 96.2941 69.3343 96.1921 69.2326C96.09 69.1308 95.8993 69.0476 95.7682 69.0476C95.637 69.0476 95.5297 68.9921 95.5297 68.9243C95.5297 68.8565 95.335 68.801 95.097 68.801C94.8589 68.801 94.6642 68.7455 94.6642 68.6777C94.6642 68.6099 94.5743 68.5544 94.4644 68.5544C94.1882 68.5544 93.0043 68.1437 92.9539 68.0304C92.9311 67.9795 92.7225 67.9379 92.4902 67.9379C92.2579 67.9379 92.0677 67.8824 92.0677 67.8146C92.0677 67.7468 91.8173 67.6913 91.5113 67.6913C91.2053 67.6913 90.9549 67.6358 90.9549 67.568C90.9549 67.5002 90.7307 67.4447 90.4564 67.4447C90.1822 67.4447 89.7581 67.3615 89.514 67.2598C89.2698 67.1581 88.8544 67.0748 88.5907 67.0748C88.3269 67.0748 88.1112 67.0193 88.1112 66.9515C88.1112 66.8792 87.6819 66.8282 87.0705 66.8282C86.4727 66.8282 86.012 66.7747 85.9879 66.7025C85.9298 66.5286 77.5576 66.5284 77.4995 66.7022C77.4752 66.7747 77.0158 66.8282 76.4167 66.8282C75.8053 66.8282 75.376 66.8792 75.376 66.9515C75.376 67.0193 75.2074 67.0748 75.0011 67.0748C74.7949 67.0748 74.4264 67.1581 74.1824 67.2598C73.9382 67.3615 73.4949 67.4447 73.1972 67.4447C72.8995 67.4447 72.6559 67.5002 72.6559 67.568C72.6559 67.6358 72.4333 67.6913 72.1613 67.6913C71.8893 67.6913 71.6667 67.7468 71.6667 67.8146C71.6667 67.8824 71.5138 67.9398 71.3267 67.942C70.9838 67.9461 69.7518 68.3268 69.6037 68.4747C69.5596 68.5185 69.366 68.5544 69.1733 68.5544C68.9806 68.5544 68.823 68.6099 68.823 68.6777C68.823 68.7455 68.6839 68.801 68.5139 68.801C68.3439 68.801 68.2048 68.8565 68.2048 68.9243C68.2048 68.9921 68.0696 69.0476 67.9044 69.0476C67.7394 69.0476 67.5208 69.1308 67.4188 69.2326C67.3168 69.3343 67.1181 69.4175 66.9771 69.4175C66.8363 69.4175 66.7211 69.473 66.7211 69.5408C66.7211 69.6086 66.582 69.6641 66.412 69.6641C66.2419 69.6641 66.1028 69.7196 66.1028 69.7874C66.1028 69.8552 66.0212 69.9107 65.9216 69.9107C65.698 69.9107 64.8198 70.308 64.7634 70.4347C64.7407 70.4857 64.6156 70.5272 64.4852 70.5272C64.3549 70.5272 64.2482 70.5827 64.2482 70.6505C64.2482 70.7183 64.1636 70.7738 64.0603 70.7738C63.9569 70.7738 63.652 70.9125 63.3827 71.0821C63.1134 71.2516 62.8363 71.3903 62.767 71.3903C62.6976 71.3903 62.6403 71.4319 62.6395 71.4828C62.6386 71.5337 62.4161 71.6813 62.1449 71.8109C61.8737 71.9405 61.6517 72.093 61.6517 72.15C61.6517 72.2068 61.5683 72.2534 61.4663 72.2534C61.3643 72.2534 61.2808 72.3089 61.2808 72.3767C61.2808 72.4445 61.195 72.5 61.0901 72.5C60.9117 72.5 60.7868 72.5788 60.3581 72.9624C60.2632 73.0472 60.1261 73.1165 60.0532 73.1165C59.9803 73.1165 59.9207 73.172 59.9207 73.2398C59.9207 73.3076 59.8348 73.3631 59.7297 73.3631C59.6246 73.3631 59.3995 73.5018 59.2295 73.6713C59.0594 73.8409 58.8517 73.9796 58.7678 73.9796C58.6839 73.9796 58.5351 74.0906 58.437 74.2262C58.339 74.3618 58.2129 74.4728 58.1569 74.4728C58.1007 74.4728 57.9209 74.5976 57.7574 74.7502C57.3062 75.1708 57.0954 75.3359 57.0093 75.3359C56.9664 75.3359 56.688 75.5856 56.3905 75.8907C56.0931 76.1959 55.7954 76.4456 55.729 76.4456C55.5736 76.4456 52.3786 79.6263 52.3786 79.7811C52.3786 79.8454 52.0447 80.2309 51.6367 80.6378C51.2287 81.0446 50.8949 81.4197 50.8949 81.4713C50.8949 81.5228 50.7558 81.7147 50.5857 81.8975C50.4157 82.0802 50.2766 82.2877 50.2766 82.3585C50.2766 82.4293 50.221 82.4872 50.153 82.4872C50.085 82.4872 50.0294 82.571 50.0294 82.6733C50.0294 82.7756 49.8642 83.0319 49.6621 83.2426C49.4602 83.4533 49.2618 83.7302 49.2211 83.8578C49.1804 83.9856 49.0954 84.0901 49.0319 84.0901C48.9685 84.0901 48.9166 84.148 48.9166 84.2186C48.9166 84.3396 48.8199 84.479 48.4529 84.887C48.3679 84.9816 48.2984 85.1461 48.2984 85.2527C48.2984 85.3593 48.2427 85.4464 48.1747 85.4464C48.1067 85.4464 48.0511 85.5297 48.0511 85.6314C48.0511 85.7331 48.0081 85.8163 47.9555 85.8163C47.903 85.8163 47.7552 86.0105 47.627 86.2479C47.4988 86.4852 47.3471 86.6794 47.2898 86.6794C47.2324 86.6794 47.1856 86.8181 47.1856 86.9877C47.1856 87.1572 47.1299 87.2959 47.0619 87.2959C46.9939 87.2959 46.9383 87.4069 46.9383 87.5425C46.9383 87.6781 46.8838 87.7891 46.817 87.7891C46.7504 87.7891 46.6609 87.9278 46.6182 88.0974C46.5755 88.2669 46.491 88.4056 46.4304 88.4056C46.3697 88.4056 46.3201 88.5166 46.3201 88.6522C46.3201 88.7878 46.2645 88.8988 46.1964 88.8988C46.1284 88.8988 46.0728 89.0375 46.0728 89.2071C46.0728 89.3766 46.0172 89.5153 45.9492 89.5153C45.8812 89.5153 45.8255 89.6195 45.8255 89.7469C45.8255 89.8741 45.7421 90.0473 45.6401 90.1318C45.5381 90.2163 45.4546 90.3618 45.4546 90.4551C45.4546 90.5984 43.4261 90.625 32.534 90.625C24.0027 90.625 19.6134 90.6669 19.6134 90.7483C19.6134 90.8161 19.4226 90.8716 19.1894 90.8716C18.9563 90.8716 18.6821 90.9548 18.5801 91.0566C18.4781 91.1583 18.2794 91.2415 18.1384 91.2415C17.9976 91.2415 17.8824 91.297 17.8824 91.3648C17.8824 91.4326 17.7155 91.4881 17.5115 91.4881C17.3074 91.4881 17.1405 91.5436 17.1405 91.6114C17.1405 91.6792 17.0825 91.7347 17.0117 91.7347C16.8904 91.7347 16.7506 91.8311 16.3414 92.1971C16.2466 92.2819 16.1095 92.3512 16.0365 92.3512C15.9637 92.3512 15.9041 92.4067 15.9041 92.4745C15.9041 92.5423 15.8176 92.5978 15.7118 92.5978C15.481 92.5978 13.9258 94.1729 13.9258 94.4066C13.9258 94.4968 13.8702 94.5706 13.8022 94.5706C13.7342 94.5706 13.6785 94.6284 13.6785 94.6991C13.6785 94.82 13.5819 94.9595 13.2149 95.3675C13.1299 95.462 13.0603 95.6233 13.0603 95.7259C13.0603 95.8284 13.0047 95.9466 12.9367 95.9885C12.8687 96.0304 12.813 96.2001 12.813 96.3657C12.813 96.5313 12.7574 96.6667 12.6894 96.6667C12.6214 96.6667 12.5658 96.8286 12.5658 97.0263C12.5658 97.2241 12.5149 97.4044 12.4529 97.4271C12.3908 97.4496 12.2555 98.0784 12.1523 98.8244C12.0074 99.8705 11.9635 101.475 11.9602 105.838C11.9578 108.949 12.0033 111.584 12.0614 111.694C12.1194 111.804 12.1948 112.357 12.2291 112.922C12.2632 113.488 12.3528 114.012 12.4284 114.088C12.5039 114.163 12.5658 114.38 12.5658 114.57C12.5658 114.76 12.6214 114.915 12.6894 114.915C12.7574 114.915 12.813 115.054 12.813 115.223C12.813 115.393 12.8626 115.531 12.9233 115.531C12.9839 115.531 13.0685 115.67 13.1111 115.84C13.1538 116.009 13.2433 116.148 13.31 116.148C13.3767 116.148 13.4313 116.259 13.4313 116.395C13.4313 116.53 13.4869 116.641 13.5549 116.641C13.6229 116.641 13.6785 116.695 13.6785 116.76C13.6785 116.873 14.2943 117.613 14.6426 117.918C14.7307 117.996 15.0758 118.323 15.4094 118.645C15.743 118.967 16.0742 119.23 16.1455 119.23C16.2168 119.23 16.275 119.286 16.275 119.354C16.275 119.422 16.3863 119.477 16.5223 119.477C16.6583 119.477 16.7696 119.531 16.7696 119.598C16.7696 119.664 16.9087 119.754 17.0787 119.796C17.2487 119.839 17.3878 119.923 17.3878 119.984C17.3878 120.044 17.5269 120.094 17.6969 120.094C17.8669 120.094 18.006 120.149 18.006 120.217C18.006 120.285 18.1618 120.34 18.3522 120.34C18.5426 120.34 18.761 120.403 18.8376 120.479C19.1512 120.792 21.7033 120.864 33.2944 120.889C43.4902 120.911 45.3316 120.941 45.4731 121.09C45.6872 121.314 46.0728 122.143 46.0728 122.379C46.0728 122.478 46.1284 122.56 46.1964 122.56C46.2645 122.56 46.3201 122.698 46.3201 122.868C46.3201 123.037 46.3746 123.176 46.4414 123.176C46.508 123.176 46.5975 123.315 46.6402 123.484C46.6829 123.654 46.7674 123.793 46.828 123.793C46.8887 123.793 46.9383 123.903 46.9383 124.039C46.9383 124.175 46.9939 124.286 47.0619 124.286C47.1299 124.286 47.1856 124.399 47.1856 124.538C47.1856 124.677 47.3247 124.929 47.4947 125.098C47.6647 125.268 47.8038 125.487 47.8038 125.586C47.8038 125.685 47.8594 125.765 47.9274 125.765C47.9954 125.765 48.0511 125.876 48.0511 126.012C48.0511 126.148 48.1067 126.259 48.1747 126.259C48.2427 126.259 48.2984 126.316 48.2984 126.387C48.2984 126.508 48.3951 126.647 48.762 127.055C48.847 127.15 48.9166 127.287 48.9166 127.359C48.9166 127.432 48.9722 127.492 49.0402 127.492C49.1082 127.492 49.1639 127.577 49.1639 127.682C49.1639 127.787 49.303 128.022 49.473 128.205C49.643 128.387 49.7821 128.595 49.7821 128.665C49.7821 128.736 49.8934 128.873 50.0294 128.971C50.1654 129.069 50.2766 129.194 50.2766 129.25C50.2766 129.358 50.4193 129.545 50.8639 130.02C51.017 130.183 51.1421 130.348 51.1421 130.387C51.1421 130.452 51.406 130.746 52.4713 131.869C52.6924 132.101 52.8731 132.325 52.8731 132.367C52.8731 132.491 53.2175 132.793 53.3589 132.793C53.4317 132.793 53.4915 132.835 53.4915 132.886C53.4917 133.011 54.0545 133.656 54.1637 133.656C54.2728 133.656 54.6041 133.981 54.6041 134.088C54.6041 134.189 54.9329 134.52 55.0333 134.52C55.126 134.52 55.3525 134.704 55.905 135.229C56.137 135.449 56.3591 135.629 56.3984 135.629C56.4377 135.629 56.6039 135.754 56.7675 135.907C57.2114 136.321 57.4291 136.492 57.5098 136.492C57.5498 136.492 57.7324 136.631 57.9156 136.801C58.099 136.97 58.3068 137.109 58.3776 137.109C58.4483 137.109 58.5863 137.22 58.6843 137.355C58.7824 137.491 58.9537 137.602 59.0653 137.602C59.1767 137.602 59.3724 137.741 59.5 137.91C59.6277 138.08 59.8302 138.219 59.95 138.219C60.07 138.219 60.168 138.274 60.168 138.342C60.168 138.41 60.2276 138.465 60.3004 138.465C60.4899 138.465 60.8315 138.831 60.7334 138.929C60.6881 138.974 49.039 139.01 34.8465 139.01C13.7159 139.009 8.90199 138.979 8.26919 138.844C7.84423 138.753 7.49643 138.63 7.49643 138.572C7.49643 138.513 7.43857 138.465 7.36784 138.465C7.14294 138.465 6.26001 137.478 6.26001 137.227C6.26001 137.094 6.20437 136.986 6.13636 136.986C6.05414 136.986 6.01272 117.422 6.01272 78.5417C6.01272 39.6613 6.05414 20.0978 6.13636 20.0978C6.20437 20.0978 6.26001 20.0126 6.26001 19.9085C6.26001 19.7211 6.57319 19.1658 6.81479 18.9248C7.05639 18.6839 7.61327 18.3716 7.80121 18.3716C7.90556 18.3716 7.991 18.3161 7.991 18.2483C7.991 18.167 11.9064 18.125 19.4897 18.125H30.9885V18.4332ZM20.1388 30.3057C19.5778 30.3255 19.1188 30.3949 19.1188 30.4599C19.1188 30.525 18.9797 30.5782 18.8097 30.5782C18.6397 30.5782 18.5006 30.6337 18.5006 30.7015C18.5006 30.7693 18.3059 30.8248 18.0678 30.8248C17.8298 30.8248 17.6351 30.8792 17.6351 30.9458C17.6351 31.0122 17.496 31.1015 17.326 31.1441C17.156 31.1866 17.0169 31.2709 17.0169 31.3313C17.0169 31.3919 16.9056 31.4413 16.7696 31.4413C16.6336 31.4413 16.5223 31.4968 16.5223 31.5646C16.5223 31.6324 16.4505 31.6879 16.3626 31.6879C16.2748 31.6879 15.9965 31.8821 15.7441 32.1195C15.4918 32.3568 15.2536 32.551 15.2149 32.551C15.118 32.551 14.7913 32.8849 14.7913 32.984C14.7913 33.0284 14.5966 33.2533 14.3586 33.4839C14.1206 33.7144 13.9258 33.9595 13.9258 34.0284C13.9258 34.0974 13.8702 34.1539 13.8022 34.1539C13.7342 34.1539 13.6785 34.2371 13.6785 34.3389C13.6785 34.4406 13.6229 34.5238 13.5549 34.5238C13.4869 34.5238 13.4313 34.607 13.4313 34.7088C13.4313 34.8105 13.3895 34.8941 13.3385 34.8944C13.1813 34.8958 12.813 35.6366 12.813 35.9517C12.813 36.1157 12.7574 36.25 12.6894 36.25C12.6214 36.25 12.5658 36.384 12.5658 36.548C12.5658 36.7119 12.5146 36.8644 12.452 36.8871C12.161 36.9921 12.0402 39.1268 12.0033 44.8193C11.973 49.4997 12.0036 51.0472 12.1491 52.2173C12.2503 53.031 12.3855 53.7154 12.4495 53.7379C12.5135 53.7606 12.5658 53.9131 12.5658 54.077C12.5658 54.241 12.6214 54.375 12.6894 54.375C12.7574 54.375 12.813 54.5223 12.813 54.7025C12.813 54.8825 12.9521 55.2117 13.1222 55.434C13.2922 55.6563 13.4313 55.8974 13.4313 55.9696C13.4313 56.042 13.4869 56.1012 13.5549 56.1012C13.6229 56.1012 13.6785 56.1911 13.6785 56.3009C13.6785 56.4108 13.9289 56.7399 14.2349 57.0323C14.5409 57.3247 14.7913 57.5994 14.7913 57.6428C14.7913 57.7406 15.119 58.074 15.2149 58.074C15.2536 58.074 15.4918 58.2682 15.7441 58.5055C15.9965 58.7429 16.2748 58.9371 16.3626 58.9371C16.4505 58.9371 16.5223 58.9926 16.5223 59.0604C16.5223 59.1282 16.6336 59.1837 16.7696 59.1837C16.9056 59.1837 17.0169 59.227 17.0169 59.2798C17.0169 59.3327 17.2951 59.4837 17.6351 59.6152C17.9751 59.7468 18.2533 59.8977 18.2533 59.9506C18.2533 60.0035 18.4433 60.0468 18.6758 60.0468C18.9081 60.0468 19.1214 60.1162 19.1497 60.2009C19.2255 60.4276 89.6118 60.4276 89.6876 60.2009C89.7172 60.1126 89.9459 60.0468 90.2233 60.0468C90.4897 60.0468 90.7077 59.9913 90.7077 59.9235C90.7077 59.8557 90.8083 59.8002 90.9313 59.8002C91.0543 59.8002 91.2629 59.7187 91.395 59.6192C91.5269 59.5195 91.7324 59.4363 91.8513 59.4342C91.9703 59.432 92.0677 59.3748 92.0677 59.307C92.0677 59.2392 92.1512 59.1837 92.2532 59.1837C92.3552 59.1837 92.4386 59.1418 92.4386 59.0905C92.4386 59.0392 92.6056 58.9236 92.8096 58.8335C93.0136 58.7435 93.1805 58.5912 93.1805 58.4952C93.1805 58.3991 93.2386 58.3206 93.3097 58.3206C93.5366 58.3206 94.9115 56.988 94.9115 56.7682C94.9115 56.7224 95.0103 56.5953 95.1311 56.4855C95.4391 56.2058 95.777 55.6523 95.777 55.4274C95.777 55.3233 95.8326 55.2381 95.9006 55.2381C95.9686 55.2381 96.0243 55.1271 96.0243 54.9915C96.0243 54.8559 96.0799 54.7449 96.1479 54.7449C96.2159 54.7449 96.2733 54.6201 96.2755 54.4675C96.2776 54.3148 96.3611 54.0823 96.461 53.9507C96.5608 53.819 96.6425 53.4723 96.6425 53.1801C96.6425 52.8879 96.6981 52.6488 96.7661 52.6488C96.8472 52.6488 96.8898 50.0801 96.8898 45.1892C96.8898 40.2983 96.8472 37.7296 96.7661 37.7296C96.6981 37.7296 96.6408 37.5493 96.6385 37.3289C96.6364 37.1084 96.553 36.8204 96.4531 36.6888C96.3533 36.5571 96.2716 36.3491 96.2716 36.2264C96.2716 36.1038 96.2159 36.0034 96.1479 36.0034C96.0799 36.0034 96.0243 35.8647 96.0243 35.6952C96.0243 35.5256 95.9686 35.3869 95.9006 35.3869C95.8326 35.3869 95.777 35.3017 95.777 35.1976C95.777 34.9727 95.4391 34.4193 95.1311 34.1395C95.0103 34.0297 94.9115 33.9026 94.9115 33.8568C94.9115 33.6538 93.565 32.3044 93.3624 32.3044C93.2369 32.3044 92.9332 31.9617 92.9332 31.82C92.9332 31.7474 92.8219 31.6879 92.6859 31.6879C92.5499 31.6879 92.4386 31.6324 92.4386 31.5646C92.4386 31.4968 92.3552 31.4413 92.2532 31.4413C92.1512 31.4413 92.0677 31.3858 92.0677 31.318C92.0677 31.2502 91.9326 31.1947 91.7674 31.1947C91.6023 31.1947 91.3837 31.1115 91.2817 31.0098C91.1797 30.9081 90.981 30.8248 90.8401 30.8248C90.6992 30.8248 90.584 30.7693 90.584 30.7015C90.584 30.6337 90.4218 30.5782 90.2233 30.5782C90.025 30.5782 89.8396 30.5089 89.8112 30.4241C89.7702 30.3013 82.7897 30.27 55.4594 30.27C36.5941 30.27 20.6999 30.2861 20.1388 30.3057ZM88.9767 36.3733C88.9767 36.4411 89.0579 36.4966 89.1572 36.4966C89.3638 36.4966 90.3367 37.4079 90.3367 37.6014C90.3367 37.6719 90.3788 37.7296 90.4301 37.7296C90.4815 37.7296 90.5969 37.9377 90.6866 38.192C90.811 38.5447 90.8592 40.1161 90.8899 44.8193C90.9238 50.0003 90.8997 51.1368 90.7392 51.9398C90.6342 52.4653 90.5007 52.8954 90.4424 52.8954C90.3843 52.8954 90.3367 52.9574 90.3367 53.0333C90.3367 53.2763 89.386 54.1284 89.1149 54.1284C88.9708 54.1284 88.853 54.1839 88.853 54.2517C88.853 54.3336 77.3336 54.375 54.5423 54.375C31.751 54.375 20.2316 54.3336 20.2316 54.2517C20.2316 54.1839 20.095 54.1284 19.928 54.1284C19.7611 54.1284 19.4855 53.9897 19.3155 53.8202C19.1455 53.6506 18.9482 53.5119 18.8771 53.5119C18.806 53.5119 18.7479 53.4287 18.7479 53.327C18.7479 53.2252 18.6922 53.142 18.6242 53.142C18.5562 53.142 18.5006 53.0356 18.5006 52.9056C18.5006 52.7757 18.4337 52.6471 18.3521 52.62C18.1539 52.5541 18.1728 38.0646 18.3711 37.9986C18.4424 37.975 18.5006 37.8454 18.5006 37.7105C18.5006 37.479 18.7637 37.1131 18.9301 37.1131C18.972 37.1131 19.1455 36.9744 19.3155 36.8048C19.4855 36.6353 19.7611 36.4966 19.928 36.4966C20.095 36.4966 20.2316 36.4411 20.2316 36.3733C20.2316 36.2914 31.7715 36.25 54.6041 36.25C77.4368 36.25 88.9767 36.2914 88.9767 36.3733ZM14.5749 66.5562C14.0819 66.5761 13.6785 66.6455 13.6785 66.7104C13.6785 66.7752 13.6189 66.8282 13.5461 66.8282C13.4732 66.8282 13.3409 66.8977 13.2521 66.9824C13.1633 67.0672 12.9725 67.2181 12.8283 67.3179C12.6838 67.4176 12.5658 67.5933 12.5658 67.7082C12.5658 67.8233 12.5101 67.9358 12.4421 67.9585C12.374 67.9811 12.2515 68.3178 12.1696 68.7067C12.0518 69.2673 12.0539 69.5736 12.1799 70.1863C12.2673 70.6112 12.3899 70.9773 12.4523 70.9998C12.5147 71.0225 12.5658 71.0944 12.5658 71.1596C12.5658 71.3192 13.1397 71.8835 13.302 71.8835C13.3731 71.8835 13.4313 71.9379 13.4313 72.0045C13.4313 72.0709 13.5704 72.1602 13.7404 72.2027C13.9104 72.2453 14.0495 72.3296 14.0495 72.39C14.0495 72.454 22.0479 72.5 33.1522 72.5C45.8049 72.5 52.2549 72.4583 52.2549 72.3767C52.2549 72.3089 52.3901 72.2534 52.5552 72.2534C52.7203 72.2534 52.9389 72.1702 53.0409 72.0685C53.1429 71.9667 53.2607 71.8835 53.3027 71.8835C53.4552 71.8835 53.9859 71.2734 53.9859 71.098C53.9859 70.9988 54.0415 70.8992 54.1096 70.8765C54.1777 70.854 54.3003 70.5164 54.3824 70.1265C54.4988 69.5731 54.4988 69.2619 54.3824 68.7085C54.3003 68.3187 54.1777 67.9811 54.1096 67.9585C54.0415 67.9358 53.9859 67.8233 53.9859 67.7082C53.9859 67.5933 53.8678 67.4176 53.7234 67.3179C53.5791 67.2181 53.3883 67.0672 53.2996 66.9824C53.2108 66.8977 53.0831 66.8282 53.0159 66.8282C52.9487 66.8282 52.8709 66.7599 52.843 66.6764C52.8031 66.5571 48.7974 66.5241 34.1318 66.5223C23.8685 66.521 15.068 66.5363 14.5749 66.5562ZM85.1438 72.6233C85.1438 72.6911 85.4358 72.7472 85.7929 72.748C86.15 72.7487 86.7151 72.8319 87.049 72.9329C87.3828 73.0339 87.8385 73.1165 88.0617 73.1165C88.2849 73.1165 88.5019 73.172 88.5439 73.2398C88.586 73.3076 88.8674 73.3631 89.1694 73.3631C89.4715 73.3631 89.7185 73.4186 89.7185 73.4864C89.7185 73.5542 89.9411 73.6097 90.2131 73.6097C90.4851 73.6097 90.7077 73.6579 90.7077 73.7167C90.7077 73.7757 90.9429 73.8553 91.2304 73.8938C91.518 73.9322 91.7731 74.0227 91.7972 74.0949C91.8213 74.1671 92.0033 74.2262 92.2016 74.2262C92.4001 74.2262 92.5623 74.2817 92.5623 74.3495C92.5623 74.4173 92.6743 74.4728 92.8113 74.4728C92.9482 74.4728 93.1569 74.5215 93.275 74.581C93.7944 74.8429 94.4398 75.0893 94.6066 75.0893C94.7062 75.0893 94.7878 75.1448 94.7878 75.2126C94.7878 75.2804 94.9269 75.3359 95.097 75.3359C95.267 75.3359 95.4061 75.3914 95.4061 75.4592C95.4061 75.527 95.5452 75.5825 95.7152 75.5825C95.8852 75.5825 96.0243 75.6369 96.0243 75.7034C96.0243 75.7699 96.1634 75.8592 96.3334 75.9017C96.5034 75.9442 96.6425 76.0286 96.6425 76.089C96.6425 76.1495 96.7538 76.199 96.8898 76.199C97.0258 76.199 97.1371 76.2413 97.1371 76.2931C97.1371 76.3892 97.2314 76.448 98.0744 76.8771C98.341 77.0128 98.5775 77.1653 98.6001 77.2162C98.6229 77.2671 98.748 77.3087 98.8783 77.3087C99.0087 77.3087 99.1153 77.3554 99.1153 77.4126C99.1153 77.4697 99.3101 77.621 99.5481 77.7489C99.7861 77.8767 99.9808 78.0241 99.9808 78.0765C99.9808 78.1289 100.039 78.1718 100.11 78.1718C100.231 78.1718 100.371 78.2682 100.78 78.6341C100.875 78.719 101 78.7883 101.057 78.7883C101.115 78.7883 101.243 78.8992 101.341 79.0349C101.439 79.1705 101.598 79.2815 101.694 79.2815C101.79 79.2815 102.052 79.4757 102.276 79.713C102.501 79.9504 102.718 80.1446 102.76 80.1446C102.852 80.1446 103.079 80.3295 103.631 80.8535C103.863 81.074 104.086 81.2543 104.128 81.2543C104.227 81.2543 104.556 81.5854 104.556 81.6858C104.556 81.7886 104.885 82.1173 104.988 82.1173C105.091 82.1173 105.421 82.4461 105.421 82.5489C105.421 82.6517 105.751 82.9804 105.854 82.9804C105.954 82.9804 106.287 83.308 106.287 83.4073C106.287 83.4484 106.467 83.6712 106.688 83.9026C107.214 84.4528 107.399 84.6794 107.399 84.7714C107.399 84.8127 107.594 85.0297 107.832 85.2535C108.07 85.4774 108.265 85.7388 108.265 85.8345C108.265 85.9301 108.376 86.0885 108.512 86.1862C108.648 86.284 108.759 86.4095 108.759 86.4653C108.759 86.5612 108.869 86.7128 109.223 87.1064C109.308 87.201 109.378 87.3377 109.378 87.4105C109.378 87.4831 109.421 87.5425 109.473 87.5425C109.526 87.5425 109.674 87.7367 109.802 87.9741C109.93 88.2114 110.082 88.4056 110.139 88.4056C110.196 88.4056 110.243 88.5119 110.243 88.642C110.243 88.7719 110.285 88.8967 110.336 88.9194C110.387 88.942 110.54 89.1778 110.676 89.4437C111.106 90.2843 111.165 90.3784 111.262 90.3784C111.313 90.3784 111.356 90.4894 111.356 90.625C111.356 90.7606 111.405 90.8716 111.466 90.8716C111.527 90.8716 111.611 91.0103 111.654 91.1798C111.697 91.3494 111.786 91.4881 111.853 91.4881C111.92 91.4881 111.974 91.6268 111.974 91.7963C111.974 91.9659 112.03 92.1046 112.098 92.1046C112.166 92.1046 112.221 92.2156 112.221 92.3512C112.221 92.4868 112.277 92.5978 112.345 92.5978C112.413 92.5978 112.469 92.7069 112.469 92.8402C112.469 93.0588 112.688 93.658 112.978 94.2298C113.038 94.3475 113.087 94.5557 113.087 94.6922C113.087 94.8288 113.143 94.9405 113.211 94.9405C113.279 94.9405 113.334 95.1036 113.334 95.3031C113.334 95.5026 113.385 95.697 113.447 95.7353C113.509 95.7736 113.597 96.0263 113.643 96.2968C113.689 96.5673 113.777 96.8199 113.84 96.8583C113.902 96.8965 113.952 97.1187 113.952 97.3521C113.952 97.5855 114.008 97.7764 114.076 97.7764C114.144 97.7764 114.2 97.995 114.2 98.2623C114.2 98.5296 114.255 98.7825 114.323 98.8244C114.391 98.8663 114.447 99.1105 114.447 99.3669C114.447 99.6234 114.53 100.106 114.631 100.439C114.732 100.771 114.816 101.363 114.817 101.753C114.817 102.143 114.874 102.462 114.942 102.462C115.021 102.462 115.065 103.592 115.065 105.606C115.065 107.62 115.021 108.75 114.942 108.75C114.868 108.75 114.818 109.199 114.818 109.849C114.818 110.569 114.769 110.965 114.676 110.996C114.597 111.022 114.507 111.36 114.475 111.746C114.443 112.133 114.368 112.449 114.308 112.449C114.248 112.449 114.2 112.699 114.2 113.004C114.2 113.309 114.15 113.559 114.089 113.559C114.028 113.559 113.948 113.767 113.912 114.021C113.762 115.054 113.611 115.674 113.476 115.809C113.398 115.887 113.334 116.106 113.334 116.296C113.334 116.486 113.279 116.641 113.211 116.641C113.143 116.641 113.087 116.78 113.087 116.949C113.087 117.119 113.031 117.258 112.963 117.258C112.895 117.258 112.84 117.358 112.84 117.481C112.84 117.603 112.758 117.811 112.658 117.943C112.558 118.075 112.475 118.28 112.473 118.398C112.47 118.517 112.413 118.614 112.345 118.614C112.277 118.614 112.221 118.753 112.221 118.922C112.221 119.092 112.166 119.23 112.098 119.23C112.03 119.23 111.974 119.369 111.974 119.539C111.974 119.708 111.924 119.847 111.863 119.847C111.802 119.847 111.648 120.096 111.523 120.401C111.397 120.706 111.252 120.956 111.201 120.956C111.15 120.956 111.109 121.035 111.109 121.132C111.109 121.352 110.708 122.064 110.583 122.066C110.532 122.066 110.49 122.177 110.49 122.313C110.49 122.449 110.435 122.56 110.367 122.56C110.299 122.56 110.243 122.643 110.243 122.744C110.243 122.846 110.187 122.929 110.119 122.929C110.051 122.929 109.996 122.999 109.996 123.085C109.996 123.17 109.857 123.39 109.687 123.573C109.517 123.755 109.378 123.991 109.378 124.095C109.378 124.2 109.322 124.286 109.254 124.286C109.186 124.286 109.13 124.344 109.13 124.414C109.13 124.535 109.034 124.675 108.667 125.083C108.582 125.177 108.512 125.289 108.512 125.331C108.512 125.372 108.387 125.54 108.234 125.703C107.825 126.139 107.647 126.363 107.647 126.439C107.647 126.476 107.397 126.769 107.091 127.091C106.785 127.413 106.535 127.714 106.535 127.759C106.533 127.892 103.787 130.574 103.652 130.574C103.615 130.574 103.336 130.824 103.03 131.129C102.724 131.434 102.439 131.684 102.396 131.684C102.311 131.684 102.099 131.85 101.65 132.269C101.486 132.422 101.294 132.547 101.223 132.547C101.152 132.547 101.094 132.602 101.094 132.67C101.094 132.738 101.008 132.793 100.902 132.793C100.797 132.793 100.582 132.932 100.424 133.102C100.267 133.271 100.047 133.41 99.9357 133.41C99.8245 133.41 99.7335 133.465 99.7335 133.533C99.7335 133.601 99.6756 133.656 99.6047 133.656C99.4834 133.656 99.3436 133.753 98.9344 134.119C98.8396 134.204 98.7025 134.273 98.6295 134.273C98.5567 134.273 98.4971 134.328 98.4971 134.396C98.4971 134.464 98.3858 134.52 98.2498 134.52C98.1138 134.52 98.0025 134.575 98.0025 134.643C98.0025 134.711 97.8913 134.766 97.7553 134.766C97.6193 134.766 97.508 134.821 97.508 134.887C97.508 134.954 97.3689 135.043 97.1989 135.085C97.0289 135.128 96.8898 135.212 96.8898 135.273C96.8898 135.333 96.7507 135.383 96.5807 135.383C96.4107 135.383 96.2716 135.438 96.2716 135.506C96.2716 135.574 96.1603 135.629 96.0243 135.629C95.8883 135.629 95.777 135.673 95.777 135.725C95.777 135.778 95.4988 135.929 95.1588 136.061C94.8188 136.192 94.5406 136.343 94.5406 136.396C94.5406 136.449 94.3783 136.492 94.1799 136.492C93.9816 136.492 93.8008 136.534 93.7781 136.585C93.7139 136.729 92.8291 137.109 92.5581 137.109C92.4244 137.109 92.315 137.164 92.315 137.232C92.315 137.3 92.1203 137.355 91.8823 137.355C91.6442 137.355 91.4495 137.411 91.4495 137.479C91.4495 137.547 91.2687 137.604 91.0477 137.606C90.8266 137.609 90.5067 137.69 90.3367 137.787C90.1667 137.884 89.8469 137.965 89.6258 137.968C89.4047 137.97 89.2239 138.027 89.2239 138.095C89.2239 138.163 88.9458 138.219 88.6057 138.219C88.2657 138.219 87.9875 138.269 87.9875 138.33C87.9875 138.446 87.6737 138.494 85.5147 138.708C84.8006 138.778 83.7797 138.891 83.2458 138.958C82.1787 139.091 77.4773 138.807 77.0778 138.584C76.9597 138.519 76.5285 138.465 76.1196 138.465C75.7063 138.465 75.376 138.41 75.376 138.342C75.376 138.274 75.1527 138.219 74.8797 138.219C74.6068 138.219 74.2869 138.166 74.1688 138.102C74.0507 138.038 73.7455 137.952 73.4905 137.911C73.2355 137.871 73.0268 137.785 73.0268 137.72C73.0268 137.655 72.8321 137.602 72.5941 137.602C72.3561 137.602 72.1613 137.547 72.1613 137.479C72.1613 137.411 71.9666 137.355 71.7286 137.355C71.4906 137.355 71.2958 137.306 71.2958 137.246C71.2958 137.186 71.1429 137.107 70.9558 137.07C70.4134 136.964 69.6885 136.687 69.6885 136.585C69.6885 136.534 69.4937 136.492 69.2557 136.492C69.0177 136.492 68.823 136.437 68.823 136.369C68.823 136.301 68.6839 136.246 68.5139 136.246C68.3439 136.246 68.2048 136.191 68.2048 136.125C68.2048 136.058 68.0657 135.969 67.8957 135.927C67.7257 135.884 67.5866 135.8 67.5866 135.739C67.5866 135.679 67.4753 135.629 67.3393 135.629C67.2033 135.629 67.092 135.574 67.092 135.506C67.092 135.438 66.9807 135.383 66.8447 135.383C66.7087 135.383 66.5974 135.333 66.5974 135.273C66.5974 135.212 66.4583 135.128 66.2883 135.085C66.1183 135.043 65.9792 134.954 65.9792 134.887C65.9792 134.821 65.8957 134.766 65.7937 134.766C65.6917 134.766 65.6083 134.711 65.6083 134.643C65.6083 134.575 65.497 134.52 65.361 134.52C65.225 134.52 65.1137 134.464 65.1137 134.396C65.1137 134.328 65.0163 134.272 64.8973 134.271C64.7784 134.27 64.5499 134.131 64.3898 133.963C64.2297 133.794 64.0055 133.656 63.8916 133.656C63.7778 133.656 63.6044 133.545 63.5064 133.41C63.4083 133.274 63.2595 133.163 63.1756 133.163C63.0917 133.163 62.8839 133.025 62.7139 132.855C62.5439 132.685 62.3393 132.547 62.2593 132.547C62.1792 132.547 61.93 132.353 61.7055 132.115C61.4811 131.878 61.2102 131.684 61.1036 131.684C60.997 131.684 60.9099 131.628 60.9099 131.56C60.9099 131.493 60.8264 131.437 60.7244 131.437C60.6224 131.437 60.5389 131.378 60.5389 131.305C60.5389 131.163 60.2353 130.821 60.1094 130.821C60.0434 130.821 59.7832 130.602 59.3043 130.142C58.6198 129.486 56.5824 127.36 56.5824 127.302C56.5824 127.178 56.2383 126.875 56.0966 126.875C56.0238 126.875 55.9642 126.792 55.9642 126.69C55.9642 126.588 55.9085 126.505 55.8405 126.505C55.7725 126.505 55.7169 126.394 55.7169 126.259C55.7169 126.123 55.6428 126.012 55.5523 126.012C55.4618 126.012 55.3133 125.873 55.2223 125.704C55.1313 125.534 55.0107 125.395 54.9542 125.395C54.8976 125.395 54.8514 125.31 54.8514 125.205C54.8514 125.1 54.7123 124.876 54.5423 124.706C54.3723 124.537 54.2332 124.329 54.2332 124.246C54.2332 124.162 54.1219 124.014 53.9859 123.916C53.8499 123.818 53.7386 123.645 53.7386 123.532C53.7386 123.418 53.6005 123.195 53.4316 123.035C53.2629 122.875 53.1238 122.647 53.1225 122.529C53.1214 122.41 53.0648 122.313 52.9968 122.313C52.9288 122.313 52.8731 122.202 52.8731 122.066C52.8731 121.931 52.8263 121.82 52.7689 121.82C52.7117 121.82 52.5599 121.626 52.4317 121.388C52.3035 121.151 52.1558 120.957 52.1032 120.957C52.0507 120.957 52.0076 120.818 52.0076 120.648C52.0076 120.479 51.952 120.34 51.884 120.34C51.816 120.34 51.7603 120.229 51.7603 120.094C51.7603 119.958 51.7108 119.847 51.6501 119.847C51.5895 119.847 51.5049 119.708 51.4622 119.539C51.4196 119.369 51.3301 119.23 51.2634 119.23C51.1967 119.23 51.1421 119.064 51.1421 118.861C51.1421 118.657 51.0865 118.491 51.0185 118.491C50.9505 118.491 50.8949 118.324 50.8949 118.121C50.8949 117.917 50.8392 117.751 50.7712 117.751C50.7032 117.751 50.6476 117.65 50.6476 117.528C50.6476 117.405 50.5658 117.197 50.4661 117.065C50.3662 116.934 50.2827 116.674 50.2806 116.487C50.2784 116.3 50.221 116.148 50.153 116.148C50.085 116.148 50.0294 116.009 50.0294 115.84C50.0294 115.67 49.9737 115.531 49.9057 115.531C49.8377 115.531 49.7821 115.282 49.7821 114.977C49.7821 114.671 49.7289 114.422 49.664 114.422C49.5991 114.422 49.5127 114.214 49.4719 113.959C49.4311 113.705 49.345 113.401 49.2807 113.283C49.2164 113.165 49.1639 112.818 49.1639 112.512C49.1639 112.206 49.1129 111.956 49.0507 111.956C48.9885 111.956 48.9108 111.609 48.8779 111.185C48.845 110.761 48.7515 110.109 48.6702 109.736C48.4695 108.817 48.4598 103.094 48.6567 101.722C48.7394 101.146 48.8368 100.383 48.8732 100.027C48.9097 99.6705 48.9899 99.3793 49.0517 99.3793C49.1134 99.3793 49.1639 99.1296 49.1639 98.8244C49.1639 98.5192 49.2195 98.2696 49.2875 98.2696C49.3555 98.2696 49.4131 98.0893 49.4155 97.8688C49.4179 97.6484 49.4994 97.3294 49.5966 97.1599C49.6938 96.9903 49.7753 96.6714 49.7777 96.4509C49.7801 96.2304 49.8377 96.0502 49.9057 96.0502C49.9737 96.0502 50.0294 95.856 50.0294 95.6186C50.0294 95.3813 50.085 95.1871 50.153 95.1871C50.221 95.1871 50.2766 94.9929 50.2766 94.7555C50.2766 94.5182 50.3312 94.324 50.3979 94.324C50.4646 94.324 50.5541 94.1853 50.5968 94.0157C50.6394 93.8462 50.724 93.7075 50.7846 93.7075C50.8453 93.7075 50.8949 93.541 50.8949 93.3376C50.8949 93.1341 50.9383 92.9677 50.9913 92.9677C51.0443 92.9677 51.1957 92.6903 51.3276 92.3512C51.4595 92.0121 51.6109 91.7347 51.6639 91.7347C51.7169 91.7347 51.7603 91.6237 51.7603 91.4881C51.7603 91.3525 51.816 91.2415 51.884 91.2415C51.952 91.2415 52.0076 91.1028 52.0076 90.9333C52.0076 90.7637 52.0572 90.625 52.1179 90.625C52.1785 90.625 52.2631 90.4863 52.3057 90.3168C52.3484 90.1472 52.4379 90.0085 52.5046 90.0085C52.5713 90.0085 52.6258 89.8975 52.6258 89.7619C52.6258 89.6263 52.6815 89.5153 52.7495 89.5153C52.8175 89.5153 52.8731 89.4019 52.8731 89.2632C52.8731 89.1245 53.0122 88.8722 53.1822 88.7026C53.3522 88.5331 53.4913 88.326 53.4913 88.2422C53.4913 88.1586 53.6026 88.0102 53.7386 87.9124C53.8746 87.8146 53.9859 87.6334 53.9859 87.5097C53.9859 87.3859 54.1112 87.1512 54.2641 86.988C54.6794 86.545 54.8514 86.3281 54.8514 86.2475C54.8514 86.2077 54.9767 86.0415 55.1296 85.8783C55.5499 85.43 55.7169 85.2183 55.7169 85.1336C55.7169 85.0916 55.9673 84.8074 56.2733 84.5022C56.5793 84.197 56.8297 83.9042 56.8297 83.8514C56.8297 83.7273 59.5178 81.0079 59.6414 81.0069C59.6931 81.0065 59.9994 80.7569 60.3221 80.4521C60.6449 80.1473 60.9395 79.898 60.9769 79.898C61.0142 79.898 61.1787 79.7731 61.3423 79.6205C61.7906 79.2026 62.0041 79.0349 62.0881 79.0349C62.1299 79.0349 62.2361 78.9656 62.3241 78.8807C62.7368 78.4836 63.1485 78.1718 63.2601 78.1718C63.3275 78.1718 63.3831 78.1302 63.3835 78.0793C63.3846 77.9553 64.0995 77.5553 64.3201 77.5553C64.4165 77.5553 64.4955 77.4998 64.4955 77.432C64.4955 77.3642 64.579 77.3087 64.681 77.3087C64.783 77.3087 64.8664 77.2532 64.8664 77.1854C64.8664 77.1176 64.9777 77.0621 65.1137 77.0621C65.2497 77.0621 65.3614 77.0205 65.3617 76.9696C65.3628 76.8456 66.0777 76.4456 66.2983 76.4456C66.3948 76.4456 66.474 76.404 66.4743 76.3531C66.4745 76.3022 66.7249 76.158 67.0307 76.0327C67.3364 75.9073 67.5866 75.7546 67.5866 75.6936C67.5866 75.6324 67.7257 75.5825 67.8957 75.5825C68.0657 75.5825 68.2048 75.527 68.2048 75.4592C68.2048 75.3914 68.3439 75.3359 68.5139 75.3359C68.6839 75.3359 68.823 75.2804 68.823 75.2126C68.823 75.1448 68.9204 75.0876 69.0394 75.0853C69.1583 75.0832 69.3638 75 69.4957 74.9004C69.6278 74.8009 69.8363 74.7194 69.9594 74.7194C70.0824 74.7194 70.183 74.6639 70.183 74.5961C70.183 74.5283 70.3778 74.4728 70.6158 74.4728C70.8538 74.4728 71.0485 74.4173 71.0485 74.3495C71.0485 74.2817 71.1535 74.2262 71.2817 74.2262C71.4099 74.2262 71.6742 74.1433 71.869 74.042C72.0638 73.9408 72.3484 73.8575 72.5013 73.857C72.6543 73.8567 72.7795 73.8008 72.7795 73.733C72.7795 73.6652 73.0299 73.6097 73.3359 73.6097C73.6419 73.6097 73.8923 73.5542 73.8923 73.4864C73.8923 73.4186 74.1427 73.3631 74.4487 73.3631C74.7547 73.3631 75.0051 73.3076 75.0051 73.2398C75.0051 73.172 75.1737 73.1165 75.38 73.1165C75.5862 73.1165 75.9547 73.0333 76.1987 72.9315C76.4735 72.8171 77.0374 72.7466 77.6785 72.7466C78.2867 72.7466 78.7144 72.6957 78.7144 72.6233C78.7144 72.5443 79.8683 72.5 81.9291 72.5C83.9898 72.5 85.1438 72.5443 85.1438 72.6233ZM14.6059 78.6403C14.1298 78.7356 13.7218 78.8635 13.6992 78.9243C13.6764 78.9851 13.5513 79.0349 13.421 79.0349C13.2907 79.0349 13.184 79.0904 13.184 79.1582C13.184 79.226 13.1005 79.2815 12.9985 79.2815C12.8965 79.2815 12.813 79.3647 12.813 79.4664C12.813 79.5681 12.7574 79.6514 12.6894 79.6514C12.6214 79.6514 12.5658 79.7623 12.5658 79.898C12.5658 80.0336 12.519 80.1446 12.4619 80.1446C12.4048 80.1446 12.2905 80.5211 12.2081 80.9814C12.0519 81.853 12.1687 82.869 12.4354 82.9576C12.5072 82.9816 12.5658 83.1073 12.5658 83.2373C12.5658 83.3674 12.6214 83.4736 12.6894 83.4736C12.7574 83.4736 12.813 83.5569 12.813 83.6586C12.813 83.7603 12.8965 83.8435 12.9985 83.8435C13.1005 83.8435 13.184 83.899 13.184 83.9668C13.184 84.0347 13.2907 84.0901 13.421 84.0901C13.5513 84.0901 13.6779 84.1498 13.7023 84.2227C13.7266 84.2956 14.1068 84.4287 14.5471 84.5185C15.1845 84.6483 17.83 84.6765 27.5265 84.6569C38.0733 84.6355 39.7671 84.6073 40.1665 84.4457C40.4204 84.3431 40.6661 84.2211 40.7127 84.1746C40.7593 84.1281 40.8741 84.0901 40.9679 84.0901C41.1361 84.0901 41.7453 83.5563 41.7453 83.4088C41.7453 83.367 41.8288 83.2495 41.9308 83.1478C42.0328 83.046 42.1163 82.8558 42.1163 82.7251C42.1163 82.5943 42.1719 82.4872 42.2399 82.4872C42.312 82.4872 42.3635 82.0763 42.3635 81.5009C42.3635 80.9254 42.312 80.5145 42.2399 80.5145C42.1719 80.5145 42.1163 80.4057 42.1163 80.2728C42.1163 80.0215 41.2333 79.0349 41.0084 79.0349C40.9377 79.0349 40.8798 78.9889 40.8798 78.9328C40.8798 78.8765 40.5877 78.7569 40.2307 78.6669C39.2419 78.4178 15.8389 78.3933 14.6059 78.6403ZM80.7235 78.6973C80.4346 78.7666 80.1981 78.8709 80.1981 78.9291C80.1981 78.9873 80.1402 79.0349 80.0695 79.0349C79.8446 79.0349 78.9616 80.0215 78.9616 80.2728C78.9616 80.4057 78.906 80.5145 78.838 80.5145C78.7565 80.5145 78.7144 84.0285 78.7144 90.81C78.7144 97.5914 78.7565 101.105 78.838 101.105C78.906 101.105 78.9636 101.286 78.966 101.506C78.9684 101.727 79.0499 102.046 79.1471 102.215C79.2443 102.385 79.3258 102.648 79.3282 102.801C79.3306 102.953 79.3882 103.078 79.4562 103.078C79.5242 103.078 79.5799 103.217 79.5799 103.386C79.5799 103.556 79.6355 103.695 79.7035 103.695C79.7715 103.695 79.8271 103.806 79.8271 103.941C79.8271 104.077 79.8708 104.188 79.9241 104.188C79.9775 104.188 80.1265 104.368 80.2553 104.589C80.3841 104.809 80.5909 105.079 80.7148 105.189C80.8387 105.298 80.9399 105.427 80.9399 105.475C80.9399 105.609 81.2773 105.914 81.4257 105.914C81.4985 105.914 81.5581 105.974 81.5581 106.046C81.5581 106.204 81.8676 106.531 82.0166 106.531C82.0745 106.531 82.2019 106.642 82.3 106.777C82.398 106.913 82.536 107.024 82.6067 107.024C82.6775 107.024 82.8853 107.163 83.0687 107.332C83.2519 107.502 83.4878 107.64 83.5928 107.64C83.6978 107.64 83.7837 107.696 83.7837 107.764C83.7837 107.831 83.9228 107.887 84.0928 107.887C84.2628 107.887 84.4019 107.936 84.4019 107.997C84.4019 108.057 84.5966 108.143 84.8346 108.187C85.0727 108.232 85.2674 108.321 85.2674 108.386C85.2674 108.45 85.5178 108.503 85.8238 108.503C86.1298 108.503 86.3802 108.559 86.3802 108.627C86.3802 108.707 88.8737 108.75 93.6132 108.75C98.3528 108.75 100.846 108.707 100.846 108.627C100.846 108.559 100.983 108.503 101.15 108.503C101.317 108.503 101.592 108.365 101.762 108.195C101.932 108.026 102.13 107.887 102.201 107.887C102.272 107.887 102.33 107.804 102.33 107.702C102.33 107.6 102.386 107.517 102.454 107.517C102.522 107.517 102.577 107.351 102.577 107.147C102.577 106.944 102.633 106.777 102.701 106.777C102.775 106.777 102.825 106.305 102.825 105.606C102.825 104.907 102.775 104.435 102.701 104.435C102.633 104.435 102.577 104.347 102.577 104.24C102.577 103.996 101.661 103.078 101.418 103.078C101.319 103.078 101.217 103.016 101.192 102.941C101.159 102.842 99.2137 102.793 94.35 102.768C87.3553 102.732 86.3802 102.685 86.3802 102.386C86.3802 102.292 86.2689 102.215 86.1329 102.215C85.9969 102.215 85.8856 102.16 85.8856 102.092C85.8856 102.024 85.8021 101.969 85.7001 101.969C85.5981 101.969 85.5147 101.885 85.5147 101.784C85.5147 101.682 85.459 101.599 85.391 101.599C85.323 101.599 85.2674 101.511 85.2674 101.405C85.2674 101.298 85.1879 101.132 85.0908 101.035C84.9938 100.938 84.8756 100.55 84.8282 100.173C84.781 99.795 84.7352 95.2083 84.7266 89.9798C84.7143 82.4954 84.6781 80.4624 84.5565 80.422C84.4715 80.3937 84.4019 80.2643 84.4019 80.1343C84.4019 80.0042 84.3527 79.898 84.2927 79.898C84.2326 79.898 84.1545 79.7872 84.119 79.652C84.0835 79.5167 83.9518 79.3669 83.8263 79.3192C83.7008 79.2714 83.5006 79.1418 83.3811 79.0313C83.1411 78.809 82.0952 78.5334 81.5796 78.5565C81.3978 78.5646 81.0125 78.628 80.7235 78.6973ZM40.478 96.6558L43.4763 96.6667V97.3448C43.4763 97.7178 43.4207 98.023 43.3527 98.023C43.2847 98.023 43.229 98.2726 43.229 98.5778C43.229 98.883 43.1734 99.1327 43.1054 99.1327C43.0374 99.1327 42.9793 99.3963 42.9763 99.7183C42.9733 100.04 42.8908 100.526 42.7927 100.797C42.6948 101.068 42.6137 101.693 42.6127 102.184C42.6116 102.697 42.558 103.078 42.4872 103.078C42.4085 103.078 42.3635 104.044 42.3635 105.729C42.3635 107.414 42.4085 108.38 42.4872 108.38C42.5578 108.38 42.6127 108.763 42.6152 109.274C42.6179 109.815 42.6893 110.29 42.7963 110.476C42.8935 110.646 42.975 111.1 42.9774 111.486C42.9798 111.872 43.0374 112.222 43.1054 112.264C43.1734 112.306 43.229 112.614 43.229 112.949C43.229 113.285 43.2847 113.559 43.3527 113.559C43.4207 113.559 43.4763 113.801 43.4763 114.098C43.4763 114.591 43.4473 114.642 43.1363 114.691C42.9494 114.72 37.6525 114.736 31.3656 114.725C22.8676 114.711 19.9228 114.669 19.8875 114.564C19.8614 114.486 19.7547 114.422 19.6503 114.422C19.4039 114.422 18.5006 113.521 18.5006 113.275C18.5006 113.171 18.4367 113.065 18.3584 113.039C18.1475 112.969 18.1399 98.3689 18.3507 98.2988C18.4332 98.2714 18.5006 98.1942 18.5006 98.1271C18.5006 98.0602 18.5702 97.9328 18.6551 97.8443C18.7402 97.7558 18.8915 97.5655 18.9916 97.4216C19.0916 97.2776 19.2678 97.1599 19.383 97.1599C19.4984 97.1599 19.6113 97.1183 19.634 97.0674C19.6566 97.0165 19.8573 96.8917 20.0799 96.79C20.4862 96.6043 22.5052 96.5911 40.478 96.6558ZM14.2968 126.998C14.2968 127.066 14.1616 127.122 13.9964 127.122C13.8314 127.122 13.6128 127.205 13.5108 127.307C13.4088 127.408 13.2909 127.492 13.249 127.492C13.0951 127.492 12.5658 128.102 12.5658 128.28C12.5658 128.381 12.5196 128.492 12.4633 128.526C12.4069 128.561 12.2853 128.903 12.1931 129.286C12.0589 129.844 12.0547 130.122 12.172 130.679C12.2525 131.062 12.374 131.394 12.4421 131.416C12.5101 131.439 12.5658 131.54 12.5658 131.641C12.5658 131.931 13.3541 132.547 13.7256 132.547C13.8244 132.547 13.9284 132.616 13.9567 132.701C13.9975 132.823 16.7476 132.855 27.1555 132.855C37.5634 132.855 40.3136 132.823 40.3544 132.701C40.3827 132.616 40.5287 132.547 40.6789 132.547C40.8291 132.547 41.1444 132.357 41.3796 132.124C42.0124 131.498 42.1163 131.35 42.1163 131.072C42.1163 130.934 42.1719 130.821 42.2399 130.821C42.312 130.821 42.3635 130.41 42.3635 129.834C42.3635 129.259 42.312 128.848 42.2399 128.848C42.1719 128.848 42.1163 128.763 42.1163 128.659C42.1163 128.332 41.5102 127.492 41.2747 127.492C41.2102 127.492 41.0882 127.408 41.0035 127.307C40.9188 127.205 40.7451 127.122 40.6175 127.122C40.4897 127.122 40.3853 127.066 40.3853 126.998C40.3853 126.917 35.9548 126.875 27.341 126.875C18.7272 126.875 14.2968 126.917 14.2968 126.998Z" fill="#0BC481"/>
</svg>
