<svg width="150" height="117" viewBox="0 0 150 117" fill="none" xmlns="http://www.w3.org/2000/svg">
<path fill-rule="evenodd" clip-rule="evenodd" d="M10.4768 0.0447633C10.3556 0.0631167 10.2564 0.124668 10.2564 0.181491C10.2564 0.285761 9.56234 0.386345 8.83413 0.387547C8.5472 0.388028 8.49359 0.413353 8.49359 0.548398C8.49359 0.69226 8.44014 0.708689 7.97276 0.708689C7.51579 0.708689 7.45192 0.727202 7.45192 0.859843C7.45192 0.977657 7.3722 1.02302 7.09135 1.06518C6.80657 1.10789 6.73077 1.1519 6.73077 1.2746C6.73077 1.40532 6.67356 1.43 6.37019 1.43C6.07027 1.43 6.00962 1.45541 6.00962 1.58115C6.00962 1.69897 5.92989 1.74433 5.64904 1.78649C5.36426 1.82921 5.28846 1.87321 5.28846 1.99591C5.28846 2.09785 5.23333 2.15131 5.12821 2.15131C5.0246 2.15131 4.96795 2.20477 4.96795 2.30246C4.96795 2.42028 4.88822 2.46564 4.60737 2.5078C4.3226 2.55052 4.2468 2.59452 4.2468 2.71722C4.2468 2.81916 4.19167 2.87262 4.08654 2.87262C3.97973 2.87262 3.92628 2.92608 3.92628 3.03291C3.92628 3.15049 3.87284 3.1932 3.72596 3.1932C3.56571 3.1932 3.52564 3.23328 3.52564 3.39357C3.52564 3.54047 3.48293 3.59393 3.36538 3.59393C3.25857 3.59393 3.20513 3.64739 3.20513 3.75422C3.20513 3.8718 3.15168 3.91451 3.00481 3.91451C2.84455 3.91451 2.80449 3.95459 2.80449 4.11488C2.80449 4.25874 2.7613 4.31524 2.65128 4.31524C2.53558 4.31524 2.4851 4.39186 2.44527 4.62797C2.40905 4.8422 2.34375 4.95344 2.2379 4.98109C2.14736 5.00482 2.08333 5.09105 2.08333 5.18931C2.08333 5.30368 2.03229 5.35714 1.92308 5.35714C1.7895 5.35714 1.76282 5.41059 1.76282 5.67772C1.76282 5.93843 1.73462 5.9983 1.6117 5.9983C1.49391 5.9983 1.44856 6.07805 1.40641 6.35896C1.3637 6.64379 1.31971 6.71961 1.19703 6.71961C1.06635 6.71961 1.04167 6.77684 1.04167 7.08027C1.04167 7.38746 1.01795 7.44092 0.88141 7.44092C0.754247 7.44092 0.720993 7.49462 0.720272 7.7014C0.718429 8.24863 0.627244 8.56296 0.470273 8.56296C0.333093 8.56296 0.320513 8.63694 0.320513 9.44456C0.320513 10.2727 0.310817 10.3262 0.160256 10.3262C0.000240386 10.3262 0 10.3796 0 50.1585C0 89.9375 0.000240386 89.9909 0.160256 89.9909C0.306971 89.9909 0.320513 90.0444 0.320513 90.6221C0.320513 91.383 0.386218 91.7541 0.520833 91.7541C0.630609 91.7541 0.721154 92.1027 0.721154 92.5255C0.721154 92.7426 0.752805 92.796 0.88141 92.796C1.01795 92.796 1.04167 92.8495 1.04167 93.1567C1.04167 93.4567 1.06707 93.5173 1.19279 93.5173C1.31058 93.5173 1.35593 93.5971 1.39808 93.878C1.44079 94.1628 1.48478 94.2386 1.60745 94.2386C1.71979 94.2386 1.76282 94.2942 1.76282 94.439C1.76282 94.5859 1.80553 94.6394 1.92308 94.6394C2.05617 94.6394 2.08333 94.6928 2.08333 94.9543C2.08333 95.22 2.11162 95.2734 2.26362 95.295C2.37949 95.3115 2.45305 95.385 2.46955 95.5009C2.48598 95.6168 2.5504 95.6813 2.64984 95.6813C2.76138 95.6813 2.80449 95.7371 2.80449 95.8816C2.80449 96.0255 2.84768 96.082 2.95769 96.082C3.07404 96.082 3.12396 96.1592 3.16506 96.4026C3.20721 96.6521 3.25489 96.7232 3.37997 96.7232C3.47348 96.7232 3.55825 96.7904 3.58269 96.884C3.61234 96.9974 3.71651 97.0595 3.93574 97.0946C4.16859 97.1319 4.2468 97.1821 4.2468 97.2944C4.2468 97.3892 4.30377 97.4445 4.40144 97.4445C4.50088 97.4445 4.5653 97.5089 4.58173 97.6248C4.59824 97.7407 4.6718 97.8142 4.78766 97.8308C4.90353 97.8472 4.96795 97.9116 4.96795 98.0111C4.96795 98.1381 5.02524 98.1658 5.28846 98.1658C5.55553 98.1658 5.60897 98.1925 5.60897 98.3261C5.60897 98.4436 5.66242 98.4864 5.8093 98.4864C5.96955 98.4864 6.00962 98.5264 6.00962 98.6867C6.00962 98.8707 6.03902 98.8871 6.37019 98.8871C6.67732 98.8871 6.73077 98.9108 6.73077 99.0474C6.73077 99.1839 6.78421 99.2077 7.09135 99.2077C7.39046 99.2077 7.45192 99.2332 7.45192 99.3579C7.45192 99.5235 7.72676 99.6084 8.26322 99.6084C8.52027 99.6084 8.57372 99.636 8.57372 99.7687C8.57372 99.9189 8.62716 99.929 9.4226 99.929C10.204 99.929 10.2748 99.9417 10.3133 100.089C10.3642 100.284 6.85898 100.263 38.762 100.263L63.6218 100.263V107.75C63.6218 115.033 63.6259 115.237 63.7729 115.237C63.8907 115.237 63.9361 115.317 63.9782 115.597C64.0209 115.882 64.0649 115.958 64.1876 115.958C64.2895 115.958 64.343 116.013 64.343 116.118C64.343 116.236 64.3964 116.279 64.5433 116.279C64.6857 116.279 64.7436 116.322 64.7436 116.429C64.7436 116.591 65.0173 116.679 65.5148 116.679C65.7318 116.679 65.7853 116.711 65.7853 116.84C65.7853 117 65.8387 117 106.651 117C147.144 117 147.516 116.999 147.516 116.843C147.516 116.706 147.582 116.684 148.057 116.663C148.548 116.642 148.6 116.623 148.623 116.459C148.64 116.343 148.704 116.279 148.804 116.279C148.905 116.279 148.958 116.223 148.958 116.118C148.958 116.001 149.012 115.958 149.159 115.958C149.319 115.958 149.359 115.918 149.359 115.758C149.359 115.611 149.402 115.557 149.519 115.557C149.656 115.557 149.679 115.504 149.679 115.197C149.679 114.89 149.703 114.836 149.84 114.836C149.999 114.836 150 114.783 150 108.985C150 103.188 149.999 103.135 149.84 103.135C149.685 103.135 149.679 103.081 149.679 101.532C149.679 99.9824 149.674 99.929 149.519 99.929C149.377 99.929 149.359 99.8755 149.359 99.4602C149.359 99.2024 149.336 98.7155 149.307 98.3782C149.263 97.8533 149.234 97.765 149.107 97.765C148.971 97.765 148.958 97.6883 148.958 96.8834C148.958 96.0553 148.949 96.0018 148.798 96.0018C148.658 96.0018 148.638 95.9484 148.638 95.5711C148.638 94.9167 148.563 94.6394 148.387 94.6394C148.255 94.6394 148.237 94.5735 148.237 94.0783C148.237 93.5708 148.222 93.5173 148.077 93.5173C147.937 93.5173 147.917 93.4639 147.917 93.0865C147.917 92.4592 147.843 92.1752 147.668 92.1294C147.547 92.0977 147.516 92.0153 147.516 91.7216C147.516 91.4069 147.493 91.3534 147.356 91.3534C147.213 91.3534 147.196 91.2999 147.196 90.865C147.196 90.4533 147.172 90.3704 147.044 90.337C146.884 90.2952 146.795 90.0103 146.795 89.5401C146.795 89.3231 146.763 89.2696 146.635 89.2696C146.498 89.2696 146.474 89.2162 146.474 88.909C146.474 88.6055 146.45 88.5483 146.319 88.5483C146.196 88.5483 146.152 88.4725 146.11 88.1876C146.067 87.9067 146.022 87.827 145.904 87.827C145.779 87.827 145.753 87.7663 145.753 87.4663C145.753 87.1591 145.729 87.1057 145.593 87.1057C145.459 87.1057 145.433 87.0522 145.433 86.7776C145.433 86.5165 145.4 86.4409 145.272 86.4074C145.159 86.3778 145.096 86.2736 145.061 86.0543C145.024 85.8214 144.974 85.7432 144.862 85.7432C144.738 85.7432 144.712 85.6817 144.712 85.3882C144.712 85.0809 144.687 85.0296 144.531 85.0075C144.381 84.9861 144.347 84.9244 144.326 84.6412C144.306 84.3658 144.272 84.3006 144.146 84.3006C144.033 84.3006 143.99 84.2452 143.99 84.1002C143.99 83.9564 143.947 83.8999 143.837 83.8999C143.721 83.8999 143.671 83.8226 143.63 83.5793C143.589 83.3359 143.539 83.2587 143.422 83.2587C143.294 83.2587 143.269 83.1997 143.269 82.898C143.269 82.5952 143.244 82.5374 143.115 82.5374C143.015 82.5374 142.951 82.4729 142.934 82.357C142.918 82.2412 142.844 82.1676 142.728 82.1511C142.598 82.1326 142.548 82.0717 142.548 81.9307C142.548 81.7894 142.504 81.7359 142.388 81.7359C142.254 81.7359 142.228 81.6825 142.228 81.4153C142.228 81.1268 142.208 81.0948 142.027 81.0948C141.867 81.0948 141.827 81.0547 141.827 80.8944C141.827 80.7475 141.784 80.694 141.667 80.694C141.534 80.694 141.506 80.6406 141.506 80.379C141.506 80.1134 141.478 80.06 141.326 80.0384C141.21 80.0219 141.137 79.9484 141.12 79.8325C141.104 79.7166 141.039 79.6521 140.94 79.6521C140.839 79.6521 140.785 79.5968 140.785 79.4918C140.785 79.3882 140.732 79.3316 140.634 79.3316C140.516 79.3316 140.471 79.2518 140.429 78.9709C140.386 78.6861 140.342 78.6102 140.219 78.6102C140.118 78.6102 140.064 78.5551 140.064 78.4499C140.064 78.3431 140.011 78.2897 139.904 78.2897C139.786 78.2897 139.744 78.2362 139.744 78.0893C139.744 77.929 139.704 77.8889 139.543 77.8889C139.396 77.8889 139.343 77.8462 139.343 77.7286C139.343 77.6218 139.29 77.5683 139.183 77.5683C139.065 77.5683 139.022 77.5149 139.022 77.368C139.022 77.2211 138.98 77.1676 138.862 77.1676C138.755 77.1676 138.702 77.1142 138.702 77.0073C138.702 76.8898 138.648 76.847 138.502 76.847C138.341 76.847 138.301 76.807 138.301 76.6467C138.301 76.4998 138.259 76.4463 138.141 76.4463C138.034 76.4463 137.981 76.3929 137.981 76.286C137.981 76.1684 137.927 76.1257 137.78 76.1257C137.62 76.1257 137.58 76.0857 137.58 75.9254C137.58 75.7815 137.537 75.725 137.427 75.725C137.311 75.725 137.261 75.6482 137.221 75.4104C137.171 75.1197 137.144 75.0919 136.853 75.0427C136.615 75.0026 136.538 74.9522 136.538 74.8363C136.538 74.7384 136.483 74.6831 136.384 74.6831C136.284 74.6831 136.22 74.6187 136.204 74.5028C136.187 74.3869 136.113 74.3133 135.998 74.2968C135.882 74.2804 135.817 74.2159 135.817 74.1165C135.817 74.0049 135.761 73.9618 135.617 73.9618C135.47 73.9618 135.417 73.9191 135.417 73.8015C135.417 73.6947 135.363 73.6412 135.256 73.6412C135.139 73.6412 135.096 73.5878 135.096 73.4408C135.096 73.2806 135.056 73.2405 134.896 73.2405C134.749 73.2405 134.696 73.1978 134.696 73.0802C134.696 72.9734 134.642 72.9199 134.535 72.9199C134.43 72.9199 134.375 72.8664 134.375 72.7652C134.375 72.6658 134.311 72.6013 134.195 72.5849C134.079 72.5684 134.005 72.4948 133.989 72.3789C133.967 72.2269 133.914 72.1986 133.648 72.1986C133.391 72.1986 133.333 72.1705 133.333 72.0439C133.333 71.9444 133.269 71.88 133.153 71.8636C133.037 71.8471 132.964 71.7735 132.947 71.6576C132.931 71.5417 132.866 71.4773 132.767 71.4773C132.669 71.4773 132.612 71.4221 132.612 71.3261C132.612 71.2083 132.532 71.1629 132.252 71.1208C131.967 71.0781 131.891 71.0341 131.891 70.9114C131.891 70.8094 131.836 70.756 131.731 70.756C131.627 70.756 131.571 70.7025 131.571 70.6048C131.571 70.487 131.491 70.4416 131.21 70.3995C130.925 70.3568 130.849 70.3128 130.849 70.1901C130.849 70.0777 130.794 70.0347 130.649 70.0347C130.502 70.0347 130.449 69.9919 130.449 69.8744C130.449 69.7412 130.395 69.7141 130.134 69.7141C129.868 69.7141 129.815 69.6858 129.793 69.5337C129.777 69.4179 129.703 69.3443 129.587 69.3278C129.471 69.3113 129.407 69.2469 129.407 69.1474C129.407 69.0175 129.349 68.9928 129.046 68.9928C128.739 68.9928 128.686 68.969 128.686 68.8325C128.686 68.7232 128.632 68.6722 128.518 68.6722C128.42 68.6722 128.334 68.6081 128.31 68.5176C128.282 68.4117 128.171 68.3464 127.957 68.3102C127.721 68.2703 127.644 68.2198 127.644 68.1041C127.644 67.976 127.585 67.9509 127.284 67.9509C126.98 67.9509 126.923 67.9262 126.923 67.7955C126.923 67.6728 126.847 67.6288 126.563 67.586C126.282 67.5439 126.202 67.4985 126.202 67.3807C126.202 67.255 126.141 67.2296 125.841 67.2296C125.538 67.2296 125.481 67.2049 125.481 67.0742C125.481 66.9515 125.405 66.9075 125.12 66.8647C124.839 66.8226 124.76 66.7772 124.76 66.6594C124.76 66.5337 124.699 66.5083 124.399 66.5083C124.095 66.5083 124.038 66.4836 124.038 66.3525C124.038 66.2267 123.973 66.1922 123.698 66.1722C123.415 66.1518 123.353 66.1171 123.332 65.9673C123.308 65.8016 123.264 65.7869 122.791 65.7869C122.329 65.7869 122.276 65.7703 122.276 65.6266C122.276 65.4901 122.222 65.4664 121.915 65.4664C121.616 65.4664 121.554 65.4408 121.554 65.3161C121.554 65.1545 121.281 65.0656 120.783 65.0656C120.566 65.0656 120.513 65.034 120.513 64.9053C120.513 64.7985 120.459 64.745 120.353 64.745C120.248 64.745 120.192 64.6916 120.192 64.5918C120.192 64.4754 120.27 64.4255 120.513 64.3844C120.756 64.3433 120.833 64.2933 120.833 64.177C120.833 64.0669 120.89 64.0237 121.034 64.0237C121.178 64.0237 121.234 63.9807 121.234 63.8683C121.234 63.7456 121.31 63.7016 121.595 63.6589C121.875 63.6168 121.955 63.5714 121.955 63.4536C121.955 63.3559 122.012 63.3024 122.115 63.3024C122.219 63.3024 122.276 63.249 122.276 63.1513C122.276 63.0335 122.355 62.9881 122.636 62.9459C122.921 62.9032 122.997 62.8592 122.997 62.7365C122.997 62.6346 123.052 62.5811 123.157 62.5811C123.264 62.5811 123.317 62.5277 123.317 62.4208C123.317 62.3032 123.371 62.2605 123.518 62.2605C123.662 62.2605 123.718 62.2174 123.718 62.1058C123.718 62.0064 123.782 61.9419 123.898 61.9255C124.014 61.909 124.088 61.8354 124.104 61.7195C124.126 61.5675 124.179 61.5392 124.445 61.5392C124.727 61.5392 124.76 61.5186 124.76 61.3389C124.76 61.1786 124.8 61.1385 124.96 61.1385C125.107 61.1385 125.16 61.0958 125.16 60.9782C125.16 60.8714 125.214 60.8179 125.321 60.8179C125.43 60.8179 125.481 60.7645 125.481 60.6501C125.481 60.5525 125.545 60.4656 125.634 60.4423C125.718 60.4204 125.804 60.3336 125.826 60.2495C125.85 60.1605 125.937 60.0966 126.034 60.0966C126.16 60.0966 126.202 60.0462 126.202 59.8962C126.202 59.7493 126.245 59.6959 126.362 59.6959C126.469 59.6959 126.522 59.6424 126.522 59.5356C126.522 59.4312 126.576 59.3753 126.676 59.3753C126.792 59.3753 126.842 59.2984 126.882 59.0594C126.923 58.817 126.976 58.7379 127.11 58.7188C127.219 58.7032 127.293 58.6274 127.309 58.5137C127.326 58.3978 127.39 58.3334 127.49 58.3334C127.591 58.3334 127.644 58.278 127.644 58.1731C127.644 58.0663 127.698 58.0128 127.804 58.0128C127.922 58.0128 127.965 57.9594 127.965 57.8124C127.965 57.6686 128.008 57.6121 128.118 57.6121C128.234 57.6121 128.284 57.5348 128.325 57.2915C128.366 57.0482 128.416 56.9709 128.533 56.9709C128.643 56.9709 128.686 56.9144 128.686 56.7706C128.686 56.6257 128.729 56.5702 128.841 56.5702C128.964 56.5702 129.008 56.4944 129.051 56.2095C129.093 55.9286 129.138 55.8489 129.256 55.8489C129.364 55.8489 129.407 55.7914 129.407 55.6485C129.407 55.5047 129.45 55.4482 129.56 55.4482C129.677 55.4482 129.727 55.3709 129.768 55.1276C129.809 54.8842 129.859 54.807 129.975 54.807C130.103 54.807 130.128 54.748 130.128 54.4463C130.128 54.1391 130.152 54.0857 130.288 54.0857C130.406 54.0857 130.449 54.0322 130.449 53.8853C130.449 53.7405 130.492 53.6849 130.604 53.6849C130.727 53.6849 130.771 53.6091 130.813 53.3243C130.855 53.0472 130.902 52.9636 131.015 52.9636C131.14 52.9636 131.166 52.8869 131.186 52.4627C131.208 52.0128 131.228 51.9592 131.39 51.9362C131.546 51.9141 131.571 51.8628 131.571 51.5555C131.571 51.2539 131.595 51.2004 131.731 51.2004C131.875 51.2004 131.891 51.147 131.891 50.6795C131.891 50.2241 131.91 50.1585 132.041 50.1585C132.193 50.1585 132.289 49.8466 132.291 49.3464C132.291 49.2032 132.343 49.1219 132.452 49.0934C132.596 49.0556 132.612 48.9841 132.612 48.3628C132.612 47.7275 132.625 47.674 132.772 47.674C132.912 47.674 132.933 47.6203 132.934 47.2533C132.935 46.6549 133.017 46.2314 133.133 46.2314C133.279 46.2314 133.331 45.7702 133.332 44.4882C133.333 43.3999 133.341 43.3462 133.494 43.3462C133.65 43.3462 133.654 43.2927 133.654 41.3826C133.654 39.4725 133.65 39.419 133.494 39.419C133.34 39.419 133.333 39.3653 133.332 38.1567C133.331 36.759 133.282 36.2933 133.133 36.2933C133.017 36.2933 132.935 35.8699 132.934 35.2715C132.933 34.9044 132.912 34.8507 132.772 34.8507C132.624 34.8507 132.612 34.7973 132.612 34.1294C132.612 33.4616 132.6 33.4081 132.452 33.4081C132.331 33.4081 132.291 33.3544 132.291 33.1877C132.289 32.6786 132.194 32.3662 132.041 32.3662C131.91 32.3662 131.891 32.3007 131.891 31.8453C131.891 31.3778 131.875 31.3243 131.731 31.3243C131.594 31.3243 131.571 31.2709 131.571 30.9561C131.571 30.6614 131.54 30.58 131.418 30.548C131.245 30.5029 131.173 30.301 131.171 29.8617C131.17 29.621 131.14 29.5611 131.019 29.5611C130.901 29.5611 130.856 29.4814 130.813 29.2005C130.771 28.9156 130.727 28.8398 130.604 28.8398C130.473 28.8398 130.449 28.7826 130.449 28.4791C130.449 28.172 130.425 28.1185 130.288 28.1185C130.171 28.1185 130.128 28.065 130.128 27.9181C130.128 27.7733 130.085 27.7178 129.973 27.7178C129.85 27.7178 129.806 27.6419 129.763 27.3571C129.721 27.0762 129.676 26.9965 129.558 26.9965C129.436 26.9965 129.407 26.9367 129.407 26.6815C129.407 26.4158 129.379 26.3624 129.227 26.3409C129.111 26.3244 129.037 26.2508 129.021 26.1349C129.004 26.019 128.94 25.9546 128.841 25.9546C128.729 25.9546 128.686 25.8987 128.686 25.7542C128.686 25.6103 128.643 25.5538 128.533 25.5538C128.416 25.5538 128.366 25.4766 128.325 25.2333C128.284 24.9899 128.234 24.9127 128.118 24.9127C128.008 24.9127 127.965 24.8562 127.965 24.7123C127.965 24.5654 127.922 24.5119 127.804 24.5119C127.698 24.5119 127.644 24.4585 127.644 24.3517C127.644 24.2472 127.591 24.1914 127.491 24.1914C127.375 24.1914 127.325 24.1141 127.284 23.8708C127.243 23.6275 127.193 23.5502 127.076 23.5502C126.967 23.5502 126.923 23.4938 126.923 23.3554C126.923 23.2144 126.873 23.1536 126.743 23.135C126.627 23.1185 126.553 23.045 126.537 22.9291C126.52 22.8132 126.456 22.7487 126.357 22.7487C126.255 22.7487 126.202 22.6934 126.202 22.5884C126.202 22.4792 126.148 22.4282 126.034 22.4282C125.937 22.4282 125.85 22.3643 125.826 22.2752C125.804 22.1912 125.718 22.1044 125.634 22.0824C125.545 22.0592 125.481 21.9723 125.481 21.8747C125.481 21.7603 125.43 21.7068 125.321 21.7068C125.214 21.7068 125.16 21.6534 125.16 21.5466C125.16 21.429 125.107 21.3863 124.96 21.3863C124.8 21.3863 124.76 21.3462 124.76 21.1859C124.76 21.0061 124.727 20.9855 124.445 20.9855C124.179 20.9855 124.126 20.9572 124.104 20.8052C124.088 20.6893 124.014 20.6157 123.898 20.5992C123.782 20.5828 123.718 20.5184 123.718 20.4189C123.718 20.3073 123.662 20.2642 123.518 20.2642C123.371 20.2642 123.317 20.2215 123.317 20.1039C123.317 19.9971 123.264 19.9436 123.157 19.9436C123.052 19.9436 122.997 19.8902 122.997 19.7882C122.997 19.6655 122.921 19.6215 122.636 19.5788C122.355 19.5367 122.276 19.4913 122.276 19.3735C122.276 19.2758 122.219 19.2223 122.115 19.2223C122.01 19.2223 121.955 19.1689 121.955 19.0669C121.955 18.9442 121.879 18.9002 121.595 18.8575C121.314 18.8154 121.234 18.77 121.234 18.6522C121.234 18.5444 121.177 18.501 121.034 18.501C120.89 18.501 120.833 18.4578 120.833 18.3478C120.833 18.2321 120.757 18.1816 120.521 18.1417C120.306 18.1055 120.195 18.0402 120.168 17.9343C120.144 17.8437 120.058 17.7797 119.959 17.7797C119.845 17.7797 119.792 17.7287 119.792 17.6194C119.792 17.5126 119.738 17.4591 119.631 17.4591C119.473 17.4591 119.471 17.4057 119.471 13.3642C119.471 9.41403 119.466 9.26784 119.319 9.22961C119.144 9.18377 119.071 8.89973 119.071 8.27243C119.071 7.89511 119.051 7.84165 118.91 7.84165C118.774 7.84165 118.75 7.78819 118.75 7.48099C118.75 7.17756 118.725 7.12034 118.595 7.12034C118.472 7.12034 118.428 7.04452 118.385 6.75968C118.343 6.47877 118.298 6.39903 118.18 6.39903C118.054 6.39903 118.029 6.33836 118.029 6.03837C118.029 5.73671 118.004 5.67772 117.876 5.67772C117.759 5.67772 117.709 5.60046 117.668 5.35714C117.627 5.11381 117.577 5.03655 117.461 5.03655C117.351 5.03655 117.308 4.98005 117.308 4.83619C117.308 4.69169 117.265 4.63583 117.153 4.63583C117.054 4.63583 116.989 4.57139 116.973 4.4555C116.956 4.33961 116.883 4.26603 116.767 4.24952C116.651 4.23309 116.587 4.16866 116.587 4.0692C116.587 3.96797 116.531 3.91451 116.426 3.91451C116.317 3.91451 116.266 3.86106 116.266 3.74669C116.266 3.64635 116.202 3.56211 116.106 3.53703C116.017 3.51379 115.946 3.42771 115.946 3.34412C115.946 3.23656 115.888 3.1932 115.745 3.1932C115.598 3.1932 115.545 3.15049 115.545 3.03291C115.545 2.928 115.491 2.87262 115.39 2.87262C115.291 2.87262 115.226 2.80818 115.21 2.69229C115.193 2.5764 115.12 2.50283 115.004 2.48632C114.888 2.46989 114.824 2.40545 114.824 2.30599C114.824 2.17608 114.766 2.15131 114.463 2.15131C114.132 2.15131 114.103 2.13496 114.103 1.95095C114.103 1.79066 114.063 1.75058 113.902 1.75058C113.755 1.75058 113.702 1.70786 113.702 1.59029C113.702 1.45669 113.648 1.43 113.381 1.43C113.122 1.43 113.061 1.40155 113.061 1.28021C113.061 1.12729 112.749 1.03216 112.24 1.03015C112.073 1.02951 112.019 0.990161 112.019 0.868981C112.019 0.725119 111.966 0.708689 111.498 0.708689C111.042 0.708689 110.978 0.690015 110.978 0.557935C110.978 0.424893 110.888 0.400449 110.216 0.350118C109.68 0.309885 109.455 0.2626 109.455 0.190309C109.455 0.133806 109.342 0.0650399 109.205 0.0374698C108.932 -0.0171093 10.8372 -0.00981582 10.4768 0.0447633ZM108.413 6.23874C108.413 6.3838 108.467 6.39903 108.974 6.39903C109.476 6.39903 109.535 6.41546 109.535 6.55443C109.535 6.67713 109.611 6.72113 109.896 6.76385C110.177 6.80601 110.256 6.85137 110.256 6.96919C110.256 7.09213 110.316 7.12034 110.577 7.12034C110.84 7.12034 110.897 7.14799 110.897 7.27502C110.897 7.37448 110.962 7.43892 111.078 7.45535C111.194 7.47186 111.267 7.54543 111.284 7.66132C111.3 7.77721 111.365 7.84165 111.464 7.84165C111.565 7.84165 111.619 7.89703 111.619 8.00194C111.619 8.10685 111.672 8.16223 111.773 8.16223C111.873 8.16223 111.937 8.22667 111.954 8.34256C111.97 8.45845 112.044 8.53203 112.159 8.54854C112.315 8.57066 112.34 8.62195 112.34 8.92923C112.34 9.22713 112.365 9.28427 112.495 9.28427C112.618 9.28427 112.662 9.36009 112.704 9.64493C112.747 9.92584 112.792 10.0056 112.91 10.0056C113.049 10.0056 113.061 10.0767 113.061 10.8872C113.061 11.7153 113.071 11.7688 113.221 11.7688C113.369 11.7688 113.381 11.8222 113.381 12.45C113.381 13.0778 113.369 13.1313 113.221 13.1313C113.069 13.1313 113.061 13.1847 113.061 14.2132C113.061 15.2417 113.053 15.2952 112.901 15.2952C112.794 15.2952 112.74 15.2417 112.74 15.1349C112.74 14.995 112.687 14.9745 112.32 14.9737C111.644 14.9723 111.317 14.8945 111.272 14.7248C111.236 14.5852 111.14 14.5739 109.983 14.5739C108.787 14.5739 108.734 14.567 108.734 14.4136C108.734 14.2573 108.681 14.2533 106.611 14.2533C104.541 14.2533 104.487 14.2573 104.487 14.4136C104.487 14.5664 104.434 14.5739 103.335 14.5739C102.076 14.5739 101.683 14.6214 101.683 14.7738C101.683 14.8897 101.26 14.9724 100.661 14.9737C100.294 14.9745 100.24 14.995 100.24 15.1349C100.24 15.2833 100.187 15.2952 99.5192 15.2952C98.8515 15.2952 98.7981 15.3071 98.7981 15.4555C98.7981 15.5767 98.7444 15.616 98.5777 15.6167C98.0688 15.6187 97.7564 15.7138 97.7564 15.8667C97.7564 15.9977 97.6909 16.0165 97.2356 16.0165C96.7682 16.0165 96.7147 16.0329 96.7147 16.1768C96.7147 16.3134 96.6613 16.3371 96.3542 16.3371C96.0508 16.3371 95.9936 16.3618 95.9936 16.4925C95.9936 16.6152 95.9178 16.6592 95.633 16.7019C95.3522 16.7441 95.2724 16.7894 95.2724 16.9072C95.2724 17.033 95.2118 17.0584 94.9119 17.0584C94.6119 17.0584 94.5513 17.0838 94.5513 17.2096C94.5513 17.3274 94.4716 17.3727 94.1907 17.4149C93.9059 17.4576 93.8301 17.5016 93.8301 17.6243C93.8301 17.755 93.7729 17.7797 93.4696 17.7797C93.168 17.7797 93.109 17.8048 93.109 17.9329C93.109 18.0493 93.0317 18.0992 92.7885 18.1404C92.5452 18.1815 92.468 18.2314 92.468 18.3478C92.468 18.4578 92.4115 18.501 92.2676 18.501C92.1227 18.501 92.0673 18.5441 92.0673 18.6567C92.0673 18.7826 92.0021 18.8171 91.7268 18.8371C91.4437 18.8575 91.3819 18.8921 91.3606 19.042C91.3421 19.1726 91.2813 19.2223 91.1402 19.2223C91.0019 19.2223 90.9455 19.2667 90.9455 19.3756C90.9455 19.4919 90.8683 19.5419 90.625 19.583C90.3817 19.6241 90.3045 19.674 90.3045 19.7904C90.3045 19.9004 90.248 19.9436 90.1042 19.9436C89.9573 19.9436 89.9038 19.9864 89.9038 20.1039C89.9038 20.2108 89.8504 20.2642 89.7436 20.2642C89.6387 20.2642 89.5833 20.3177 89.5833 20.4189C89.5833 20.5184 89.5189 20.5828 89.403 20.5992C89.2872 20.6157 89.2136 20.6893 89.1971 20.8052C89.1756 20.9572 89.1222 20.9855 88.8566 20.9855C88.5741 20.9855 88.5417 21.0061 88.5417 21.1859C88.5417 21.3287 88.4983 21.3863 88.3908 21.3863C88.3072 21.3863 88.2212 21.4578 88.1979 21.5466C88.1728 21.6425 88.0886 21.7068 87.9883 21.7068C87.8714 21.7068 87.8205 21.7577 87.8205 21.8747C87.8205 21.9723 87.7567 22.0592 87.6676 22.0824C87.5836 22.1044 87.4968 22.1912 87.4748 22.2752C87.4516 22.3643 87.3647 22.4282 87.2671 22.4282C87.1528 22.4282 87.0994 22.4792 87.0994 22.5884C87.0994 22.6934 87.0459 22.7487 86.9447 22.7487C86.8453 22.7487 86.7808 22.8132 86.7644 22.9291C86.7479 23.045 86.6744 23.1185 86.5585 23.135C86.4071 23.1565 86.3782 23.2101 86.3782 23.47C86.3782 23.73 86.3494 23.7836 86.1979 23.8051C86.0821 23.8216 86.0085 23.8951 85.992 24.011C85.9756 24.1269 85.9111 24.1914 85.8117 24.1914C85.7105 24.1914 85.6571 24.2467 85.6571 24.3517C85.6571 24.4585 85.6036 24.5119 85.4968 24.5119C85.3792 24.5119 85.3365 24.5654 85.3365 24.7123C85.3365 24.8726 85.2965 24.9127 85.1362 24.9127C84.9559 24.9127 84.9359 24.9447 84.9359 25.2333C84.9359 25.5004 84.9092 25.5538 84.7756 25.5538C84.6581 25.5538 84.6154 25.6073 84.6154 25.7542C84.6154 25.9145 84.5753 25.9546 84.4151 25.9546C84.2548 25.9546 84.2147 25.9946 84.2147 26.1549C84.2147 26.3018 84.172 26.3553 84.0545 26.3553C83.9209 26.3553 83.8942 26.4087 83.8942 26.6759C83.8942 26.9366 83.866 26.9965 83.7431 26.9965C83.6253 26.9965 83.58 27.0762 83.5378 27.3571C83.4951 27.6419 83.4511 27.7178 83.3284 27.7178C83.2161 27.7178 83.1731 27.7733 83.1731 27.9181C83.1731 28.061 83.1297 28.1185 83.022 28.1185C82.9042 28.1185 82.8588 28.1982 82.8167 28.4791C82.774 28.764 82.73 28.8398 82.6073 28.8398C82.4766 28.8398 82.4519 28.897 82.4519 29.2005C82.4519 29.5077 82.4282 29.5611 82.2917 29.5611C82.1575 29.5611 82.1314 29.6146 82.1314 29.8892C82.1314 30.1473 82.098 30.226 81.9748 30.2582C81.8611 30.288 81.8037 30.3958 81.7654 30.6515C81.7244 30.9246 81.6786 31.0037 81.5614 31.0037C81.4288 31.0037 81.4103 31.0676 81.4103 31.5247C81.4103 31.9922 81.3938 32.0456 81.25 32.0456C81.1288 32.0456 81.0895 32.0993 81.0889 32.266C81.0869 32.7751 80.9918 33.0875 80.8389 33.0875C80.7069 33.0875 80.6891 33.154 80.6891 33.6485C80.6891 34.1561 80.6739 34.2096 80.5288 34.2096C80.3885 34.2096 80.3686 34.263 80.3686 34.6403C80.3686 35.2122 80.2912 35.572 80.1683 35.572C80.0251 35.572 79.968 35.9522 79.968 36.9045C79.968 37.6825 79.9576 37.736 79.8077 37.736C79.6498 37.736 79.6474 37.7894 79.6474 41.4227C79.6474 45.0559 79.6498 45.1094 79.8077 45.1094C79.9587 45.1094 79.968 45.1628 79.968 46.031C79.968 46.8873 79.9789 46.9527 80.1222 46.9527C80.2588 46.9527 80.2829 47.0351 80.3329 47.674C80.3822 48.3053 80.408 48.3953 80.5392 48.3953C80.6739 48.3953 80.6891 48.4644 80.6891 49.0766C80.6891 49.6885 80.7043 49.7578 80.8389 49.7578C80.9918 49.7578 81.0869 50.0702 81.0889 50.5793C81.0895 50.746 81.1288 50.7997 81.25 50.7997C81.3889 50.7997 81.4103 50.8532 81.4103 51.2004C81.4103 51.5477 81.4317 51.6012 81.5705 51.6012C81.7047 51.6012 81.7308 51.6546 81.7308 51.9293C81.7308 52.1837 81.7648 52.2662 81.8825 52.297C82.0377 52.3376 82.1314 52.6225 82.1314 53.0538C82.1314 53.2262 82.1695 53.2842 82.2825 53.2842C82.3998 53.2842 82.4456 53.3634 82.4865 53.6365C82.5248 53.8922 82.5823 54 82.696 54.0297C82.7885 54.0539 82.8526 54.1394 82.8526 54.2384C82.8526 54.3528 82.9036 54.4063 83.0128 54.4063C83.1494 54.4063 83.1731 54.4597 83.1731 54.7669C83.1731 55.0703 83.1978 55.1276 83.3284 55.1276C83.4511 55.1276 83.4951 55.2034 83.5378 55.4882C83.58 55.7691 83.6253 55.8489 83.7431 55.8489C83.8509 55.8489 83.8942 55.9063 83.8942 56.0492C83.8942 56.1931 83.9374 56.2496 84.0474 56.2496C84.1638 56.2496 84.2137 56.3269 84.2548 56.5702C84.2959 56.8135 84.3458 56.8908 84.4622 56.8908C84.5722 56.8908 84.6154 56.9473 84.6154 57.0911C84.6154 57.238 84.6581 57.2915 84.7756 57.2915C84.8849 57.2915 84.9359 57.345 84.9359 57.4593C84.9359 57.5599 85.0003 57.6439 85.0967 57.6692C85.2101 57.6988 85.2722 57.803 85.3073 58.0223C85.3446 58.2552 85.3947 58.3334 85.5071 58.3334C85.6018 58.3334 85.6571 58.3904 85.6571 58.4881C85.6571 58.5875 85.7215 58.652 85.8373 58.6684C85.9532 58.6849 86.0268 58.7585 86.0433 58.8744C86.0597 58.9903 86.1241 59.0547 86.2236 59.0547C86.3248 59.0547 86.3782 59.1101 86.3782 59.215C86.3782 59.3199 86.4317 59.3753 86.5329 59.3753C86.6323 59.3753 86.6967 59.4397 86.7131 59.5556C86.7297 59.6715 86.8032 59.7451 86.9191 59.7616C87.0349 59.778 87.0994 59.8425 87.0994 59.9419C87.0994 60.0413 87.1547 60.0966 87.254 60.0966C87.3535 60.0966 87.4179 60.161 87.4343 60.2769C87.4508 60.3928 87.5244 60.4664 87.6402 60.4829C87.7561 60.4993 87.8205 60.5638 87.8205 60.6632C87.8205 60.7626 87.8758 60.8179 87.9752 60.8179C88.0746 60.8179 88.139 60.8823 88.1555 60.9982C88.172 61.1141 88.2455 61.1877 88.3614 61.2042C88.4772 61.2206 88.5417 61.2851 88.5417 61.3845C88.5417 61.4858 88.597 61.5392 88.7019 61.5392C88.8068 61.5392 88.8622 61.5927 88.8622 61.6939C88.8622 61.7934 88.9266 61.8578 89.0425 61.8742C89.1583 61.8907 89.2319 61.9643 89.2484 62.0802C89.27 62.2322 89.3233 62.2605 89.5889 62.2605C89.8466 62.2605 89.9038 62.2887 89.9038 62.4152C89.9038 62.5147 89.9683 62.5791 90.0841 62.5955C90.2 62.6121 90.2736 62.6856 90.2901 62.8015C90.3065 62.9174 90.3709 62.9818 90.4704 62.9818C90.5685 62.9818 90.625 63.0371 90.625 63.133C90.625 63.2508 90.7047 63.2962 90.9856 63.3383C91.2704 63.381 91.3462 63.4251 91.3462 63.5478C91.3462 63.6601 91.4017 63.7032 91.5465 63.7032C91.6934 63.7032 91.7468 63.7459 91.7468 63.8634C91.7468 63.997 91.8002 64.0237 92.0673 64.0237C92.3344 64.0237 92.3878 64.0504 92.3878 64.184C92.3878 64.3016 92.4413 64.3443 92.5881 64.3443C92.801 64.3443 92.8204 64.4051 92.7384 64.8152C92.6891 65.0615 92.6807 65.0656 92.2176 65.0656C91.8107 65.0656 91.7468 65.086 91.7468 65.2159C91.7468 65.3815 91.472 65.4664 90.9355 65.4664C90.6784 65.4664 90.625 65.4939 90.625 65.6266C90.625 65.7632 90.5716 65.7869 90.2644 65.7869C89.9611 65.7869 89.9038 65.8116 89.9038 65.9423C89.9038 66.065 89.828 66.109 89.5433 66.1518C89.2624 66.1939 89.1827 66.2393 89.1827 66.3571C89.1827 66.4885 89.1196 66.5083 88.7019 66.5083C88.2842 66.5083 88.2212 66.528 88.2212 66.6594C88.2212 66.7772 88.1414 66.8226 87.8606 66.8647C87.5758 66.9075 87.5 66.9515 87.5 67.0742C87.5 67.2049 87.4428 67.2296 87.1394 67.2296C86.8395 67.2296 86.7788 67.255 86.7788 67.3807C86.7788 67.4985 86.6991 67.5439 86.4183 67.586C86.1335 67.6288 86.0577 67.6728 86.0577 67.7955C86.0577 67.9078 86.0022 67.9509 85.8574 67.9509C85.7105 67.9509 85.6571 67.9936 85.6571 68.1112C85.6571 68.2477 85.6036 68.2715 85.2965 68.2715C84.9949 68.2715 84.9359 68.2965 84.9359 68.4247C84.9359 68.5411 84.8587 68.591 84.6154 68.6321C84.3721 68.6732 84.2949 68.7232 84.2949 68.8395C84.2949 68.9496 84.2384 68.9928 84.0946 68.9928C83.9517 68.9928 83.8942 69.0361 83.8942 69.1439C83.8942 69.2617 83.8145 69.3071 83.5337 69.3493C83.2489 69.392 83.1731 69.436 83.1731 69.5587C83.1731 69.671 83.1176 69.7141 82.9728 69.7141C82.8289 69.7141 82.7724 69.7573 82.7724 69.8673C82.7724 69.9837 82.6952 70.0336 82.4519 70.0747C82.2087 70.1158 82.1314 70.1658 82.1314 70.2821C82.1314 70.3922 82.0749 70.4354 81.9311 70.4354C81.7842 70.4354 81.7308 70.4781 81.7308 70.5957C81.7308 70.7288 81.6773 70.756 81.4159 70.756C81.1502 70.756 81.0969 70.7843 81.0753 70.9363C81.0588 71.0522 80.9853 71.1258 80.8694 71.1423C80.7535 71.1587 80.6891 71.2231 80.6891 71.3226C80.6891 71.4342 80.6333 71.4773 80.4888 71.4773C80.345 71.4773 80.2885 71.5205 80.2885 71.6305C80.2885 71.7469 80.2112 71.7968 79.968 71.8379C79.7247 71.879 79.6474 71.929 79.6474 72.0454C79.6474 72.1554 79.5909 72.1986 79.4471 72.1986C79.3002 72.1986 79.2468 72.2413 79.2468 72.3589C79.2468 72.4657 79.1934 72.5192 79.0865 72.5192C78.969 72.5192 78.9263 72.5726 78.9263 72.7195C78.9263 72.8798 78.8862 72.9199 78.726 72.9199C78.5791 72.9199 78.5256 72.9626 78.5256 73.0802C78.5256 73.187 78.4722 73.2405 78.3654 73.2405C78.2603 73.2405 78.2051 73.2939 78.2051 73.3959C78.2051 73.5186 78.1293 73.5626 77.8446 73.6053C77.5637 73.6475 77.484 73.6928 77.484 73.8106C77.484 73.9083 77.4273 73.9618 77.3237 73.9618C77.2062 73.9618 77.1635 74.0153 77.1635 74.1622C77.1635 74.3224 77.1234 74.3625 76.9631 74.3625C76.8163 74.3625 76.7628 74.4052 76.7628 74.5228C76.7628 74.6296 76.7094 74.6831 76.6026 74.6831C76.4934 74.6831 76.4423 74.7366 76.4423 74.8509C76.4423 74.9513 76.378 75.0355 76.2821 75.0606C76.1934 75.0838 76.1218 75.1699 76.1218 75.2535C76.1218 75.3611 76.0643 75.4044 75.9215 75.4044C75.7746 75.4044 75.7212 75.4471 75.7212 75.5647C75.7212 75.6715 75.6677 75.725 75.5609 75.725C75.4434 75.725 75.4006 75.7785 75.4006 75.9254C75.4006 76.0857 75.3606 76.1257 75.2003 76.1257C75.0401 76.1257 75 76.1658 75 76.3261C75 76.473 74.9573 76.5265 74.8397 76.5265C74.7329 76.5265 74.6795 76.5799 74.6795 76.6867C74.6795 76.7912 74.626 76.847 74.5263 76.847C74.4103 76.847 74.3601 76.9239 74.3197 77.1629C74.2788 77.4053 74.226 77.4844 74.0923 77.5035C73.9826 77.5191 73.9088 77.595 73.8926 77.7086C73.8762 77.8245 73.8118 77.8889 73.7123 77.8889C73.6111 77.8889 73.5577 77.9443 73.5577 78.0492C73.5577 78.1561 73.5042 78.2095 73.3974 78.2095C73.2799 78.2095 73.2372 78.263 73.2372 78.4099C73.2372 78.5544 73.1941 78.6102 73.0825 78.6102C72.9831 78.6102 72.9187 78.6747 72.9022 78.7906C72.8857 78.9065 72.8122 78.98 72.6963 78.9965C72.5443 79.0181 72.516 79.0715 72.516 79.3372C72.516 79.6197 72.4954 79.6521 72.3157 79.6521C72.1555 79.6521 72.1154 79.6922 72.1154 79.8525C72.1154 79.9994 72.0727 80.0529 71.9551 80.0529C71.8483 80.0529 71.7949 80.1063 71.7949 80.2132C71.7949 80.3168 71.7414 80.3734 71.6438 80.3734C71.526 80.3734 71.4806 80.4532 71.4385 80.7341C71.3958 81.0189 71.3518 81.0948 71.2291 81.0948C71.1167 81.0948 71.0737 81.1503 71.0737 81.2951C71.0737 81.439 71.0305 81.4955 70.9205 81.4955C70.8042 81.4955 70.7542 81.5727 70.7131 81.8161C70.672 82.0594 70.6221 82.1366 70.5058 82.1366C70.3958 82.1366 70.3526 82.1932 70.3526 82.337C70.3526 82.4839 70.3099 82.5374 70.1923 82.5374C70.0587 82.5374 70.0321 82.5908 70.0321 82.858C70.0321 83.1251 70.0054 83.1785 69.8718 83.1785C69.7542 83.1785 69.7115 83.232 69.7115 83.3789C69.7115 83.5392 69.6715 83.5793 69.5112 83.5793C69.3272 83.5793 69.3109 83.6087 69.3109 83.9399C69.3109 84.2399 69.2855 84.3006 69.1598 84.3006C69.042 84.3006 68.9966 84.3803 68.9545 84.6612C68.9118 84.9461 68.8678 85.0219 68.7451 85.0219C68.6173 85.0219 68.5897 85.0787 68.5897 85.3425C68.5897 85.6032 68.5615 85.6631 68.4386 85.6631C68.3208 85.6631 68.2755 85.7428 68.2333 86.0237C68.1906 86.3085 68.1466 86.3844 68.024 86.3844C67.8933 86.3844 67.8686 86.4416 67.8686 86.745C67.8686 87.0522 67.8449 87.1057 67.7083 87.1057C67.5722 87.1057 67.5481 87.1591 67.5481 87.4607C67.5481 87.768 67.5238 87.8193 67.3678 87.8414C67.218 87.8627 67.1833 87.9245 67.1629 88.2077C67.143 88.4831 67.1084 88.5483 66.9826 88.5483C66.8515 88.5483 66.8269 88.6053 66.8269 88.909C66.8269 89.2162 66.8032 89.2696 66.6667 89.2696C66.5381 89.2696 66.5064 89.3231 66.5064 89.5401C66.5064 90.0377 66.4176 90.3115 66.256 90.3115C66.1245 90.3115 66.1058 90.3765 66.1058 90.8324C66.1058 91.2999 66.0893 91.3534 65.9455 91.3534C65.8085 91.3534 65.7853 91.4069 65.7853 91.7216C65.7853 92.0153 65.7546 92.0977 65.6336 92.1294C65.4585 92.1752 65.3846 92.4592 65.3846 93.0865C65.3846 93.4552 65.3628 93.5173 65.2335 93.5173C65.1157 93.5173 65.0704 93.5971 65.0282 93.878L64.9741 94.2386H37.9759C11.031 94.2386 10.9776 94.2383 10.9776 94.0783C10.9776 93.9345 10.9241 93.9181 10.4567 93.9181C9.99479 93.9181 9.9359 93.9005 9.9359 93.7627C9.9359 93.64 9.8601 93.5959 9.57532 93.5532C9.29912 93.5118 9.21474 93.4648 9.21474 93.3525C9.21474 93.2374 9.14175 93.2007 8.8742 93.1813C8.59111 93.1608 8.52933 93.1262 8.50801 92.9763C8.49159 92.8605 8.42716 92.796 8.32772 92.796C8.22652 92.796 8.17308 92.7406 8.17308 92.6357C8.17308 92.5182 8.11963 92.4754 7.97276 92.4754C7.82588 92.4754 7.77244 92.4327 7.77244 92.3151C7.77244 92.2083 7.71899 92.1549 7.61218 92.1549C7.49463 92.1549 7.45192 92.1014 7.45192 91.9545C7.45192 91.8106 7.40874 91.7541 7.29872 91.7541C7.18237 91.7541 7.13245 91.6769 7.09135 91.4335C7.05024 91.1902 7.00032 91.113 6.88397 91.113C6.75585 91.113 6.73077 91.054 6.73077 90.7523C6.73077 90.4451 6.70705 90.3916 6.57051 90.3916C6.44335 90.3916 6.4101 90.3379 6.40938 90.1312C6.40785 89.679 6.3129 89.2696 6.20945 89.2696C6.09639 89.2696 6.00962 88.9174 6.00962 88.4581C6.00962 88.201 5.98205 88.1476 5.84936 88.1476C5.68934 88.1476 5.6891 88.0941 5.6891 49.7578C5.6891 11.4215 5.68934 11.3681 5.84936 11.3681C5.9972 11.3681 6.00962 11.3146 6.00962 10.6793C6.00962 10.0665 6.02668 9.98611 6.16418 9.95012C6.27003 9.92247 6.33534 9.81123 6.37155 9.597C6.41138 9.36089 6.46186 9.28427 6.57757 9.28427C6.70537 9.28427 6.73077 9.22537 6.73077 8.92923C6.73077 8.62195 6.75505 8.57066 6.91106 8.54854C7.02692 8.53203 7.10048 8.45845 7.11699 8.34256C7.13341 8.22667 7.19784 8.16223 7.29728 8.16223C7.39848 8.16223 7.45192 8.10685 7.45192 8.00194C7.45192 7.89703 7.50537 7.84165 7.60657 7.84165C7.70601 7.84165 7.77043 7.77721 7.78686 7.66132C7.80337 7.54543 7.87692 7.47186 7.99279 7.45535C8.10865 7.43892 8.17308 7.37448 8.17308 7.27502C8.17308 7.14799 8.23037 7.12034 8.49359 7.12034C8.75425 7.12034 8.8141 7.09213 8.8141 6.96919C8.8141 6.85137 8.89383 6.80601 9.17468 6.76385C9.45946 6.72113 9.53526 6.67713 9.53526 6.55443C9.53526 6.41546 9.59455 6.39903 10.0962 6.39903C10.6036 6.39903 10.6571 6.3838 10.6571 6.23874C10.6571 6.07861 10.7105 6.07845 59.5353 6.07845C108.36 6.07845 108.413 6.07861 108.413 6.23874ZM24.1418 12.2497C24.1085 12.3772 24.0322 12.41 23.7687 12.4105C23.5865 12.4108 23.1941 12.4341 22.8966 12.4622C22.4416 12.5052 22.3558 12.5369 22.3558 12.662C22.3558 12.7916 22.2888 12.8107 21.8349 12.8107C21.378 12.8107 21.3141 12.8292 21.3141 12.9618C21.3141 13.0796 21.2344 13.125 20.9535 13.1672C20.6688 13.2099 20.5929 13.2539 20.5929 13.3766C20.5929 13.5044 20.5361 13.532 20.2724 13.532C20.0054 13.532 19.9519 13.5587 19.9519 13.6923C19.9519 13.8086 19.8985 13.8526 19.7572 13.8526C19.6162 13.8526 19.5554 13.9023 19.5369 14.0329C19.5204 14.1488 19.4468 14.2224 19.3309 14.2389C19.2151 14.2553 19.1506 14.3197 19.1506 14.4192C19.1506 14.5462 19.0934 14.5739 18.8301 14.5739C18.5417 14.5739 18.5096 14.5939 18.5096 14.7742C18.5096 14.9345 18.4696 14.9746 18.3093 14.9746C18.1624 14.9746 18.109 15.0173 18.109 15.1349C18.109 15.2417 18.0555 15.2952 17.9487 15.2952C17.8312 15.2952 17.7885 15.3487 17.7885 15.4956C17.7885 15.6421 17.7457 15.6959 17.6292 15.6959C17.5053 15.6959 17.4584 15.7672 17.4186 16.0165C17.38 16.2581 17.3304 16.3371 17.2173 16.3371C17.1107 16.3371 17.0673 16.3951 17.0673 16.5375C17.0673 16.6977 17.0272 16.7378 16.867 16.7378C16.6867 16.7378 16.6667 16.7699 16.6667 17.0584C16.6667 17.3255 16.64 17.379 16.5064 17.379C16.3703 17.379 16.3462 17.4324 16.3462 17.734C16.3462 18.0413 16.3219 18.0926 16.1659 18.1147C16.012 18.1366 15.982 18.1962 15.9611 18.5211C15.9409 18.8363 15.9099 18.9017 15.7809 18.9017C15.6387 18.9017 15.625 18.9615 15.625 19.583C15.625 20.1943 15.6097 20.2642 15.4756 20.2642C15.3408 20.2642 15.3206 20.3626 15.2687 21.2737C15.2371 21.8288 15.2369 22.7124 15.2681 23.2372C15.3194 24.0958 15.3401 24.1914 15.475 24.1914C15.6098 24.1914 15.625 24.2604 15.625 24.8726C15.625 25.4847 15.6402 25.5538 15.7749 25.5538C15.8943 25.5538 15.9357 25.6354 15.978 25.9546C16.0214 26.2815 16.0602 26.3553 16.1886 26.3553C16.3219 26.3553 16.3462 26.4108 16.3462 26.7159C16.3462 27.0176 16.3712 27.0766 16.4994 27.0766C16.6157 27.0766 16.6656 27.1539 16.7067 27.3972C16.7478 27.6405 16.7978 27.7178 16.9141 27.7178C17.0241 27.7178 17.0673 27.7743 17.0673 27.9181C17.0673 28.065 17.11 28.1185 17.2276 28.1185C17.3451 28.1185 17.3878 28.172 17.3878 28.3189C17.3878 28.4654 17.4306 28.5192 17.5471 28.5192C17.671 28.5192 17.7179 28.5905 17.7577 28.8398C17.7963 29.0814 17.8459 29.1604 17.959 29.1604C18.0533 29.1604 18.109 29.2173 18.109 29.3136C18.109 29.43 18.1862 29.4799 18.4295 29.521C18.6728 29.5622 18.75 29.6121 18.75 29.7285C18.75 29.8385 18.8065 29.8817 18.9503 29.8817C19.0948 29.8817 19.1506 29.9248 19.1506 30.0364C19.1506 30.1358 19.2151 30.2003 19.3309 30.2167C19.4468 30.2332 19.5204 30.3068 19.5369 30.4227C19.5584 30.5747 19.6118 30.603 19.8774 30.603C20.1389 30.603 20.1923 30.6302 20.1923 30.7633C20.1923 30.8809 20.2458 30.9236 20.3926 30.9236C20.5374 30.9236 20.5929 30.9666 20.5929 31.079C20.5929 31.2017 20.6688 31.2457 20.9535 31.2884C21.2344 31.3306 21.3141 31.3759 21.3141 31.4937C21.3141 31.6265 21.3781 31.6449 21.8425 31.6449C22.2934 31.6449 22.3766 31.6671 22.4104 31.7966C22.4597 31.9849 22.7418 32.0456 23.5677 32.0456C24.1453 32.0456 24.1987 32.0592 24.1987 32.2059C24.1987 32.358 24.2522 32.3662 25.2404 32.3662C26.2286 32.3662 26.2821 32.358 26.2821 32.2059C26.2821 32.0592 26.3355 32.0456 26.9131 32.0456C27.7654 32.0456 28.0449 31.9838 28.0449 31.7952C28.0449 31.6637 28.1099 31.6449 28.5657 31.6449C29.0331 31.6449 29.0865 31.6285 29.0865 31.4846C29.0865 31.3484 29.14 31.3243 29.4415 31.3243C29.7487 31.3243 29.8 31.3 29.8221 31.144C29.8434 30.9941 29.9052 30.9595 30.1883 30.9391C30.4636 30.9191 30.5288 30.8846 30.5288 30.7587C30.5288 30.646 30.5842 30.603 30.7292 30.603C30.8894 30.603 30.9295 30.5629 30.9295 30.4026C30.9295 30.2424 30.9696 30.2023 31.1298 30.2023C31.2767 30.2023 31.3301 30.1596 31.3301 30.042C31.3301 29.9084 31.3836 29.8817 31.6506 29.8817C31.9391 29.8817 31.9712 29.8617 31.9712 29.6813C31.9712 29.5344 32.0139 29.481 32.1314 29.481C32.2382 29.481 32.2917 29.4275 32.2917 29.3207C32.2917 29.2031 32.3451 29.1604 32.492 29.1604C32.6723 29.1604 32.6923 29.1283 32.6923 28.8398C32.6923 28.5727 32.719 28.5192 32.8526 28.5192C32.9701 28.5192 33.0128 28.4658 33.0128 28.3189C33.0128 28.1586 33.0529 28.1185 33.2131 28.1185C33.3734 28.1185 33.4135 28.0784 33.4135 27.9181C33.4135 27.7731 33.4565 27.7178 33.5692 27.7178C33.695 27.7178 33.7295 27.6525 33.7494 27.3771C33.7699 27.094 33.8045 27.0322 33.9543 27.0109C34.1103 26.9888 34.1346 26.9375 34.1346 26.6302C34.1346 26.3286 34.1587 26.2751 34.2949 26.2751C34.4371 26.2751 34.4551 26.2217 34.4551 25.7992V25.3233L34.7957 25.2749C34.9829 25.2483 37.2997 25.2371 39.9439 25.2499L44.7516 25.2733V35.9327V46.5921L44.5713 46.6177C44.4555 46.6341 44.391 46.6986 44.391 46.798C44.391 46.9491 44.2804 46.9527 39.6234 46.9527C34.9092 46.9527 34.8558 46.951 34.8558 46.7924C34.8558 46.6749 34.8023 46.6321 34.6554 46.6321C34.4685 46.6321 34.4551 46.6054 34.4551 46.2314C34.4551 45.8841 34.4337 45.8307 34.2949 45.8307C34.1613 45.8307 34.1346 45.7772 34.1346 45.5101C34.1346 45.2463 34.1071 45.1895 33.9792 45.1895C33.8566 45.1895 33.8126 45.1137 33.7699 44.8289C33.7292 44.5574 33.6807 44.4682 33.5737 44.4682C33.4667 44.4682 33.4183 44.379 33.3776 44.1075C33.3349 43.8227 33.2909 43.7469 33.1682 43.7469C33.0663 43.7469 33.0128 43.6918 33.0128 43.5866C33.0128 43.4798 32.9594 43.4263 32.8526 43.4263C32.735 43.4263 32.6923 43.3729 32.6923 43.2259C32.6923 43.079 32.6496 43.0256 32.5321 43.0256C32.4252 43.0256 32.3718 42.9721 32.3718 42.8653C32.3718 42.7477 32.3184 42.705 32.1715 42.705C32.0112 42.705 31.9712 42.6649 31.9712 42.5046C31.9712 42.3577 31.9284 42.3043 31.8109 42.3043C31.7041 42.3043 31.6506 42.2508 31.6506 42.144C31.6506 42.0264 31.5972 41.9837 31.4503 41.9837C31.3065 41.9837 31.25 41.9405 31.25 41.8305C31.25 41.7141 31.1728 41.6641 30.9295 41.623C30.6862 41.5819 30.609 41.532 30.609 41.4156C30.609 41.3056 30.5525 41.2624 30.4087 41.2624C30.2658 41.2624 30.2083 41.219 30.2083 41.1112C30.2083 40.9934 30.1286 40.948 29.8478 40.9059C29.563 40.8632 29.4872 40.8192 29.4872 40.6965C29.4872 40.5586 29.4283 40.5411 28.9663 40.5411C28.499 40.5411 28.4455 40.5246 28.4455 40.3808C28.4455 40.2536 28.3918 40.2203 28.1851 40.2196C27.733 40.2181 27.3237 40.1231 27.3237 40.0196C27.3237 39.8572 26.9152 39.8198 25.1427 39.8198C23.5538 39.8198 23.4604 39.8281 23.4224 39.9735C23.3884 40.1036 23.2785 40.1359 22.7087 40.1833C22.1227 40.2322 22.0353 40.259 22.0353 40.3902C22.0353 40.5081 21.9762 40.5411 21.7648 40.5411C21.3365 40.5411 20.9936 40.6321 20.9936 40.7458C20.9936 40.8034 20.9125 40.862 20.8133 40.8761C20.6974 40.8926 20.6239 40.9662 20.6074 41.082C20.5853 41.2381 20.534 41.2624 20.2268 41.2624C19.9307 41.2624 19.8718 41.2878 19.8718 41.4156C19.8718 41.532 19.7946 41.5819 19.5513 41.623C19.308 41.6641 19.2308 41.7141 19.2308 41.8305C19.2308 41.9405 19.1743 41.9837 19.0304 41.9837C18.8836 41.9837 18.8301 42.0264 18.8301 42.144C18.8301 42.2489 18.7767 42.3043 18.6755 42.3043C18.576 42.3043 18.5116 42.3687 18.4952 42.4846C18.4787 42.6005 18.4051 42.6741 18.2893 42.6906C18.1734 42.707 18.109 42.7714 18.109 42.8709C18.109 42.9703 18.0537 43.0256 17.9543 43.0256C17.8549 43.0256 17.7905 43.09 17.774 43.2059C17.7575 43.3218 17.684 43.3954 17.5681 43.4119C17.4522 43.4283 17.3878 43.4928 17.3878 43.5922C17.3878 43.6934 17.3325 43.7469 17.2276 43.7469C17.091 43.7469 17.0673 43.8003 17.0673 44.1075C17.0673 44.4388 17.051 44.4682 16.867 44.4682C16.7067 44.4682 16.6667 44.5083 16.6667 44.6686C16.6667 44.8155 16.624 44.8689 16.5064 44.8689C16.3723 44.8689 16.3462 44.9224 16.3462 45.197C16.3462 45.4515 16.3121 45.534 16.1945 45.5648C16.0393 45.6054 15.9455 45.8902 15.9455 46.3216C15.9455 46.4985 15.9083 46.552 15.7853 46.552C15.6402 46.552 15.625 46.6054 15.625 47.113C15.625 47.6065 15.6071 47.674 15.476 47.674C15.3398 47.674 15.322 47.778 15.2697 48.8747C15.2383 49.5351 15.2381 50.4908 15.2695 50.9985C15.3204 51.8256 15.3418 51.9217 15.4756 51.9217C15.6071 51.9217 15.625 51.9888 15.625 52.4828C15.625 52.9903 15.6402 53.0438 15.7853 53.0438C15.9064 53.0438 15.9458 53.0975 15.9464 53.2642C15.9484 53.7733 16.0435 54.0857 16.1964 54.0857C16.3177 54.0857 16.3462 54.1466 16.3462 54.4063C16.3462 54.6734 16.3728 54.7268 16.5064 54.7268C16.624 54.7268 16.6667 54.7803 16.6667 54.9272C16.6667 55.072 16.7097 55.1276 16.822 55.1276C16.9447 55.1276 16.9887 55.2034 17.0314 55.4882C17.0736 55.7691 17.1189 55.8489 17.2367 55.8489C17.3326 55.8489 17.3878 55.9054 17.3878 56.0036C17.3878 56.103 17.4522 56.1675 17.5681 56.1839C17.684 56.2004 17.7575 56.274 17.774 56.3899C17.7905 56.5058 17.8549 56.5702 17.9543 56.5702C18.0555 56.5702 18.109 56.6256 18.109 56.7305C18.109 56.8354 18.1624 56.8908 18.2636 56.8908C18.3631 56.8908 18.4275 56.9552 18.4439 57.0711C18.4604 57.187 18.534 57.2606 18.6498 57.2771C18.7657 57.2935 18.8301 57.3579 18.8301 57.4574C18.8301 57.5586 18.8855 57.6121 18.9904 57.6121C19.094 57.6121 19.1506 57.6655 19.1506 57.7632C19.1506 57.8811 19.2304 57.9264 19.5112 57.9686C19.796 58.0113 19.8718 58.0553 19.8718 58.178C19.8718 58.2904 19.9273 58.3334 20.0721 58.3334C20.215 58.3334 20.2724 58.3768 20.2724 58.4845C20.2724 58.6024 20.3522 58.6477 20.633 58.6899C20.9178 58.7326 20.9936 58.7766 20.9936 58.8993C20.9936 59.03 21.0508 59.0547 21.3542 59.0547C21.6613 59.0547 21.7147 59.0784 21.7147 59.215C21.7147 59.3554 21.7682 59.3753 22.1454 59.3753C22.7996 59.3753 23.0769 59.4498 23.0769 59.6257C23.0769 59.7687 23.1756 59.776 25.1102 59.776C27.3553 59.776 27.6111 59.7511 27.6697 59.527C27.7035 59.3975 27.7867 59.3753 28.2377 59.3753C28.7126 59.3753 28.766 59.3591 28.766 59.215C28.766 59.0784 28.8195 59.0547 29.1266 59.0547C29.43 59.0547 29.4872 59.03 29.4872 58.8993C29.4872 58.7766 29.563 58.7326 29.8478 58.6899C30.1286 58.6477 30.2083 58.6024 30.2083 58.4845C30.2083 58.3621 30.2681 58.3334 30.5232 58.3334C30.7889 58.3334 30.8422 58.3051 30.8638 58.1531C30.8803 58.0372 30.9538 57.9636 31.0697 57.9471C31.1856 57.9307 31.25 57.8662 31.25 57.7668C31.25 57.6552 31.3059 57.6121 31.4503 57.6121C31.5972 57.6121 31.6506 57.5694 31.6506 57.4518C31.6506 57.3469 31.7041 57.2915 31.8053 57.2915C31.9047 57.2915 31.9692 57.2271 31.9856 57.1112C32.0021 56.9953 32.0756 56.9217 32.1915 56.9052C32.3074 56.8888 32.3718 56.8243 32.3718 56.7249C32.3718 56.6237 32.4272 56.5702 32.5321 56.5702C32.6496 56.5702 32.6923 56.5167 32.6923 56.3698C32.6923 56.2229 32.735 56.1695 32.8526 56.1695C32.9594 56.1695 33.0128 56.116 33.0128 56.0092C33.0128 55.8916 33.0663 55.8489 33.2131 55.8489C33.3971 55.8489 33.4135 55.8195 33.4135 55.4882C33.4135 55.1892 33.4391 55.1276 33.5635 55.1276C33.6758 55.1276 33.726 55.0494 33.7632 54.8164C33.7983 54.5972 33.8604 54.493 33.9738 54.4633C34.1018 54.4298 34.1346 54.3542 34.1346 54.0932C34.1346 53.8216 34.1615 53.7651 34.2905 53.7651C34.4196 53.7651 34.4506 53.6997 34.4708 53.3844L34.4952 53.0037H39.6234H44.7516L44.772 64.0037L44.7922 75.0037H39.6237H34.4551V74.4827C34.4551 74.0204 34.4377 73.9618 34.2994 73.9618C34.1736 73.9618 34.1391 73.8966 34.1192 73.6212C34.0987 73.338 34.0641 73.2762 33.9143 73.2549C33.7623 73.2334 33.734 73.18 33.734 72.9143C33.734 72.6528 33.7068 72.5993 33.5737 72.5993C33.4562 72.5993 33.4135 72.5459 33.4135 72.399C33.4135 72.2545 33.3704 72.1986 33.2588 72.1986C33.1594 72.1986 33.095 72.1342 33.0785 72.0183C33.062 71.9024 32.9885 71.8288 32.8726 71.8123C32.7206 71.7907 32.6923 71.7374 32.6923 71.4717C32.6923 71.1892 32.6717 71.1567 32.492 71.1567C32.3317 71.1567 32.2917 71.1166 32.2917 70.9563C32.2917 70.8094 32.249 70.756 32.1314 70.756C32.0282 70.756 31.9712 70.7025 31.9712 70.6059C31.9712 70.4936 31.8929 70.4434 31.6601 70.4061C31.4409 70.371 31.3367 70.3089 31.3071 70.1955C31.2818 70.0991 31.1978 70.0347 31.0973 70.0347C30.9829 70.0347 30.9295 69.9836 30.9295 69.8744C30.9295 69.7568 30.876 69.7141 30.7292 69.7141C30.5844 69.7141 30.5288 69.671 30.5288 69.5587C30.5288 69.436 30.453 69.392 30.1683 69.3493C29.8874 69.3071 29.8077 69.2617 29.8077 69.1439C29.8077 69.0182 29.747 68.9928 29.4471 68.9928C29.14 68.9928 29.0865 68.969 29.0865 68.8325C29.0865 68.7113 29.0329 68.6719 28.8662 68.6713C28.3572 68.6693 28.0449 68.5742 28.0449 68.4212C28.0449 68.284 27.9709 68.2715 27.1635 68.2715C26.3355 68.2715 26.2821 68.2618 26.2821 68.1112C26.2821 67.9588 26.2286 67.9509 25.2003 67.9509C24.172 67.9509 24.1186 67.9588 24.1186 68.1112C24.1186 68.2579 24.0651 68.2715 23.4876 68.2715C22.7268 68.2715 22.3558 68.3372 22.3558 68.4718C22.3558 68.5816 22.0073 68.6722 21.5845 68.6722C21.3675 68.6722 21.3141 68.7038 21.3141 68.8325C21.3141 68.969 21.2607 68.9928 20.9535 68.9928C20.6519 68.9928 20.5929 69.0178 20.5929 69.146C20.5929 69.2624 20.5157 69.3123 20.2724 69.3534C20.0292 69.3945 19.9519 69.4445 19.9519 69.5608C19.9519 69.6709 19.8954 69.7141 19.7516 69.7141C19.6047 69.7141 19.5513 69.7568 19.5513 69.8744C19.5513 69.9919 19.4978 70.0347 19.351 70.0347C19.2071 70.0347 19.1506 70.0779 19.1506 70.1879C19.1506 70.3039 19.0738 70.3541 18.8349 70.3945C18.5925 70.4355 18.5134 70.4883 18.4943 70.622C18.4787 70.7317 18.4029 70.8055 18.2893 70.8217C18.1734 70.8381 18.109 70.9026 18.109 71.002C18.109 71.1009 18.0537 71.1567 17.9558 71.1567C17.8394 71.1567 17.7895 71.234 17.7484 71.4773C17.7073 71.7206 17.6574 71.7979 17.541 71.7979C17.431 71.7979 17.3878 71.8544 17.3878 71.9982C17.3878 72.1427 17.3447 72.1986 17.2332 72.1986C17.1337 72.1986 17.0693 72.263 17.0529 72.3789C17.0364 72.4948 16.9628 72.5684 16.847 72.5849C16.695 72.6064 16.6667 72.6598 16.6667 72.9255C16.6667 73.187 16.6395 73.2405 16.5064 73.2405C16.3703 73.2405 16.3462 73.2939 16.3462 73.5955C16.3462 73.9028 16.3219 73.9541 16.1659 73.9762C16.016 73.9975 15.9814 74.0593 15.961 74.3425C15.941 74.6179 15.9065 74.6831 15.7807 74.6831C15.6381 74.6831 15.625 74.7436 15.625 75.4044C15.625 76.0569 15.6107 76.1257 15.4744 76.1257C15.3381 76.1257 15.3183 76.2206 15.2665 77.1187C15.235 77.6648 15.2353 78.5484 15.2671 79.0823C15.3193 79.9566 15.34 80.0529 15.475 80.0529C15.6098 80.0529 15.625 80.1219 15.625 80.7341C15.625 81.3483 15.6399 81.4153 15.7761 81.4153C15.8933 81.4153 15.9392 81.4945 15.9801 81.7676C16.0184 82.0233 16.0759 82.1311 16.1896 82.1609C16.3127 82.1931 16.3462 82.2718 16.3462 82.5298C16.3462 82.7979 16.3738 82.858 16.4973 82.858C16.6151 82.858 16.6604 82.9377 16.7026 83.2186C16.7453 83.5035 16.7893 83.5793 16.9119 83.5793C17.0243 83.5793 17.0673 83.6348 17.0673 83.7796C17.0673 83.9265 17.11 83.98 17.2276 83.98C17.3344 83.98 17.3878 84.0335 17.3878 84.1403C17.3878 84.2447 17.4413 84.3006 17.541 84.3006C17.6574 84.3006 17.7073 84.3778 17.7484 84.6212C17.7895 84.8645 17.8394 84.9417 17.9558 84.9417C18.0658 84.9417 18.109 84.9982 18.109 85.1421C18.109 85.3024 18.149 85.3425 18.3093 85.3425C18.4531 85.3425 18.5096 85.3857 18.5096 85.4957C18.5096 85.6121 18.5869 85.662 18.8301 85.7031C19.0734 85.7442 19.1506 85.7942 19.1506 85.9105C19.1506 86.0206 19.2071 86.0638 19.351 86.0638C19.4948 86.0638 19.5513 86.107 19.5513 86.217C19.5513 86.3334 19.6285 86.3833 19.8718 86.4244C20.1151 86.4656 20.1923 86.5155 20.1923 86.6319C20.1923 86.7419 20.2488 86.7851 20.3926 86.7851C20.5395 86.7851 20.5929 86.8278 20.5929 86.9454C20.5929 87.082 20.6464 87.1057 20.9535 87.1057C21.2526 87.1057 21.3141 87.1312 21.3141 87.2559C21.3141 87.4175 21.5878 87.5064 22.0853 87.5064C22.3023 87.5064 22.3558 87.5381 22.3558 87.6667C22.3558 87.8131 22.4095 87.8271 22.9768 87.8279C23.7873 87.829 24.1987 87.8997 24.1987 88.0378C24.1987 88.1251 24.4121 88.1476 25.2404 88.1476C26.0687 88.1476 26.2821 88.1251 26.2821 88.0378C26.2821 87.9018 26.6915 87.8291 27.4639 87.8279C27.9912 87.8271 28.0449 87.8122 28.0449 87.6667C28.0449 87.523 28.0983 87.5064 28.5601 87.5064C29.0335 87.5064 29.0775 87.4917 29.101 87.3261C29.1223 87.1762 29.1841 87.1416 29.4671 87.1211C29.7425 87.1012 29.8077 87.0666 29.8077 86.9408C29.8077 86.81 29.8646 86.7851 30.1627 86.7851C30.4699 86.7851 30.5212 86.7608 30.5433 86.6048C30.5598 86.4889 30.6333 86.4153 30.7492 86.3988C30.8651 86.3824 30.9295 86.3179 30.9295 86.2185C30.9295 86.1069 30.9853 86.0638 31.1298 86.0638C31.2736 86.0638 31.3301 86.0206 31.3301 85.9105C31.3301 85.7942 31.4074 85.7442 31.6506 85.7031C31.8939 85.662 31.9712 85.6121 31.9712 85.4957C31.9712 85.3978 32.0269 85.3425 32.1258 85.3425C32.2252 85.3425 32.2897 85.278 32.3061 85.1621C32.3226 85.0463 32.3962 84.9727 32.512 84.9562C32.664 84.9346 32.6923 84.8812 32.6923 84.6156C32.6923 84.3493 32.7183 84.3006 32.8601 84.3006C32.9604 84.3006 33.0446 84.2362 33.0697 84.1403C33.093 84.0516 33.179 83.98 33.2626 83.98C33.3701 83.98 33.4135 83.9225 33.4135 83.7796C33.4135 83.6327 33.4562 83.5793 33.5737 83.5793C33.7103 83.5793 33.734 83.5258 33.734 83.2186C33.734 82.8874 33.7503 82.858 33.9343 82.858C34.1183 82.858 34.1346 82.8285 34.1346 82.4973C34.1346 82.1901 34.1583 82.1366 34.2949 82.1366C34.4387 82.1366 34.4551 82.0832 34.4551 81.6157V81.0948H41.5865C48.5942 81.0948 48.718 81.092 48.718 80.939C48.718 80.8132 48.7832 80.7787 49.0585 80.7587C49.3416 80.7383 49.4034 80.7036 49.4247 80.5538C49.4461 80.4027 49.4999 80.3734 49.7561 80.3734C50.0571 80.3734 50.0627 80.3678 50.116 80.0128C50.1587 79.728 50.2027 79.6521 50.3254 79.6521C50.4561 79.6521 50.4808 79.5949 50.4808 79.2915C50.4808 78.9843 50.5045 78.9308 50.641 78.9308C50.8006 78.9308 50.8013 78.8774 50.8013 65.9472V52.9636H53.6458H56.4904V53.164C56.4904 53.3065 56.5338 53.3644 56.6406 53.3644C56.8022 53.3644 56.891 53.6381 56.891 54.1358C56.891 54.3528 56.9227 54.4063 57.0513 54.4063C57.1688 54.4063 57.2115 54.4597 57.2115 54.6066C57.2115 54.7514 57.2546 54.807 57.3669 54.807C57.4896 54.807 57.5336 54.8828 57.5763 55.1676C57.6184 55.4486 57.6638 55.5283 57.7816 55.5283C57.8792 55.5283 57.9327 55.585 57.9327 55.6886C57.9327 55.793 57.9861 55.8489 58.0859 55.8489C58.2016 55.8489 58.2521 55.9255 58.2919 56.1616C58.3281 56.3758 58.3934 56.4871 58.4993 56.5147C58.5898 56.5385 58.6538 56.6247 58.6538 56.723C58.6538 56.8399 58.7047 56.8908 58.8216 56.8908C58.9192 56.8908 59.0061 56.9546 59.0293 57.0437C59.0513 57.1278 59.1381 57.2146 59.2221 57.2365C59.3071 57.2587 59.375 57.3465 59.375 57.4341C59.375 57.5551 59.4471 57.6031 59.6861 57.6413C59.9053 57.6764 60.0095 57.7386 60.0391 57.852C60.0643 57.9484 60.1483 58.0128 60.2489 58.0128C60.3632 58.0128 60.4167 58.0639 60.4167 58.1731C60.4167 58.2907 60.4701 58.3334 60.617 58.3334C60.7619 58.3334 60.8173 58.3764 60.8173 58.4891C60.8173 58.6149 60.8825 58.6495 61.1579 58.6694C61.4409 58.6899 61.5027 58.7245 61.524 58.8744C61.5473 59.0382 61.593 59.0547 62.0248 59.0547C62.4466 59.0547 62.5 59.0727 62.5 59.215C62.5 59.3477 62.5534 59.3753 62.8105 59.3753C63.2703 59.3753 63.6218 59.4621 63.6218 59.5757C63.6218 59.74 64.0321 59.7761 65.8954 59.7751C67.7889 59.7742 68.2692 59.7337 68.2692 59.5752C68.2692 59.4658 68.6184 59.3753 69.0405 59.3753C69.2575 59.3753 69.3109 59.3436 69.3109 59.215C69.3109 59.0784 69.3643 59.0547 69.6715 59.0547C69.9748 59.0547 70.0321 59.03 70.0321 58.8993C70.0321 58.7766 70.1079 58.7326 70.3926 58.6899C70.6735 58.6477 70.7532 58.6024 70.7532 58.4845C70.7532 58.3588 70.8139 58.3334 71.1138 58.3334C71.4209 58.3334 71.4744 58.3097 71.4744 58.1731C71.4744 58.0682 71.5278 58.0128 71.629 58.0128C71.7285 58.0128 71.7929 57.9484 71.8093 57.8325C71.8306 57.6826 71.8924 57.648 72.1755 57.6276C72.4764 57.6058 72.516 57.5801 72.516 57.4072C72.516 57.2648 72.5598 57.2114 72.6763 57.2114C72.7831 57.2114 72.8365 57.1579 72.8365 57.0511C72.8365 56.9335 72.89 56.8908 73.0369 56.8908C73.1971 56.8908 73.2372 56.8507 73.2372 56.6904C73.2372 56.5465 73.2804 56.49 73.3904 56.49C73.5067 56.49 73.5567 56.4128 73.5978 56.1695C73.6389 55.9261 73.6888 55.8489 73.8051 55.8489C73.9049 55.8489 73.9583 55.793 73.9583 55.6886C73.9583 55.5818 74.0118 55.5283 74.1186 55.5283C74.2361 55.5283 74.2788 55.4748 74.2788 55.3279C74.2788 55.1831 74.3219 55.1276 74.4342 55.1276C74.5569 55.1276 74.6009 55.0518 74.6436 54.7669C74.6857 54.486 74.7311 54.4063 74.8489 54.4063C74.9746 54.4063 75 54.3456 75 54.0456C75 53.7384 75.0237 53.6849 75.1603 53.6849C75.2814 53.6849 75.3208 53.6313 75.3214 53.4645C75.3231 53.0484 75.4217 52.6431 75.5213 52.6431C75.664 52.6431 75.7212 52.262 75.7212 51.3106C75.7212 50.5326 75.7315 50.4791 75.8814 50.4791C76.0291 50.4791 76.0417 50.4257 76.0417 49.7979C76.0417 49.1701 76.0291 49.1166 75.8814 49.1166C75.7315 49.1166 75.7212 49.0632 75.7212 48.2851C75.7212 47.3312 75.6639 46.9527 75.52 46.9527C75.4615 46.9527 75.396 46.8003 75.3647 46.5921C75.322 46.3072 75.278 46.2314 75.1554 46.2314C75.0175 46.2314 75 46.1725 75 45.7105C75 45.2492 74.9823 45.1895 74.8454 45.1895C74.7459 45.1895 74.6815 45.1251 74.6651 45.0092C74.6486 44.8933 74.575 44.8197 74.4591 44.8032C74.3071 44.7817 74.2788 44.7283 74.2788 44.4626C74.2788 44.2011 74.2517 44.1476 74.1186 44.1476C74.001 44.1476 73.9583 44.0942 73.9583 43.9473C73.9583 43.787 73.9183 43.7469 73.758 43.7469C73.5978 43.7469 73.5577 43.7068 73.5577 43.5465C73.5577 43.3996 73.515 43.3462 73.3974 43.3462C73.2906 43.3462 73.2372 43.2927 73.2372 43.1859C73.2372 43.081 73.1837 43.0256 73.0825 43.0256C72.9831 43.0256 72.9187 42.9611 72.9022 42.8453C72.8857 42.7294 72.8122 42.6558 72.6963 42.6393C72.5805 42.6228 72.516 42.5584 72.516 42.459C72.516 42.3577 72.4607 42.3043 72.3558 42.3043C72.249 42.3043 72.1955 42.2508 72.1955 42.144C72.1955 42.0264 72.1421 41.9837 71.9952 41.9837C71.8349 41.9837 71.7949 41.9436 71.7949 41.7833C71.7949 41.623 71.7548 41.583 71.5946 41.583C71.4477 41.583 71.3942 41.5402 71.3942 41.4227C71.3942 41.2891 71.3408 41.2624 71.0737 41.2624C70.8131 41.2624 70.7532 41.2342 70.7532 41.1112C70.7532 40.9934 70.6735 40.948 70.3926 40.9059C70.1079 40.8632 70.0321 40.8192 70.0321 40.6965C70.0321 40.5658 69.9748 40.5411 69.6715 40.5411C69.3643 40.5411 69.3109 40.5173 69.3109 40.3808C69.3109 40.2409 69.2572 40.2204 68.8902 40.2196C68.2913 40.2183 67.8686 40.1356 67.8686 40.0196C67.8686 39.8615 67.4667 39.8197 65.9555 39.8206C64.4118 39.8216 63.9423 39.8682 63.9423 40.0206C63.9423 40.1431 63.5818 40.2205 63.0108 40.2205C62.6336 40.2205 62.5801 40.2404 62.5801 40.3808C62.5801 40.5173 62.5267 40.5411 62.2196 40.5411C61.9196 40.5411 61.859 40.5665 61.859 40.6922C61.859 40.81 61.7792 40.8554 61.4984 40.8976C61.2136 40.9403 61.1378 40.9843 61.1378 41.107C61.1378 41.2377 61.0806 41.2624 60.7772 41.2624C60.4744 41.2624 60.4167 41.2871 60.4167 41.4171C60.4167 41.5165 60.3522 41.581 60.2364 41.5974C60.1205 41.6139 60.047 41.6875 60.0305 41.8034C60.014 41.9193 59.9496 41.9837 59.8502 41.9837C59.7525 41.9837 59.6955 42.0389 59.6955 42.1337C59.6955 42.2468 59.6166 42.2964 59.375 42.335C59.1257 42.3749 59.0545 42.4218 59.0545 42.5457C59.0545 42.6599 59.0007 42.705 58.8644 42.705C58.7056 42.705 58.6662 42.7561 58.6246 43.0161C58.5895 43.2354 58.5274 43.3396 58.414 43.3692C58.3176 43.3945 58.2532 43.4785 58.2532 43.5791C58.2532 43.6934 58.2022 43.7469 58.093 43.7469C57.9754 43.7469 57.9327 43.8003 57.9327 43.9473C57.9327 44.0911 57.8895 44.1476 57.7795 44.1476C57.6631 44.1476 57.6132 44.2249 57.5721 44.4682C57.531 44.7115 57.4811 44.7888 57.3647 44.7888C57.2366 44.7888 57.2115 44.8478 57.2115 45.1494C57.2115 45.4566 57.1878 45.5101 57.0513 45.5101C56.9147 45.5101 56.891 45.5636 56.891 45.8708C56.891 46.202 56.8747 46.2314 56.6907 46.2314C56.5067 46.2314 56.4904 46.2608 56.4904 46.5921V46.9527H53.6959H50.9014L50.8514 46.7023C50.8238 46.5645 50.8013 40.812 50.8013 33.919C50.8013 21.4397 50.8006 21.3863 50.641 21.3863C50.504 21.3863 50.4808 21.3328 50.4808 21.0181C50.4808 20.7219 50.4506 20.642 50.3262 20.6095C50.2211 20.582 50.1551 20.4712 50.1199 20.2624C50.0723 19.9804 50.0427 19.9514 49.7536 19.9025C49.5159 19.8624 49.4391 19.812 49.4391 19.6961C49.4391 19.5861 49.3826 19.5429 49.2388 19.5429C49.0921 19.5429 49.0385 19.5001 49.0385 19.383C49.0385 19.2247 48.9718 19.223 41.7668 19.2027L34.4952 19.1823L34.4713 18.6813C34.4506 18.2461 34.427 18.1804 34.291 18.1804C34.1595 18.1804 34.1346 18.1241 34.1346 17.8254C34.1346 17.5181 34.1103 17.4668 33.9543 17.4447C33.8045 17.4234 33.7699 17.3616 33.7494 17.0784C33.7295 16.8031 33.695 16.7378 33.5692 16.7378C33.4565 16.7378 33.4135 16.6824 33.4135 16.5375C33.4135 16.3929 33.3704 16.3371 33.2588 16.3371C33.1594 16.3371 33.095 16.2727 33.0785 16.1568C33.062 16.0409 32.9885 15.9673 32.8726 15.9508C32.7206 15.9292 32.6923 15.8758 32.6923 15.6102C32.6923 15.3277 32.6717 15.2952 32.492 15.2952C32.3451 15.2952 32.2917 15.2525 32.2917 15.1349C32.2917 15.0281 32.2382 14.9746 32.1314 14.9746C32.0139 14.9746 31.9712 14.9212 31.9712 14.7742C31.9712 14.5939 31.9391 14.5739 31.6506 14.5739C31.3836 14.5739 31.3301 14.5472 31.3301 14.4136C31.3301 14.296 31.2767 14.2533 31.1298 14.2533C30.9696 14.2533 30.9295 14.2132 30.9295 14.0529C30.9295 13.8926 30.8894 13.8526 30.7292 13.8526C30.5823 13.8526 30.5288 13.8099 30.5288 13.6923C30.5288 13.5581 30.4754 13.532 30.2008 13.532C29.9442 13.532 29.864 13.4983 29.8324 13.3774C29.8047 13.2715 29.6935 13.2062 29.4793 13.17C29.2433 13.1301 29.1667 13.0796 29.1667 12.9639C29.1667 12.8276 29.1046 12.8107 28.6058 12.8107C28.1056 12.8107 28.0449 12.794 28.0449 12.6564C28.0449 12.5198 27.9625 12.4957 27.3237 12.4457C26.8317 12.4072 26.6026 12.3575 26.6026 12.2894C26.6026 12.1423 26.2167 12.0894 25.1427 12.0894C24.2511 12.0894 24.1808 12.1007 24.1418 12.2497ZM25.8814 18.3407C25.8814 18.4858 25.9349 18.501 26.4423 18.501C26.9498 18.501 27.0032 18.5162 27.0032 18.6613C27.0032 18.7705 27.0567 18.8216 27.171 18.8216C27.2716 18.8216 27.3555 18.886 27.3808 18.9825C27.4104 19.0959 27.5146 19.158 27.7338 19.1931C27.9728 19.2313 28.0449 19.2793 28.0449 19.4003C28.0449 19.4907 28.1135 19.5759 28.2057 19.6C28.3191 19.6296 28.3812 19.7338 28.4163 19.9531C28.4535 20.186 28.5037 20.2642 28.616 20.2642C28.7404 20.2642 28.766 20.3259 28.766 20.6249C28.766 20.9241 28.7916 20.9855 28.9163 20.9855C29.1103 20.9855 29.1667 21.2655 29.1667 22.2278C29.1667 23.1901 29.1103 23.47 28.9163 23.47C28.7916 23.47 28.766 23.5315 28.766 23.8307C28.766 24.1297 28.7404 24.1914 28.616 24.1914C28.5037 24.1914 28.4535 24.2696 28.4163 24.5025C28.3812 24.7218 28.3191 24.826 28.2057 24.8556C28.1135 24.8797 28.0449 24.9648 28.0449 25.0552C28.0449 25.1763 27.9728 25.2243 27.7338 25.2625C27.5146 25.2976 27.4104 25.3597 27.3808 25.4731C27.3555 25.5695 27.2716 25.634 27.171 25.634C27.0567 25.634 27.0032 25.685 27.0032 25.7943C27.0032 25.9421 26.9498 25.9546 26.3146 25.9546C25.6934 25.9546 25.622 25.9703 25.5841 26.1149C25.5516 26.2393 25.4748 26.2751 25.2404 26.2751C25.0059 26.2751 24.9292 26.2393 24.8966 26.1149C24.8588 25.9703 24.7873 25.9546 24.1662 25.9546C23.531 25.9546 23.4776 25.9421 23.4776 25.7943C23.4776 25.6767 23.4241 25.634 23.2772 25.634C23.117 25.634 23.0769 25.5939 23.0769 25.4336C23.0769 25.2733 23.0369 25.2333 22.8766 25.2333C22.7297 25.2333 22.6763 25.1905 22.6763 25.073C22.6763 24.9661 22.6228 24.9127 22.516 24.9127C22.4092 24.9127 22.3558 24.8592 22.3558 24.7524C22.3558 24.6455 22.3023 24.5921 22.1955 24.5921C22.078 24.5921 22.0353 24.5386 22.0353 24.3917C22.0353 24.2469 21.9922 24.1914 21.8799 24.1914C21.7572 24.1914 21.7132 24.1155 21.6705 23.8307C21.6284 23.5498 21.583 23.47 21.4652 23.47C21.3236 23.47 21.3141 23.3917 21.3141 22.2278C21.3141 21.0513 21.3224 20.9855 21.4698 20.9855C21.5956 20.9855 21.6301 20.9203 21.6501 20.6449C21.6705 20.3618 21.7051 20.3 21.855 20.2786C21.9855 20.2601 22.0353 20.1993 22.0353 20.0582C22.0353 19.9199 22.0796 19.8635 22.1885 19.8635C22.3048 19.8635 22.3547 19.7862 22.3958 19.5429C22.4482 19.2327 22.4602 19.2223 22.7635 19.2223C23.0444 19.2223 23.0769 19.2016 23.0769 19.022C23.0769 18.8617 23.117 18.8216 23.2772 18.8216C23.4241 18.8216 23.4776 18.7789 23.4776 18.6613C23.4776 18.5136 23.531 18.501 24.1587 18.501C24.7863 18.501 24.8397 18.4884 24.8397 18.3407C24.8397 18.1969 24.8932 18.1804 25.3606 18.1804C25.828 18.1804 25.8814 18.1969 25.8814 18.3407ZM107.792 20.3157C107.958 20.343 108.093 20.4093 108.093 20.463C108.093 20.5616 109.117 20.6637 110.116 20.6646C110.523 20.6649 110.577 20.6835 110.577 20.8252C110.577 20.9758 110.63 20.9855 111.458 20.9855C112.266 20.9855 112.34 20.9981 112.34 21.1353C112.34 21.2882 112.652 21.3834 113.161 21.3854C113.328 21.386 113.381 21.4254 113.381 21.5466C113.381 21.6854 113.435 21.7068 113.782 21.7068C114.129 21.7068 114.183 21.7282 114.183 21.8671C114.183 21.9902 114.236 22.0274 114.413 22.0274C114.844 22.0274 115.129 22.1212 115.17 22.2764C115.2 22.3941 115.283 22.4282 115.537 22.4282C115.812 22.4282 115.865 22.4543 115.865 22.5884C115.865 22.7246 115.919 22.7487 116.22 22.7487C116.528 22.7487 116.579 22.773 116.601 22.9291C116.622 23.0789 116.684 23.1136 116.967 23.134C117.242 23.154 117.308 23.1885 117.308 23.3143C117.308 23.427 117.363 23.47 117.508 23.47C117.652 23.47 117.708 23.5132 117.708 23.6233C117.708 23.7397 117.786 23.7896 118.029 23.8307C118.272 23.8718 118.349 23.9217 118.349 24.0381C118.349 24.1482 118.406 24.1914 118.55 24.1914C118.694 24.1914 118.75 24.2346 118.75 24.3446C118.75 24.461 118.827 24.5109 119.071 24.552C119.314 24.5931 119.391 24.6431 119.391 24.7594C119.391 24.8695 119.448 24.9127 119.591 24.9127C119.736 24.9127 119.792 24.9558 119.792 25.0673C119.792 25.1668 119.856 25.2312 119.972 25.2477C120.088 25.2642 120.161 25.3378 120.178 25.4537C120.194 25.5695 120.259 25.634 120.358 25.634C120.459 25.634 120.513 25.6894 120.513 25.7943C120.513 25.9118 120.566 25.9546 120.713 25.9546C120.856 25.9546 120.913 25.9979 120.913 26.1055C120.913 26.1891 120.985 26.2751 121.074 26.2984C121.17 26.3235 121.234 26.4077 121.234 26.508C121.234 26.6336 121.284 26.6759 121.434 26.6759C121.577 26.6759 121.635 26.7192 121.635 26.8268C121.635 26.9104 121.706 26.9965 121.795 27.0197C121.891 27.0448 121.955 27.129 121.955 27.2294C121.955 27.3437 122.006 27.3972 122.115 27.3972C122.22 27.3972 122.276 27.4506 122.276 27.5519C122.276 27.6513 122.34 27.7158 122.456 27.7322C122.572 27.7487 122.645 27.8223 122.662 27.9382C122.678 28.0541 122.743 28.1185 122.842 28.1185C122.954 28.1185 122.997 28.1744 122.997 28.3189C122.997 28.4627 123.04 28.5192 123.15 28.5192C123.266 28.5192 123.316 28.5965 123.357 28.8398C123.398 29.0831 123.448 29.1604 123.565 29.1604C123.675 29.1604 123.718 29.2169 123.718 29.3608C123.718 29.5046 123.761 29.5611 123.871 29.5611C123.988 29.5611 124.037 29.6384 124.079 29.8817C124.12 30.125 124.17 30.2023 124.286 30.2023C124.396 30.2023 124.439 30.2588 124.439 30.4026C124.439 30.5496 124.482 30.603 124.599 30.603C124.736 30.603 124.76 30.6565 124.76 30.9637C124.76 31.2949 124.776 31.3243 124.96 31.3243C125.144 31.3243 125.16 31.3537 125.16 31.685C125.16 31.9922 125.184 32.0456 125.321 32.0456C125.457 32.0456 125.481 32.0991 125.481 32.4063C125.481 32.7055 125.506 32.7669 125.631 32.7669C125.788 32.7669 125.881 33.0395 125.881 33.4983C125.881 33.6752 125.919 33.7287 126.042 33.7287C126.181 33.7287 126.202 33.7821 126.202 34.1294C126.202 34.4704 126.225 34.5301 126.355 34.5301C126.489 34.5301 126.515 34.6141 126.565 35.2114C126.614 35.8048 126.641 35.8926 126.772 35.8926C126.909 35.8926 126.923 35.9611 126.923 36.6139C126.923 37.2818 126.935 37.3352 127.083 37.3352C127.224 37.3352 127.244 37.3887 127.244 37.7635C127.244 38.8447 127.349 39.8999 127.456 39.8999C127.542 39.8999 127.564 40.173 127.564 41.2624C127.564 42.3518 127.542 42.6249 127.456 42.6249C127.342 42.6249 127.244 43.6936 127.244 44.9215C127.244 45.4566 127.229 45.5101 127.083 45.5101C126.935 45.5101 126.923 45.5636 126.923 46.2314C126.923 46.8993 126.911 46.9527 126.763 46.9527C126.642 46.9527 126.602 47.0064 126.602 47.1731C126.6 47.6822 126.505 47.9946 126.352 47.9946C126.221 47.9946 126.202 48.0602 126.202 48.5156C126.202 48.9782 126.184 49.0365 126.046 49.0365C125.917 49.0365 125.886 49.1019 125.866 49.4172C125.845 49.742 125.815 49.8016 125.661 49.8235C125.505 49.8456 125.481 49.8969 125.481 50.2042C125.481 50.5058 125.457 50.5593 125.321 50.5593C125.187 50.5593 125.16 50.6127 125.16 50.8799C125.16 51.1436 125.133 51.2004 125.005 51.2004C124.882 51.2004 124.838 51.2763 124.796 51.5611C124.753 51.842 124.708 51.9217 124.59 51.9217C124.465 51.9217 124.439 51.9824 124.439 52.2824C124.439 52.6136 124.423 52.6431 124.239 52.6431C124.092 52.6431 124.038 52.6858 124.038 52.8033C124.038 52.9102 123.985 52.9636 123.878 52.9636C123.742 52.9636 123.718 53.0171 123.718 53.3187C123.718 53.626 123.694 53.6773 123.538 53.6994C123.422 53.7159 123.348 53.7895 123.332 53.9054C123.315 54.0212 123.251 54.0857 123.151 54.0857C123.05 54.0857 122.997 54.1411 122.997 54.246C122.997 54.3528 122.943 54.4063 122.837 54.4063C122.719 54.4063 122.676 54.4597 122.676 54.6066C122.676 54.7505 122.633 54.807 122.523 54.807C122.407 54.807 122.357 54.8839 122.317 55.1228C122.276 55.3653 122.223 55.4444 122.089 55.4635C121.979 55.4791 121.906 55.5549 121.889 55.6686C121.873 55.7844 121.809 55.8489 121.709 55.8489C121.608 55.8489 121.554 55.9043 121.554 56.0092C121.554 56.116 121.501 56.1695 121.394 56.1695C121.289 56.1695 121.234 56.2229 121.234 56.3241C121.234 56.4236 121.17 56.488 121.054 56.5045C120.94 56.5207 120.864 56.5945 120.849 56.7042C120.83 56.8379 120.75 56.8907 120.508 56.9316C120.269 56.972 120.192 57.0223 120.192 57.1383C120.192 57.2483 120.136 57.2915 119.992 57.2915C119.845 57.2915 119.792 57.3342 119.792 57.4518C119.792 57.5586 119.738 57.6121 119.631 57.6121C119.527 57.6121 119.471 57.6655 119.471 57.7668C119.471 57.8662 119.407 57.9307 119.291 57.9471C119.175 57.9636 119.101 58.0372 119.085 58.1531C119.063 58.3051 119.01 58.3334 118.744 58.3334C118.483 58.3334 118.429 58.3606 118.429 58.4937C118.429 58.6113 118.376 58.654 118.229 58.654C118.069 58.654 118.029 58.6941 118.029 58.8543C118.029 59.0384 117.999 59.0547 117.668 59.0547C117.361 59.0547 117.308 59.0784 117.308 59.215C117.308 59.3242 117.254 59.3753 117.14 59.3753C117.041 59.3753 116.955 59.4394 116.931 59.5319C116.902 59.6456 116.794 59.7031 116.538 59.7414C116.265 59.7823 116.186 59.8282 116.186 59.9454C116.186 60.0684 116.126 60.0966 115.865 60.0966C115.602 60.0966 115.545 60.1242 115.545 60.252C115.545 60.3747 115.469 60.4187 115.184 60.4614C114.903 60.5036 114.824 60.5489 114.824 60.6668C114.824 60.7994 114.76 60.8179 114.303 60.8179C113.848 60.8179 113.782 60.8367 113.782 60.9677C113.782 61.1247 113.468 61.2159 112.921 61.2178C112.714 61.2185 112.66 61.2517 112.66 61.3789C112.66 61.5266 112.607 61.5392 111.979 61.5392C111.352 61.5392 111.298 61.5518 111.298 61.6995C111.298 61.8378 111.245 61.8598 110.909 61.8598C110.203 61.8598 109.535 61.9576 109.535 62.0611C109.535 62.2245 109.036 62.2588 106.651 62.2588C104.265 62.2588 103.766 62.2245 103.766 62.0613C103.766 61.9541 103.035 61.8613 102.183 61.8604C101.736 61.8599 101.683 61.8427 101.683 61.6995C101.683 61.5565 101.629 61.5391 101.182 61.5381C100.584 61.5368 100.321 61.4761 100.321 61.34C100.321 61.236 99.9123 61.1409 99.4591 61.1394C99.2524 61.1387 99.1987 61.1054 99.1987 60.9782C99.1987 60.8416 99.1453 60.8179 98.8381 60.8179C98.531 60.8179 98.4776 60.7942 98.4776 60.6576C98.4776 60.5211 98.4241 60.4973 98.117 60.4973C97.7858 60.4973 97.7564 60.481 97.7564 60.297C97.7564 60.1129 97.727 60.0966 97.3958 60.0966C97.0887 60.0966 97.0353 60.0729 97.0353 59.9363C97.0353 59.7997 96.9818 59.776 96.6747 59.776C96.3435 59.776 96.3141 59.7597 96.3141 59.5757C96.3141 59.3953 96.2821 59.3753 95.9936 59.3753C95.7265 59.3753 95.6731 59.3486 95.6731 59.215C95.6731 59.0974 95.6196 59.0547 95.4728 59.0547C95.328 59.0547 95.2724 59.0117 95.2724 58.8993C95.2724 58.7766 95.1966 58.7326 94.9119 58.6899C94.631 58.6477 94.5513 58.6024 94.5513 58.4845C94.5513 58.3768 94.4938 58.3334 94.351 58.3334C94.2071 58.3334 94.1506 58.2902 94.1506 58.1802C94.1506 58.0638 94.0734 58.0139 93.8301 57.9727C93.5869 57.9316 93.5096 57.8817 93.5096 57.7653C93.5096 57.6655 93.4538 57.6121 93.3494 57.6121C93.2426 57.6121 93.1891 57.5586 93.1891 57.4518C93.1891 57.3342 93.1357 57.2915 92.9888 57.2915C92.8285 57.2915 92.7885 57.2514 92.7885 57.0911C92.7885 56.9308 92.7484 56.8908 92.5881 56.8908C92.4413 56.8908 92.3878 56.8481 92.3878 56.7305C92.3878 56.6236 92.3344 56.5702 92.2276 56.5702C92.11 56.5702 92.0673 56.5167 92.0673 56.3698C92.0673 56.2229 92.0246 56.1695 91.9071 56.1695C91.8002 56.1695 91.7468 56.116 91.7468 56.0092C91.7468 55.8916 91.6934 55.8489 91.5465 55.8489C91.3996 55.8489 91.3462 55.8062 91.3462 55.6886C91.3462 55.5818 91.2927 55.5283 91.1859 55.5283C91.0684 55.5283 91.0256 55.4748 91.0256 55.3279C91.0256 55.1676 90.9856 55.1276 90.8253 55.1276C90.6651 55.1276 90.625 55.0875 90.625 54.9272C90.625 54.7803 90.5823 54.7268 90.4647 54.7268C90.3579 54.7268 90.3045 54.6734 90.3045 54.5666C90.3045 54.4614 90.251 54.4063 90.1491 54.4063C90.0264 54.4063 89.9825 54.3304 89.9397 54.0456C89.8976 53.7647 89.8522 53.6849 89.7345 53.6849C89.6368 53.6849 89.5833 53.6283 89.5833 53.5247C89.5833 53.4195 89.5299 53.3644 89.428 53.3644C89.3053 53.3644 89.2613 53.2885 89.2186 53.0037C89.1764 52.7228 89.1311 52.6431 89.0133 52.6431C88.9055 52.6431 88.8622 52.5856 88.8622 52.4427C88.8622 52.2988 88.819 52.2423 88.709 52.2423C88.5933 52.2423 88.5428 52.1657 88.503 51.9296C88.4667 51.7154 88.4014 51.6041 88.2956 51.5765C88.1747 51.5448 88.141 51.4646 88.141 51.208C88.141 50.9399 88.1134 50.8799 87.9899 50.8799C87.8721 50.8799 87.8268 50.8001 87.7846 50.5192C87.7419 50.2344 87.6979 50.1585 87.5752 50.1585C87.4446 50.1585 87.4199 50.1013 87.4199 49.7979C87.4199 49.4907 87.3962 49.4372 87.2596 49.4372C87.1231 49.4372 87.0994 49.3838 87.0994 49.0766C87.0994 48.7694 87.0756 48.7159 86.9391 48.7159C86.8119 48.7159 86.7787 48.6622 86.778 48.4554C86.7761 47.9082 86.6849 47.5939 86.528 47.5939C86.3934 47.5939 86.3782 47.5246 86.3782 46.9126C86.3782 46.2849 86.3656 46.2314 86.218 46.2314C86.0797 46.2314 86.0577 46.1779 86.0577 45.8425C86.0577 45.1341 85.9599 44.4682 85.856 44.4682C85.6837 44.4682 85.6571 44.0323 85.6571 41.2048C85.6571 38.5757 85.6643 38.4404 85.8066 38.4032C85.9647 38.3618 86.0577 37.8434 86.0577 37.0029C86.0577 36.6674 86.0797 36.6139 86.218 36.6139C86.3663 36.6139 86.3782 36.5605 86.3782 35.8926C86.3782 35.2248 86.3901 35.1713 86.5385 35.1713C86.6596 35.1713 86.699 35.1176 86.6996 34.9509C86.7016 34.4418 86.7967 34.1294 86.9496 34.1294C87.0805 34.1294 87.0994 34.0639 87.0994 33.6085C87.0994 33.1514 87.1179 33.0875 87.2505 33.0875C87.3683 33.0875 87.4136 33.0078 87.4558 32.7269C87.4985 32.442 87.5425 32.3662 87.6651 32.3662C87.7958 32.3662 87.8205 32.309 87.8205 32.0056C87.8205 31.7065 87.8462 31.6449 87.9705 31.6449C88.0829 31.6449 88.133 31.5667 88.1703 31.3338C88.2054 31.1145 88.2675 31.0103 88.3809 30.9807C88.4897 30.9522 88.5417 30.8714 88.5417 30.7308C88.5417 30.5763 88.5829 30.5229 88.7019 30.5229C88.8355 30.5229 88.8622 30.4694 88.8622 30.2023C88.8622 29.939 88.8898 29.8817 89.0168 29.8817C89.1163 29.8817 89.1807 29.8173 89.1971 29.7014C89.2136 29.5855 89.2872 29.5119 89.403 29.4954C89.5551 29.4738 89.5833 29.4205 89.5833 29.1548C89.5833 28.897 89.6115 28.8398 89.738 28.8398C89.8374 28.8398 89.9019 28.7754 89.9183 28.6595C89.9348 28.5436 90.0083 28.47 90.1242 28.4535C90.2547 28.435 90.3045 28.3742 90.3045 28.2331C90.3045 28.0948 90.3489 28.0383 90.4577 28.0383C90.574 28.0383 90.624 27.9611 90.6651 27.7178C90.7062 27.4744 90.7561 27.3972 90.8724 27.3972C90.9722 27.3972 91.0256 27.3413 91.0256 27.2369C91.0256 27.1301 91.0791 27.0766 91.1859 27.0766C91.3034 27.0766 91.3462 27.0231 91.3462 26.8762C91.3462 26.7159 91.3862 26.6759 91.5465 26.6759C91.6934 26.6759 91.7468 26.6332 91.7468 26.5156C91.7468 26.4087 91.8002 26.3553 91.9071 26.3553C92.0246 26.3553 92.0673 26.3018 92.0673 26.1549C92.0673 25.9946 92.1074 25.9546 92.2676 25.9546C92.4115 25.9546 92.468 25.9114 92.468 25.8013C92.468 25.685 92.5452 25.635 92.7885 25.5939C93.0317 25.5528 93.109 25.5029 93.109 25.3865C93.109 25.2764 93.1655 25.2333 93.3093 25.2333C93.4562 25.2333 93.5096 25.1905 93.5096 25.073C93.5096 24.9681 93.5631 24.9127 93.6643 24.9127C93.7637 24.9127 93.8281 24.8482 93.8446 24.7323C93.8611 24.6165 93.9346 24.5429 94.0505 24.5264C94.1663 24.5099 94.2308 24.4455 94.2308 24.346C94.2308 24.219 94.2881 24.1914 94.5513 24.1914C94.8184 24.1914 94.8718 24.1647 94.8718 24.0311C94.8718 23.9135 94.9252 23.8708 95.0721 23.8708C95.2324 23.8708 95.2724 23.8307 95.2724 23.6704C95.2724 23.4864 95.3018 23.47 95.633 23.47C95.9346 23.47 95.9936 23.445 95.9936 23.3168C95.9936 23.2011 96.0702 23.1506 96.3063 23.1108C96.5204 23.0745 96.6317 23.0092 96.6593 22.9033C96.6909 22.7824 96.7712 22.7487 97.0277 22.7487C97.2958 22.7487 97.3558 22.7211 97.3558 22.5976C97.3558 22.4803 97.4349 22.4345 97.7079 22.3935C97.9636 22.3552 98.0714 22.2978 98.1011 22.184C98.1333 22.0608 98.212 22.0274 98.47 22.0274C98.7446 22.0274 98.7981 22.0013 98.7981 21.8671C98.7981 21.7233 98.8515 21.7068 99.3189 21.7068C99.7742 21.7068 99.8397 21.688 99.8397 21.5571C99.8397 21.4 100.154 21.3088 100.701 21.307C100.908 21.3063 100.962 21.273 100.962 21.1458C100.962 20.9974 101.015 20.9855 101.683 20.9855C102.335 20.9855 102.404 20.9711 102.404 20.835C102.404 20.6956 102.508 20.6801 103.806 20.626C104.888 20.581 105.208 20.5433 105.208 20.4613C105.208 20.4029 105.307 20.34 105.429 20.3216C105.792 20.2665 107.47 20.2623 107.792 20.3157ZM66.5765 45.5602C66.7143 45.5878 66.8269 45.6554 66.8269 45.7105C66.8269 45.8203 67.1754 45.9108 67.5982 45.9108C67.8151 45.9108 67.8686 45.9425 67.8686 46.0711C67.8686 46.1887 67.922 46.2314 68.0689 46.2314C68.2158 46.2314 68.2692 46.2741 68.2692 46.3917C68.2692 46.4985 68.3227 46.552 68.4295 46.552C68.547 46.552 68.5897 46.6054 68.5897 46.7524C68.5897 46.9126 68.6298 46.9527 68.7901 46.9527C68.9369 46.9527 68.9904 46.9954 68.9904 47.113C68.9904 47.2198 69.0438 47.2733 69.1506 47.2733C69.2872 47.2733 69.3109 47.3268 69.3109 47.634C69.3109 47.9327 69.3366 47.9946 69.4607 47.9946C69.5715 47.9946 69.6234 48.0728 69.6601 48.2952C69.7252 48.6893 69.7252 50.0842 69.6601 50.7078C69.6174 51.116 69.583 51.2004 69.4598 51.2004C69.3544 51.2004 69.3109 51.259 69.3109 51.4008C69.3109 51.5447 69.2677 51.6012 69.1577 51.6012C69.0413 51.6012 68.9914 51.6784 68.9503 51.9217C68.9092 52.1651 68.8593 52.2423 68.7429 52.2423C68.6329 52.2423 68.5897 52.2988 68.5897 52.4427C68.5897 52.623 68.5577 52.6431 68.2692 52.6431C68.0086 52.6431 67.9487 52.6713 67.9487 52.7942C67.9487 52.912 67.869 52.9574 67.5881 52.9995C67.3034 53.0423 67.2276 53.0863 67.2276 53.209C67.2276 53.357 67.159 53.3644 65.7853 53.3644C64.4115 53.3644 64.343 53.357 64.343 53.209C64.343 53.0863 64.2671 53.0423 63.9824 52.9995C63.7015 52.9574 63.6218 52.912 63.6218 52.7942C63.6218 52.6864 63.5643 52.6431 63.4215 52.6431C63.2746 52.6431 63.2212 52.6003 63.2212 52.4828C63.2212 52.3759 63.1677 52.3225 63.0609 52.3225C62.9434 52.3225 62.9006 52.269 62.9006 52.1221C62.9006 51.9752 62.8579 51.9217 62.7404 51.9217C62.6228 51.9217 62.5801 51.8683 62.5801 51.7214C62.5801 51.5789 62.5367 51.521 62.4299 51.521C62.254 51.521 62.1795 51.2436 62.1795 50.5893C62.1795 50.212 62.1596 50.1585 62.0192 50.1585C61.8716 50.1585 61.859 50.1051 61.859 49.4773C61.859 48.8495 61.8716 48.7961 62.0192 48.7961C62.1519 48.7961 62.1795 48.7426 62.1795 48.4855C62.1795 47.9489 62.2643 47.674 62.4299 47.674C62.5367 47.674 62.5801 47.6162 62.5801 47.4737C62.5801 47.3268 62.6228 47.2733 62.7404 47.2733C62.8472 47.2733 62.9006 47.2198 62.9006 47.113C62.9006 47.0081 62.9541 46.9527 63.0553 46.9527C63.1547 46.9527 63.2192 46.8883 63.2356 46.7724C63.2521 46.6565 63.3256 46.5829 63.4415 46.5664C63.5574 46.55 63.6218 46.4855 63.6218 46.3861C63.6218 46.2745 63.6776 46.2314 63.8221 46.2314C63.969 46.2314 64.0224 46.1887 64.0224 46.0711C64.0224 45.9499 64.0761 45.9106 64.2428 45.9099C64.6663 45.9083 65.0641 45.8093 65.0641 45.7056C65.0641 45.6483 65.1453 45.5858 65.2444 45.5667C65.5384 45.51 66.3071 45.5062 66.5765 45.5602ZM26.3622 46.0711C26.3622 46.2136 26.4156 46.2314 26.8429 46.2314C27.2645 46.2314 27.3237 46.2505 27.3237 46.3861C27.3237 46.4855 27.3881 46.55 27.504 46.5664C27.6199 46.5829 27.6934 46.6565 27.7099 46.7724C27.7264 46.8883 27.7908 46.9527 27.8902 46.9527C27.9914 46.9527 28.0449 47.0081 28.0449 47.113C28.0449 47.2306 28.0983 47.2733 28.2452 47.2733C28.4054 47.2733 28.4455 47.3134 28.4455 47.4737C28.4455 47.6206 28.4882 47.674 28.6058 47.674C28.7423 47.674 28.766 47.7275 28.766 48.0347C28.766 48.3339 28.7916 48.3953 28.9163 48.3953C29.1151 48.3953 29.1669 48.6764 29.1658 49.7478C29.1646 50.8759 29.1088 51.2004 28.9158 51.2004C28.7917 51.2004 28.766 51.2623 28.766 51.5611C28.766 51.864 28.7413 51.9217 28.6114 51.9217C28.5119 51.9217 28.4475 51.9862 28.4311 52.1021C28.4146 52.218 28.341 52.2915 28.2252 52.308C28.1093 52.3245 28.0449 52.3889 28.0449 52.4884C28.0449 52.5896 27.9895 52.6431 27.8846 52.6431C27.7797 52.6431 27.7244 52.6965 27.7244 52.7977C27.7244 52.8972 27.6599 52.9616 27.5441 52.9781C27.4282 52.9946 27.3546 53.0681 27.3381 53.184C27.316 53.3401 27.2647 53.3644 26.9575 53.3644C26.656 53.3644 26.6026 53.3885 26.6026 53.5247C26.6026 53.6789 26.5491 53.6849 25.2003 53.6849C23.8653 53.6849 23.7981 53.6775 23.7981 53.5292C23.7981 53.4034 23.7329 53.3689 23.4575 53.3489C23.1744 53.3285 23.1127 53.2938 23.0913 53.144C23.0749 53.0281 23.0105 52.9636 22.9111 52.9636C22.8099 52.9636 22.7564 52.9083 22.7564 52.8033C22.7564 52.6858 22.703 52.6431 22.5561 52.6431C22.4092 52.6431 22.3558 52.6003 22.3558 52.4828C22.3558 52.3759 22.3023 52.3225 22.1955 52.3225C22.078 52.3225 22.0353 52.269 22.0353 52.1221C22.0353 51.9796 21.9918 51.9217 21.885 51.9217C21.7235 51.9217 21.6346 51.648 21.6346 51.1503C21.6346 50.9333 21.603 50.8799 21.4744 50.8799C21.322 50.8799 21.3141 50.8264 21.3141 49.7979C21.3141 48.7694 21.322 48.7159 21.4744 48.7159C21.6109 48.7159 21.6346 48.6625 21.6346 48.3553C21.6346 48.0536 21.6597 47.9946 21.7878 47.9946C21.9042 47.9946 21.9541 47.9173 21.9952 47.674C22.0363 47.4307 22.0862 47.3534 22.2026 47.3534C22.3126 47.3534 22.3558 47.2969 22.3558 47.1531C22.3558 46.9928 22.3958 46.9527 22.5561 46.9527C22.6999 46.9527 22.7564 46.9095 22.7564 46.7995C22.7564 46.6831 22.8337 46.6332 23.0769 46.5921C23.3202 46.5509 23.3974 46.501 23.3974 46.3846C23.3974 46.2542 23.457 46.2314 23.7981 46.2314C24.1453 46.2314 24.1987 46.21 24.1987 46.0711C24.1987 45.9188 24.2522 45.9108 25.2804 45.9108C26.3087 45.9108 26.3622 45.9188 26.3622 46.0711ZM108.922 68.3233C109.318 68.3567 109.535 68.4093 109.535 68.4715C109.535 68.5803 110.598 68.6711 111.879 68.6718C112.607 68.6722 112.66 68.6832 112.66 68.8325C112.66 68.9831 112.714 68.9928 113.549 68.9928C114.355 68.9928 114.442 69.007 114.478 69.1451C114.512 69.2747 114.624 69.3059 115.232 69.354C115.859 69.4037 115.946 69.4289 115.946 69.5623C115.946 69.6993 116.012 69.7141 116.627 69.7141C117.254 69.7141 117.308 69.7267 117.308 69.8744C117.308 70.003 117.361 70.0347 117.578 70.0347C118.048 70.0347 118.333 70.1237 118.375 70.2837C118.408 70.4116 118.491 70.4354 118.903 70.4354C119.338 70.4354 119.391 70.4529 119.391 70.5957C119.391 70.7346 119.444 70.756 119.792 70.756C120.13 70.756 120.192 70.7794 120.192 70.9062C120.192 71.0678 120.466 71.1567 120.964 71.1567C121.178 71.1567 121.234 71.189 121.234 71.3124C121.234 71.4382 121.299 71.4728 121.575 71.4927C121.858 71.5132 121.919 71.5478 121.941 71.6977C121.963 71.8537 122.014 71.878 122.321 71.878C122.623 71.878 122.676 71.9021 122.676 72.0383C122.676 72.1749 122.73 72.1986 123.037 72.1986C123.34 72.1986 123.397 72.2233 123.397 72.354C123.397 72.4767 123.473 72.5207 123.758 72.5634C124.039 72.6056 124.119 72.6509 124.119 72.7687C124.119 72.8917 124.178 72.9199 124.439 72.9199C124.7 72.9199 124.76 72.9481 124.76 73.0711C124.76 73.1889 124.839 73.2342 125.12 73.2764C125.405 73.3191 125.481 73.3631 125.481 73.4858C125.481 73.5982 125.536 73.6412 125.681 73.6412C125.828 73.6412 125.881 73.6839 125.881 73.8015C125.881 73.9346 125.935 73.9618 126.196 73.9618C126.462 73.9618 126.515 73.9901 126.537 74.1421C126.558 74.292 126.62 74.3266 126.903 74.3471C127.178 74.367 127.244 74.4016 127.244 74.5274C127.244 74.6401 127.299 74.6831 127.444 74.6831C127.588 74.6831 127.644 74.7262 127.644 74.8378C127.644 74.9373 127.709 75.0017 127.825 75.0181C127.94 75.0346 128.014 75.1082 128.03 75.2241C128.052 75.3761 128.105 75.4044 128.371 75.4044C128.629 75.4044 128.686 75.4326 128.686 75.5591C128.686 75.6586 128.75 75.723 128.866 75.7394C128.982 75.7559 129.056 75.8295 129.072 75.9454C129.089 76.0613 129.153 76.1257 129.252 76.1257C129.351 76.1257 129.407 76.1809 129.407 76.2769C129.407 76.3947 129.487 76.4401 129.768 76.4822C130.052 76.5249 130.128 76.5689 130.128 76.6916C130.128 76.7936 130.183 76.847 130.288 76.847C130.395 76.847 130.449 76.9005 130.449 77.0073C130.449 77.1249 130.502 77.1676 130.649 77.1676C130.809 77.1676 130.849 77.2077 130.849 77.368C130.849 77.5149 130.892 77.5683 131.01 77.5683C131.116 77.5683 131.17 77.6218 131.17 77.7286C131.17 77.8462 131.223 77.8889 131.37 77.8889C131.517 77.8889 131.571 77.9316 131.571 78.0492C131.571 78.1561 131.624 78.2095 131.731 78.2095C131.848 78.2095 131.891 78.263 131.891 78.4099C131.891 78.5702 131.931 78.6102 132.091 78.6102C132.235 78.6102 132.292 78.6534 132.292 78.7635C132.292 78.8798 132.369 78.9298 132.612 78.9709C132.855 79.012 132.933 79.0619 132.933 79.1783C132.933 79.2758 132.988 79.3316 133.086 79.3316C133.202 79.3316 133.252 79.4084 133.292 79.6474C133.333 79.8898 133.386 79.969 133.52 79.988C133.63 80.0037 133.703 80.0795 133.72 80.1931C133.736 80.309 133.8 80.3734 133.9 80.3734C134.001 80.3734 134.054 80.4288 134.054 80.5337C134.054 80.6406 134.108 80.694 134.215 80.694C134.332 80.694 134.375 80.7475 134.375 80.8944C134.375 81.0547 134.415 81.0948 134.575 81.0948C134.722 81.0948 134.776 81.1375 134.776 81.255C134.776 81.3619 134.829 81.4153 134.936 81.4153C135.053 81.4153 135.096 81.4688 135.096 81.6157C135.096 81.7602 135.139 81.8161 135.251 81.8161C135.35 81.8161 135.415 81.8805 135.431 81.9964C135.448 82.1123 135.521 82.1859 135.637 82.2024C135.789 82.2239 135.817 82.2773 135.817 82.543C135.817 82.8007 135.845 82.858 135.972 82.858C136.071 82.858 136.136 82.9224 136.152 83.0383C136.169 83.1542 136.242 83.2277 136.358 83.2443C136.474 83.2607 136.538 83.3251 136.538 83.4246C136.538 83.5243 136.594 83.5793 136.694 83.5793C136.82 83.5793 136.854 83.6445 136.874 83.9199C136.895 84.203 136.929 84.2648 137.079 84.2861C137.195 84.3026 137.26 84.367 137.26 84.4665C137.26 84.5677 137.315 84.6212 137.42 84.6212C137.556 84.6212 137.58 84.6746 137.58 84.9762C137.58 85.2835 137.604 85.3348 137.76 85.3569C137.876 85.3734 137.95 85.447 137.966 85.5629C137.983 85.6788 138.047 85.7432 138.147 85.7432C138.274 85.7432 138.301 85.8005 138.301 86.0638C138.301 86.3245 138.329 86.3844 138.452 86.3844C138.57 86.3844 138.616 86.4641 138.658 86.745C138.7 87.0299 138.744 87.1057 138.867 87.1057C138.979 87.1057 139.022 87.1612 139.022 87.306C139.022 87.4529 139.065 87.5064 139.183 87.5064C139.317 87.5064 139.343 87.5599 139.343 87.8345C139.343 88.0926 139.376 88.1713 139.5 88.2035C139.613 88.2332 139.671 88.341 139.709 88.5968C139.75 88.8698 139.796 88.949 139.913 88.949C140.039 88.949 140.064 89.0097 140.064 89.3097C140.064 89.6131 140.089 89.6703 140.219 89.6703C140.342 89.6703 140.386 89.7462 140.429 90.031C140.471 90.3119 140.516 90.3916 140.634 90.3916C140.76 90.3916 140.785 90.4523 140.785 90.7523C140.785 91.0595 140.809 91.113 140.946 91.113C141.069 91.113 141.106 91.1664 141.106 91.3434C141.106 91.7747 141.2 92.0596 141.355 92.1002C141.476 92.1318 141.506 92.2142 141.506 92.508C141.506 92.8227 141.53 92.8762 141.667 92.8762C141.811 92.8762 141.827 92.9296 141.827 93.3971C141.827 93.8531 141.846 93.9181 141.977 93.9181C142.153 93.9181 142.228 94.1954 142.228 94.8497C142.228 95.2271 142.247 95.2805 142.388 95.2805C142.533 95.2805 142.548 95.334 142.548 95.8415C142.548 96.336 142.566 96.4026 142.698 96.4026C142.878 96.4026 142.947 96.7251 142.948 97.5847C142.949 98.1121 142.964 98.1658 143.109 98.1658C143.26 98.1658 143.269 98.2192 143.269 99.0474C143.269 99.8508 143.282 99.929 143.417 99.929C143.551 99.929 143.57 100.032 143.617 101.024C143.646 101.626 143.67 102.365 143.67 102.667C143.67 103.075 143.698 103.215 143.779 103.215C143.853 103.215 143.904 103.371 143.939 103.708C144.005 104.341 144.006 110.008 143.94 110.338L143.89 110.588H106.601H69.3109V105.98C69.3109 101.425 69.3127 101.372 69.4712 101.372C69.6128 101.372 69.6315 101.318 69.6318 100.911C69.6321 100.657 69.6555 100.098 69.684 99.6685C69.7296 98.9805 69.7534 98.8871 69.8839 98.8871C70.0191 98.8871 70.0321 98.8097 70.0321 98.0055C70.0321 97.1773 70.0417 97.1239 70.1923 97.1239C70.3321 97.1239 70.3526 97.0702 70.3534 96.7031C70.3549 96.0008 70.4331 95.6813 70.6034 95.6813C70.7344 95.6813 70.7532 95.6157 70.7532 95.1603C70.7532 94.6928 70.7696 94.6394 70.9135 94.6394C71.0575 94.6394 71.0737 94.5859 71.0737 94.1109C71.0737 93.6598 71.0959 93.5766 71.2254 93.5428C71.3853 93.501 71.4744 93.2161 71.4744 92.7459C71.4744 92.5289 71.506 92.4754 71.6346 92.4754C71.7712 92.4754 71.7949 92.422 71.7949 92.1148C71.7949 91.8076 71.8186 91.7541 71.9551 91.7541C72.0763 91.7541 72.1156 91.7004 72.1163 91.5337C72.1183 91.0246 72.2134 90.7122 72.3663 90.7122C72.4903 90.7122 72.516 90.6504 72.516 90.3516C72.516 90.0516 72.5414 89.9909 72.6671 89.9909C72.7849 89.9909 72.8303 89.9112 72.8724 89.6303C72.9151 89.3454 72.9591 89.2696 73.0818 89.2696C73.2125 89.2696 73.2372 89.2124 73.2372 88.909C73.2372 88.6053 73.2618 88.5483 73.3929 88.5483C73.5187 88.5483 73.5532 88.4831 73.5732 88.2077C73.5936 87.9245 73.6282 87.8627 73.778 87.8414C73.9301 87.8199 73.9583 87.7665 73.9583 87.5008C73.9583 87.2393 73.9855 87.1858 74.1186 87.1858C74.2361 87.1858 74.2788 87.1324 74.2788 86.9855C74.2788 86.8406 74.3219 86.7851 74.4342 86.7851C74.5569 86.7851 74.6009 86.7093 74.6436 86.4244C74.6857 86.1435 74.7311 86.0638 74.8489 86.0638C74.9713 86.0638 75 86.004 75 85.7488C75 85.4831 75.0283 85.4297 75.1803 85.4082C75.2932 85.3921 75.3698 85.3182 75.3851 85.2104C75.3986 85.1157 75.4797 85.0199 75.5654 84.9975C75.6877 84.9656 75.7212 84.8862 75.7212 84.6287C75.7212 84.354 75.7473 84.3006 75.8814 84.3006C75.9863 84.3006 76.0417 84.2471 76.0417 84.1459C76.0417 84.0464 76.1061 83.982 76.222 83.9656C76.3378 83.9491 76.4114 83.8755 76.4279 83.7596C76.4437 83.6481 76.5091 83.5793 76.599 83.5793C76.7102 83.5793 76.7575 83.4939 76.7987 83.2186C76.8414 82.9338 76.8854 82.858 77.0081 82.858C77.11 82.858 77.1635 82.8028 77.1635 82.6977C77.1635 82.5908 77.2169 82.5374 77.3237 82.5374C77.4413 82.5374 77.484 82.4839 77.484 82.337C77.484 82.1932 77.5272 82.1366 77.6372 82.1366C77.7535 82.1366 77.8034 82.0594 77.8446 81.8161C77.8857 81.5727 77.9356 81.4955 78.0519 81.4955C78.1619 81.4955 78.2051 81.439 78.2051 81.2951C78.2051 81.1348 78.2452 81.0948 78.4055 81.0948C78.5523 81.0948 78.6058 81.052 78.6058 80.9345C78.6058 80.8276 78.6592 80.7742 78.766 80.7742C78.8836 80.7742 78.9263 80.7207 78.9263 80.5738C78.9263 80.4269 78.969 80.3734 79.0865 80.3734C79.1934 80.3734 79.2468 80.32 79.2468 80.2132C79.2468 80.0956 79.3002 80.0529 79.4471 80.0529C79.6074 80.0529 79.6474 80.0128 79.6474 79.8525C79.6474 79.7056 79.6901 79.6521 79.8077 79.6521C79.9126 79.6521 79.968 79.5987 79.968 79.4974C79.968 79.398 80.0324 79.3335 80.1482 79.3171C80.2641 79.3006 80.3377 79.227 80.3542 79.1111C80.3706 78.9953 80.435 78.9308 80.5345 78.9308C80.6357 78.9308 80.6891 78.8754 80.6891 78.7705C80.6891 78.6613 80.7426 78.6102 80.8569 78.6102C80.9572 78.6102 81.0414 78.5459 81.0665 78.4499C81.0897 78.3612 81.1758 78.2897 81.2594 78.2897C81.3669 78.2897 81.4103 78.2321 81.4103 78.0893C81.4103 77.929 81.4503 77.8889 81.6106 77.8889C81.7575 77.8889 81.8109 77.8462 81.8109 77.7286C81.8109 77.6218 81.8643 77.5683 81.9712 77.5683C82.0887 77.5683 82.1314 77.5149 82.1314 77.368C82.1314 77.1877 82.1635 77.1676 82.4519 77.1676C82.719 77.1676 82.7724 77.1409 82.7724 77.0073C82.7724 76.8898 82.8259 76.847 82.9728 76.847C83.133 76.847 83.1731 76.807 83.1731 76.6467C83.1731 76.4864 83.2131 76.4463 83.3734 76.4463C83.5203 76.4463 83.5737 76.4036 83.5737 76.286C83.5737 76.1792 83.6272 76.1257 83.734 76.1257C83.8391 76.1257 83.8942 76.0723 83.8942 75.9703C83.8942 75.8476 83.97 75.8036 84.2548 75.7609C84.5357 75.7187 84.6154 75.6734 84.6154 75.5556C84.6154 75.4579 84.672 75.4044 84.7756 75.4044C84.8825 75.4044 84.9359 75.351 84.9359 75.2441C84.9359 75.1265 84.9893 75.0838 85.1362 75.0838C85.281 75.0838 85.3365 75.0408 85.3365 74.9284C85.3365 74.8057 85.4123 74.7617 85.6971 74.719C85.9708 74.678 86.0577 74.6301 86.0577 74.5207C86.0577 74.415 86.1431 74.3622 86.3782 74.3224C86.6215 74.2813 86.6987 74.2314 86.6987 74.115C86.6987 74.005 86.7552 73.9618 86.899 73.9618C87.044 73.9618 87.0994 73.9188 87.0994 73.8061C87.0994 73.6802 87.1646 73.6457 87.4399 73.6257C87.723 73.6053 87.7848 73.5707 87.8061 73.4208C87.8276 73.2688 87.881 73.2405 88.1466 73.2405C88.4081 73.2405 88.4615 73.2133 88.4615 73.0802C88.4615 72.9626 88.515 72.9199 88.6619 72.9199C88.8047 72.9199 88.8622 72.8765 88.8622 72.7687C88.8622 72.6509 88.9419 72.6056 89.2228 72.5634C89.5075 72.5207 89.5833 72.4767 89.5833 72.354C89.5833 72.2233 89.6405 72.1986 89.9439 72.1986C90.251 72.1986 90.3045 72.1749 90.3045 72.0383C90.3045 71.9097 90.3579 71.878 90.5749 71.878C91.0724 71.878 91.3462 71.7891 91.3462 71.6276C91.3462 71.5028 91.4076 71.4773 91.7067 71.4773C92.0139 71.4773 92.0673 71.4536 92.0673 71.317C92.0673 71.1804 92.1208 71.1567 92.4279 71.1567C92.727 71.1567 92.7885 71.1311 92.7885 71.0064C92.7885 70.8448 93.0622 70.756 93.5597 70.756C93.7767 70.756 93.8301 70.7243 93.8301 70.5957C93.8301 70.467 93.8836 70.4354 94.1006 70.4354C94.5707 70.4354 94.8555 70.3463 94.8973 70.1864C94.9311 70.0569 95.0143 70.0347 95.4652 70.0347C95.9401 70.0347 95.9936 70.0185 95.9936 69.8744C95.9936 69.7293 96.047 69.7141 96.5545 69.7141C97.0619 69.7141 97.1154 69.6988 97.1154 69.5538C97.1154 69.4221 97.169 69.3934 97.4159 69.3929C97.5812 69.3926 97.9597 69.3694 98.2572 69.3412C98.7123 69.2983 98.7981 69.2665 98.7981 69.1414C98.7981 69.0057 98.8744 68.9928 99.6795 68.9928C100.507 68.9928 100.561 68.9831 100.561 68.8325C100.561 68.6852 100.614 68.6722 101.222 68.6718C102.443 68.671 103.446 68.5771 103.446 68.4634C103.446 68.3906 103.61 68.3504 103.986 68.3309C105.027 68.277 108.315 68.2719 108.922 68.3233ZM25.8814 74.1517C25.8814 74.2652 26.2704 74.36 26.7428 74.3616C26.9495 74.3624 27.0032 74.3956 27.0032 74.5228C27.0032 74.6404 27.0567 74.6831 27.2035 74.6831C27.3474 74.6831 27.4038 74.7263 27.4038 74.8363C27.4038 74.9527 27.4811 75.0026 27.7244 75.0438C27.9676 75.0849 28.0449 75.1348 28.0449 75.2512C28.0449 75.3494 28.1006 75.4044 28.2002 75.4044C28.3229 75.4044 28.3669 75.4802 28.4096 75.7651C28.4518 76.046 28.4971 76.1257 28.6149 76.1257C28.7384 76.1257 28.766 76.1858 28.766 76.4538C28.766 76.7083 28.8001 76.7908 28.9177 76.8216C29.1094 76.8717 29.1669 77.1542 29.1658 78.0392C29.1646 79.0079 29.1019 79.3316 28.9158 79.3316C28.7917 79.3316 28.766 79.3934 28.766 79.6922C28.766 79.9939 28.7409 80.0529 28.6128 80.0529C28.4965 80.0529 28.4466 80.1301 28.4054 80.3734C28.3643 80.6168 28.3144 80.694 28.1981 80.694C28.0881 80.694 28.0449 80.7505 28.0449 80.8944C28.0449 81.0747 28.0128 81.0948 27.7244 81.0948C27.4573 81.0948 27.4038 81.1214 27.4038 81.255C27.4038 81.3726 27.3504 81.4153 27.2035 81.4153C27.0433 81.4153 27.0032 81.4554 27.0032 81.6157C27.0032 81.8145 26.9978 81.8161 26.2821 81.8161C25.6143 81.8161 25.5609 81.8279 25.5609 81.9764C25.5609 82.11 25.5075 82.1366 25.2404 82.1366C24.9733 82.1366 24.9199 82.11 24.9199 81.9764C24.9199 81.8343 24.8664 81.8161 24.4491 81.8161C23.7555 81.8161 23.4776 81.7444 23.4776 81.5656C23.4776 81.4588 23.4197 81.4153 23.2772 81.4153C23.1304 81.4153 23.0769 81.3726 23.0769 81.255C23.0769 81.1375 23.0235 81.0948 22.8766 81.0948C22.7297 81.0948 22.6763 81.052 22.6763 80.9345C22.6763 80.8276 22.6228 80.7742 22.516 80.7742C22.3985 80.7742 22.3558 80.7207 22.3558 80.5738C22.3558 80.4269 22.3131 80.3734 22.1955 80.3734C22.0887 80.3734 22.0353 80.32 22.0353 80.2132C22.0353 80.1072 21.9818 80.0529 21.8777 80.0529C21.7493 80.0529 21.7105 79.979 21.6671 79.6521C21.6248 79.333 21.5834 79.2514 21.464 79.2514C21.3242 79.2514 21.3141 79.1704 21.3141 78.0492C21.3141 76.9246 21.3239 76.847 21.4652 76.847C21.583 76.847 21.6284 76.7673 21.6705 76.4864C21.7132 76.2015 21.7572 76.1257 21.8799 76.1257C21.9922 76.1257 22.0353 76.0702 22.0353 75.9254C22.0353 75.7815 22.0784 75.725 22.1885 75.725C22.3042 75.725 22.3546 75.6482 22.3948 75.4104C22.4439 75.1197 22.4717 75.0919 22.7624 75.0427C23.0002 75.0026 23.0769 74.9522 23.0769 74.8363C23.0769 74.7263 23.1334 74.6831 23.2772 74.6831C23.42 74.6831 23.4776 74.6397 23.4776 74.5323C23.4776 74.4009 23.5654 74.3741 24.1587 74.3248C24.6646 74.2826 24.8397 74.2389 24.8397 74.1549C24.8397 74.0693 24.9658 74.0419 25.3606 74.0419C25.748 74.0419 25.8814 74.0701 25.8814 74.1517Z" fill="#0BC481"/>
</svg>
