<svg width="152" height="152" viewBox="0 0 152 152" fill="none" xmlns="http://www.w3.org/2000/svg">
<path fill-rule="evenodd" clip-rule="evenodd" d="M73.885 0.132863C73.8537 0.22679 73.3195 0.278923 72.0614 0.310929C71.0827 0.335896 70.282 0.392868 70.282 0.437742C70.282 0.482617 69.7026 0.544868 68.9944 0.576104C68.187 0.61174 67.6914 0.678941 67.6656 0.75637C67.6395 0.83468 67.2756 0.881204 66.6714 0.883404C66.0082 0.885823 65.6534 0.935977 65.5049 1.04838C65.3656 1.15364 65.0308 1.20984 64.5426 1.20984C64.1308 1.20984 63.7939 1.25416 63.7939 1.30839C63.7939 1.36261 63.398 1.44202 62.9141 1.4848C62.4302 1.52759 62.0344 1.60106 62.0344 1.64802C62.0344 1.69499 61.7279 1.75548 61.3533 1.78265C60.9711 1.81025 60.6535 1.88845 60.6294 1.96082C60.6037 2.03792 60.3506 2.08973 59.9999 2.08973C59.6627 2.08973 59.3959 2.14241 59.3721 2.21368C59.3494 2.28187 59.0731 2.36238 58.7582 2.39263C58.4431 2.42287 58.1855 2.49084 58.1855 2.54364C58.1855 2.59643 57.9168 2.63965 57.5884 2.63965C57.2044 2.63965 56.9327 2.69849 56.8266 2.80463C56.7359 2.89537 56.4814 2.96961 56.261 2.96961C56.0406 2.96961 55.7862 3.04385 55.6954 3.13459C55.6047 3.22533 55.3361 3.29957 55.0985 3.29957C54.8609 3.29957 54.6665 3.34257 54.6665 3.39503C54.6665 3.44761 54.4572 3.51866 54.2015 3.55297C53.9457 3.58729 53.7189 3.66802 53.6974 3.73236C53.676 3.79681 53.4681 3.84949 53.2356 3.84949C53.003 3.84949 52.7385 3.92373 52.6478 4.01447C52.557 4.10521 52.3061 4.17945 52.09 4.17945C51.874 4.17945 51.6973 4.22333 51.6973 4.2769C51.6973 4.33057 51.4746 4.40789 51.2025 4.44869C50.9303 4.4895 50.7076 4.56935 50.7076 4.6261C50.7076 4.68296 50.5132 4.72938 50.2755 4.72938C50.038 4.72938 49.7693 4.80362 49.6786 4.89436C49.5879 4.98509 49.341 5.05933 49.1301 5.05933C48.9191 5.05933 48.7289 5.11202 48.7075 5.17647C48.686 5.24081 48.4592 5.32154 48.2034 5.35586C47.9477 5.39017 47.7384 5.46122 47.7384 5.51379C47.7384 5.56626 47.544 5.60926 47.3064 5.60926C47.0688 5.60926 46.8002 5.6835 46.7095 5.77424C46.6187 5.86498 46.3719 5.93922 46.1609 5.93922C45.9499 5.93922 45.7598 5.9919 45.7383 6.05635C45.7169 6.12069 45.49 6.20142 45.2342 6.23574C44.9786 6.27006 44.7693 6.33473 44.7693 6.37938C44.7693 6.42403 44.5358 6.48684 44.2506 6.51906C43.9652 6.55118 43.7137 6.63191 43.6915 6.69834C43.6694 6.76477 43.4615 6.8191 43.2297 6.8191C42.9979 6.8191 42.7906 6.87179 42.7692 6.93624C42.7477 7.00058 42.5209 7.08131 42.2651 7.11562C42.0094 7.14994 41.8001 7.21637 41.8001 7.26322C41.8001 7.31008 41.5527 7.38245 41.2503 7.42402C40.9479 7.4656 40.7004 7.54446 40.7004 7.59934C40.7004 7.65411 40.5078 7.69899 40.2723 7.69899C39.9932 7.69899 39.8222 7.7564 39.7809 7.86397C39.7409 7.96834 39.5722 8.02894 39.3214 8.02894C39.1035 8.02894 38.851 8.10318 38.7603 8.19392C38.6695 8.28466 38.4009 8.3589 38.1634 8.3589C37.9257 8.3589 37.7313 8.40839 37.7313 8.46889C37.7313 8.52938 37.5864 8.57887 37.4092 8.57887C37.2321 8.57887 37.013 8.65311 36.9223 8.74385C36.8315 8.83459 36.5771 8.90883 36.3567 8.90883C36.1363 8.90883 35.8818 8.98307 35.7911 9.07381C35.7004 9.16454 35.4317 9.23878 35.1942 9.23878C34.9566 9.23878 34.7621 9.28828 34.7621 9.34877C34.7621 9.40926 34.6172 9.45876 34.44 9.45876C34.263 9.45876 34.0438 9.533 33.9531 9.62373C33.8624 9.71447 33.6237 9.79025 33.4228 9.79223C33.222 9.7941 32.9615 9.86834 32.8442 9.95721C32.7267 10.046 32.4422 10.1187 32.2119 10.1187C31.9815 10.1187 31.793 10.1676 31.793 10.2273C31.793 10.2872 31.595 10.3677 31.3531 10.4064C31.1112 10.4451 30.9132 10.5199 30.9132 10.5727C30.9132 10.6255 30.7277 10.6701 30.5009 10.6721C30.2741 10.674 29.9924 10.7482 29.875 10.8371C29.7576 10.9259 29.4731 10.9986 29.2427 10.9986C29.0123 10.9986 28.8238 11.0475 28.8238 11.1072C28.8238 11.1671 28.6259 11.2476 28.384 11.2863C28.142 11.325 27.9441 11.3998 27.9441 11.4526C27.9441 11.5054 27.7446 11.5485 27.5008 11.5485C27.2082 11.5485 27.036 11.6046 26.9942 11.7135C26.9497 11.8291 26.7696 11.8784 26.3928 11.8784C26.0968 11.8784 25.8547 11.9274 25.8547 11.9871C25.8547 12.0469 25.6567 12.1274 25.4148 12.1662C25.1729 12.2049 24.9749 12.2732 24.9749 12.3179C24.9749 12.3627 24.7657 12.4275 24.51 12.4618C24.2542 12.4961 24.0273 12.5768 24.0059 12.6412C23.9844 12.7056 23.7766 12.7583 23.544 12.7583C23.3114 12.7583 23.047 12.8326 22.9562 12.9233C22.8655 13.014 22.6146 13.0883 22.3985 13.0883C22.1825 13.0883 22.0058 13.1322 22.0058 13.1857C22.0058 13.2394 21.7831 13.3167 21.5109 13.3575C21.2387 13.3983 21.0161 13.4782 21.0161 13.5349C21.0161 13.5918 20.8216 13.6382 20.584 13.6382C20.3465 13.6382 20.0778 13.7124 19.9871 13.8032C19.8964 13.8939 19.6495 13.9682 19.4386 13.9682C19.2275 13.9682 19.0374 14.0208 19.0159 14.0853C18.9945 14.1496 18.7676 14.2304 18.5118 14.2647C18.2562 14.299 18.0469 14.37 18.0469 14.4226C18.0469 14.4751 17.8525 14.5181 17.6148 14.5181C17.3773 14.5181 17.1086 14.5923 17.0179 14.6831C16.9272 14.7738 16.6803 14.848 16.4694 14.848C16.2584 14.848 16.0682 14.9007 16.0468 14.9652C16.0253 15.0295 15.7985 15.1103 15.5427 15.1446C15.287 15.1789 15.0777 15.2436 15.0777 15.2882C15.0777 15.3329 14.8443 15.3957 14.559 15.4279C14.2737 15.46 14.0222 15.5407 13.9999 15.6072C13.9778 15.6736 13.7872 15.7279 13.5761 15.7279C13.3652 15.7279 13.1183 15.8022 13.0276 15.8929C12.9369 15.9836 12.693 16.0579 12.4857 16.0579C12.2783 16.0579 12.1086 16.1028 12.1086 16.1575C12.1086 16.2124 11.8612 16.2913 11.5588 16.3329C11.2563 16.3744 11.0089 16.4533 11.0089 16.5082C11.0089 16.5629 10.8817 16.6078 10.7262 16.6078C10.5706 16.6078 10.3691 16.6821 10.2784 16.7728C10.1877 16.8635 9.96849 16.9378 9.79144 16.9378C9.61428 16.9378 9.46935 16.9863 9.46935 17.0457C9.46935 17.1049 9.34563 17.1846 9.19442 17.2225C9.04322 17.2605 8.9195 17.3357 8.9195 17.3896C8.9195 17.4436 8.79579 17.4877 8.64458 17.4877C8.47347 17.4877 8.36966 17.5501 8.36966 17.6527C8.36966 17.7627 8.25969 17.8177 8.03975 17.8177C7.81982 17.8177 7.70985 17.8726 7.70985 17.9826C7.70985 18.0778 7.61044 18.1476 7.47506 18.1476C7.34585 18.1476 7.12558 18.2713 6.98537 18.4226C6.84527 18.5738 6.67878 18.6975 6.61544 18.6975C6.55199 18.6975 6.50019 18.746 6.50019 18.8054C6.50019 18.8647 6.37648 18.9443 6.22527 18.9823C6.07406 19.0202 5.95035 19.1202 5.95035 19.2044C5.95035 19.2886 5.89756 19.3575 5.83301 19.3575C5.76846 19.3575 5.55226 19.5307 5.35267 19.7424C5.15297 19.9541 4.93358 20.1274 4.86518 20.1274C4.79667 20.1274 4.74069 20.2016 4.74069 20.2923C4.74069 20.3831 4.66646 20.4573 4.57574 20.4573C4.48502 20.4573 4.41079 20.5083 4.41079 20.5707C4.41079 20.6331 4.16336 20.9239 3.86094 21.2169C3.55853 21.51 3.3111 21.8054 3.3111 21.8734C3.3111 21.9415 3.23687 21.9971 3.14615 21.9971C3.04355 21.9971 2.9812 22.1009 2.9812 22.2721C2.9812 22.4432 2.91884 22.547 2.81624 22.547C2.72552 22.547 2.65129 22.6213 2.65129 22.712C2.65129 22.8028 2.60719 22.877 2.5532 22.877C2.49931 22.877 2.42409 23.0007 2.38616 23.152C2.34822 23.3032 2.2686 23.4269 2.20933 23.4269C2.14994 23.4269 2.10145 23.5454 2.10145 23.6901C2.10145 23.8349 2.02722 23.9818 1.93649 24.0167C1.84577 24.0514 1.77154 24.2052 1.77154 24.3584C1.77154 24.5115 1.72304 24.6368 1.66366 24.6368C1.60439 24.6368 1.52477 24.7605 1.48683 24.9117C1.44889 25.063 1.37367 25.1867 1.31979 25.1867C1.26579 25.1867 1.2217 25.3352 1.2217 25.5166C1.2217 25.7366 1.16671 25.8466 1.05674 25.8466C0.938198 25.8466 0.891791 25.9678 0.891791 26.2774C0.891791 26.5143 0.837466 26.7263 0.771045 26.7484C0.704624 26.7706 0.623907 27.0221 0.591796 27.3075C0.559575 27.5928 0.496014 27.8263 0.450377 27.8263C0.40485 27.8263 0.346456 28.1573 0.320724 28.5617C0.293121 28.9949 0.220102 29.3151 0.143014 29.3408C-0.0476714 29.4044 -0.0476714 123.146 0.143014 123.209C0.220102 123.235 0.293121 123.555 0.320724 123.988C0.346456 124.393 0.411338 124.724 0.464673 124.724C0.518117 124.724 0.561885 124.918 0.561885 125.156C0.561885 125.393 0.636114 125.662 0.726838 125.753C0.817562 125.843 0.891791 126.089 0.891791 126.299C0.891791 126.536 0.954033 126.704 1.05674 126.743C1.14747 126.778 1.2217 126.932 1.2217 127.085C1.2217 127.238 1.26722 127.363 1.32298 127.363C1.37862 127.363 1.45681 127.512 1.49662 127.693C1.53643 127.875 1.61461 128.023 1.67026 128.023C1.72601 128.023 1.77154 128.147 1.77154 128.298C1.77154 128.469 1.83389 128.573 1.93649 128.573C2.03711 128.573 2.10145 128.676 2.10145 128.836C2.10145 128.981 2.17567 129.128 2.2664 129.163C2.35712 129.198 2.43135 129.327 2.43135 129.45C2.43135 129.572 2.48084 129.673 2.54132 129.673C2.6018 129.673 2.65129 129.747 2.65129 129.838C2.65129 129.929 2.72552 130.003 2.81624 130.003C2.90697 130.003 2.9812 130.077 2.9812 130.168C2.9812 130.259 3.02969 130.333 3.08907 130.333C3.14835 130.333 3.22797 130.457 3.2659 130.608C3.30384 130.759 3.37906 130.883 3.43295 130.883C3.48694 130.883 3.53104 130.957 3.53104 131.048C3.53104 131.138 3.60527 131.213 3.69599 131.213C3.78672 131.213 3.86094 131.287 3.86094 131.378C3.86094 131.468 3.93517 131.543 4.0259 131.543C4.11662 131.543 4.19085 131.596 4.19085 131.66C4.19085 131.813 4.47061 132.093 4.62292 132.093C4.68769 132.093 4.74069 132.167 4.74069 132.258C4.74069 132.348 4.81492 132.423 4.90565 132.423C4.99637 132.423 5.0706 132.476 5.0706 132.54C5.0706 132.693 5.35036 132.973 5.50267 132.973C5.56744 132.973 5.62044 133.047 5.62044 133.137C5.62044 133.228 5.67664 133.302 5.74526 133.302C5.81399 133.302 5.97949 133.42 6.11299 133.565C6.2466 133.709 6.46258 133.861 6.59301 133.902C6.72343 133.943 6.8301 134.023 6.8301 134.08C6.8301 134.136 6.90433 134.182 6.99505 134.182C7.08578 134.182 7.16 134.231 7.16 134.29C7.16 134.35 7.28372 134.429 7.43493 134.467C7.58613 134.505 7.70985 134.575 7.70985 134.622C7.70985 134.67 7.83356 134.74 7.98477 134.777C8.13598 134.815 8.25969 134.895 8.25969 134.954C8.25969 135.014 8.35514 135.062 8.47182 135.062C8.58839 135.062 8.75807 135.136 8.84879 135.227C8.93952 135.318 9.11624 135.392 9.2416 135.392C9.36685 135.392 9.46935 135.438 9.46935 135.493C9.46935 135.549 9.6178 135.627 9.79925 135.667C9.9807 135.707 10.1292 135.779 10.1292 135.827C10.1292 135.875 10.3271 135.946 10.569 135.984C10.811 136.023 11.0089 136.104 11.0089 136.163C11.0089 136.223 11.1361 136.272 11.2916 136.272C11.4472 136.272 11.6487 136.346 11.7394 136.437C11.8302 136.528 12.0246 136.602 12.1714 136.602C12.3183 136.602 12.4385 136.652 12.4385 136.712C12.4385 136.773 12.5834 136.822 12.7606 136.822C12.9376 136.822 13.1568 136.896 13.2475 136.987C13.3383 137.078 13.5185 137.152 13.6482 137.152C13.7778 137.152 13.958 137.226 14.0488 137.317C14.1395 137.408 14.3587 137.482 14.5357 137.482C14.7129 137.482 14.8578 137.531 14.8578 137.591C14.8578 137.65 15.0558 137.731 15.2977 137.77C15.5396 137.808 15.7376 137.883 15.7376 137.936C15.7376 137.989 15.8648 138.032 16.0203 138.032C16.1759 138.032 16.3774 138.106 16.4681 138.197C16.5588 138.288 16.778 138.362 16.955 138.362C17.1322 138.362 17.2771 138.409 17.2771 138.467C17.2771 138.525 17.4503 138.604 17.662 138.644C17.8737 138.684 18.0469 138.76 18.0469 138.814C18.0469 138.868 18.1741 138.912 18.3296 138.912C18.4852 138.912 18.6867 138.986 18.7774 139.077C18.8681 139.167 19.0873 139.242 19.2644 139.242C19.4415 139.242 19.5865 139.291 19.5865 139.35C19.5865 139.41 19.7844 139.491 20.0263 139.529C20.2683 139.568 20.4662 139.643 20.4662 139.696C20.4662 139.749 20.5915 139.792 20.7445 139.792C20.8977 139.792 21.0515 139.866 21.0862 139.957C21.1257 140.059 21.2933 140.122 21.5305 140.122C21.7401 140.122 21.9858 140.196 22.0765 140.287C22.1672 140.377 22.3864 140.452 22.5634 140.452C22.7406 140.452 22.8855 140.501 22.8855 140.562C22.8855 140.622 23.0108 140.671 23.1639 140.671C23.317 140.671 23.4708 140.746 23.5055 140.836C23.544 140.937 23.7105 141.001 23.9302 141.001C24.1499 141.001 24.3164 141.066 24.3549 141.166C24.3946 141.27 24.5628 141.331 24.8066 141.331C25.0201 141.331 25.1949 141.377 25.1949 141.433C25.1949 141.488 25.3433 141.567 25.5248 141.606C25.7062 141.646 25.8547 141.724 25.8547 141.78C25.8547 141.836 26.0526 141.881 26.2945 141.881C26.6122 141.881 26.7344 141.927 26.7344 142.046C26.7344 142.162 26.8513 142.211 27.1271 142.211C27.3432 142.211 27.5942 142.286 27.6849 142.376C27.7756 142.467 27.9453 142.541 28.0619 142.541C28.1785 142.541 28.274 142.584 28.274 142.637C28.274 142.69 28.4719 142.765 28.7139 142.803C28.9558 142.842 29.1537 142.923 29.1537 142.983C29.1537 143.042 29.3217 143.091 29.5269 143.091C29.7571 143.091 29.9242 143.154 29.9633 143.256C29.9981 143.347 30.1518 143.421 30.305 143.421C30.4581 143.421 30.5833 143.471 30.5833 143.531C30.5833 143.592 30.7283 143.641 30.9054 143.641C31.0825 143.641 31.3016 143.715 31.3924 143.806C31.4831 143.897 31.734 143.971 31.9501 143.971C32.2259 143.971 32.3428 144.02 32.3428 144.136C32.3428 144.246 32.4528 144.301 32.6727 144.301C32.8542 144.301 33.0026 144.344 33.0026 144.397C33.0026 144.45 33.2006 144.525 33.4425 144.563C33.6844 144.602 33.8824 144.682 33.8824 144.742C33.8824 144.802 33.9966 144.851 34.1363 144.851C34.276 144.851 34.4862 144.924 34.6037 145.012C34.721 145.101 34.932 145.176 35.0724 145.177C35.2128 145.179 35.4019 145.255 35.4927 145.346C35.5834 145.437 35.7778 145.511 35.9246 145.511C36.0715 145.511 36.1917 145.56 36.1917 145.621C36.1917 145.681 36.3367 145.731 36.5138 145.731C36.6909 145.731 36.91 145.805 37.0008 145.896C37.0915 145.987 37.2717 146.061 37.4014 146.061C37.531 146.061 37.7113 146.135 37.802 146.226C37.8927 146.317 38.1119 146.391 38.2889 146.391C38.4661 146.391 38.611 146.434 38.611 146.487C38.611 146.539 38.809 146.614 39.0509 146.653C39.2928 146.692 39.4908 146.772 39.4908 146.832C39.4908 146.892 39.618 146.941 39.7735 146.941C39.9291 146.941 40.1306 147.015 40.2213 147.106C40.312 147.196 40.5312 147.271 40.7083 147.271C40.8854 147.271 41.0303 147.318 41.0303 147.376C41.0303 147.433 41.2036 147.513 41.4152 147.553C41.6269 147.593 41.8001 147.669 41.8001 147.723C41.8001 147.777 41.9274 147.821 42.0829 147.821C42.2385 147.821 42.4399 147.895 42.5307 147.986C42.6214 148.076 42.8405 148.151 43.0176 148.151C43.1948 148.151 43.3397 148.199 43.3397 148.259C43.3397 148.319 43.5376 148.4 43.7796 148.438C44.0215 148.477 44.2194 148.552 44.2194 148.605C44.2194 148.657 44.3679 148.7 44.5493 148.7C44.7693 148.7 44.8793 148.755 44.8793 148.865C44.8793 148.985 45.0014 149.03 45.3191 149.03C45.6368 149.03 45.759 149.076 45.759 149.195C45.759 149.311 45.8751 149.36 46.1439 149.36C46.3556 149.36 46.5288 149.41 46.5288 149.47C46.5288 149.531 46.6788 149.58 46.8621 149.58C47.057 149.58 47.2218 149.649 47.2588 149.745C47.296 149.842 47.4645 149.912 47.6677 149.914C47.8579 149.916 48.1095 149.99 48.2268 150.079C48.3443 150.168 48.5793 150.24 48.7492 150.24C48.9191 150.24 49.0581 150.285 49.0581 150.34C49.0581 150.395 49.3055 150.474 49.6079 150.515C49.9103 150.557 50.1577 150.629 50.1577 150.677C50.1577 150.724 50.4154 150.787 50.7305 150.817C51.0454 150.847 51.3217 150.928 51.3444 150.996C51.3682 151.067 51.635 151.12 51.9722 151.12C52.2948 151.12 52.5762 151.173 52.5976 151.237C52.619 151.301 53.0189 151.382 53.4865 151.418C53.954 151.453 54.3366 151.518 54.3366 151.561C54.3366 151.605 54.8659 151.665 55.513 151.694C56.2627 151.727 56.7048 151.792 56.7319 151.873C56.7622 151.964 57.4747 152 59.2472 152C61.2988 152 61.7482 151.972 61.8851 151.835C61.9821 151.738 62.2508 151.67 62.537 151.67C62.8049 151.67 63.0241 151.621 63.0241 151.56C63.0241 151.5 63.1443 151.45 63.2912 151.45C63.438 151.45 63.6324 151.376 63.7232 151.285C63.8139 151.194 64.0153 151.12 64.1709 151.12C64.3264 151.12 64.4537 151.072 64.4537 151.012C64.4537 150.953 64.5774 150.873 64.7286 150.835C64.8798 150.797 65.0035 150.728 65.0035 150.68C65.0035 150.633 65.1272 150.563 65.2784 150.525C65.4296 150.487 65.5534 150.407 65.5534 150.348C65.5534 150.289 65.6276 150.24 65.7183 150.24C65.809 150.24 65.8833 150.166 65.8833 150.075C65.8833 149.985 65.9365 149.91 66.0016 149.91C66.1548 149.91 67.6428 148.421 67.6428 148.267C67.6428 148.203 67.7116 148.151 67.7958 148.151C67.88 148.151 67.9799 148.027 68.0179 147.876C68.0558 147.724 68.1354 147.601 68.1947 147.601C68.2541 147.601 68.3026 147.526 68.3026 147.436C68.3026 147.345 68.3481 147.271 68.4039 147.271C68.4595 147.271 68.5377 147.122 68.5775 146.941C68.6173 146.759 68.6955 146.611 68.7511 146.611C68.8069 146.611 68.8524 146.508 68.8524 146.383C68.8524 146.258 68.9266 146.081 69.0174 145.99C69.1081 145.899 69.1823 145.684 69.1823 145.512C69.1823 145.34 69.2428 145.179 69.3167 145.154C69.4016 145.126 69.4667 144.799 69.4936 144.265C69.5171 143.801 69.5803 143.421 69.6342 143.421C69.6881 143.421 69.7322 142.481 69.7322 141.331V139.242L82.0761 139.238C92.5698 139.234 94.4614 139.21 94.6951 139.077C94.8463 138.99 95.1803 138.918 95.4373 138.916C95.6943 138.913 95.9047 138.867 95.9047 138.812C95.9047 138.757 96.1521 138.678 96.4546 138.637C96.757 138.595 97.0044 138.516 97.0044 138.461C97.0044 138.407 97.1529 138.362 97.3343 138.362C97.5542 138.362 97.6642 138.307 97.6642 138.197C97.6642 138.078 97.7864 138.032 98.1041 138.032C98.346 138.032 98.544 137.983 98.544 137.924C98.544 137.865 98.6677 137.785 98.8189 137.747C98.9701 137.709 99.0938 137.634 99.0938 137.58C99.0938 137.526 99.1696 137.482 99.2622 137.482C99.3549 137.482 99.4591 137.408 99.4939 137.317C99.5287 137.226 99.6756 137.152 99.8204 137.152C99.9651 137.152 100.084 137.103 100.084 137.044C100.084 136.985 100.207 136.905 100.358 136.867C100.51 136.829 100.633 136.754 100.633 136.7C100.633 136.646 100.708 136.602 100.798 136.602C100.889 136.602 100.963 136.528 100.963 136.437C100.963 136.334 101.067 136.272 101.238 136.272C101.409 136.272 101.513 136.21 101.513 136.107C101.513 136.016 101.587 135.942 101.678 135.942C101.769 135.942 101.843 135.868 101.843 135.777C101.843 135.686 101.896 135.612 101.961 135.612C102.113 135.612 102.393 135.332 102.393 135.18C102.393 135.115 102.446 135.062 102.512 135.062C102.666 135.062 103.603 134.126 103.603 133.971C103.603 133.906 103.656 133.852 103.72 133.852C103.873 133.852 104.152 133.573 104.152 133.42C104.152 133.355 104.227 133.302 104.317 133.302C104.42 133.302 104.482 133.199 104.482 133.027C104.482 132.856 104.545 132.753 104.647 132.753C104.738 132.753 104.812 132.678 104.812 132.588C104.812 132.497 104.856 132.423 104.91 132.423C104.964 132.423 105.039 132.299 105.077 132.148C105.115 131.996 105.195 131.873 105.254 131.873C105.314 131.873 105.362 131.804 105.362 131.719C105.362 131.635 105.436 131.538 105.527 131.503C105.618 131.468 105.692 131.314 105.692 131.161C105.692 131.008 105.74 130.883 105.8 130.883C105.859 130.883 105.939 130.759 105.977 130.608C106.015 130.457 106.09 130.333 106.144 130.333C106.198 130.333 106.242 130.208 106.242 130.054C106.242 129.901 106.316 129.748 106.407 129.713C106.507 129.674 106.572 129.508 106.572 129.288C106.572 129.068 106.636 128.902 106.737 128.863C106.845 128.821 106.902 128.649 106.902 128.357C106.902 128.113 106.945 127.913 106.997 127.913C107.05 127.913 107.119 127.68 107.151 127.394C107.184 127.109 107.264 126.857 107.331 126.835C107.405 126.81 107.451 126.45 107.451 125.89C107.451 125.265 107.501 124.92 107.613 124.772C107.752 124.588 107.775 122.994 107.778 113.038L107.781 101.517H108.543C109.074 101.517 109.355 101.567 109.47 101.682C109.588 101.799 109.874 101.847 110.468 101.847C110.926 101.847 111.3 101.893 111.3 101.95C111.3 102.007 111.647 102.087 112.07 102.129C112.493 102.171 112.84 102.242 112.84 102.287C112.84 102.332 113.098 102.393 113.413 102.424C113.728 102.454 114.004 102.534 114.027 102.603C114.05 102.672 114.305 102.726 114.609 102.726C114.906 102.726 115.149 102.775 115.149 102.835C115.149 102.895 115.347 102.975 115.589 103.014C115.831 103.053 116.029 103.121 116.029 103.166C116.029 103.211 116.238 103.276 116.494 103.31C116.75 103.344 116.977 103.425 116.998 103.489C117.019 103.554 117.181 103.606 117.358 103.606C117.724 103.606 118.118 103.945 118.118 104.258C118.118 104.375 118.193 104.545 118.283 104.636C118.374 104.726 118.448 104.928 118.448 105.083C118.448 105.261 118.509 105.366 118.613 105.366C118.716 105.366 118.778 105.47 118.778 105.641C118.778 105.792 118.824 105.916 118.879 105.916C118.935 105.916 119.013 106.065 119.053 106.246C119.093 106.427 119.171 106.576 119.227 106.576C119.283 106.576 119.328 106.65 119.328 106.741C119.328 106.832 119.377 106.906 119.436 106.906C119.495 106.906 119.575 107.03 119.613 107.181C119.651 107.332 119.721 107.456 119.768 107.456C119.815 107.456 119.885 107.58 119.923 107.731C119.961 107.882 120.041 108.006 120.1 108.006C120.159 108.006 120.208 108.099 120.208 108.214C120.208 108.328 120.282 108.451 120.373 108.486C120.463 108.52 120.538 108.649 120.538 108.772C120.538 108.898 120.61 108.996 120.703 108.996C120.805 108.996 120.868 109.099 120.868 109.271C120.868 109.422 120.917 109.546 120.978 109.546C121.038 109.546 121.088 109.62 121.088 109.711C121.088 109.801 121.162 109.876 121.252 109.876C121.343 109.876 121.417 109.95 121.417 110.041C121.417 110.131 121.464 110.206 121.52 110.206C121.576 110.206 121.658 110.317 121.7 110.453C121.743 110.589 121.895 110.809 122.038 110.943C122.18 111.076 122.297 111.214 122.297 111.25C122.297 111.325 122.453 111.517 122.875 111.96C123.041 112.135 123.177 112.332 123.177 112.397C123.177 112.462 123.251 112.515 123.342 112.515C123.433 112.515 123.507 112.569 123.507 112.634C123.507 112.788 124.114 113.395 124.268 113.395C124.333 113.395 124.387 113.449 124.387 113.514C124.387 113.668 125.323 114.605 125.478 114.605C125.543 114.605 125.596 114.658 125.596 114.723C125.596 114.875 125.876 115.155 126.028 115.155C126.093 115.155 126.146 115.229 126.146 115.32C126.146 115.411 126.22 115.485 126.311 115.485C126.402 115.485 126.476 115.559 126.476 115.65C126.476 115.741 126.55 115.815 126.641 115.815C126.732 115.815 126.806 115.859 126.806 115.913C126.806 115.967 126.93 116.042 127.081 116.08C127.232 116.118 127.356 116.198 127.356 116.257C127.356 116.316 127.43 116.365 127.521 116.365C127.611 116.365 127.686 116.439 127.686 116.53C127.686 116.632 127.789 116.695 127.961 116.695C128.132 116.695 128.235 116.757 128.235 116.86C128.235 116.95 128.31 117.025 128.4 117.025C128.491 117.025 128.565 117.069 128.565 117.123C128.565 117.177 128.689 117.252 128.84 117.29C128.992 117.328 129.115 117.407 129.115 117.467C129.115 117.526 129.189 117.575 129.28 117.575C129.371 117.575 129.445 117.623 129.445 117.682C129.445 117.742 129.569 117.821 129.72 117.859C129.871 117.897 129.995 117.972 129.995 118.026C129.995 118.08 130.12 118.124 130.273 118.124C130.427 118.124 130.58 118.199 130.615 118.289C130.65 118.38 130.797 118.454 130.941 118.454C131.102 118.454 131.205 118.519 131.205 118.619C131.205 118.729 131.315 118.784 131.535 118.784C131.716 118.784 131.864 118.827 131.864 118.88C131.864 118.933 132.062 119.008 132.304 119.047C132.546 119.085 132.744 119.166 132.744 119.226C132.744 119.285 132.905 119.336 133.102 119.338C133.298 119.34 133.555 119.414 133.672 119.503C133.79 119.592 134.074 119.664 134.305 119.664C134.535 119.664 134.724 119.711 134.724 119.768C134.724 119.824 135.07 119.905 135.493 119.947C135.917 119.988 136.263 120.066 136.263 120.118C136.263 120.171 137.525 120.214 139.067 120.214C140.62 120.214 141.872 120.171 141.872 120.117C141.872 120.063 142.144 119.986 142.476 119.944C142.809 119.902 143.081 119.822 143.081 119.766C143.081 119.71 143.207 119.664 143.36 119.664C143.513 119.664 143.667 119.59 143.701 119.499C143.736 119.409 143.883 119.334 144.028 119.334C144.172 119.334 144.291 119.286 144.291 119.226C144.291 119.167 144.415 119.087 144.566 119.05C144.717 119.012 144.841 118.942 144.841 118.894C144.841 118.847 144.964 118.777 145.116 118.739C145.267 118.701 145.391 118.622 145.391 118.562C145.391 118.503 145.442 118.454 145.506 118.454C145.569 118.454 145.736 118.331 145.876 118.179C146.016 118.028 146.183 117.904 146.247 117.904C146.423 117.904 147.26 117.038 147.26 116.855C147.26 116.767 147.334 116.695 147.425 116.695C147.516 116.695 147.59 116.62 147.59 116.53C147.59 116.439 147.639 116.365 147.7 116.365C147.76 116.365 147.81 116.29 147.81 116.2C147.81 116.109 147.884 116.035 147.975 116.035C148.077 116.035 148.14 115.931 148.14 115.76C148.14 115.589 148.202 115.485 148.305 115.485C148.395 115.485 148.47 115.411 148.47 115.32C148.47 115.229 148.519 115.155 148.58 115.155C148.64 115.155 148.69 115.031 148.69 114.88C148.69 114.709 148.752 114.605 148.855 114.605C148.955 114.605 149.02 114.502 149.02 114.342C149.02 114.197 149.094 114.05 149.185 114.015C149.275 113.98 149.349 113.827 149.349 113.673C149.349 113.52 149.394 113.395 149.448 113.395C149.501 113.395 149.577 113.271 149.615 113.12C149.653 112.969 149.732 112.845 149.791 112.845C149.851 112.845 149.899 112.7 149.899 112.523C149.899 112.346 149.974 112.127 150.064 112.036C150.155 111.945 150.229 111.694 150.229 111.478C150.229 111.262 150.278 111.085 150.338 111.085C150.398 111.085 150.478 110.887 150.517 110.645C150.556 110.403 150.63 110.206 150.683 110.206C150.736 110.206 150.779 109.992 150.779 109.732C150.779 109.471 150.852 109.162 150.941 109.044C151.041 108.912 151.103 108.574 151.105 108.152C151.108 107.719 151.157 107.458 151.243 107.429C151.328 107.401 151.393 107.074 151.42 106.54C151.444 106.076 151.501 105.696 151.548 105.696C151.595 105.696 151.653 105.044 151.678 104.246C151.709 103.246 151.764 102.783 151.856 102.752C152.049 102.688 152.048 95.3954 151.855 95.3312C151.764 95.301 151.707 94.9041 151.677 94.1121C151.653 93.4663 151.597 92.9378 151.552 92.9378C151.507 92.9378 151.442 92.5551 151.406 92.0876C151.371 91.6199 151.29 91.2199 151.226 91.1986C151.161 91.1771 151.107 90.9039 151.105 90.5915C151.103 90.2671 151.033 89.9315 150.941 89.8097C150.851 89.6907 150.779 89.362 150.779 89.0673C150.779 88.7764 150.735 88.5384 150.682 88.5384C150.628 88.5384 150.55 88.2661 150.509 87.9334C150.467 87.6007 150.387 87.3285 150.331 87.3285C150.275 87.3285 150.228 87.143 150.226 86.9161C150.224 86.6893 150.15 86.4075 150.061 86.2901C149.972 86.1727 149.899 85.8881 149.899 85.6577C149.899 85.4273 149.85 85.2388 149.791 85.2388C149.731 85.2388 149.65 85.0408 149.612 84.7988C149.573 84.5569 149.498 84.3589 149.445 84.3589C149.393 84.3589 149.349 84.2139 149.349 84.0368C149.349 83.8597 149.275 83.6405 149.185 83.5497C149.094 83.459 149.02 83.2133 149.02 83.0037C149.02 82.7664 148.957 82.5988 148.855 82.5593C148.764 82.5246 148.69 82.3708 148.69 82.2176C148.69 82.0645 148.64 81.9392 148.58 81.9392C148.519 81.9392 148.47 81.7943 148.47 81.6171C148.47 81.44 148.395 81.2208 148.305 81.1301C148.214 81.0393 148.14 80.8591 148.14 80.7294C148.14 80.5997 148.066 80.4194 147.975 80.3287C147.884 80.238 147.81 80.0435 147.81 79.8967C147.81 79.7497 147.764 79.6295 147.709 79.6295C147.653 79.6295 147.575 79.481 147.535 79.2996C147.495 79.1181 147.417 78.9696 147.361 78.9696C147.306 78.9696 147.26 78.8211 147.26 78.6397C147.26 78.4582 147.212 78.3097 147.152 78.3097C147.093 78.3097 147.013 78.186 146.975 78.0347C146.937 77.8835 146.866 77.7598 146.817 77.7598C146.768 77.7598 146.695 77.6113 146.655 77.4298C146.615 77.2483 146.537 77.0999 146.482 77.0999C146.426 77.0999 146.38 76.9761 146.38 76.8249C146.38 76.6538 146.318 76.5499 146.215 76.5499C146.113 76.5499 146.05 76.4461 146.05 76.275C146.05 76.1237 146.005 76 145.949 76C145.893 76 145.815 75.8515 145.775 75.67C145.736 75.4886 145.657 75.3401 145.602 75.3401C145.546 75.3401 145.501 75.2396 145.501 75.1167C145.501 74.9937 145.426 74.8647 145.336 74.83C145.245 74.7951 145.171 74.6482 145.171 74.5034C145.171 74.3429 145.106 74.2402 145.006 74.2402C144.913 74.2402 144.841 74.1419 144.841 74.015C144.841 73.8911 144.717 73.6751 144.566 73.535C144.407 73.3874 144.291 73.1582 144.291 72.9902C144.291 72.8059 144.231 72.7004 144.126 72.7004C144.035 72.7004 143.961 72.6262 143.961 72.5355C143.961 72.4447 143.913 72.3705 143.853 72.3705C143.794 72.3705 143.714 72.2467 143.676 72.0955C143.638 71.9443 143.563 71.8206 143.509 71.8206C143.455 71.8206 143.411 71.7463 143.411 71.6556C143.411 71.5648 143.337 71.4906 143.246 71.4906C143.144 71.4906 143.081 71.3868 143.081 71.2156C143.081 71.0445 143.019 70.9407 142.916 70.9407C142.826 70.9407 142.751 70.8664 142.751 70.7757C142.751 70.685 142.703 70.6107 142.643 70.6107C142.584 70.6107 142.505 70.487 142.467 70.3357C142.429 70.1845 142.353 70.0608 142.3 70.0608C142.246 70.0608 142.202 69.9865 142.202 69.8958C142.202 69.8051 142.127 69.7308 142.037 69.7308C141.946 69.7308 141.872 69.6778 141.872 69.613C141.872 69.5481 141.81 69.4262 141.734 69.3418C141.408 68.9779 141.322 68.8535 141.322 68.7456C141.322 68.6826 141.248 68.631 141.157 68.631C141.066 68.631 140.992 68.5792 140.992 68.5157C140.992 68.4524 140.868 68.2858 140.717 68.1457C140.566 68.0055 140.442 67.8347 140.442 67.7659C140.442 67.6973 140.368 67.6411 140.277 67.6411C140.186 67.6411 140.112 67.5895 140.112 67.5265C140.112 67.4024 140.002 67.2577 139.535 66.7662C139.368 66.5913 139.232 66.3949 139.232 66.3297C139.232 66.2646 139.158 66.2113 139.067 66.2113C138.977 66.2113 138.902 66.137 138.902 66.0463C138.902 65.9556 138.849 65.8813 138.785 65.8813C138.632 65.8813 138.353 65.6015 138.353 65.4492C138.353 65.3844 138.278 65.3314 138.188 65.3314C138.097 65.3314 138.023 65.2572 138.023 65.1664C138.023 65.0757 137.948 65.0014 137.858 65.0014C137.767 65.0014 137.693 64.9529 137.693 64.8936C137.693 64.8343 137.569 64.7546 137.418 64.7167C137.267 64.6788 137.143 64.6 137.143 64.5417C137.143 64.4242 136.867 64.1216 136.761 64.1216C136.723 64.1216 136.578 63.9978 136.438 63.8466C136.298 63.6954 136.127 63.5716 136.058 63.5716C135.989 63.5716 135.933 63.5028 135.933 63.4185C135.933 63.3344 135.81 63.2344 135.658 63.1965C135.507 63.1585 135.383 63.0789 135.383 63.0196C135.383 62.9602 135.327 62.9117 135.259 62.9117C135.19 62.9117 135.019 62.788 134.879 62.6368C134.739 62.4855 134.523 62.3618 134.399 62.3618C134.272 62.3618 134.174 62.2898 134.174 62.1968C134.174 62.1061 134.1 62.0318 134.009 62.0318C133.918 62.0318 133.844 61.9833 133.844 61.9239C133.844 61.8647 133.72 61.785 133.569 61.7471C133.418 61.7091 133.294 61.6339 133.294 61.58C133.294 61.526 133.22 61.4819 133.129 61.4819C133.038 61.4819 132.964 61.4077 132.964 61.3169C132.964 61.2163 132.862 61.152 132.701 61.152C132.556 61.152 132.409 61.0777 132.374 60.987C132.34 60.8962 132.211 60.822 132.088 60.822C131.965 60.822 131.864 60.7765 131.864 60.7207C131.864 60.665 131.716 60.5868 131.535 60.547C131.353 60.5072 131.205 60.429 131.205 60.3734C131.205 60.3176 131.13 60.2721 131.04 60.2721C130.949 60.2721 130.875 60.2236 130.875 60.1642C130.875 60.1049 130.751 60.0253 130.6 59.9873C130.449 59.9494 130.325 59.8747 130.325 59.8215C130.325 59.7683 130.127 59.6931 129.885 59.6544C129.643 59.6157 129.445 59.5409 129.445 59.4881C129.445 59.4353 129.32 59.3922 129.167 59.3922C129.014 59.3922 128.86 59.3179 128.825 59.2272C128.786 59.1254 128.619 59.0622 128.389 59.0622C128.183 59.0622 128.016 59.0167 128.016 58.9609C128.016 58.9053 127.867 58.8271 127.686 58.7873C127.504 58.7475 127.356 58.6693 127.356 58.6136C127.356 58.5578 127.158 58.5123 126.916 58.5123C126.598 58.5123 126.476 58.4664 126.476 58.3473C126.476 58.221 126.336 58.1823 125.88 58.1823C125.536 58.1823 125.267 58.13 125.243 58.0584C125.221 57.9902 124.944 57.9097 124.629 57.8794C124.314 57.8492 124.057 57.7883 124.057 57.7441C124.057 57.7 123.747 57.6314 123.369 57.5921C122.991 57.5526 122.666 57.4713 122.645 57.4113C122.625 57.3493 122.143 57.3025 121.527 57.3025C120.76 57.3025 120.433 57.2625 120.4 57.165C120.365 57.0576 118.976 57.0202 114.068 56.9942L107.781 56.9608V42.3351C107.781 29.5831 107.76 27.6587 107.616 27.3145C107.518 27.0781 107.451 26.5755 107.451 26.0623C107.451 25.5242 107.405 25.1897 107.327 25.1637C107.259 25.1409 107.179 24.8646 107.149 24.5496C107.118 24.2345 107.05 23.9768 106.998 23.9768C106.945 23.9768 106.902 23.8021 106.902 23.5885C106.902 23.3446 106.84 23.1765 106.737 23.1368C106.636 23.0983 106.572 22.9318 106.572 22.712C106.572 22.4923 106.507 22.3257 106.407 22.2872C106.316 22.2525 106.242 22.0987 106.242 21.9455C106.242 21.7924 106.198 21.6671 106.144 21.6671C106.09 21.6671 106.015 21.5434 105.977 21.3922C105.939 21.241 105.859 21.1172 105.8 21.1172C105.74 21.1172 105.692 20.9988 105.692 20.854C105.692 20.7093 105.618 20.5623 105.527 20.5275C105.436 20.4927 105.362 20.3885 105.362 20.2957C105.362 20.2031 105.314 20.1274 105.254 20.1274C105.195 20.1274 105.115 20.0036 105.077 19.8524C105.039 19.7012 104.964 19.5774 104.91 19.5774C104.856 19.5774 104.812 19.5032 104.812 19.4124C104.812 19.3217 104.738 19.2475 104.647 19.2475C104.545 19.2475 104.482 19.1436 104.482 18.9725C104.482 18.8014 104.42 18.6975 104.317 18.6975C104.227 18.6975 104.152 18.6445 104.152 18.5797C104.152 18.4274 103.873 18.1476 103.72 18.1476C103.656 18.1476 103.603 18.0937 103.603 18.0278C103.603 17.88 102.1 16.3878 101.951 16.3878C101.891 16.3878 101.843 16.3136 101.843 16.2229C101.843 16.1321 101.769 16.0579 101.678 16.0579C101.587 16.0579 101.513 15.9836 101.513 15.8929C101.513 15.8 101.415 15.7279 101.288 15.7279C101.164 15.7279 100.954 15.6111 100.821 15.4683C100.687 15.3254 100.467 15.1736 100.331 15.1309C100.195 15.0881 100.084 15.0071 100.084 14.9507C100.084 14.8942 99.9651 14.848 99.8204 14.848C99.6756 14.848 99.5287 14.7738 99.4939 14.6831C99.4591 14.5923 99.3549 14.5181 99.2622 14.5181C99.1696 14.5181 99.0938 14.4686 99.0938 14.4081C99.0938 14.3476 98.9701 14.2981 98.8189 14.2981C98.6478 14.2981 98.544 14.2358 98.544 14.1331C98.544 14.014 98.4218 13.9682 98.1041 13.9682C97.7864 13.9682 97.6642 13.9223 97.6642 13.8032C97.6642 13.6932 97.5542 13.6382 97.3343 13.6382C97.1529 13.6382 97.0044 13.5933 97.0044 13.5386C97.0044 13.4837 96.757 13.4048 96.4546 13.3632C96.1521 13.3217 95.9047 13.2428 95.9047 13.1879C95.9047 13.1332 95.6855 13.0883 95.4177 13.0883C95.1314 13.0883 94.8628 13.0203 94.7658 12.9233C94.6274 12.7849 94.1295 12.7583 91.6787 12.7583H88.7567V10.6777C88.7567 9.39936 88.7146 8.58305 88.6477 8.5605C88.5876 8.54038 88.5061 8.14036 88.4665 7.67149C88.427 7.20262 88.3587 6.8191 88.3148 6.8191C88.2709 6.8191 88.2034 6.62113 88.1647 6.37916C88.126 6.13719 88.0455 5.93922 87.9856 5.93922C87.9259 5.93922 87.877 5.82076 87.877 5.67602C87.877 5.53128 87.8028 5.38434 87.712 5.34948C87.6213 5.31472 87.5471 5.179 87.5471 5.0479C87.5471 4.91679 87.4234 4.69495 87.2722 4.55472C87.121 4.4146 86.9972 4.19859 86.9972 4.07474C86.9972 3.94782 86.9252 3.84949 86.8323 3.84949C86.7416 3.84949 86.6673 3.79692 86.6673 3.73269C86.6673 3.57926 85.1794 2.08973 85.0262 2.08973C84.9611 2.08973 84.9078 2.01548 84.9078 1.92475C84.9078 1.83401 84.8336 1.75977 84.7429 1.75977C84.6522 1.75977 84.5779 1.71027 84.5779 1.64978C84.5779 1.58929 84.5072 1.5398 84.4208 1.5398C84.3345 1.5398 84.196 1.47205 84.1133 1.38934C84.0305 1.30652 83.8538 1.20423 83.7205 1.162C83.5873 1.11965 83.4783 1.03892 83.4783 0.982501C83.4783 0.926078 83.351 0.879884 83.1955 0.879884C83.0399 0.879884 82.8385 0.805644 82.7477 0.714906C82.657 0.624168 82.4378 0.549928 82.2608 0.549928C82.0836 0.549928 81.9387 0.500434 81.9387 0.439942C81.9387 0.37945 81.7443 0.329957 81.5066 0.329957C81.2691 0.329957 81.0004 0.255716 80.9097 0.164978C80.7702 0.0254067 80.2194 0 77.3371 0C74.7723 0 73.9183 0.0328857 73.885 0.132863ZM79.8493 6.37916C79.8493 6.43965 79.9745 6.48915 80.1276 6.48915C80.2808 6.48915 80.4345 6.56339 80.4693 6.65412C80.5041 6.74486 80.6511 6.8191 80.7958 6.8191C80.9563 6.8191 81.0589 6.88344 81.0589 6.98408C81.0589 7.07482 81.1119 7.14906 81.1767 7.14906C81.329 7.14906 81.6088 7.42886 81.6088 7.58119C81.6088 7.64597 81.683 7.69899 81.7737 7.69899C81.8775 7.69899 81.9387 7.80369 81.9387 7.98176C81.9387 8.13739 82.0134 8.33932 82.1046 8.43061C82.2514 8.57744 82.2673 10.6456 82.2421 26.3687C82.2195 40.4684 82.1852 44.1504 82.0761 44.1867C82.0006 44.2119 81.9387 44.3521 81.9387 44.4983C81.9387 44.6613 81.8749 44.7641 81.7737 44.7641C81.683 44.7641 81.6088 44.8384 81.6088 44.9291C81.6088 45.0198 81.5593 45.0941 81.4988 45.0941C81.4383 45.0941 81.3888 45.1683 81.3888 45.259C81.3888 45.3507 81.2911 45.424 81.1689 45.424C81.0479 45.424 80.949 45.4725 80.949 45.5319C80.949 45.5912 80.8253 45.6708 80.674 45.7088C80.5228 45.7467 80.3991 45.8157 80.3991 45.8619C80.3991 45.9081 80.2012 45.9775 79.9593 46.0162C79.7173 46.0549 79.5194 46.1354 79.5194 46.1952C79.5194 46.255 79.3427 46.3039 79.1267 46.3039C78.9106 46.3039 78.6596 46.3781 78.5689 46.4689C78.4782 46.5596 78.259 46.6339 78.082 46.6339C77.9048 46.6339 77.7599 46.677 77.7599 46.7298C77.7599 46.7826 77.5619 46.8574 77.32 46.8961C77.0781 46.9348 76.8801 47.0153 76.8801 47.0751C76.8801 47.1348 76.6822 47.1838 76.4403 47.1838C76.1226 47.1838 76.0004 47.2297 76.0004 47.3488C76.0004 47.4679 75.8782 47.5137 75.5605 47.5137C75.3186 47.5137 75.1206 47.5627 75.1206 47.6224C75.1206 47.6822 74.9227 47.7628 74.6808 47.8015C74.4388 47.8402 74.2409 47.915 74.2409 47.9678C74.2409 48.0206 74.0429 48.0637 73.801 48.0637C73.4833 48.0637 73.3611 48.1095 73.3611 48.2287C73.3611 48.3483 73.2381 48.3936 72.9135 48.3936C72.6621 48.3936 72.3933 48.466 72.3007 48.5586C72.21 48.6493 71.9908 48.7236 71.8138 48.7236C71.6366 48.7236 71.4917 48.7667 71.4917 48.8195C71.4917 48.8723 71.2937 48.9471 71.0518 48.9858C70.8099 49.0245 70.6119 49.105 70.6119 49.1649C70.6119 49.2246 70.4352 49.2735 70.2192 49.2735C70.0031 49.2735 69.7522 49.3478 69.6615 49.4385C69.5707 49.5292 69.3516 49.6035 69.1745 49.6035C68.9974 49.6035 68.8524 49.652 68.8524 49.7114C68.8524 49.7707 68.7287 49.8503 68.5775 49.8882C68.4263 49.9262 68.3026 49.996 68.3026 50.0434C68.3026 50.0908 68.1789 50.1607 68.0277 50.1986C67.8764 50.2366 67.7527 50.3162 67.7527 50.3755C67.7527 50.4349 67.7009 50.4834 67.6375 50.4834C67.5741 50.4834 67.4133 50.6002 67.2801 50.743C67.1469 50.8859 66.9265 51.0377 66.7905 51.0804C66.6545 51.1231 66.5431 51.2042 66.5431 51.2606C66.5431 51.317 66.4688 51.3632 66.3781 51.3632C66.2874 51.3632 66.2132 51.4375 66.2132 51.5282C66.2132 51.619 66.1389 51.6932 66.0482 51.6932C65.9575 51.6932 65.8833 51.7448 65.8833 51.8078C65.8833 51.9157 65.7973 52.0401 65.4709 52.404C65.3953 52.4884 65.3334 52.6104 65.3334 52.6753C65.3334 52.74 65.2592 52.7931 65.1685 52.7931C65.0777 52.7931 65.0035 52.8673 65.0035 52.958C65.0035 53.0488 64.954 53.123 64.8935 53.123C64.8331 53.123 64.7836 53.1937 64.7836 53.2802C64.7836 53.3665 64.7177 53.5031 64.6372 53.5836C64.5566 53.6642 64.4568 53.8657 64.4152 54.0315C64.3735 54.1972 64.2909 54.3329 64.2316 54.3329C64.1723 54.3329 64.1238 54.4524 64.1238 54.5987C64.1238 54.7449 64.0711 54.882 64.0067 54.9035C63.9423 54.9249 63.8616 55.1518 63.8273 55.4076C63.793 55.6633 63.729 55.8726 63.6851 55.8726C63.6412 55.8726 63.5729 56.182 63.5336 56.5601C63.4941 56.9382 63.4128 57.264 63.3529 57.2841C63.2813 57.3083 63.244 72.0865 63.244 100.469C63.244 138.722 63.2253 143.625 63.0791 143.681C62.9883 143.716 62.9141 143.849 62.9141 143.976C62.9141 144.216 62.3616 144.851 62.1528 144.851C62.0877 144.851 62.0344 144.925 62.0344 145.016C62.0344 145.119 61.9306 145.181 61.7594 145.181C61.5883 145.181 61.4845 145.243 61.4845 145.346C61.4845 145.465 61.3623 145.511 61.0446 145.511C60.8027 145.511 60.6048 145.56 60.6048 145.621C60.6048 145.686 60.1833 145.731 59.5601 145.731C58.9855 145.731 58.5154 145.687 58.5154 145.634C58.5154 145.58 57.8631 145.517 57.0659 145.492C56.0658 145.46 55.6027 145.405 55.5722 145.314C55.5438 145.229 55.2788 145.181 54.8357 145.181C54.455 145.181 53.9659 145.107 53.7487 145.016C53.5316 144.925 53.1791 144.851 52.9655 144.851C52.7518 144.851 52.5771 144.807 52.5771 144.754C52.5771 144.7 52.3049 144.622 51.9722 144.581C51.6396 144.539 51.3674 144.459 51.3674 144.403C51.3674 144.347 51.1747 144.301 50.9393 144.301C50.6602 144.301 50.4892 144.244 50.4478 144.136C50.4081 144.033 50.24 143.971 49.9962 143.971C49.7826 143.971 49.6079 143.922 49.6079 143.862C49.6079 143.803 49.41 143.722 49.168 143.683C48.9261 143.645 48.7282 143.57 48.7282 143.517C48.7282 143.464 48.5797 143.421 48.3982 143.421C48.1783 143.421 48.0683 143.366 48.0683 143.256C48.0683 143.14 47.9514 143.091 47.6756 143.091C47.4596 143.091 47.2086 143.017 47.1179 142.926C47.0272 142.835 46.808 142.761 46.6309 142.761C46.4538 142.761 46.3088 142.712 46.3088 142.651C46.3088 142.591 46.1836 142.541 46.0305 142.541C45.8773 142.541 45.7236 142.467 45.6888 142.376C45.6516 142.279 45.4831 142.21 45.2799 142.208C45.0897 142.206 44.8381 142.132 44.7208 142.043C44.6033 141.954 44.3931 141.881 44.2534 141.881C44.1138 141.881 43.9995 141.836 43.9995 141.78C43.9995 141.724 43.851 141.646 43.6696 141.606C43.4881 141.567 43.3397 141.488 43.3397 141.433C43.3397 141.377 43.1417 141.331 42.8998 141.331C42.5821 141.331 42.4599 141.286 42.4599 141.166C42.4599 141.051 42.343 141.001 42.0672 141.001C41.8512 141.001 41.6002 140.927 41.5095 140.836C41.4188 140.746 41.2491 140.671 41.1325 140.671C41.0158 140.671 40.9204 140.622 40.9204 140.562C40.9204 140.501 40.7456 140.452 40.5321 140.452C40.2883 140.452 40.1201 140.39 40.0804 140.287C40.041 140.184 39.8734 140.122 39.6362 140.122C39.4266 140.122 39.1809 140.047 39.0902 139.957C38.9994 139.866 38.8298 139.792 38.7132 139.792C38.5965 139.792 38.5011 139.742 38.5011 139.682C38.5011 139.621 38.3809 139.572 38.234 139.572C38.0871 139.572 37.8927 139.497 37.802 139.407C37.7113 139.316 37.4603 139.242 37.2442 139.242C36.9684 139.242 36.8515 139.193 36.8515 139.077C36.8515 138.967 36.7416 138.912 36.5216 138.912C36.3402 138.912 36.1917 138.869 36.1917 138.816C36.1917 138.763 35.9938 138.688 35.7519 138.65C35.5099 138.611 35.312 138.53 35.312 138.47C35.312 138.411 35.1372 138.362 34.9237 138.362C34.6799 138.362 34.5117 138.3 34.472 138.197C34.436 138.103 34.2719 138.032 34.0906 138.032C33.9156 138.032 33.7724 137.987 33.7724 137.932C33.7724 137.876 33.5745 137.798 33.3325 137.757C33.0906 137.716 32.8927 137.637 32.8927 137.582C32.8927 137.527 32.7725 137.482 32.6256 137.482C32.4787 137.482 32.2843 137.408 32.1936 137.317C32.1029 137.226 31.9014 137.152 31.7458 137.152C31.5903 137.152 31.4631 137.103 31.4631 137.043C31.4631 136.983 31.2651 136.903 31.0232 136.864C30.7813 136.826 30.5833 136.757 30.5833 136.712C30.5833 136.667 30.3854 136.599 30.1435 136.56C29.9015 136.521 29.7036 136.441 29.7036 136.381C29.7036 136.321 29.5763 136.272 29.4208 136.272C29.2652 136.272 29.0638 136.198 28.9731 136.107C28.8823 136.016 28.6632 135.942 28.4861 135.942C28.309 135.942 28.164 135.895 28.164 135.837C28.164 135.779 27.9908 135.7 27.7791 135.66C27.5674 135.62 27.3942 135.544 27.3942 135.49C27.3942 135.436 27.2518 135.392 27.0777 135.392C26.9038 135.392 26.6998 135.318 26.6245 135.227C26.5491 135.136 26.3451 135.062 26.1712 135.062C25.9971 135.062 25.8547 135.013 25.8547 134.954C25.8547 134.894 25.6567 134.813 25.4148 134.775C25.1729 134.736 24.9749 134.661 24.9749 134.608C24.9749 134.555 24.8265 134.512 24.645 134.512C24.4251 134.512 24.3151 134.457 24.3151 134.347C24.3151 134.232 24.1982 134.182 23.9224 134.182C23.7063 134.182 23.4554 134.108 23.3647 134.017C23.2739 133.927 23.0548 133.852 22.8777 133.852C22.7006 133.852 22.5556 133.803 22.5556 133.742C22.5556 133.682 22.4304 133.632 22.2773 133.632C22.1241 133.632 21.9704 133.558 21.9356 133.467C21.8971 133.367 21.7306 133.302 21.5109 133.302C21.2912 133.302 21.1247 133.238 21.0862 133.137C21.0465 133.034 20.8784 132.973 20.6346 132.973C20.421 132.973 20.2463 132.927 20.2463 132.871C20.2463 132.816 20.0978 132.737 19.9164 132.698C19.7349 132.658 19.5865 132.58 19.5865 132.524C19.5865 132.468 19.3885 132.423 19.1466 132.423C18.8289 132.423 18.7067 132.377 18.7067 132.258C18.7067 132.138 18.5845 132.093 18.2668 132.093C18.0249 132.093 17.827 132.047 17.827 131.991C17.827 131.936 17.6785 131.857 17.4971 131.818C17.3156 131.778 17.1672 131.7 17.1672 131.644C17.1672 131.588 16.9924 131.543 16.7789 131.543C16.5351 131.543 16.3669 131.481 16.3272 131.378C16.2881 131.276 16.121 131.213 15.8907 131.213C15.6855 131.213 15.5176 131.167 15.5176 131.111C15.5176 131.056 15.3692 130.978 15.1877 130.938C15.0063 130.898 14.8578 130.82 14.8578 130.764C14.8578 130.708 14.7129 130.663 14.5357 130.663C14.3587 130.663 14.1395 130.589 14.0488 130.498C13.958 130.407 13.7071 130.333 13.491 130.333C13.2152 130.333 13.0983 130.284 13.0983 130.168C13.0983 130.058 12.9883 130.003 12.7684 130.003C12.587 130.003 12.4385 129.953 12.4385 129.893C12.4385 129.832 12.3183 129.783 12.1714 129.783C12.0246 129.783 11.8385 129.717 11.758 129.637C11.6774 129.556 11.4759 129.456 11.3102 129.414C11.1445 129.373 11.0089 129.29 11.0089 129.231C11.0089 129.172 10.9347 129.123 10.844 129.123C10.7532 129.123 10.679 129.075 10.679 129.015C10.679 128.956 10.5553 128.876 10.4041 128.838C10.2529 128.8 10.1292 128.725 10.1292 128.671C10.1292 128.617 10.0549 128.573 9.9642 128.573C9.87348 128.573 9.79925 128.499 9.79925 128.408C9.79925 128.317 9.72502 128.243 9.6343 128.243C9.54357 128.243 9.46935 128.19 9.46935 128.125C9.46935 127.973 9.18959 127.693 9.03728 127.693C8.97251 127.693 8.9195 127.619 8.9195 127.528C8.9195 127.437 8.84527 127.363 8.75455 127.363C8.66383 127.363 8.5896 127.307 8.5896 127.238C8.5896 127.17 8.46588 126.999 8.31467 126.859C8.16347 126.719 8.03975 126.502 8.03975 126.379C8.03975 126.252 7.96772 126.153 7.8748 126.153C7.78188 126.153 7.70985 126.055 7.70985 125.928C7.70985 125.804 7.58613 125.588 7.43493 125.448C7.27943 125.304 7.16 125.071 7.16 124.911C7.16 124.756 7.08578 124.555 6.99505 124.464C6.90433 124.374 6.8301 124.127 6.8301 123.916C6.8301 123.705 6.77115 123.512 6.69913 123.488C6.62204 123.463 6.54902 123.143 6.52142 122.709C6.49568 122.305 6.4308 121.974 6.37747 121.974C6.32138 121.974 6.28025 102.65 6.28025 76.275C6.28025 49.8994 6.32138 30.576 6.37747 30.576C6.4308 30.576 6.49568 30.245 6.52142 29.8406C6.54902 29.4074 6.62204 29.0872 6.69913 29.0615C6.77115 29.0375 6.8301 28.8452 6.8301 28.6342C6.8301 28.4232 6.90433 28.1763 6.99505 28.0856C7.08578 27.9948 7.16 27.8004 7.16 27.6536C7.16 27.5066 7.20949 27.3864 7.26997 27.3864C7.33046 27.3864 7.37994 27.3106 7.37994 27.218C7.37994 27.1253 7.45417 27.021 7.54489 26.9863C7.63562 26.9514 7.70985 26.8045 7.70985 26.6597C7.70985 26.4991 7.77418 26.3965 7.8748 26.3965C7.9774 26.3965 8.03975 26.2927 8.03975 26.1216C8.03975 25.9504 8.10211 25.8466 8.20471 25.8466C8.29543 25.8466 8.36966 25.7953 8.36966 25.7329C8.36966 25.5578 9.84566 24.1218 10.1128 24.037C10.2428 23.9958 10.3491 23.9159 10.3491 23.8595C10.3491 23.8031 10.4233 23.7569 10.514 23.7569C10.6048 23.7569 10.679 23.6826 10.679 23.5919C10.679 23.4893 10.7828 23.4269 10.9539 23.4269C11.1051 23.4269 11.2288 23.3814 11.2288 23.3256C11.2288 23.27 11.3773 23.1918 11.5588 23.152C11.7402 23.1121 11.8887 23.0339 11.8887 22.9783C11.8887 22.9225 12.0071 22.877 12.1518 22.877C12.2965 22.877 12.4434 22.8028 12.4783 22.712C12.5201 22.6031 12.6923 22.547 12.9849 22.547C13.2287 22.547 13.4282 22.5039 13.4282 22.4511C13.4282 22.3983 13.6262 22.3235 13.8681 22.2848C14.11 22.2461 14.308 22.1656 14.308 22.1058C14.308 22.0461 14.5024 21.9971 14.74 21.9971C14.9776 21.9971 15.2462 21.9229 15.3369 21.8321C15.4277 21.7414 15.6745 21.6671 15.8855 21.6671C16.0965 21.6671 16.2866 21.6145 16.3081 21.55C16.3295 21.4857 16.5564 21.4049 16.8122 21.3706C17.0679 21.3363 17.2771 21.2716 17.2771 21.227C17.2771 21.1823 17.5106 21.1195 17.7958 21.0873C18.0812 21.0552 18.3327 20.9745 18.3549 20.908C18.377 20.8416 18.5849 20.7873 18.8167 20.7873C19.0485 20.7873 19.2558 20.7346 19.2772 20.6701C19.2987 20.6058 19.5255 20.5251 19.7813 20.4907C20.037 20.4564 20.2463 20.39 20.2463 20.3431C20.2463 20.2963 20.4937 20.2239 20.7961 20.1823C21.0985 20.1408 21.346 20.0619 21.346 20.007C21.346 19.9523 21.5454 19.9074 21.7892 19.9074C22.0819 19.9074 22.2541 19.8513 22.2959 19.7424C22.3372 19.6348 22.5082 19.5774 22.7873 19.5774C23.0228 19.5774 23.2154 19.5325 23.2154 19.4778C23.2154 19.4229 23.4629 19.344 23.7653 19.3025C24.0677 19.2609 24.3151 19.182 24.3151 19.1271C24.3151 19.0724 24.4601 19.0275 24.6372 19.0275C24.8143 19.0275 25.0334 18.9533 25.1242 18.8625C25.2156 18.771 25.4845 18.6975 25.7277 18.6975C25.9689 18.6975 26.1844 18.6432 26.2065 18.5768C26.2287 18.5103 26.4802 18.4296 26.7655 18.3975C27.0508 18.3653 27.2843 18.2959 27.2843 18.2433C27.2843 18.1906 27.4292 18.1476 27.6064 18.1476C27.7834 18.1476 28.0026 18.0734 28.0933 17.9826C28.184 17.8919 28.4385 17.8177 28.6589 17.8177C28.8793 17.8177 29.1337 17.7434 29.2244 17.6527C29.3152 17.5619 29.5838 17.4877 29.8214 17.4877C30.059 17.4877 30.2534 17.4446 30.2534 17.3918C30.2534 17.339 30.4514 17.2642 30.6933 17.2255C30.9352 17.1868 31.1332 17.1063 31.1332 17.0464C31.1332 16.9867 31.3346 16.9378 31.5809 16.9378C31.8322 16.9378 32.101 16.8654 32.1936 16.7728C32.2843 16.6821 32.553 16.6078 32.7905 16.6078C33.0282 16.6078 33.2226 16.5589 33.2226 16.4991C33.2226 16.4393 33.4205 16.3588 33.6624 16.3201C33.9044 16.2814 34.1023 16.2066 34.1023 16.1538C34.1023 16.101 34.3018 16.0579 34.5456 16.0579C34.8382 16.0579 35.0104 16.0018 35.0522 15.8929C35.0967 15.7773 35.2768 15.7279 35.6537 15.7279C35.9496 15.7279 36.1917 15.679 36.1917 15.6193C36.1917 15.5594 36.3897 15.4789 36.6316 15.4402C36.8735 15.4015 37.0715 15.3267 37.0715 15.2739C37.0715 15.2211 37.271 15.178 37.5148 15.178C37.8074 15.178 37.9796 15.1219 38.0214 15.013C38.0655 14.8982 38.2446 14.848 38.611 14.848C38.9775 14.848 39.1566 14.7979 39.2007 14.6831C39.2404 14.5796 39.4085 14.5181 39.6523 14.5181C39.8659 14.5181 40.0406 14.4751 40.0406 14.4226C40.0406 14.37 40.2499 14.299 40.5056 14.2647C40.7614 14.2304 40.9882 14.1496 41.0097 14.0853C41.0311 14.0208 41.239 13.9682 41.4715 13.9682C41.7041 13.9682 41.9686 13.8939 42.0593 13.8032C42.15 13.7124 42.401 13.6382 42.6171 13.6382C42.8331 13.6382 43.0098 13.5943 43.0098 13.5408C43.0098 13.4871 43.2325 13.4098 43.5046 13.369C43.7768 13.3282 43.9995 13.2483 43.9995 13.1916C43.9995 13.1347 44.1939 13.0883 44.4316 13.0883C44.6691 13.0883 44.9378 13.014 45.0285 12.9233C45.1192 12.8326 45.3661 12.7583 45.577 12.7583C45.788 12.7583 45.9782 12.7056 45.9996 12.6412C46.0211 12.5768 46.2479 12.4961 46.5037 12.4618C46.7594 12.4275 46.9687 12.3628 46.9687 12.3182C46.9687 12.2735 47.2021 12.2107 47.4874 12.1785C47.7727 12.1464 48.0242 12.0656 48.0465 11.9992C48.0686 11.9328 48.2764 11.8784 48.5082 11.8784C48.74 11.8784 48.9473 11.8258 48.9688 11.7613C48.9902 11.697 49.2171 11.6162 49.4729 11.5819C49.7285 11.5476 49.9378 11.4829 49.9378 11.4383C49.9378 11.3936 50.1713 11.3308 50.4565 11.2986C50.7419 11.2665 50.9934 11.1857 51.0156 11.1193C51.0377 11.0529 51.2443 10.9986 51.4747 10.9986C51.7457 10.9986 51.916 10.9403 51.9571 10.8336C51.9988 10.7247 52.1711 10.6686 52.4637 10.6686C52.7075 10.6686 52.907 10.6237 52.907 10.5689C52.907 10.5141 53.1544 10.4352 53.4568 10.3936C53.7592 10.3521 54.0067 10.2732 54.0067 10.2183C54.0067 10.1635 54.2061 10.1187 54.4499 10.1187C54.7426 10.1187 54.9148 10.0626 54.9566 9.95369C54.9979 9.84612 55.1689 9.78871 55.448 9.78871C55.6835 9.78871 55.8761 9.74087 55.8761 9.68247C55.8761 9.62406 56.1235 9.54344 56.426 9.50341C56.7284 9.46326 56.9758 9.39364 56.9758 9.34855C56.9758 9.30357 57.2335 9.24197 57.5485 9.21173C57.8635 9.18148 58.1397 9.10097 58.1625 9.03278C58.1855 8.96371 58.4382 8.90883 58.7327 8.90883C59.1014 8.90883 59.2807 8.85889 59.325 8.74385C59.3696 8.62748 59.5512 8.57887 59.9415 8.57887C60.2458 8.57887 60.4948 8.53554 60.4948 8.48252C60.4948 8.42951 60.7769 8.36275 61.1216 8.33415C61.4663 8.30556 61.7674 8.22516 61.7906 8.15554C61.8161 8.07888 62.0923 8.02894 62.4913 8.02894C62.93 8.02894 63.2049 7.97384 63.3147 7.86397C63.4296 7.74903 63.7109 7.69899 64.2415 7.69899C64.6606 7.69899 65.0035 7.65466 65.0035 7.60044C65.0035 7.54622 65.3994 7.46681 65.8833 7.42402C66.3671 7.38124 66.763 7.30183 66.763 7.24761C66.763 7.19338 67.1465 7.14873 67.6153 7.1484C68.1562 7.14796 68.5826 7.08769 68.7825 6.98342C69.0077 6.86596 69.4517 6.8191 70.3404 6.8191C71.1766 6.8191 71.597 6.77786 71.6253 6.69306C71.6544 6.60573 72.4151 6.55052 74.1088 6.5129C75.4515 6.48299 76.5502 6.41601 76.5502 6.36387C76.5502 6.31185 77.2925 6.26918 78.1998 6.26918C79.2261 6.26918 79.8493 6.31075 79.8493 6.37916ZM93.4854 19.1248C93.4854 19.1783 93.7576 19.2562 94.0902 19.2977C94.4229 19.3393 94.6951 19.4193 94.6951 19.4754C94.6951 19.5315 94.893 19.5774 95.1349 19.5774C95.4526 19.5774 95.5748 19.6233 95.5748 19.7424C95.5748 19.845 95.6786 19.9074 95.8497 19.9074C96.0009 19.9074 96.1246 19.9529 96.1246 20.0087C96.1246 20.0643 96.2731 20.1425 96.4546 20.1823C96.636 20.2222 96.7845 20.3004 96.7845 20.356C96.7845 20.4118 96.8587 20.4573 96.9494 20.4573C97.0401 20.4573 97.1144 20.5315 97.1144 20.6223C97.1144 20.7249 97.2182 20.7873 97.3893 20.7873C97.5604 20.7873 97.6642 20.8496 97.6642 20.9522C97.6642 21.043 97.7175 21.1172 97.7826 21.1172C97.9365 21.1172 98.544 21.7248 98.544 21.8787C98.544 21.9438 98.6182 21.9971 98.7089 21.9971C98.7996 21.9971 98.8739 22.0501 98.8739 22.1149C98.8739 22.2615 99.1514 22.547 99.2939 22.547C99.3522 22.547 99.431 22.6708 99.4689 22.822C99.5068 22.9732 99.5865 23.097 99.6457 23.097C99.7051 23.097 99.7536 23.1712 99.7536 23.2619C99.7536 23.3527 99.7991 23.4269 99.8549 23.4269C99.9105 23.4269 99.9887 23.5754 100.029 23.7569C100.068 23.9384 100.141 24.0868 100.19 24.0868C100.239 24.0868 100.311 24.2106 100.349 24.3618C100.387 24.513 100.466 24.6368 100.525 24.6368C100.585 24.6368 100.633 24.764 100.633 24.9195C100.633 25.0752 100.708 25.2767 100.798 25.3674C100.889 25.4581 100.963 25.7226 100.963 25.9553C100.963 26.1958 101.023 26.398 101.101 26.424C101.21 26.4603 101.245 29.6395 101.27 41.7169L101.301 56.9638L95.0655 56.9957C90.1977 57.0206 88.82 57.0576 88.7842 57.165C88.7515 57.2631 88.4134 57.3025 87.6021 57.3025C86.9313 57.3025 86.4505 57.3482 86.4285 57.4141C86.408 57.4755 86.0576 57.5569 85.6496 57.5949C85.2416 57.6331 84.9078 57.7003 84.9078 57.7443C84.9078 57.7884 84.6502 57.8492 84.3351 57.8794C84.0202 57.9097 83.7439 57.9902 83.7212 58.0584C83.6984 58.1266 83.4861 58.1823 83.2492 58.1823C83.0123 58.1823 82.8184 58.2313 82.8184 58.291C82.8184 58.3508 82.6205 58.4314 82.3786 58.4701C82.1366 58.5088 81.9387 58.5773 81.9387 58.6223C81.9387 58.6673 81.7407 58.7358 81.4988 58.7745C81.2569 58.8132 81.0589 58.8937 81.0589 58.9536C81.0589 59.0133 80.861 59.0622 80.6191 59.0622C80.3014 59.0622 80.1792 59.1081 80.1792 59.2272C80.1792 59.3372 80.0692 59.3922 79.8493 59.3922C79.6678 59.3922 79.5194 59.4407 79.5194 59.5001C79.5194 59.5594 79.3957 59.639 79.2445 59.6769C79.0933 59.7149 78.9695 59.7901 78.9695 59.844C78.9695 59.898 78.8443 59.9421 78.6912 59.9421C78.538 59.9421 78.3843 60.0164 78.3495 60.1071C78.3147 60.1978 78.1678 60.2721 78.023 60.2721C77.8783 60.2721 77.7599 60.3206 77.7599 60.38C77.7599 60.4393 77.6362 60.5189 77.485 60.5568C77.3338 60.5948 77.21 60.6646 77.21 60.712C77.21 60.7594 77.0863 60.8293 76.9351 60.8672C76.7839 60.9051 76.6602 60.9848 76.6602 61.0441C76.6602 61.1034 76.5612 61.152 76.4403 61.152C76.3193 61.152 76.2203 61.1981 76.2203 61.2546C76.2203 61.311 76.1112 61.3917 75.9781 61.4341C75.8448 61.4763 75.6681 61.5786 75.5852 61.6614C75.5026 61.7441 75.3641 61.8119 75.2778 61.8119C75.1913 61.8119 75.1206 61.8614 75.1206 61.9219C75.1206 61.9823 75.0464 62.0318 74.9557 62.0318C74.865 62.0318 74.7907 62.1061 74.7907 62.1968C74.7907 62.2994 74.6869 62.3618 74.5158 62.3618C74.3447 62.3618 74.2409 62.4242 74.2409 62.5268C74.2409 62.6175 74.1667 62.6918 74.0759 62.6918C73.9852 62.6918 73.911 62.7412 73.911 62.8017C73.911 62.8622 73.8367 62.9117 73.746 62.9117C73.6553 62.9117 73.5811 62.986 73.5811 63.0767C73.5811 63.1793 73.4773 63.2417 73.3061 63.2417C73.135 63.2417 73.0312 63.304 73.0312 63.4067C73.0312 63.4974 72.9782 63.5716 72.9135 63.5716C72.7611 63.5716 72.4814 63.8514 72.4814 64.0038C72.4814 64.0686 72.4072 64.1216 72.3164 64.1216C72.2257 64.1216 72.1515 64.1958 72.1515 64.2865C72.1515 64.3773 72.0966 64.4515 72.0296 64.4515C71.9626 64.4515 71.6617 64.699 71.3608 65.0014C71.0599 65.3039 70.7684 65.5514 70.7129 65.5514C70.6573 65.5514 70.6119 65.6173 70.6119 65.6978C70.6119 65.7783 70.4882 65.9104 70.337 65.9913C70.1858 66.0723 70.0621 66.2044 70.0621 66.2849C70.0621 66.4878 69.8801 66.4687 69.7989 66.2573C69.7622 66.1616 69.7322 64.1076 69.7322 61.6929C69.7322 57.8636 69.7533 57.3025 69.8971 57.3025C70.0071 57.3025 70.0621 57.1925 70.0621 56.9725C70.0621 56.791 70.1083 56.6425 70.1647 56.6425C70.2211 56.6425 70.2986 56.5437 70.3369 56.4228C70.3753 56.302 70.527 56.1729 70.6743 56.136C70.8214 56.099 70.9418 55.9999 70.9418 55.9158C70.9418 55.8315 71.0161 55.7627 71.1068 55.7627C71.1975 55.7627 71.2717 55.7132 71.2717 55.6527C71.2717 55.5922 71.3954 55.5427 71.5467 55.5427C71.7178 55.5427 71.8216 55.4803 71.8216 55.3777C71.8216 55.2592 71.9428 55.2127 72.2523 55.2127C72.4892 55.2127 72.7006 55.1601 72.722 55.0956C72.7434 55.0313 72.9703 54.9505 73.2261 54.9162C73.4818 54.8819 73.691 54.8171 73.691 54.7724C73.691 54.7276 73.889 54.6593 74.1309 54.6206C74.3728 54.5819 74.5708 54.5014 74.5708 54.4415C74.5708 54.3818 74.7475 54.3329 74.9635 54.3329C75.1796 54.3329 75.4305 54.2586 75.5212 54.1679C75.612 54.0771 75.8311 54.0029 76.0082 54.0029C76.1853 54.0029 76.3303 53.9598 76.3303 53.907C76.3303 53.8542 76.5282 53.7794 76.7702 53.7407C77.0121 53.702 77.21 53.6215 77.21 53.5616C77.21 53.5019 77.408 53.453 77.6499 53.453C77.9676 53.453 78.0898 53.4071 78.0898 53.288C78.0898 53.1689 78.212 53.123 78.5297 53.123C78.7716 53.123 78.9695 53.0799 78.9695 53.0271C78.9695 52.9743 79.1675 52.8995 79.4094 52.8608C79.6513 52.8221 79.8493 52.7416 79.8493 52.6817C79.8493 52.622 80.042 52.5731 80.2774 52.5731C80.5565 52.5731 80.7275 52.5157 80.7688 52.4081C80.8085 52.3046 80.9767 52.2431 81.2205 52.2431C81.434 52.2431 81.6088 52.1942 81.6088 52.1345C81.6088 52.0746 81.8067 51.9941 82.0487 51.9554C82.2906 51.9167 82.4885 51.8419 82.4885 51.7891C82.4885 51.7363 82.637 51.6932 82.8184 51.6932C83.0384 51.6932 83.1483 51.6382 83.1483 51.5282C83.1483 51.4256 83.2522 51.3632 83.4233 51.3632C83.5745 51.3632 83.6982 51.3177 83.6982 51.2619C83.6982 51.2063 83.8466 51.1281 84.0281 51.0883C84.2095 51.0485 84.358 50.9736 84.358 50.922C84.358 50.8704 84.4662 50.7937 84.5985 50.7518C84.7307 50.7098 84.9964 50.5085 85.1888 50.3044C85.3811 50.1004 85.5947 49.9334 85.6631 49.9334C85.7316 49.9334 85.7876 49.8592 85.7876 49.7685C85.7876 49.6777 85.8618 49.6035 85.9525 49.6035C86.0433 49.6035 86.1175 49.5473 86.1175 49.4786C86.1175 49.4099 86.2412 49.2391 86.3924 49.0989C86.5436 48.9587 86.6673 48.7922 86.6673 48.7289C86.6673 48.6654 86.7158 48.6136 86.7752 48.6136C86.8345 48.6136 86.9141 48.4899 86.952 48.3386C86.99 48.1874 87.0899 48.0637 87.1741 48.0637C87.264 48.0637 87.3272 47.9503 87.3272 47.7887C87.3272 47.6375 87.3766 47.5137 87.4371 47.5137C87.4976 47.5137 87.5471 47.4395 87.5471 47.3488C87.5471 47.258 87.6213 47.1838 87.712 47.1838C87.8278 47.1838 87.877 47.0669 87.877 46.791C87.877 46.5749 87.9512 46.3239 88.0419 46.2332C88.1327 46.1424 88.2069 45.9232 88.2069 45.7462C88.2069 45.569 88.25 45.424 88.3027 45.424C88.3554 45.424 88.4326 45.0776 88.4742 44.6541C88.516 44.2307 88.5966 43.8842 88.6535 43.8842C88.7173 43.8842 88.7567 39.1341 88.7567 31.4559V19.0275H91.1211C92.4215 19.0275 93.4854 19.0713 93.4854 19.1248ZM104.152 63.3517C104.152 63.4122 104.301 63.4617 104.482 63.4617C104.664 63.4617 104.812 63.4122 104.812 63.3517C104.812 63.1975 118.746 63.2001 118.797 63.3543C118.818 63.4171 119.406 63.4975 120.126 63.5361C120.836 63.5742 121.417 63.6413 121.417 63.6853C121.417 63.7292 121.724 63.7873 122.098 63.8145C122.481 63.8421 122.798 63.9203 122.822 63.9927C122.848 64.0697 123.101 64.1216 123.449 64.1216C123.867 64.1216 124.051 64.1685 124.096 64.2865C124.136 64.39 124.304 64.4515 124.548 64.4515C124.762 64.4515 124.936 64.4946 124.936 64.5474C124.936 64.6002 125.134 64.675 125.376 64.7137C125.618 64.7524 125.816 64.833 125.816 64.8928C125.816 64.9525 125.965 65.0014 126.146 65.0014C126.366 65.0014 126.476 65.0564 126.476 65.1664C126.476 65.2764 126.586 65.3314 126.806 65.3314C126.987 65.3314 127.136 65.3799 127.136 65.4393C127.136 65.4986 127.26 65.5782 127.411 65.6162C127.562 65.6541 127.686 65.7293 127.686 65.7832C127.686 65.8372 127.803 65.8813 127.947 65.8813C128.091 65.8813 128.27 65.9556 128.345 66.0463C128.421 66.137 128.575 66.2113 128.689 66.2113C128.802 66.2113 128.895 66.2575 128.895 66.3139C128.895 66.3703 129.004 66.4511 129.138 66.4934C129.271 66.5356 129.448 66.6379 129.53 66.7207C129.613 66.8035 129.752 66.8712 129.838 66.8712C129.924 66.8712 129.995 66.9207 129.995 66.9812C129.995 67.0417 130.069 67.0912 130.16 67.0912C130.251 67.0912 130.325 67.1654 130.325 67.2562C130.325 67.3469 130.399 67.4211 130.49 67.4211C130.581 67.4211 130.655 67.4652 130.655 67.5192C130.655 67.5731 130.779 67.6484 130.93 67.6863C131.081 67.7243 131.205 67.8039 131.205 67.8632C131.205 67.9226 131.279 67.9711 131.37 67.9711C131.46 67.9711 131.535 68.0453 131.535 68.136C131.535 68.2268 131.609 68.301 131.7 68.301C131.79 68.301 131.864 68.3472 131.864 68.4036C131.864 68.4601 131.974 68.5408 132.107 68.5831C132.39 68.673 132.634 68.8953 132.634 69.0631C132.634 69.1279 132.684 69.1809 132.744 69.1809C132.805 69.1809 133.052 69.3789 133.294 69.6208C133.536 69.8628 133.783 70.0608 133.844 70.0608C133.904 70.0608 133.954 70.1138 133.954 70.1786C133.954 70.3309 134.234 70.6107 134.386 70.6107C134.451 70.6107 134.504 70.685 134.504 70.7757C134.504 70.8664 134.578 70.9407 134.669 70.9407C134.759 70.9407 134.834 70.9935 134.834 71.058C134.834 71.1226 135.007 71.3388 135.219 71.5384C135.43 71.7382 135.603 71.9576 135.603 72.026C135.603 72.0945 135.678 72.1505 135.768 72.1505C135.859 72.1505 135.933 72.2247 135.933 72.3155C135.933 72.4062 136.008 72.4805 136.098 72.4805C136.201 72.4805 136.263 72.5843 136.263 72.7554C136.263 72.9266 136.326 73.0304 136.428 73.0304C136.519 73.0304 136.593 73.0866 136.593 73.1552C136.593 73.224 136.717 73.3948 136.868 73.535C137.019 73.6751 137.143 73.8611 137.143 73.9482C137.143 74.0354 137.217 74.1352 137.308 74.1701C137.399 74.2048 137.473 74.2864 137.473 74.3514C137.473 74.4625 137.558 74.5857 137.885 74.9511C137.961 75.0354 138.023 75.1822 138.023 75.2773C138.023 75.3723 138.097 75.4501 138.188 75.4501C138.29 75.4501 138.353 75.5539 138.353 75.725C138.353 75.8962 138.415 76 138.518 76C138.608 76 138.683 76.0742 138.683 76.165C138.683 76.2557 138.732 76.33 138.792 76.33C138.853 76.33 138.902 76.4537 138.902 76.6049C138.902 76.7761 138.965 76.8799 139.067 76.8799C139.168 76.8799 139.232 76.9825 139.232 77.1431C139.232 77.2878 139.307 77.4348 139.397 77.4696C139.488 77.5044 139.562 77.6086 139.562 77.7014C139.562 77.794 139.612 77.8698 139.672 77.8698C139.733 77.8698 139.782 77.9703 139.782 78.0931C139.782 78.2161 139.856 78.3451 139.947 78.3799C140.038 78.4147 140.112 78.5617 140.112 78.7064C140.112 78.867 140.176 78.9696 140.277 78.9696C140.38 78.9696 140.442 79.0734 140.442 79.2446C140.442 79.3958 140.491 79.5195 140.552 79.5195C140.612 79.5195 140.662 79.6448 140.662 79.7979C140.662 79.9511 140.736 80.1049 140.827 80.1396C140.918 80.1745 140.992 80.3162 140.992 80.4544C140.992 80.5927 141.066 80.7343 141.157 80.7692C141.248 80.8039 141.322 80.9577 141.322 81.1109C141.322 81.264 141.371 81.3893 141.432 81.3893C141.492 81.3893 141.542 81.5095 141.542 81.6564C141.542 81.8033 141.616 81.9977 141.707 82.0885C141.797 82.1792 141.872 82.3754 141.872 82.5246C141.872 82.6736 141.946 82.8241 142.037 82.8589C142.134 82.8963 142.202 83.0615 142.202 83.2634C142.202 83.4512 142.276 83.679 142.366 83.7697C142.457 83.8604 142.531 84.0302 142.531 84.1467C142.531 84.2634 142.575 84.3589 142.627 84.3589C142.68 84.3589 142.755 84.5569 142.794 84.7988C142.832 85.0408 142.913 85.2388 142.973 85.2388C143.032 85.2388 143.081 85.4155 143.081 85.6315C143.081 85.8477 143.155 86.0987 143.246 86.1894C143.337 86.2801 143.411 86.4993 143.411 86.6764C143.411 86.8536 143.461 86.9986 143.521 86.9986C143.582 86.9986 143.631 87.193 143.631 87.4307C143.631 87.6683 143.705 87.937 143.796 88.0277C143.889 88.1203 143.961 88.3891 143.961 88.6405C143.961 88.9652 144.006 89.0883 144.126 89.0883C144.253 89.0883 144.291 89.2288 144.291 89.6932C144.291 90.0259 144.337 90.2981 144.393 90.2981C144.449 90.2981 144.529 90.5703 144.571 90.903C144.612 91.2357 144.69 91.508 144.743 91.508C144.797 91.508 144.841 91.7322 144.841 92.0064C144.841 92.2806 144.915 92.6826 145.006 92.8997C145.096 93.1169 145.171 93.6062 145.171 93.9869C145.171 94.4127 145.22 94.6956 145.298 94.7215C145.379 94.7486 145.444 95.1908 145.477 95.9406C145.506 96.5878 145.572 97.1172 145.625 97.1172C145.678 97.1172 145.721 97.9586 145.721 98.987C145.721 100.015 145.678 100.857 145.626 100.857C145.574 100.857 145.506 101.708 145.476 102.749C145.44 104.025 145.381 104.654 145.296 104.683C145.216 104.71 145.171 105.052 145.171 105.641C145.171 106.244 145.127 106.572 145.042 106.601C144.969 106.625 144.891 106.942 144.864 107.325C144.836 107.699 144.777 108.006 144.73 108.006C144.684 108.006 144.612 108.278 144.571 108.611C144.529 108.943 144.449 109.216 144.393 109.216C144.337 109.216 144.291 109.343 144.291 109.498C144.291 109.654 144.217 109.856 144.126 109.946C144.035 110.037 143.961 110.256 143.961 110.433C143.961 110.646 143.905 110.755 143.796 110.755C143.693 110.755 143.631 110.859 143.631 111.03C143.631 111.182 143.587 111.305 143.533 111.305C143.479 111.305 143.404 111.429 143.366 111.58C143.328 111.732 143.248 111.855 143.189 111.855C143.13 111.855 143.081 111.907 143.081 111.971C143.081 112.034 142.958 112.2 142.806 112.341C142.655 112.481 142.531 112.652 142.531 112.72C142.531 112.789 142.475 112.845 142.407 112.845C142.338 112.845 142.167 112.969 142.027 113.12C141.887 113.271 141.671 113.395 141.547 113.395C141.42 113.395 141.322 113.467 141.322 113.56C141.322 113.67 141.212 113.725 140.992 113.725C140.81 113.725 140.662 113.775 140.662 113.835C140.662 113.903 140.039 113.945 139.012 113.945C138.105 113.945 137.363 113.901 137.363 113.848C137.363 113.795 137.056 113.729 136.682 113.702C136.3 113.675 135.982 113.596 135.958 113.524C135.934 113.453 135.721 113.395 135.484 113.395C135.247 113.395 135.054 113.346 135.054 113.286C135.054 113.227 134.856 113.146 134.614 113.107C134.372 113.069 134.174 112.994 134.174 112.941C134.174 112.888 134.05 112.845 133.899 112.845C133.728 112.845 133.624 112.783 133.624 112.68C133.624 112.57 133.514 112.515 133.294 112.515C133.074 112.515 132.964 112.46 132.964 112.35C132.964 112.248 132.86 112.185 132.689 112.185C132.538 112.185 132.414 112.136 132.414 112.075C132.414 112.015 132.34 111.965 132.249 111.965C132.159 111.965 132.084 111.891 132.084 111.8C132.084 111.698 131.981 111.635 131.809 111.635C131.638 111.635 131.535 111.573 131.535 111.47C131.535 111.38 131.478 111.305 131.41 111.305C131.341 111.305 131.176 111.187 131.042 111.043C130.908 110.899 130.692 110.747 130.562 110.706C130.432 110.664 130.325 110.585 130.325 110.528C130.325 110.472 130.251 110.425 130.16 110.425C130.069 110.425 129.995 110.372 129.995 110.308C129.995 110.155 129.715 109.876 129.563 109.876C129.498 109.876 129.445 109.801 129.445 109.711C129.445 109.62 129.371 109.546 129.28 109.546C129.189 109.546 129.115 109.493 129.115 109.428C129.115 109.275 128.835 108.996 128.683 108.996C128.618 108.996 128.565 108.921 128.565 108.831C128.565 108.74 128.491 108.666 128.4 108.666C128.31 108.666 128.235 108.612 128.235 108.547C128.235 108.482 128.087 108.28 127.906 108.099C127.724 107.917 127.576 107.698 127.576 107.612C127.576 107.526 127.526 107.456 127.466 107.456C127.405 107.456 127.356 107.382 127.356 107.291C127.356 107.2 127.282 107.126 127.191 107.126C127.1 107.126 127.026 107.073 127.026 107.008C127.026 106.943 126.964 106.821 126.888 106.737C126.608 106.424 126.518 106.296 126.446 106.109C126.406 106.003 126.322 105.916 126.259 105.916C126.197 105.916 126.146 105.822 126.146 105.708C126.146 105.593 126.072 105.471 125.981 105.436C125.89 105.402 125.816 105.297 125.816 105.205C125.816 105.112 125.767 105.036 125.706 105.036C125.646 105.036 125.596 104.936 125.596 104.813C125.596 104.69 125.522 104.561 125.431 104.526C125.341 104.491 125.266 104.344 125.266 104.2C125.266 104.039 125.202 103.936 125.101 103.936C125.011 103.936 124.936 103.862 124.936 103.771C124.936 103.681 124.887 103.606 124.826 103.606C124.766 103.606 124.716 103.481 124.716 103.328C124.716 103.175 124.642 103.021 124.552 102.986C124.461 102.951 124.387 102.804 124.387 102.66C124.387 102.515 124.338 102.397 124.279 102.397C124.219 102.397 124.14 102.273 124.102 102.122C124.064 101.97 123.995 101.847 123.949 101.847C123.903 101.847 123.833 101.649 123.795 101.407C123.756 101.165 123.675 100.967 123.615 100.967C123.556 100.967 123.507 100.841 123.507 100.688C123.507 100.535 123.433 100.381 123.342 100.347C123.251 100.312 123.177 100.165 123.177 100.02C123.177 99.8753 123.127 99.7569 123.067 99.7569C123.006 99.7569 122.957 99.6899 122.957 99.608C122.957 99.3978 122.451 98.877 122.247 98.877C122.154 98.877 122.077 98.8028 122.077 98.712C122.077 98.6204 121.979 98.547 121.857 98.547C121.736 98.547 121.637 98.503 121.637 98.4493C121.637 98.3956 121.464 98.319 121.252 98.2793C121.041 98.2396 120.868 98.1599 120.868 98.1021C120.868 98.0444 120.719 97.9971 120.538 97.9971C120.318 97.9971 120.208 97.9421 120.208 97.8321C120.208 97.713 120.086 97.6672 119.768 97.6672C119.526 97.6672 119.328 97.6182 119.328 97.5585C119.328 97.4987 119.13 97.4181 118.888 97.3794C118.646 97.3407 118.448 97.2724 118.448 97.2277C118.448 97.1829 118.239 97.1181 117.983 97.0838C117.728 97.0495 117.501 96.9687 117.479 96.9044C117.458 96.84 117.218 96.7873 116.947 96.7873C116.655 96.7873 116.386 96.72 116.288 96.6223C116.191 96.5253 115.923 96.4573 115.636 96.4573C115.368 96.4573 115.149 96.4113 115.149 96.3552C115.149 96.2992 114.877 96.2192 114.544 96.1776C114.212 96.136 113.94 96.0582 113.94 96.0047C113.94 95.9512 113.618 95.9074 113.225 95.9074C112.663 95.9074 112.51 95.8721 112.51 95.7424C112.51 95.6088 112.334 95.5774 111.584 95.5774C111.075 95.5774 110.642 95.5305 110.622 95.4731C110.602 95.4155 110.004 95.334 109.293 95.2919C108.583 95.2497 108.001 95.173 108.001 95.1213C108.001 95.0697 106.418 95.0275 104.482 95.0275C102.547 95.0275 100.963 95.0697 100.963 95.1213C100.963 95.173 100.383 95.2499 99.674 95.2922C98.9648 95.3347 98.3587 95.4105 98.3269 95.4606C98.295 95.5108 97.8768 95.5714 97.3974 95.5952C96.8424 95.6228 96.5095 95.6874 96.4811 95.773C96.4519 95.8602 96.1886 95.9074 95.7306 95.9074C95.3425 95.9074 95.025 95.9512 95.025 96.0047C95.025 96.0582 94.7528 96.136 94.4201 96.1776C94.0875 96.2192 93.8153 96.2992 93.8153 96.3552C93.8153 96.4113 93.5961 96.4573 93.3283 96.4573C93.042 96.4573 92.7734 96.5253 92.6764 96.6223C92.5856 96.713 92.3388 96.7873 92.1278 96.7873C91.9168 96.7873 91.7261 96.8416 91.704 96.908C91.6818 96.9745 91.4303 97.0552 91.1449 97.0873C90.8597 97.1195 90.6262 97.1823 90.6262 97.227C90.6262 97.2716 90.4169 97.3363 90.1613 97.3706C89.9055 97.4049 89.6786 97.4857 89.6572 97.55C89.6357 97.6145 89.4544 97.6672 89.2542 97.6672C89.0321 97.6672 88.8656 97.7315 88.8269 97.8321C88.7922 97.9229 88.6384 97.9971 88.4852 97.9971C88.3322 97.9971 88.2069 98.0426 88.2069 98.0984C88.2069 98.1541 88.0584 98.2323 87.877 98.2721C87.6955 98.3119 87.5471 98.3901 87.5471 98.4457C87.5471 98.5015 87.4287 98.547 87.2839 98.547C87.1392 98.547 86.9923 98.6213 86.9574 98.712C86.9227 98.8028 86.8184 98.877 86.7257 98.877C86.4861 98.877 86.1175 99.2769 86.1175 99.5369C86.1175 99.6591 86.0441 99.7569 85.9525 99.7569C85.8499 99.7569 85.7876 99.8607 85.7876 100.032C85.7876 100.183 85.7421 100.307 85.6863 100.307C85.6307 100.307 85.5525 100.455 85.5127 100.637C85.4729 100.818 85.4009 100.967 85.353 100.967C85.305 100.967 85.2342 101.165 85.1955 101.407C85.1568 101.649 85.0763 101.847 85.0165 101.847C84.9568 101.847 84.9078 101.97 84.9078 102.122C84.9078 102.293 84.8455 102.397 84.7429 102.397C84.6403 102.397 84.5779 102.5 84.5779 102.671C84.5779 102.823 84.5324 102.946 84.4767 102.946C84.421 102.946 84.3428 103.095 84.303 103.276C84.2632 103.458 84.185 103.606 84.1294 103.606C84.0736 103.606 84.0281 103.681 84.0281 103.771C84.0281 103.862 83.9796 103.936 83.9202 103.936C83.8609 103.936 83.7813 104.06 83.7434 104.211C83.7054 104.363 83.6356 104.486 83.5882 104.486C83.5408 104.486 83.471 104.61 83.4331 104.761C83.3951 104.912 83.3155 105.036 83.2562 105.036C83.1968 105.036 83.1483 105.112 83.1483 105.205C83.1483 105.297 83.0741 105.402 82.9834 105.436C82.8927 105.471 82.8184 105.618 82.8184 105.763C82.8184 105.923 82.7541 106.026 82.6535 106.026C82.5628 106.026 82.4885 106.1 82.4885 106.191C82.4885 106.282 82.4423 106.356 82.3859 106.356C82.3295 106.356 82.249 106.464 82.2071 106.597C82.1651 106.729 81.9707 106.989 81.7752 107.174C81.5795 107.359 81.3846 107.622 81.3418 107.758C81.299 107.894 81.218 108.006 81.1615 108.006C81.1051 108.006 81.0589 108.08 81.0589 108.171C81.0589 108.262 80.9847 108.336 80.894 108.336C80.8033 108.336 80.729 108.41 80.729 108.501C80.729 108.591 80.6548 108.666 80.5641 108.666C80.4734 108.666 80.3991 108.719 80.3991 108.783C80.3991 108.936 80.1194 109.216 79.9671 109.216C79.9023 109.216 79.8493 109.29 79.8493 109.381C79.8493 109.471 79.7751 109.546 79.6843 109.546C79.5936 109.546 79.5194 109.599 79.5194 109.663C79.5194 109.816 79.2396 110.096 79.0873 110.096C79.0225 110.096 78.9695 110.17 78.9695 110.26C78.9695 110.351 78.8953 110.425 78.8046 110.425C78.7139 110.425 78.6396 110.474 78.6396 110.533C78.6396 110.593 78.5159 110.672 78.3647 110.71C78.2135 110.748 78.0898 110.848 78.0898 110.932C78.0898 111.017 78.0336 111.085 77.965 111.085C77.8962 111.085 77.7255 111.209 77.5852 111.36C77.4451 111.512 77.2292 111.635 77.1053 111.635C76.9784 111.635 76.8801 111.707 76.8801 111.8C76.8801 111.891 76.8059 111.965 76.7152 111.965C76.6245 111.965 76.5502 112.015 76.5502 112.075C76.5502 112.136 76.4265 112.185 76.2753 112.185C76.1042 112.185 76.0004 112.248 76.0004 112.35C76.0004 112.451 75.8978 112.515 75.7372 112.515C75.5925 112.515 75.4456 112.589 75.4107 112.68C75.376 112.771 75.2222 112.845 75.0691 112.845C74.916 112.845 74.7907 112.888 74.7907 112.941C74.7907 112.994 74.5928 113.069 74.3509 113.107C74.1089 113.146 73.911 113.227 73.911 113.286C73.911 113.346 73.7343 113.395 73.5183 113.395C73.3022 113.395 73.0512 113.469 72.9605 113.56C72.8544 113.666 72.5827 113.725 72.1987 113.725C71.8703 113.725 71.6016 113.775 71.6016 113.835C71.6016 113.9 71.2167 113.945 70.6669 113.945H69.7322V95.4124C69.7322 79.0124 69.7512 76.8799 69.8971 76.8799C69.9997 76.8799 70.0621 76.7761 70.0621 76.6049C70.0621 76.4338 70.1244 76.33 70.227 76.33C70.3178 76.33 70.392 76.2557 70.392 76.165C70.392 76.0742 70.4415 76 70.5019 76C70.5624 76 70.6119 75.8763 70.6119 75.725C70.6119 75.5642 70.675 75.4501 70.764 75.4501C70.8477 75.4501 70.9489 75.3634 70.9888 75.2576C71.1251 74.8961 71.3237 74.5702 71.4078 74.5702C71.4539 74.5702 71.4917 74.4984 71.4917 74.4107C71.4917 74.3229 71.5547 74.2116 71.6318 74.1632C71.7089 74.1148 71.8641 73.9304 71.9768 73.7534C72.0897 73.5765 72.2919 73.329 72.4263 73.2035C72.5608 73.078 72.7057 72.864 72.7484 72.7279C72.7912 72.5919 72.8722 72.4805 72.9286 72.4805C72.985 72.4805 73.0312 72.4062 73.0312 72.3155C73.0312 72.2247 73.1055 72.1505 73.1962 72.1505C73.2869 72.1505 73.3611 72.0972 73.3611 72.0321C73.3611 71.8782 73.9686 71.2706 74.1224 71.2706C74.1875 71.2706 74.2409 71.2176 74.2409 71.1528C74.2409 70.9991 76.0588 69.1809 76.2125 69.1809C76.2773 69.1809 76.3303 69.1067 76.3303 69.0159C76.3303 68.9252 76.3833 68.8509 76.4481 68.8509C76.6004 68.8509 76.8801 68.5711 76.8801 68.4188C76.8801 68.354 77.0038 68.301 77.1551 68.301C77.3262 68.301 77.43 68.2387 77.43 68.136C77.43 68.0453 77.4818 67.9711 77.5452 67.9711C77.6086 67.9711 77.7751 67.8473 77.9152 67.6961C78.0554 67.5449 78.2756 67.4211 78.4048 67.4211C78.5402 67.4211 78.6396 67.3513 78.6396 67.2562C78.6396 67.1654 78.7139 67.0912 78.8046 67.0912C78.8953 67.0912 78.9695 67.0417 78.9695 66.9812C78.9695 66.9207 79.0402 66.8712 79.1267 66.8712C79.213 66.8712 79.3515 66.8035 79.4342 66.7207C79.517 66.6379 79.6937 66.5356 79.827 66.4934C79.9601 66.4511 80.0692 66.3703 80.0692 66.3139C80.0692 66.2575 80.1682 66.2113 80.2892 66.2113C80.4101 66.2113 80.5091 66.1628 80.5091 66.1034C80.5091 66.0441 80.6328 65.9645 80.784 65.9265C80.9352 65.8886 81.0589 65.8173 81.0589 65.7682C81.0589 65.719 81.2074 65.6462 81.3888 65.6064C81.5703 65.5666 81.7188 65.4884 81.7188 65.4327C81.7188 65.3769 81.892 65.3314 82.1036 65.3314C82.3724 65.3314 82.4885 65.2817 82.4885 65.1664C82.4885 65.0564 82.5985 65.0014 82.8184 65.0014C82.9999 65.0014 83.1483 64.9525 83.1483 64.8928C83.1483 64.833 83.3463 64.7524 83.5882 64.7137C83.8301 64.675 84.0281 64.6002 84.0281 64.5474C84.0281 64.4946 84.226 64.4515 84.468 64.4515C84.7857 64.4515 84.9078 64.4057 84.9078 64.2865C84.9078 64.1602 85.0474 64.1216 85.5035 64.1216C85.8613 64.1216 86.1163 64.0701 86.1421 63.9927C86.1662 63.9203 86.4838 63.8421 86.8661 63.8145C87.2406 63.7873 87.5471 63.7286 87.5471 63.6839C87.5471 63.6393 88.1533 63.5677 88.8942 63.5248C89.6351 63.4818 90.2578 63.4006 90.2779 63.3442C90.3298 63.1992 104.152 63.2067 104.152 63.3517ZM84.4405 69.8066C84.3347 69.8343 84.248 69.9028 84.248 69.9588C84.248 70.0149 84.1243 70.0608 83.9731 70.0608C83.802 70.0608 83.6982 70.1231 83.6982 70.2258C83.6982 70.3165 83.6452 70.3907 83.5804 70.3907C83.5155 70.3907 83.3918 70.4615 83.3055 70.5479C83.2191 70.6342 83.1483 70.758 83.1483 70.8229C83.1483 70.8877 83.0741 70.9407 82.9834 70.9407C82.8927 70.9407 82.8184 71.0149 82.8184 71.1056C82.8184 71.1964 82.7695 71.2706 82.7098 71.2706C82.65 71.2706 82.5695 71.4686 82.5308 71.7106C82.492 71.9525 82.4173 72.1505 82.3645 72.1505C82.3117 72.1505 82.2686 73.0166 82.2686 74.0753V76H80.1792C78.3953 76 78.0898 76.0241 78.0898 76.165C78.0898 76.2676 77.986 76.33 77.8149 76.33C77.6637 76.33 77.5399 76.3795 77.5399 76.4399C77.5399 76.5004 77.4657 76.5499 77.375 76.5499C77.2843 76.5499 77.21 76.6242 77.21 76.7149C77.21 76.8056 77.1358 76.8799 77.0451 76.8799C76.9544 76.8799 76.8801 76.9541 76.8801 77.0449C76.8801 77.1356 76.8059 77.2098 76.7152 77.2098C76.6245 77.2098 76.5502 77.2841 76.5502 77.3748C76.5502 77.4656 76.5007 77.5398 76.4403 77.5398C76.3798 77.5398 76.3303 77.6635 76.3303 77.8148C76.3303 77.9859 76.2679 78.0897 76.1653 78.0897C76.0303 78.0897 76.0004 78.2791 76.0004 79.1346C76.0004 79.9901 76.0303 80.1795 76.1653 80.1795C76.2679 80.1795 76.3303 80.2833 76.3303 80.4544C76.3303 80.6056 76.3798 80.7294 76.4403 80.7294C76.5007 80.7294 76.5502 80.7998 76.5502 80.8859C76.5502 81.105 77.4238 81.9392 77.6531 81.9392C77.7205 81.9392 77.8498 82.0135 77.9406 82.1042C78.0756 82.2393 78.4834 82.2692 80.187 82.2692H82.2686V84.1939C82.2686 85.2525 82.3117 86.1187 82.3645 86.1187C82.4173 86.1187 82.492 86.3166 82.5308 86.5586C82.5695 86.8006 82.65 86.9986 82.7098 86.9986C82.7695 86.9986 82.8184 87.0728 82.8184 87.1635C82.8184 87.2543 82.8669 87.3285 82.9263 87.3285C82.9856 87.3285 83.0652 87.4522 83.1031 87.6035C83.1527 87.8009 83.2463 87.8784 83.4351 87.8784C83.5957 87.8784 83.6982 87.9428 83.6982 88.0434C83.6982 88.1342 83.7724 88.2084 83.8631 88.2084C83.9539 88.2084 84.0281 88.2515 84.0281 88.3043C84.0281 88.3571 84.226 88.4319 84.468 88.4706C84.7099 88.5093 84.9078 88.5898 84.9078 88.6497C84.9078 88.7094 85.18 88.7583 85.5127 88.7583C85.8453 88.7583 86.1175 88.7094 86.1175 88.6497C86.1175 88.5898 86.3154 88.5093 86.5574 88.4706C86.7993 88.4319 86.9972 88.3571 86.9972 88.3043C86.9972 88.2515 87.0715 88.2084 87.1622 88.2084C87.2529 88.2084 87.3272 88.1342 87.3272 88.0434C87.3272 87.9408 87.431 87.8784 87.6021 87.8784C87.822 87.8784 87.877 87.8234 87.877 87.6035C87.877 87.4323 87.9393 87.3285 88.0419 87.3285C88.1327 87.3285 88.2069 87.2543 88.2069 87.1635C88.2069 87.0728 88.25 86.9986 88.3028 86.9986C88.3556 86.9986 88.4304 86.8006 88.4691 86.5586C88.5078 86.3166 88.5883 86.1187 88.6481 86.1187C88.7155 86.1187 88.7567 85.3884 88.7567 84.1939V82.2692H90.8462C92.6301 82.2692 92.9356 82.2451 92.9356 82.1042C92.9356 82.0008 93.0399 81.9392 93.2151 81.9392C93.3688 81.9392 93.5545 81.889 93.6275 81.8275C94.1614 81.3786 94.3491 81.1733 94.4146 80.9665C94.4561 80.8361 94.536 80.7294 94.5925 80.7294C94.6489 80.7294 94.6951 80.6098 94.6951 80.4635C94.6951 80.3174 94.757 80.1771 94.8325 80.152C94.9286 80.1199 94.97 79.8141 94.97 79.1346C94.97 78.4551 94.9286 78.1492 94.8325 78.1172C94.757 78.092 94.6951 77.9741 94.6951 77.8553C94.6951 77.7365 94.5713 77.5246 94.4201 77.3845C94.2689 77.2443 94.1452 77.0735 94.1452 77.0047C94.1452 76.9361 94.071 76.8799 93.9803 76.8799C93.8895 76.8799 93.8153 76.8056 93.8153 76.7149C93.8153 76.6242 93.7411 76.5499 93.6504 76.5499C93.5596 76.5499 93.4854 76.5004 93.4854 76.4399C93.4854 76.3795 93.3601 76.33 93.2071 76.33C93.0539 76.33 92.9001 76.2557 92.8654 76.165C92.8123 76.0266 92.4759 76 90.7794 76H88.7567V74.0753C88.7567 72.8808 88.7155 72.1505 88.6481 72.1505C88.5883 72.1505 88.5078 71.9525 88.4691 71.7106C88.4304 71.4686 88.3556 71.2706 88.3028 71.2706C88.25 71.2706 88.2069 71.1964 88.2069 71.1056C88.2069 71.0149 88.1327 70.9407 88.0419 70.9407C87.9512 70.9407 87.877 70.8664 87.877 70.7757C87.877 70.685 87.824 70.6107 87.7592 70.6107C87.6069 70.6107 87.3272 70.3309 87.3272 70.1786C87.3272 70.1138 87.1999 70.0608 87.0444 70.0608C86.8888 70.0608 86.6874 69.9865 86.5966 69.8958C86.4745 69.7736 86.1983 69.7341 85.5324 69.7436C85.0376 69.7506 84.5463 69.779 84.4405 69.8066ZM122.378 69.8858C122.282 69.982 122.123 70.0608 122.025 70.0608C121.927 70.0608 121.732 70.1845 121.592 70.3357C121.452 70.487 121.281 70.6107 121.212 70.6107C121.144 70.6107 121.088 70.685 121.088 70.7757C121.088 70.8664 121.038 70.9407 120.978 70.9407C120.917 70.9407 120.868 71.0149 120.868 71.1056C120.868 71.1964 120.793 71.2706 120.703 71.2706C120.584 71.2706 120.538 71.3918 120.538 71.7014C120.538 71.9383 120.485 72.1497 120.421 72.1712C120.208 72.2422 120.164 73.0961 120.36 73.375C120.458 73.5148 120.538 73.7667 120.538 73.9348C120.538 74.1028 120.586 74.2402 120.646 74.2402C120.705 74.2402 120.784 74.364 120.822 74.5152C120.86 74.6664 120.936 74.7902 120.989 74.7902C121.043 74.7902 121.088 74.8644 121.088 74.9551C121.088 75.0459 121.162 75.1201 121.252 75.1201C121.343 75.1201 121.417 75.1686 121.417 75.228C121.417 75.2873 121.541 75.3669 121.692 75.4049C121.844 75.4428 121.967 75.5141 121.967 75.5632C121.967 75.6124 122.116 75.6852 122.297 75.725C122.479 75.7649 122.627 75.843 122.627 75.8987C122.627 76.0776 124.272 76.0203 124.457 75.835C124.548 75.7443 124.718 75.67 124.834 75.67C124.951 75.67 125.046 75.6206 125.046 75.5601C125.046 75.4996 125.116 75.4501 125.202 75.4501C125.441 75.4501 126.146 74.7121 126.146 74.4622C126.146 74.3382 126.219 74.2402 126.311 74.2402C126.43 74.2402 126.476 74.118 126.476 73.8003C126.476 73.5583 126.525 73.3603 126.586 73.3603C126.646 73.3603 126.696 73.0881 126.696 72.7554C126.696 72.4227 126.646 72.1505 126.586 72.1505C126.525 72.1505 126.476 72.0055 126.476 71.8284C126.476 71.6513 126.402 71.4321 126.311 71.3413C126.22 71.2506 126.146 71.1442 126.146 71.1051C126.146 70.9861 125.512 70.3907 125.385 70.3907C125.32 70.3907 125.266 70.3165 125.266 70.2258C125.266 70.1246 125.164 70.0608 125.001 70.0608C124.854 70.0608 124.714 69.999 124.689 69.9233C124.658 69.8299 124.308 69.7738 123.598 69.7483C122.754 69.7181 122.519 69.7445 122.378 69.8858ZM116.099 76.165C116.064 76.2557 115.911 76.33 115.757 76.33C115.604 76.33 115.479 76.3795 115.479 76.4399C115.479 76.5004 115.405 76.5499 115.314 76.5499C115.223 76.5499 115.149 76.6017 115.149 76.6652C115.149 76.7285 115.026 76.8951 114.874 77.0352C114.723 77.1754 114.599 77.3462 114.599 77.415C114.599 77.4836 114.525 77.5398 114.434 77.5398C114.333 77.5398 114.269 77.6426 114.269 77.8056C114.269 77.9518 114.216 78.0893 114.15 78.1113C113.99 78.1644 113.993 80.1055 114.153 80.1589C114.217 80.1802 114.269 80.3174 114.269 80.4635C114.269 80.6265 114.333 80.7294 114.434 80.7294C114.526 80.7294 114.599 80.8272 114.599 80.9494C114.599 81.2063 114.919 81.5561 115.248 81.6608C115.375 81.7011 115.479 81.7802 115.479 81.8366C115.479 81.893 115.598 81.9392 115.742 81.9392C115.887 81.9392 116.036 82.0181 116.073 82.1145C116.129 82.2626 116.313 82.2839 117.258 82.252C118.026 82.226 118.389 82.1712 118.421 82.0767C118.446 82.0011 118.586 81.9392 118.732 81.9392C118.895 81.9392 118.998 81.8754 118.998 81.7742C118.998 81.6835 119.051 81.6093 119.117 81.6093C119.314 81.6093 119.862 80.9963 119.939 80.6885C119.979 80.5295 120.056 80.3994 120.11 80.3994C120.164 80.3994 120.208 79.855 120.208 79.1896C120.208 78.4563 120.164 77.9797 120.098 77.9797C120.037 77.9797 119.988 77.8792 119.988 77.7564C119.988 77.6334 119.914 77.5044 119.823 77.4696C119.732 77.4348 119.658 77.3449 119.658 77.2699C119.658 77.0665 119.307 76.7021 119.026 76.6133C118.89 76.5703 118.778 76.489 118.778 76.4326C118.778 76.3762 118.653 76.33 118.5 76.33C118.347 76.33 118.193 76.2557 118.158 76.165C118.108 76.0356 117.886 76 117.129 76C116.371 76 116.149 76.0356 116.099 76.165ZM128.855 76.165C128.821 76.2557 128.667 76.33 128.514 76.33C128.361 76.33 128.235 76.3795 128.235 76.4399C128.235 76.5004 128.169 76.5499 128.087 76.5499C127.882 76.5499 127.356 77.053 127.356 77.2478C127.356 77.335 127.282 77.4348 127.191 77.4696C127.1 77.5044 127.026 77.6293 127.026 77.7471C127.026 77.865 126.964 77.9819 126.889 78.0071C126.716 78.0647 126.706 80.2678 126.878 80.3801C126.941 80.421 127.025 80.5905 127.066 80.7569C127.107 80.9233 127.189 81.0593 127.248 81.0593C127.307 81.0593 127.356 81.1336 127.356 81.2243C127.356 81.3151 127.412 81.3893 127.481 81.3893C127.549 81.3893 127.72 81.513 127.86 81.6643C128 81.8155 128.212 81.9392 128.331 81.9392C128.45 81.9392 128.568 82.0011 128.593 82.0767C128.626 82.1759 128.986 82.2142 129.885 82.2142C130.784 82.2142 131.144 82.1759 131.177 82.0767C131.202 82.0011 131.293 81.9392 131.379 81.9392C131.464 81.9392 131.535 81.8907 131.535 81.8313C131.535 81.772 131.658 81.6924 131.809 81.6545C131.961 81.6165 132.084 81.5165 132.084 81.4324C132.084 81.3482 132.131 81.2793 132.187 81.2793C132.243 81.2793 132.324 81.1702 132.366 81.037C132.409 80.9037 132.511 80.727 132.594 80.6441C132.676 80.5614 132.744 80.423 132.744 80.3366C132.744 80.2502 132.794 80.1795 132.854 80.1795C132.92 80.1795 132.964 79.7579 132.964 79.1346C132.964 78.5599 132.92 78.0897 132.866 78.0897C132.812 78.0897 132.737 77.966 132.699 77.8148C132.661 77.6635 132.581 77.5398 132.522 77.5398C132.463 77.5398 132.414 77.4656 132.414 77.3748C132.414 77.2841 132.34 77.2098 132.249 77.2098C132.159 77.2098 132.084 77.1565 132.084 77.0914C132.084 76.8583 131.442 76.33 131.158 76.33C130.98 76.33 130.875 76.2689 130.875 76.165C130.875 76.0307 130.693 76 129.897 76C129.129 76 128.905 76.0354 128.855 76.165ZM122.957 82.3792C122.957 82.4397 122.812 82.4891 122.635 82.4891C122.458 82.4891 122.239 82.5634 122.148 82.6541C122.057 82.7449 121.905 82.8191 121.81 82.8191C121.715 82.8191 121.637 82.8653 121.637 82.9217C121.637 82.9781 121.541 83.0549 121.423 83.0923C121.305 83.1297 121.175 83.2692 121.133 83.4021C121.091 83.5352 120.94 83.753 120.797 83.8862C120.632 84.0407 120.538 84.2527 120.538 84.4715C120.538 84.6602 120.463 84.8888 120.373 84.9796C120.282 85.0703 120.208 85.3107 120.208 85.5137C120.208 85.7168 120.282 85.9572 120.373 86.0479C120.463 86.1387 120.538 86.3897 120.538 86.6058C120.538 86.8816 120.587 86.9986 120.703 86.9986C120.793 86.9986 120.868 87.0728 120.868 87.1635C120.868 87.2543 120.912 87.3285 120.966 87.3285C121.02 87.3285 121.095 87.4522 121.133 87.6035C121.176 87.7744 121.28 87.8784 121.408 87.8784C121.521 87.8784 121.642 87.9527 121.677 88.0434C121.712 88.1342 121.816 88.2084 121.909 88.2084C122.001 88.2084 122.077 88.2515 122.077 88.3043C122.077 88.3571 122.275 88.4319 122.517 88.4706C122.759 88.5093 122.957 88.5898 122.957 88.6497C122.957 88.7094 123.204 88.7583 123.507 88.7583C123.809 88.7583 124.057 88.7094 124.057 88.6497C124.057 88.5898 124.255 88.5093 124.497 88.4706C124.738 88.4319 124.936 88.3571 124.936 88.3043C124.936 88.2515 125.012 88.2084 125.105 88.2084C125.197 88.2084 125.302 88.1342 125.336 88.0434C125.371 87.9527 125.488 87.8784 125.596 87.8784C125.714 87.8784 125.82 87.7682 125.861 87.6035C125.899 87.4522 125.979 87.3285 126.038 87.3285C126.098 87.3285 126.146 87.2543 126.146 87.1635C126.146 87.0728 126.22 86.9986 126.311 86.9986C126.43 86.9986 126.476 86.8764 126.476 86.5586C126.476 86.3166 126.525 86.1187 126.586 86.1187C126.646 86.1187 126.696 85.8465 126.696 85.5137C126.696 85.181 126.646 84.9088 126.586 84.9088C126.525 84.9088 126.476 84.7109 126.476 84.4689C126.476 84.1511 126.43 84.0289 126.311 84.0289C126.22 84.0289 126.146 83.9547 126.146 83.864C126.146 83.7732 126.102 83.699 126.048 83.699C125.994 83.699 125.92 83.5812 125.884 83.4371C125.848 83.2931 125.731 83.1461 125.625 83.1105C125.404 83.0362 125.07 82.8278 124.851 82.6266C124.768 82.5511 124.556 82.4891 124.379 82.4891C124.202 82.4891 124.057 82.4397 124.057 82.3792C124.057 82.3187 123.809 82.2692 123.507 82.2692C123.204 82.2692 122.957 82.3187 122.957 82.3792ZM101.272 113.523C101.245 123.007 101.209 125.54 101.101 125.576C101.023 125.602 100.963 125.804 100.963 126.045C100.963 126.277 100.889 126.542 100.798 126.633C100.708 126.723 100.633 126.904 100.633 127.033C100.633 127.163 100.559 127.343 100.468 127.434C100.378 127.525 100.303 127.694 100.303 127.811C100.303 127.928 100.255 128.023 100.196 128.023C100.136 128.023 100.057 128.147 100.019 128.298C99.9808 128.449 99.9056 128.573 99.8517 128.573C99.7977 128.573 99.7536 128.647 99.7536 128.738C99.7536 128.829 99.7051 128.903 99.6457 128.903C99.5865 128.903 99.5068 129.027 99.4689 129.178C99.431 129.329 99.3522 129.453 99.2939 129.453C99.1514 129.453 98.8739 129.738 98.8739 129.885C98.8739 129.95 98.7996 130.003 98.7089 130.003C98.6182 130.003 98.544 130.056 98.544 130.121C98.544 130.275 97.9365 130.883 97.7826 130.883C97.7175 130.883 97.6642 130.957 97.6642 131.048C97.6642 131.15 97.5604 131.213 97.3893 131.213C97.2182 131.213 97.1144 131.275 97.1144 131.378C97.1144 131.468 97.0401 131.543 96.9494 131.543C96.8587 131.543 96.7845 131.588 96.7845 131.644C96.7845 131.7 96.636 131.778 96.4546 131.818C96.2731 131.857 96.1246 131.936 96.1246 131.991C96.1246 132.047 96.0009 132.093 95.8497 132.093C95.6786 132.093 95.5748 132.155 95.5748 132.258C95.5748 132.377 95.4526 132.423 95.1349 132.423C94.893 132.423 94.6951 132.469 94.6951 132.525C94.6951 132.581 94.4229 132.661 94.0902 132.702C93.7576 132.744 93.4854 132.822 93.4854 132.875C93.4854 132.931 88.4221 132.973 81.6088 132.973H69.7322V126.767C69.7322 123.354 69.7622 120.484 69.7989 120.388C69.8552 120.241 70.0969 120.214 71.3385 120.214C72.1485 120.214 72.8113 120.17 72.8113 120.117C72.8113 120.064 73.1329 119.985 73.5261 119.943C73.9192 119.901 74.2409 119.827 74.2409 119.78C74.2409 119.731 74.4985 119.667 74.8136 119.637C75.1286 119.607 75.4048 119.526 75.4276 119.458C75.4503 119.39 75.6414 119.334 75.8525 119.334C76.0634 119.334 76.3103 119.26 76.401 119.169C76.4917 119.079 76.6861 119.004 76.833 119.004C76.9799 119.004 77.1001 118.955 77.1001 118.894C77.1001 118.834 77.2485 118.784 77.43 118.784C77.6499 118.784 77.7599 118.729 77.7599 118.619C77.7599 118.509 77.8698 118.454 78.0898 118.454C78.3097 118.454 78.4197 118.399 78.4197 118.289C78.4197 118.187 78.5235 118.124 78.6946 118.124C78.8458 118.124 78.9695 118.075 78.9695 118.014C78.9695 117.954 79.0402 117.904 79.1267 117.904C79.213 117.904 79.3512 117.843 79.4337 117.767C79.6526 117.566 79.9864 117.358 80.2067 117.284C80.3125 117.248 80.3991 117.175 80.3991 117.122C80.3991 117.068 80.4749 117.025 80.5675 117.025C80.6602 117.025 80.7644 116.95 80.7992 116.86C80.8341 116.769 80.9493 116.695 81.0553 116.695C81.1613 116.695 81.3387 116.574 81.4495 116.426C81.5604 116.279 81.7653 116.129 81.9048 116.094C82.0444 116.059 82.1586 115.982 82.1586 115.923C82.1586 115.863 82.2329 115.815 82.3236 115.815C82.4143 115.815 82.4885 115.741 82.4885 115.65C82.4885 115.559 82.5628 115.485 82.6535 115.485C82.7442 115.485 82.8184 115.411 82.8184 115.32C82.8184 115.229 82.8712 115.155 82.9358 115.155C83.0889 115.155 85.4577 112.786 85.4577 112.633C85.4577 112.568 85.5319 112.515 85.6226 112.515C85.7134 112.515 85.7876 112.441 85.7876 112.35C85.7876 112.259 85.8618 112.185 85.9525 112.185C86.0433 112.185 86.1175 112.134 86.1175 112.071C86.1175 111.963 86.2035 111.838 86.5299 111.474C86.6055 111.39 86.6673 111.29 86.6673 111.253C86.6673 111.215 86.7841 111.076 86.927 110.943C87.0698 110.809 87.2216 110.589 87.2642 110.453C87.307 110.317 87.3881 110.206 87.4445 110.206C87.5009 110.206 87.5471 110.131 87.5471 110.041C87.5471 109.95 87.6213 109.876 87.712 109.876C87.8028 109.876 87.877 109.801 87.877 109.711C87.877 109.62 87.9265 109.546 87.987 109.546C88.0474 109.546 88.0969 109.475 88.0969 109.388C88.0969 109.302 88.1647 109.164 88.2474 109.081C88.3302 108.998 88.4324 108.821 88.4747 108.688C88.517 108.555 88.5977 108.446 88.6541 108.446C88.7106 108.446 88.7567 108.347 88.7567 108.226C88.7567 108.104 88.8301 108.006 88.9217 108.006C89.0243 108.006 89.0867 107.902 89.0867 107.731C89.0867 107.58 89.1351 107.456 89.1945 107.456C89.2538 107.456 89.3334 107.332 89.3714 107.181C89.4093 107.03 89.4845 106.906 89.5384 106.906C89.5924 106.906 89.6365 106.832 89.6365 106.741C89.6365 106.65 89.685 106.576 89.7444 106.576C89.8036 106.576 89.8862 106.44 89.9279 106.275C89.9695 106.109 90.0693 105.907 90.1499 105.827C90.2304 105.746 90.2963 105.61 90.2963 105.523C90.2963 105.437 90.3458 105.366 90.4063 105.366C90.4668 105.366 90.5162 105.242 90.5162 105.091C90.5162 104.92 90.5786 104.816 90.6812 104.816C90.8003 104.816 90.8462 104.694 90.8462 104.376C90.8462 104.059 90.892 103.936 91.0111 103.936C91.1018 103.936 91.1761 103.862 91.1761 103.771C91.1761 103.656 91.293 103.606 91.5688 103.606C91.7848 103.606 92.0358 103.532 92.1265 103.441C92.2172 103.351 92.4364 103.276 92.6135 103.276C92.7906 103.276 92.9356 103.227 92.9356 103.166C92.9356 103.106 93.0805 103.056 93.2577 103.056C93.4347 103.056 93.6539 102.982 93.7446 102.891C93.8388 102.797 94.1132 102.725 94.3848 102.723C94.6461 102.721 94.9561 102.647 95.0735 102.558C95.1909 102.469 95.5001 102.397 95.7608 102.397C96.0214 102.397 96.2346 102.353 96.2346 102.299C96.2346 102.246 96.5563 102.168 96.9494 102.126C97.3425 102.084 97.6642 102.004 97.6642 101.948C97.6642 101.892 98.0477 101.845 98.5165 101.843C99.0909 101.841 99.4383 101.787 99.5822 101.678C99.7217 101.573 100.057 101.517 100.55 101.517H101.305L101.272 113.523Z" fill="#0BC481"/>
</svg>
