<svg width="125" height="133" viewBox="0 0 125 133" fill="none" xmlns="http://www.w3.org/2000/svg">
<path fill-rule="evenodd" clip-rule="evenodd" d="M0.314268 63.4246C0.314268 126.797 0.314111 126.849 0.157134 126.849C0.0442332 126.849 0 126.902 0 127.035C0 127.189 0.0507542 127.23 0.294626 127.27C0.456631 127.297 15.9864 127.319 34.8052 127.319C53.6239 127.319 69.1537 127.297 69.3157 127.27C69.5596 127.23 69.6103 127.189 69.6103 127.035C69.6103 126.902 69.5661 126.849 69.4532 126.849C69.3002 126.849 69.296 126.797 69.296 124.884C69.296 122.972 69.3002 122.919 69.4532 122.919C69.5913 122.919 69.6103 122.867 69.6103 122.487V122.055H37.5942H5.5781L5.59782 71.9323L5.61754 21.8096L61.184 21.7898L116.75 21.7702V22.006C116.75 22.2051 116.781 22.2418 116.947 22.2418C117.104 22.2418 117.143 22.2811 117.143 22.4383C117.143 22.5955 117.104 22.6348 116.947 22.6348H116.75V44.4454V66.2559L119.559 66.2353L122.368 66.2146L122.362 66.0378C122.359 65.9406 122.35 51.0422 122.343 32.9305L122.329 0H61.3215H0.314268V63.4246ZM116.75 5.42292C116.75 5.622 116.781 5.6587 116.947 5.6587C117.113 5.6587 117.143 5.6954 117.143 5.89448C117.143 6.09355 117.113 6.13026 116.947 6.13026H116.75V10.9244V15.7186H116.947C117.104 15.7186 117.143 15.7579 117.143 15.9151C117.143 16.0723 117.104 16.1116 116.947 16.1116C116.781 16.1116 116.75 16.1483 116.75 16.3474V16.5831H61.1644H5.57825V10.8851V5.18714H61.1644H116.75V5.42292ZM11.3103 8.29156C11.3085 8.31318 11.3054 9.48917 11.3035 10.9048L11.3001 13.4787L13.8996 13.4994L16.4991 13.5201V10.8862V8.25227H13.9063C12.4804 8.25227 11.3121 8.26995 11.3103 8.29156ZM22.6011 8.30469C22.5723 8.33346 22.5487 9.41214 22.5487 10.7018C22.5487 12.994 22.5452 13.0464 22.3916 13.0464C22.2785 13.0464 22.2344 13.0989 22.2344 13.2331C22.2344 13.3793 22.2877 13.4304 22.48 13.4689C22.615 13.4959 23.8701 13.518 25.2691 13.518H27.8127V10.8851V8.25227H25.2331C23.8143 8.25227 22.6299 8.27585 22.6011 8.30469ZM16.9702 33.3431C16.9701 33.4404 16.9613 40.8851 16.9506 49.8869L16.9312 66.2539H34.7809C44.5982 66.2539 52.6415 66.2274 52.6549 66.195C52.6682 66.1625 52.6695 63.121 52.6578 59.436L52.6364 52.7359H50.0454H47.4544V56.8518V60.9676L47.1598 61.0163C46.7699 61.0809 22.9905 61.0812 22.5204 61.0168L22.1559 60.9668V49.8566V38.7464H31.7803H41.4048V38.5499C41.4048 38.4058 41.4467 38.3534 41.5619 38.3534C41.7159 38.3534 41.719 38.301 41.719 35.7598V33.1663H29.3448H16.9705L16.9702 33.3431ZM50.5041 34.6399C50.4846 34.8096 50.4329 34.8614 50.2632 34.8808C50.0935 34.9004 50.0471 34.9468 50.0471 35.097C50.0471 35.2487 50.0064 35.2883 49.8507 35.2883C49.6849 35.2883 49.6543 35.325 49.6543 35.524C49.6543 35.7337 49.6281 35.7598 49.4186 35.7598C49.2091 35.7598 49.1829 35.786 49.1829 35.9956C49.1829 36.1922 49.1516 36.2314 48.9939 36.2314C48.8266 36.2314 48.7986 36.2767 48.7508 36.6244C48.703 36.972 48.675 37.0173 48.5077 37.0173C48.35 37.0173 48.3187 37.0565 48.3187 37.2531C48.3187 37.4627 48.2925 37.4889 48.083 37.4889C47.884 37.4889 47.8473 37.5194 47.8473 37.6854C47.8473 37.8425 47.808 37.8818 47.6508 37.8818C47.485 37.8818 47.4544 37.9185 47.4544 38.1176C47.4544 38.3272 47.4283 38.3534 47.2187 38.3534C47.0092 38.3534 46.983 38.3796 46.983 38.5892C46.983 38.7883 46.9525 38.825 46.7866 38.825C46.6295 38.825 46.5902 38.8643 46.5902 39.0214C46.5902 39.1771 46.5505 39.2179 46.3994 39.2179C46.2274 39.2179 46.2034 39.2599 46.1552 39.6458C46.1068 40.0337 46.0824 40.0759 45.8943 40.0977C45.7481 40.1146 45.6792 40.1741 45.6615 40.2986C45.6434 40.4266 45.5838 40.4754 45.4455 40.4754C45.2857 40.4754 45.2546 40.5139 45.2546 40.7112C45.2546 40.9085 45.2234 40.947 45.0633 40.947C44.9132 40.947 44.8668 40.9933 44.8473 41.1631C44.8278 41.3329 44.7761 41.3846 44.6064 41.4041C44.4254 41.4249 44.3903 41.4665 44.3903 41.6595C44.3903 41.8531 44.3588 41.8901 44.1939 41.8901C44.0368 41.8901 43.9975 41.9294 43.9975 42.0866C43.9975 42.2517 43.9606 42.2831 43.7659 42.2831C43.5419 42.2831 43.5335 42.2966 43.5105 42.6957C43.4884 43.0805 43.4723 43.1099 43.2707 43.1331C43.101 43.1527 43.0547 43.1991 43.0547 43.3492C43.0547 43.5009 43.014 43.5405 42.8583 43.5405C42.6924 43.5405 42.6618 43.5772 42.6618 43.7763C42.6618 43.9859 42.6357 44.0121 42.4261 44.0121C42.2166 44.0121 42.1904 44.0383 42.1904 44.2479C42.1904 44.447 42.1599 44.4837 41.994 44.4837C41.8383 44.4837 41.7976 44.5233 41.7976 44.675C41.7976 44.8251 41.7513 44.8715 41.5816 44.8911C41.4118 44.9106 41.3602 44.9623 41.3407 45.132C41.3215 45.2981 41.2738 45.3482 41.1347 45.3482C40.9767 45.3482 40.947 45.3983 40.9015 45.7411C40.855 46.0924 40.8288 46.1341 40.6557 46.1341C40.4938 46.1341 40.462 46.172 40.462 46.3647C40.462 46.5577 40.4269 46.5993 40.2459 46.6201C40.0762 46.6396 40.0245 46.6913 40.005 46.8611C39.9855 47.0309 39.9391 47.0772 39.789 47.0772C39.6373 47.0772 39.5977 47.1179 39.5977 47.2737C39.5977 47.4309 39.5585 47.4702 39.4013 47.4702C39.2355 47.4702 39.2049 47.5069 39.2049 47.706C39.2049 47.9156 39.1787 47.9417 38.9692 47.9417C38.7597 47.9417 38.7335 47.9679 38.7335 48.1775C38.7335 48.3742 38.7022 48.4133 38.5445 48.4133C38.3772 48.4133 38.3492 48.4586 38.3014 48.8063C38.2536 49.154 38.2256 49.1992 38.0583 49.1992C37.9006 49.1992 37.8693 49.2384 37.8693 49.435C37.8693 49.6446 37.8431 49.6708 37.6336 49.6708C37.424 49.6708 37.3979 49.697 37.3979 49.9066C37.3979 50.1057 37.3673 50.1424 37.2014 50.1424C37.0443 50.1424 37.005 50.1817 37.005 50.3388C37.005 50.5047 36.9683 50.5353 36.7693 50.5353C36.5598 50.5353 36.5336 50.5615 36.5336 50.7711C36.5336 50.9807 36.5075 51.0069 36.2979 51.0069C36.0989 51.0069 36.0622 51.0374 36.0622 51.2034C36.0622 51.3605 36.0229 51.3998 35.8658 51.3998C35.7 51.3998 35.6694 51.3631 35.6694 51.1641C35.6694 50.965 35.6388 50.9283 35.473 50.9283C35.3158 50.9283 35.2766 50.889 35.2766 50.7318C35.2766 50.5659 35.2399 50.5353 35.0409 50.5353C34.8313 50.5353 34.8052 50.5091 34.8052 50.2995C34.8052 50.1005 34.7746 50.0638 34.6087 50.0638C34.4516 50.0638 34.4123 50.0245 34.4123 49.8673C34.4123 49.7014 34.3756 49.6708 34.1766 49.6708C33.9671 49.6708 33.9409 49.6446 33.9409 49.435C33.9409 49.2359 33.9104 49.1992 33.7445 49.1992C33.5874 49.1992 33.5481 49.1599 33.5481 49.0028C33.5481 48.8368 33.5114 48.8063 33.3124 48.8063C33.1028 48.8063 33.0767 48.7801 33.0767 48.5705C33.0767 48.3609 33.0505 48.3347 32.841 48.3347C32.642 48.3347 32.6053 48.3041 32.6053 48.1382C32.6053 47.981 32.566 47.9417 32.4089 47.9417C32.243 47.9417 32.2124 47.905 32.2124 47.706C32.2124 47.5069 32.1819 47.4702 32.016 47.4702C31.8589 47.4702 31.8196 47.4309 31.8196 47.2737C31.8196 47.1078 31.7829 47.0772 31.5839 47.0772C31.3744 47.0772 31.3482 47.0511 31.3482 46.8414C31.3482 46.6318 31.322 46.6057 31.1125 46.6057C30.903 46.6057 30.8768 46.5795 30.8768 46.3699C30.8768 46.1708 30.8462 46.1341 30.6804 46.1341C30.5233 46.1341 30.484 46.0948 30.484 45.9376C30.484 45.7717 30.4473 45.7411 30.2483 45.7411C30.0493 45.7411 30.0126 45.7106 30.0126 45.5447C30.0126 45.3788 29.9759 45.3482 29.7769 45.3482C29.5779 45.3482 29.5412 45.3788 29.5412 45.5447C29.5412 45.7018 29.5019 45.7411 29.3448 45.7411C29.1789 45.7411 29.1483 45.7778 29.1483 45.9769C29.1483 46.1865 29.1222 46.2127 28.9126 46.2127C28.7136 46.2127 28.6769 46.2433 28.6769 46.4092C28.6769 46.5664 28.6376 46.6057 28.4805 46.6057C28.3147 46.6057 28.2841 46.6424 28.2841 46.8414C28.2841 47.0511 28.2579 47.0772 28.0484 47.0772C27.8494 47.0772 27.8127 47.1078 27.8127 47.2737C27.8127 47.4309 27.7734 47.4702 27.6163 47.4702C27.4504 47.4702 27.4199 47.5069 27.4199 47.706C27.4199 47.9156 27.3937 47.9417 27.1842 47.9417C26.9869 47.9417 26.9485 47.9729 26.9485 48.133C26.9485 48.2832 26.9021 48.3296 26.7324 48.3492C26.5627 48.3687 26.511 48.4204 26.4915 48.5901C26.472 48.7599 26.4256 48.8063 26.2755 48.8063C26.1153 48.8063 26.0842 48.8447 26.0842 49.0421C26.0842 49.2517 26.1104 49.2778 26.3199 49.2778C26.5189 49.2778 26.5556 49.3084 26.5556 49.4743C26.5556 49.6315 26.5949 49.6708 26.752 49.6708C26.9179 49.6708 26.9485 49.7075 26.9485 49.9066C26.9485 50.1162 26.9746 50.1424 27.1842 50.1424C27.3832 50.1424 27.4199 50.1729 27.4199 50.3388C27.4199 50.496 27.4591 50.5353 27.6163 50.5353C27.7821 50.5353 27.8127 50.572 27.8127 50.7711C27.8127 50.9807 27.8389 51.0069 28.0484 51.0069C28.2474 51.0069 28.2841 51.0374 28.2841 51.2034C28.2841 51.3605 28.3234 51.3998 28.4805 51.3998C28.6464 51.3998 28.6769 51.4365 28.6769 51.6356C28.6769 51.8452 28.7031 51.8714 28.9126 51.8714C29.1116 51.8714 29.1483 51.902 29.1483 52.0679C29.1483 52.2251 29.1876 52.2644 29.3448 52.2644C29.5106 52.2644 29.5412 52.3011 29.5412 52.5001C29.5412 52.7098 29.5673 52.7359 29.7769 52.7359C29.9742 52.7359 30.0126 52.767 30.0126 52.9272C30.0126 53.0774 30.0589 53.1238 30.2286 53.1434C30.3983 53.1628 30.45 53.2146 30.4695 53.3843C30.4891 53.5541 30.5354 53.6004 30.6856 53.6004C30.8457 53.6004 30.8768 53.6389 30.8768 53.8362C30.8768 54.0458 30.903 54.072 31.1125 54.072C31.3115 54.072 31.3482 54.1026 31.3482 54.2685C31.3482 54.4257 31.3875 54.465 31.5446 54.465C31.7105 54.465 31.741 54.5017 31.741 54.7007C31.741 54.9104 31.7672 54.9365 31.9767 54.9365C32.1758 54.9365 32.2124 54.9671 32.2124 55.133C32.2124 55.2902 32.2517 55.3295 32.4089 55.3295C32.5747 55.3295 32.6053 55.3662 32.6053 55.5653C32.6053 55.7749 32.6314 55.8011 32.841 55.8011C33.04 55.8011 33.0767 55.8316 33.0767 55.9975C33.0767 56.1547 33.116 56.194 33.2731 56.194C33.439 56.194 33.4695 56.2307 33.4695 56.4298C33.4695 56.6394 33.4957 56.6656 33.7052 56.6656C33.9042 56.6656 33.9409 56.6961 33.9409 56.8621C33.9409 57.0192 33.9802 57.0585 34.1373 57.0585C34.3032 57.0585 34.3338 57.0952 34.3338 57.2943C34.3338 57.5039 34.3599 57.5301 34.5695 57.5301C34.7667 57.5301 34.8052 57.5612 34.8052 57.7214C34.8052 57.8716 34.8515 57.918 35.0212 57.9375C35.1909 57.957 35.2426 58.0087 35.2621 58.1785C35.2817 58.3483 35.328 58.3946 35.4782 58.3946C35.6383 58.3946 35.6694 58.4331 35.6694 58.6304C35.6694 58.84 35.6956 58.8662 35.9051 58.8662C36.1041 58.8662 36.1408 58.8968 36.1408 59.0627C36.1408 59.2198 36.1801 59.2591 36.3372 59.2591C36.4929 59.2591 36.5336 59.2195 36.5336 59.0678C36.5336 58.9177 36.58 58.8713 36.7497 58.8517C36.9194 58.8322 36.9711 58.7805 36.9906 58.6108C37.0101 58.441 37.0565 58.3946 37.2066 58.3946C37.3668 58.3946 37.3979 58.3562 37.3979 58.1588C37.3979 57.9598 37.4284 57.9231 37.5943 57.9231C37.7514 57.9231 37.7907 57.8838 37.7907 57.7266C37.7907 57.5624 37.8279 57.5301 38.0174 57.5301C38.2332 57.5301 38.2465 57.5094 38.298 57.0978C38.3467 56.7074 38.3704 56.6656 38.5427 56.6656C38.7023 56.6656 38.7335 56.6271 38.7335 56.4298C38.7335 56.2307 38.7641 56.194 38.9299 56.194C39.0871 56.194 39.1263 56.1547 39.1263 55.9975C39.1263 55.8316 39.163 55.8011 39.362 55.8011C39.5716 55.8011 39.5977 55.7749 39.5977 55.5653C39.5977 55.3679 39.6289 55.3295 39.789 55.3295C39.9391 55.3295 39.9855 55.2831 40.005 55.1134C40.0245 54.9436 40.0762 54.8919 40.2459 54.8724C40.4156 54.8528 40.462 54.8065 40.462 54.6563C40.462 54.5062 40.503 54.465 40.6527 54.465C40.825 54.465 40.8488 54.4232 40.8975 54.0327C40.9459 53.6447 40.9707 53.6004 41.1388 53.6004C41.285 53.6004 41.3262 53.5583 41.3262 53.4091C41.3262 53.259 41.3726 53.2126 41.5423 53.193C41.712 53.1735 41.7637 53.1218 41.7832 52.9521C41.8027 52.7823 41.8491 52.7359 41.9992 52.7359C42.1593 52.7359 42.1904 52.6975 42.1904 52.5001C42.1904 52.2905 42.2166 52.2644 42.4261 52.2644C42.6252 52.2644 42.6618 52.2338 42.6618 52.0679C42.6618 51.9107 42.7011 51.8714 42.8583 51.8714C43.0241 51.8714 43.0547 51.8347 43.0547 51.6356C43.0547 51.439 43.086 51.3998 43.2437 51.3998C43.411 51.3998 43.439 51.3546 43.4868 51.0069C43.5346 50.6592 43.5626 50.6139 43.7299 50.6139C43.8876 50.6139 43.9189 50.5748 43.9189 50.3781C43.9189 50.1685 43.9451 50.1424 44.1546 50.1424C44.3642 50.1424 44.3903 50.1162 44.3903 49.9066C44.3903 49.7092 44.4214 49.6708 44.5816 49.6708C44.7317 49.6708 44.778 49.6244 44.7976 49.4547C44.8171 49.2849 44.8688 49.2332 45.0385 49.2137C45.2082 49.1941 45.2546 49.1478 45.2546 48.9976C45.2546 48.8473 45.2956 48.8063 45.4458 48.8063C45.5959 48.8063 45.6423 48.7599 45.6618 48.5901C45.6813 48.4204 45.733 48.3687 45.9027 48.3492C46.1054 48.3258 46.1188 48.3006 46.1188 47.9417C46.1188 47.5829 46.1321 47.5577 46.3349 47.5343C46.5046 47.5148 46.5563 47.4631 46.5757 47.2934C46.5953 47.1236 46.6417 47.0772 46.7918 47.0772C46.9519 47.0772 46.983 47.0388 46.983 46.8414C46.983 46.6318 47.0092 46.6057 47.2187 46.6057C47.4177 46.6057 47.4544 46.5751 47.4544 46.4092C47.4544 46.252 47.4937 46.2127 47.6508 46.2127C47.8167 46.2127 47.8473 46.176 47.8473 45.9769C47.8473 45.7673 47.8734 45.7411 48.083 45.7411C48.2925 45.7411 48.3187 45.715 48.3187 45.5054C48.3187 45.3087 48.35 45.2696 48.5077 45.2696C48.675 45.2696 48.703 45.2243 48.7508 44.8766C48.7986 44.5289 48.8266 44.4837 48.9939 44.4837C49.1516 44.4837 49.1829 44.4445 49.1829 44.2479C49.1829 44.0488 49.2135 44.0121 49.3793 44.0121C49.5365 44.0121 49.5757 43.9728 49.5757 43.8156C49.5757 43.6497 49.6124 43.6191 49.8114 43.6191C50.021 43.6191 50.0471 43.593 50.0471 43.3834C50.0471 43.186 50.0783 43.1476 50.2384 43.1476C50.3885 43.1476 50.4349 43.1012 50.4544 42.9314C50.4738 42.763 50.5259 42.7099 50.6905 42.6909C50.8539 42.672 50.9074 42.6185 50.9262 42.4551C50.9433 42.308 51.0024 42.2364 51.1207 42.2195C51.2599 42.1997 51.3004 42.1249 51.3441 41.8069C51.3908 41.4673 51.4206 41.4185 51.5813 41.4185C51.7234 41.4185 51.7708 41.3695 51.7901 41.2024C51.8096 41.0326 51.8613 40.9809 52.031 40.9614C52.2007 40.9419 52.247 40.8955 52.247 40.7453C52.247 40.5936 52.2877 40.554 52.4434 40.554C52.6093 40.554 52.6398 40.5173 52.6398 40.3182C52.6398 40.1086 52.666 40.0824 52.8755 40.0824C53.0851 40.0824 53.1113 40.0563 53.1113 39.8467C53.1113 39.6476 53.1418 39.6109 53.3077 39.6109C53.4648 39.6109 53.5041 39.5716 53.5041 39.4144C53.5041 39.2485 53.5408 39.2179 53.7398 39.2179C53.9731 39.2179 53.9755 39.2135 53.9755 38.7857C53.9755 38.3578 53.9778 38.3534 54.2112 38.3534C54.4102 38.3534 54.4469 38.3228 54.4469 38.1569C54.4469 37.9997 54.4862 37.9604 54.6433 37.9604C54.8092 37.9604 54.8397 37.9237 54.8397 37.7247C54.8397 37.515 54.8136 37.4889 54.604 37.4889C54.405 37.4889 54.3683 37.4583 54.3683 37.2924C54.3683 37.1352 54.329 37.0959 54.1719 37.0959C54.0078 37.0959 53.9755 37.0587 53.9755 36.8692C53.9755 36.6533 53.9548 36.6399 53.5434 36.5884C53.153 36.5397 53.1113 36.516 53.1113 36.3436C53.1113 36.1925 53.0704 36.1528 52.9148 36.1528C52.7577 36.1528 52.7184 36.1135 52.7184 35.9563C52.7184 35.7904 52.6817 35.7598 52.4827 35.7598C52.2732 35.7598 52.247 35.7337 52.247 35.524C52.247 35.3144 52.2209 35.2883 52.0113 35.2883C51.8123 35.2883 51.7756 35.2577 51.7756 35.0918C51.7756 34.9346 51.7363 34.8953 51.5792 34.8953C51.4133 34.8953 51.3828 34.8586 51.3828 34.6595C51.3828 34.4265 51.3778 34.4237 50.9558 34.4237C50.5486 34.4237 50.5278 34.4337 50.5041 34.6399ZM64.0321 38.7857V41.4185H86.2272H108.422V38.7857V36.1528H86.2272H64.0321V38.7857ZM87.0522 44.6801C87.0522 44.8733 87.0417 44.8766 86.4236 44.8766C85.8106 44.8766 85.7951 44.8813 85.7951 45.0674C85.7951 45.2398 85.7533 45.2635 85.363 45.3123C84.982 45.3599 84.9309 45.3874 84.9309 45.5447C84.9309 45.7019 84.8797 45.7294 84.4987 45.7771C84.1084 45.8258 84.0666 45.8495 84.0666 46.0219C84.0666 46.1815 84.0281 46.2127 83.8309 46.2127C83.6319 46.2127 83.5952 46.2433 83.5952 46.4092C83.5952 46.5664 83.5559 46.6057 83.3988 46.6057C83.233 46.6057 83.2024 46.6424 83.2024 46.8414C83.2024 47.0511 83.1762 47.0772 82.9667 47.0772C82.7571 47.0772 82.731 47.1034 82.731 47.313C82.731 47.5096 82.6996 47.5488 82.542 47.5488C82.3747 47.5488 82.3466 47.5941 82.2989 47.9417C82.2511 48.2894 82.2231 48.3347 82.0558 48.3347C81.8981 48.3347 81.8668 48.3739 81.8668 48.5705C81.8668 48.766 81.835 48.8063 81.681 48.8063C81.5196 48.8063 81.4888 48.8541 81.4453 49.1709C81.4178 49.3714 81.3953 49.6544 81.3953 49.7997C81.3953 50.0289 81.3695 50.0638 81.1989 50.0638H81.0025L80.9998 51.1837C80.9983 51.7996 80.9954 58.2895 80.9932 65.6055L80.9894 78.9074H80.5639C80.1434 78.9074 80.1383 78.9046 80.1383 78.6716C80.1383 78.462 80.1121 78.4358 79.9026 78.4358C79.693 78.4358 79.6669 78.4097 79.6669 78.2001C79.6669 78.001 79.6363 77.9643 79.4705 77.9643C79.3133 77.9643 79.274 77.925 79.274 77.7678C79.274 77.6019 79.2374 77.5713 79.0383 77.5713C78.8288 77.5713 78.8026 77.5451 78.8026 77.3355C78.8026 77.1365 78.7721 77.0998 78.6062 77.0998C78.4491 77.0998 78.4098 77.0605 78.4098 76.9033C78.4098 76.7374 78.3731 76.7068 78.1741 76.7068C77.9646 76.7068 77.9384 76.6806 77.9384 76.471C77.9384 76.2719 77.9078 76.2352 77.742 76.2352C77.5849 76.2352 77.5456 76.1959 77.5456 76.0388C77.5456 75.8728 77.5089 75.8423 77.3099 75.8423C77.1003 75.8423 77.0742 75.8161 77.0742 75.6065C77.0742 75.3969 77.048 75.3707 76.8385 75.3707C76.6395 75.3707 76.6028 75.3401 76.6028 75.1742C76.6028 75.017 76.5635 74.9778 76.4063 74.9778C76.2513 74.9778 76.2099 74.9379 76.2099 74.789C76.2099 74.6168 76.1687 74.5954 75.7385 74.5455C75.3084 74.4956 75.2671 74.4742 75.2671 74.302C75.2671 74.1214 75.2441 74.1132 74.7368 74.1124C73.9328 74.111 73.6172 74.0419 73.6172 73.8672C73.6172 73.7295 73.5337 73.7203 72.2816 73.7203C71.0295 73.7203 70.9459 73.7295 70.9459 73.8672C70.9459 74.0442 70.6298 74.1111 69.7871 74.1124C69.2321 74.1132 69.2175 74.1183 69.2175 74.3097C69.2175 74.4955 69.1939 74.5062 68.7854 74.5062C68.3576 74.5062 68.3532 74.5086 68.3532 74.742C68.3532 74.9754 68.3488 74.9778 67.9211 74.9778C67.5159 74.9778 67.489 74.9897 67.489 75.1686C67.489 75.3409 67.4472 75.3647 67.0569 75.4134C66.669 75.4619 66.6248 75.4866 66.6248 75.6548C66.6248 75.8107 66.5851 75.8423 66.3891 75.8423C66.1795 75.8423 66.1534 75.8684 66.1534 76.0781C66.1534 76.2771 66.1228 76.3138 65.9569 76.3138C65.7998 76.3138 65.7605 76.3531 65.7605 76.5103C65.7605 76.6762 65.7238 76.7068 65.5248 76.7068C65.2915 76.7068 65.2891 76.7112 65.2891 77.1391C65.2891 77.5446 65.2773 77.5713 65.0979 77.5713C64.9478 77.5713 64.9014 77.6177 64.8818 77.7875C64.8623 77.9572 64.8107 78.0089 64.6409 78.0284C64.4255 78.0533 64.4249 78.0551 64.4249 78.6768C64.4249 79.2895 64.4215 79.3004 64.2285 79.3004H64.0321V80.2042V81.108H64.2285C64.4142 81.108 64.4249 81.1316 64.4249 81.5403C64.4249 81.9456 64.4368 81.9725 64.6156 81.9725C64.7879 81.9725 64.8117 82.0143 64.8604 82.4048C64.9089 82.7928 64.9336 82.8371 65.1017 82.8371C65.2765 82.8371 65.2891 82.8662 65.2891 83.2693C65.2891 83.6746 65.3011 83.7016 65.4799 83.7016C65.6522 83.7016 65.6759 83.7434 65.7246 84.1338C65.7731 84.5219 65.7978 84.5661 65.966 84.5661C66.1407 84.5661 66.1534 84.5953 66.1534 84.9984C66.1534 85.4262 66.1557 85.4306 66.3891 85.4306C66.6224 85.4306 66.6248 85.435 66.6248 85.8629C66.6248 86.266 66.6374 86.2951 66.8121 86.2951C66.98 86.2951 67.005 86.3395 67.0529 86.7226C67.0978 87.0823 67.1335 87.1539 67.278 87.1745C67.426 87.1956 67.453 87.2559 67.4734 87.6116C67.495 87.9855 67.5145 88.0242 67.6818 88.0242C67.849 88.0242 67.8715 88.0688 67.9211 88.4958C67.971 88.926 67.9924 88.9673 68.1645 88.9673C68.3409 88.9673 68.3532 88.9956 68.3532 89.3996C68.3532 89.8049 68.3652 89.8318 68.544 89.8318C68.7163 89.8318 68.74 89.8736 68.7887 90.2641C68.8372 90.6521 68.862 90.6964 69.0301 90.6964C69.2048 90.6964 69.2175 90.7255 69.2175 91.1286C69.2175 91.5339 69.2294 91.5609 69.4082 91.5609C69.5805 91.5609 69.6043 91.6027 69.653 91.9931C69.7011 92.3781 69.7271 92.4254 69.8902 92.4254C70.0559 92.4254 70.0757 92.465 70.0973 92.838C70.1175 93.19 70.1456 93.2542 70.2882 93.2745C70.4702 93.3005 70.5506 93.5864 70.5522 94.2134C70.553 94.5128 70.5726 94.5474 70.7405 94.5474C70.9086 94.5474 70.9334 94.5917 70.9818 94.9797C71.0306 95.3701 71.0543 95.4119 71.2266 95.4119C71.4074 95.4119 71.4173 95.4366 71.4173 95.8835C71.4173 96.3304 71.4273 96.3551 71.6081 96.3551C71.7804 96.3551 71.8041 96.3969 71.8528 96.7873C71.9013 97.1753 71.9261 97.2196 72.0942 97.2196C72.2689 97.2196 72.2816 97.2487 72.2816 97.6518C72.2816 98.0571 72.2935 98.0841 72.4723 98.0841C72.6446 98.0841 72.6684 98.1259 72.7171 98.5164C72.7656 98.9044 72.7903 98.9486 72.9584 98.9486C73.1332 98.9486 73.1458 98.9778 73.1458 99.3809C73.1458 99.7862 73.1578 99.8131 73.3366 99.8131C73.5089 99.8131 73.5326 99.855 73.5813 100.245C73.6298 100.633 73.6545 100.678 73.8227 100.678C73.9974 100.678 74.0101 100.707 74.0101 101.11C74.0101 101.538 74.0124 101.542 74.2458 101.542C74.4791 101.542 74.4815 101.547 74.4815 101.974C74.4815 102.38 74.4932 102.407 74.6727 102.407C74.8228 102.407 74.8692 102.453 74.8888 102.623C74.9082 102.793 74.9599 102.844 75.1296 102.864C75.3328 102.887 75.3457 102.912 75.3457 103.276C75.3457 103.638 75.3591 103.664 75.5421 103.664C75.707 103.664 75.7385 103.701 75.7385 103.895C75.7385 104.088 75.7736 104.129 75.9546 104.15C76.1243 104.17 76.176 104.221 76.1955 104.391C76.2148 104.559 76.2619 104.607 76.4059 104.607C76.5719 104.607 76.5972 104.653 76.6454 105.04C76.6939 105.428 76.7187 105.472 76.8868 105.472C77.0329 105.472 77.0742 105.514 77.0742 105.663C77.0742 105.813 77.1205 105.86 77.2902 105.879C77.4599 105.899 77.5116 105.95 77.5311 106.12C77.5507 106.29 77.597 106.336 77.7472 106.336C77.9073 106.336 77.9384 106.375 77.9384 106.572C77.9384 106.782 77.9646 106.808 78.1741 106.808C78.3731 106.808 78.4098 106.839 78.4098 107.004C78.4098 107.162 78.4491 107.201 78.6062 107.201C78.7721 107.201 78.8026 107.238 78.8026 107.437C78.8026 107.646 78.8288 107.672 79.0383 107.672C79.2479 107.672 79.274 107.699 79.274 107.908C79.274 108.107 79.3046 108.144 79.4705 108.144C79.6276 108.144 79.6669 108.183 79.6669 108.34C79.6669 108.506 79.7036 108.537 79.9026 108.537C80.1016 108.537 80.1383 108.568 80.1383 108.733C80.1383 108.891 80.1776 108.93 80.3347 108.93C80.5005 108.93 80.5311 108.967 80.5311 109.166C80.5311 109.365 80.5617 109.401 80.7275 109.401C80.8877 109.401 80.9253 109.441 80.9311 109.618C80.935 109.737 80.9439 110.621 80.9507 111.582L80.9632 113.331H80.7916C80.663 113.331 80.6139 113.385 80.5952 113.547L80.5704 113.763L77.958 113.784L75.3457 113.805V123.402V133L75.6403 132.951C75.8024 132.924 86.9746 132.902 100.467 132.902L125 132.901V123.352V113.803H123.714H122.429L122.379 113.438C122.314 112.963 122.315 108.296 122.38 107.456C122.428 106.842 122.44 106.808 122.615 106.808C122.787 106.808 122.8 106.777 122.8 106.381C122.8 105.973 122.81 105.953 123.016 105.929C123.218 105.906 123.234 105.876 123.256 105.491C123.277 105.118 123.297 105.079 123.463 105.079C123.626 105.079 123.652 105.032 123.7 104.647C123.749 104.256 123.773 104.214 123.945 104.214C124.126 104.214 124.136 104.19 124.136 103.743C124.136 103.292 124.144 103.271 124.332 103.271C124.508 103.271 124.529 103.239 124.529 102.968C124.529 102.801 124.551 102.5 124.579 102.3C124.622 101.983 124.653 101.935 124.814 101.935H125V92.5826V83.23H124.81C124.624 83.23 124.619 83.2118 124.564 82.3655C124.51 81.524 124.503 81.501 124.322 81.501C124.149 81.501 124.136 81.4711 124.136 81.0687C124.136 80.6656 124.123 80.6364 123.948 80.6364C123.78 80.6364 123.755 80.5922 123.707 80.2042C123.658 79.8137 123.635 79.7719 123.462 79.7719C123.283 79.7719 123.272 79.745 123.272 79.3397C123.272 78.9118 123.269 78.9074 123.036 78.9074C122.826 78.9074 122.8 78.8812 122.8 78.6716C122.8 78.4759 122.768 78.4358 122.614 78.4358C122.45 78.4358 122.421 78.3892 122.376 78.0481C122.333 77.7262 122.295 77.6561 122.15 77.6355C122.027 77.6179 121.968 77.5484 121.951 77.3993C121.932 77.2359 121.878 77.1824 121.715 77.1635C121.55 77.1445 121.498 77.0914 121.479 76.9229C121.459 76.7532 121.413 76.7068 121.263 76.7068C121.114 76.7068 121.072 76.6655 121.072 76.5205C121.072 76.3562 121.025 76.3279 120.679 76.2819C120.331 76.2358 120.286 76.2082 120.286 76.041C120.286 75.8855 120.241 75.8479 120.031 75.8276C119.835 75.8087 119.769 75.7617 119.75 75.6261C119.732 75.4981 119.672 75.4493 119.534 75.4493C119.374 75.4493 119.343 75.4108 119.343 75.2135C119.343 74.9801 119.339 74.9778 118.911 74.9778C118.507 74.9778 118.479 74.9654 118.479 74.789C118.479 74.6168 118.438 74.5954 118.008 74.5455C117.577 74.4956 117.536 74.4742 117.536 74.302C117.536 74.1184 117.519 74.1132 116.908 74.1132C116.299 74.1132 116.279 74.1073 116.279 73.9274C116.279 73.766 116.231 73.7351 115.915 73.6917C115.714 73.6641 115.325 73.6417 115.05 73.6417C114.57 73.6417 114.551 73.6342 114.551 73.4452C114.551 73.2496 114.547 73.2487 113.815 73.2487C112.767 73.2487 112.351 73.1816 112.351 73.0125C112.351 72.838 112.011 72.7792 110.995 72.778C110.231 72.7771 110.229 72.7768 110.229 72.5807C110.229 72.3902 110.213 72.3842 109.69 72.3842C109.394 72.3842 108.987 72.3617 108.787 72.3342C108.47 72.2907 108.422 72.2598 108.422 72.0984V71.9126H107.322H106.223V71.7161C106.223 71.5213 106.217 71.5197 105.526 71.5197C105.143 71.5197 104.666 71.4972 104.466 71.4697C104.149 71.4262 104.101 71.3953 104.101 71.2339V71.0481H103.001H101.901V70.8632C101.901 70.6882 101.867 70.6757 101.253 70.6279C100.897 70.6002 100.419 70.5772 100.192 70.577C99.805 70.5765 99.78 70.5646 99.78 70.3801V70.1836L98.9747 70.1827C97.8759 70.1815 97.5947 70.1289 97.5647 69.9186C97.5481 69.8021 97.4753 69.7438 97.3248 69.7265L97.1087 69.7016V59.922V50.1424H96.92C96.7479 50.1424 96.7265 50.1011 96.6766 49.6708C96.6267 49.2405 96.6054 49.1992 96.4332 49.1992C96.2568 49.1992 96.2445 49.1709 96.2445 48.767C96.2445 48.3628 96.2322 48.3347 96.0555 48.3347C95.8882 48.3347 95.8602 48.2894 95.8124 47.9417C95.7646 47.5941 95.7366 47.5488 95.5693 47.5488C95.4116 47.5488 95.3803 47.5096 95.3803 47.313C95.3803 47.1034 95.3541 47.0772 95.1446 47.0772C94.935 47.0772 94.9089 47.0511 94.9089 46.8414C94.9089 46.6424 94.8783 46.6057 94.7124 46.6057C94.5553 46.6057 94.516 46.5664 94.516 46.4092C94.516 46.2433 94.4793 46.2127 94.2803 46.2127C94.0831 46.2127 94.0446 46.1815 94.0446 46.0219C94.0446 45.8495 94.0028 45.8258 93.6125 45.7771C93.2324 45.7295 93.1804 45.7017 93.1804 45.5458C93.1804 45.3927 93.1275 45.3614 92.7927 45.317C92.471 45.2743 92.4009 45.2359 92.3803 45.0907C92.3583 44.9365 92.3022 44.9132 91.9037 44.8923C91.483 44.8704 91.4519 44.8555 91.4519 44.6762V44.4837H89.252H87.0522V44.6801ZM64.0321 49.7101V52.343H69.2568H74.4815V52.5394C74.4815 52.6966 74.5207 52.7359 74.6779 52.7359H74.8743V49.9066V47.0772H69.4532H64.0321V49.7101ZM90.1163 49.8582C90.1163 50.0262 90.1606 50.0512 90.5437 50.099C90.9331 50.1478 90.9732 50.1712 90.9954 50.3635C91.0144 50.5279 91.0676 50.5801 91.2359 50.5994C91.439 50.6229 91.4519 50.6475 91.4519 51.0121C91.4519 51.3674 91.4675 51.3998 91.6376 51.3998C91.799 51.3998 91.8299 51.4476 91.8734 51.7645C91.9008 51.965 91.9233 57.0755 91.9233 63.1212V74.1132H92.1197C92.2769 74.1132 92.3162 74.1525 92.3162 74.3097V74.5062H93.4161H94.516V74.6924C94.516 74.9249 94.7648 74.9756 95.9106 74.9769L96.7159 74.9778V75.1742C96.7159 75.3703 96.7175 75.3707 97.4819 75.3716C98.541 75.3728 98.8229 75.4271 98.8526 75.6357C98.8755 75.7958 98.9227 75.8039 99.9568 75.8248L101.037 75.8467V76.041C101.037 76.2255 101.06 76.2352 101.497 76.2352C101.749 76.2352 102.227 76.2581 102.557 76.2861C103.122 76.3338 103.158 76.3482 103.158 76.5219C103.158 76.7053 103.166 76.7068 104.062 76.7068H104.965V76.9033C104.965 77.09 104.988 77.0998 105.417 77.1002C105.666 77.1005 106.161 77.1234 106.517 77.1512C107.129 77.1988 107.165 77.212 107.165 77.3843C107.165 77.5654 107.174 77.5671 108.246 77.5888C109.276 77.6096 109.327 77.6182 109.35 77.7761C109.371 77.9241 109.441 77.9469 110.017 77.9918C110.372 78.0194 110.847 78.0422 111.074 78.0424C111.462 78.0429 111.486 78.0548 111.486 78.2394V78.4358L112.292 78.4367C113.347 78.4378 113.686 78.495 113.686 78.6716C113.686 78.8245 114.017 78.905 114.649 78.9065C114.994 78.9073 115.022 78.922 115.022 79.1039C115.022 79.2897 115.046 79.3004 115.454 79.3004C115.882 79.3004 115.886 79.3027 115.886 79.5361C115.886 79.7696 115.891 79.7719 116.318 79.7719C116.727 79.7719 116.75 79.7826 116.75 79.9684C116.75 80.1256 116.79 80.1649 116.947 80.1649C117.113 80.1649 117.143 80.2016 117.143 80.4007C117.143 80.6103 117.169 80.6364 117.379 80.6364C117.576 80.6364 117.615 80.6676 117.615 80.8277C117.615 80.9779 117.661 81.0243 117.831 81.0439C118 81.0634 118.052 81.1151 118.072 81.2848C118.091 81.4546 118.138 81.501 118.288 81.501C118.448 81.501 118.479 81.5394 118.479 81.7368C118.479 81.934 118.51 81.9725 118.67 81.9725C118.842 81.9725 118.866 82.0143 118.914 82.4048C118.963 82.7928 118.988 82.8371 119.156 82.8371C119.339 82.8371 119.343 82.8536 119.343 83.5051C119.343 84.1653 119.345 84.1731 119.54 84.1731H119.736V92.4254V100.678H119.54C119.352 100.678 119.343 100.699 119.343 101.149C119.343 101.596 119.333 101.621 119.152 101.621C118.98 101.621 118.956 101.663 118.908 102.053C118.859 102.441 118.834 102.485 118.666 102.485C118.492 102.485 118.479 102.514 118.479 102.918C118.479 103.323 118.467 103.35 118.288 103.35C118.116 103.35 118.092 103.392 118.043 103.782C117.995 104.17 117.97 104.214 117.802 104.214C117.62 104.214 117.615 104.233 117.615 104.843C117.615 105.452 117.609 105.472 117.429 105.472C117.268 105.472 117.237 105.52 117.193 105.837C117.166 106.037 117.143 106.532 117.143 106.937C117.143 107.669 117.142 107.672 116.947 107.672H116.75V110.266V112.86H116.947C117.113 112.86 117.143 112.896 117.143 113.095C117.143 113.294 117.113 113.331 116.947 113.331C116.781 113.331 116.75 113.368 116.75 113.567V113.803L101.489 113.783L86.2272 113.763L86.2068 110.286L86.1863 106.808H85.9907C85.8257 106.808 85.7951 106.771 85.7951 106.572C85.7951 106.363 85.7689 106.336 85.5594 106.336C85.3621 106.336 85.3237 106.305 85.3237 106.145C85.3237 105.995 85.2773 105.949 85.1076 105.929C84.9538 105.911 84.8844 105.854 84.8667 105.729C84.8462 105.584 84.7761 105.546 84.4586 105.504C84.1186 105.458 84.0725 105.429 84.0513 105.246C84.0328 105.087 83.9782 105.034 83.8113 105.015C83.6416 104.995 83.5952 104.949 83.5952 104.799C83.5952 104.648 83.5542 104.607 83.404 104.607C83.2539 104.607 83.2075 104.561 83.1879 104.391C83.1685 104.221 83.1168 104.17 82.947 104.15C82.7773 104.131 82.731 104.084 82.731 103.934C82.731 103.784 82.69 103.743 82.5398 103.743C82.3896 103.743 82.3433 103.696 82.3237 103.527C82.3042 103.357 82.2525 103.305 82.0828 103.286C81.9019 103.265 81.8668 103.223 81.8668 103.03C81.8668 102.838 81.8349 102.8 81.673 102.8C81.4999 102.8 81.4738 102.758 81.4272 102.407C81.3813 102.06 81.353 102.014 81.1888 102.014C81.0342 102.014 81.0025 101.974 81.0025 101.778C81.0025 101.568 80.9764 101.542 80.7668 101.542C80.5573 101.542 80.5311 101.516 80.5311 101.306C80.5311 101.11 80.4998 101.071 80.3421 101.071C80.1748 101.071 80.1468 101.025 80.099 100.678C80.0512 100.33 80.0232 100.285 79.8559 100.285C79.6982 100.285 79.6669 100.246 79.6669 100.049C79.6669 99.8517 79.6357 99.8131 79.4761 99.8131C79.3038 99.8131 79.2801 99.7713 79.2314 99.3809C79.1829 98.9929 79.1582 98.9486 78.99 98.9486C78.8155 98.9486 78.8026 98.9192 78.8026 98.5216C78.8026 98.1141 78.7927 98.0934 78.5866 98.0696C78.4169 98.0502 78.3652 97.9984 78.3457 97.8287C78.3261 97.6589 78.2798 97.6125 78.1296 97.6125C77.9502 97.6125 77.9384 97.5858 77.9384 97.1803C77.9384 96.775 77.9265 96.748 77.7476 96.748C77.5753 96.748 77.5516 96.7062 77.5029 96.3158C77.4544 95.9277 77.4297 95.8835 77.2615 95.8835C77.0868 95.8835 77.0742 95.8543 77.0742 95.4512C77.0742 95.0489 77.0613 95.019 76.888 95.019C76.734 95.019 76.6935 94.9682 76.6532 94.7243C76.6264 94.5622 76.6041 94.2793 76.6036 94.0955C76.6028 93.7918 76.5849 93.7615 76.4063 93.7615C76.252 93.7615 76.2099 93.7216 76.2099 93.5748C76.2099 93.1551 76.1149 92.9058 75.9456 92.8816C75.7998 92.8608 75.7747 92.7985 75.7542 92.4058C75.7326 91.9913 75.7154 91.9538 75.5472 91.9538C75.3838 91.9538 75.3579 91.9067 75.3098 91.5216C75.2611 91.1311 75.2373 91.0893 75.0651 91.0893C74.8862 91.0893 74.8743 91.0624 74.8743 90.6571C74.8743 90.254 74.8616 90.2248 74.6869 90.2248C74.5188 90.2248 74.494 90.1806 74.4456 89.7925C74.3968 89.4021 74.3731 89.3603 74.2008 89.3603C74.022 89.3603 74.0101 89.3333 74.0101 88.928C74.0101 88.5249 73.9974 88.4958 73.8227 88.4958C73.6545 88.4958 73.6298 88.4515 73.5813 88.0635C73.5326 87.673 73.5089 87.6312 73.3366 87.6312C73.1578 87.6312 73.1458 87.6043 73.1458 87.199C73.1458 86.795 73.1335 86.7667 72.9571 86.7667C72.785 86.7667 72.7636 86.7254 72.7137 86.2951C72.6638 85.8649 72.6424 85.8236 72.4703 85.8236C72.2939 85.8236 72.2816 85.7953 72.2816 85.3913C72.2816 84.986 72.2696 84.9591 72.0908 84.9591C71.9185 84.9591 71.8948 84.9173 71.8461 84.5268C71.7976 84.1388 71.7729 84.0945 71.6047 84.0945C71.43 84.0945 71.4173 84.0654 71.4173 83.6623C71.4173 83.2344 71.415 83.23 71.1816 83.23C70.9483 83.23 70.9459 83.2256 70.9459 82.7978C70.9459 82.3891 70.9353 82.3655 70.7495 82.3655C70.5638 82.3655 70.5531 82.3419 70.5531 81.9332C70.5531 81.5054 70.5508 81.501 70.3174 81.501C70.0841 81.501 70.0817 81.4966 70.0817 81.0687C70.0817 80.66 70.071 80.6364 69.8853 80.6364C69.7194 80.6364 69.6889 80.5997 69.6889 80.4007C69.6889 80.2016 69.7194 80.1649 69.8853 80.1649C70.0424 80.1649 70.0817 80.1256 70.0817 79.9684C70.0817 79.8025 70.1184 79.7719 70.3174 79.7719C70.513 79.7719 70.5531 79.7403 70.5531 79.5857C70.5531 79.4316 70.6039 79.3911 70.8477 79.3508C71.0098 79.324 71.3103 79.3017 71.5156 79.3012C71.861 79.3004 71.8887 79.2857 71.8887 79.1039C71.8887 78.9205 71.9149 78.9074 72.2816 78.9074C72.6461 78.9074 72.6744 78.9213 72.6744 79.1C72.6744 79.2792 72.7055 79.2942 73.1262 79.3161C73.5538 79.3384 73.5793 79.3512 73.6028 79.5558C73.6223 79.7256 73.6687 79.7719 73.8188 79.7719C73.969 79.7719 74.0101 79.8129 74.0101 79.9632C74.0101 80.1134 74.0564 80.1598 74.2261 80.1793C74.3958 80.1988 74.4475 80.2506 74.467 80.4203C74.4863 80.5882 74.5334 80.6364 74.6779 80.6364C74.8224 80.6364 74.8694 80.6847 74.8888 80.8526C74.9082 81.0223 74.9599 81.0741 75.1296 81.0935C75.2993 81.1131 75.3457 81.1595 75.3457 81.3097C75.3457 81.46 75.3867 81.501 75.5369 81.501C75.6871 81.501 75.7334 81.5473 75.753 81.7171C75.7725 81.8869 75.8242 81.9386 75.9939 81.9581C76.1636 81.9776 76.2099 82.024 76.2099 82.1742C76.2099 82.3245 76.2509 82.3655 76.4012 82.3655C76.5513 82.3655 76.5977 82.4119 76.6172 82.5816C76.6367 82.7514 76.6884 82.8031 76.8581 82.8226C77.0278 82.8422 77.0742 82.8885 77.0742 83.0387C77.0742 83.189 77.1152 83.23 77.2654 83.23C77.4155 83.23 77.4619 83.2764 77.4815 83.4462C77.5009 83.6159 77.5526 83.6676 77.7223 83.6871C77.9033 83.7079 77.9384 83.7495 77.9384 83.9425C77.9384 84.1344 77.9705 84.1731 78.1293 84.1731C78.2676 84.1731 78.3272 84.2219 78.3454 84.35C78.3634 84.4766 78.4319 84.5339 78.5866 84.5516C78.7675 84.5725 78.8026 84.614 78.8026 84.8071C78.8026 85.0006 78.8341 85.0377 78.9991 85.0377C79.1562 85.0377 79.1955 85.077 79.1955 85.2341C79.1955 85.4001 79.2322 85.4306 79.4312 85.4306C79.6302 85.4306 79.6669 85.4612 79.6669 85.6271V85.8236H82.9273H86.1876L86.2074 68.6314L86.2272 51.4391L86.4433 51.4143C86.6242 51.3935 86.6593 51.3519 86.6593 51.1589C86.6593 50.9653 86.6908 50.9283 86.8558 50.9283C87.0129 50.9283 87.0522 50.889 87.0522 50.7318C87.0522 50.5659 87.0889 50.5353 87.2879 50.5353C87.4974 50.5353 87.5236 50.5091 87.5236 50.2995C87.5236 50.0899 87.5497 50.0638 87.7593 50.0638C87.9583 50.0638 87.995 50.0332 87.995 49.8673V49.6708H89.0556H90.1163V49.8582ZM64.0321 60.9882V63.5818L69.1585 63.5826C71.9782 63.5831 74.4177 63.6054 74.5797 63.6322L74.8743 63.6809V61.0378V58.3946H69.4532H64.0321V60.9882ZM16.9689 77.7875C16.9679 77.9064 16.9663 85.3599 16.9652 94.3509L16.9632 110.698H34.8212H52.6791L52.6743 110.482C52.6715 110.363 52.6627 102.91 52.6546 93.9187L52.6398 77.5713H34.8052H16.9705L16.9689 77.7875ZM23.0987 83.0335C23.0987 83.2169 23.1248 83.23 23.4915 83.23C23.8582 83.23 23.8843 83.2169 23.8843 83.0335V82.8371H24.7486H25.6128V83.0335C25.6128 83.1994 25.6495 83.23 25.8485 83.23C26.0475 83.23 26.0842 83.1994 26.0842 83.0335V82.8371H34.8052H43.5261V83.0335C43.5261 83.2193 43.5497 83.23 43.9582 83.23C44.3668 83.23 44.3903 83.2193 44.3903 83.0335C44.3903 82.8477 44.4139 82.8371 44.8224 82.8371C45.231 82.8371 45.2546 82.8477 45.2546 83.0335C45.2546 83.2193 45.2781 83.23 45.6867 83.23C46.0952 83.23 46.1188 83.2193 46.1188 83.0335C46.1188 82.8477 46.1424 82.8371 46.5509 82.8371C46.9595 82.8371 46.983 82.8477 46.983 83.0335C46.983 83.1994 47.0197 83.23 47.2187 83.23H47.4544V94.3509V105.472H34.8052H22.1559V94.3509V83.23H22.3916C22.5906 83.23 22.6273 83.1994 22.6273 83.0335C22.6273 82.8676 22.664 82.8371 22.863 82.8371C23.062 82.8371 23.0987 82.8676 23.0987 83.0335ZM119.736 123.352V127.714H100.134H80.5311L80.532 123.646C80.5324 121.409 80.5548 119.447 80.5815 119.285L80.6303 118.99H100.183H119.736V123.352Z" fill="#0BC481"/>
</svg>
