<svg width="142" height="170" viewBox="0 0 142 170" fill="none" xmlns="http://www.w3.org/2000/svg">
<path fill-rule="evenodd" clip-rule="evenodd" d="M68.2301 0.162524C68.2301 0.251912 67.8271 0.325048 67.3345 0.325048C66.8419 0.325048 66.4388 0.398184 66.4388 0.487572C66.4388 0.57696 66.1867 0.650096 65.8785 0.650096C65.5702 0.650096 65.2728 0.723231 65.2175 0.812619C65.1621 0.902008 64.952 0.975143 64.7504 0.975143C64.549 0.975143 64.2419 1.08257 64.0679 1.21373C63.8942 1.34505 63.6235 1.45475 63.4669 1.45751C63.3102 1.46044 63.1819 1.53585 63.1819 1.62524C63.1819 1.71463 63.0353 1.78776 62.8562 1.78776C62.6771 1.78776 62.5305 1.8609 62.5305 1.95029C62.5305 2.03967 62.3473 2.11281 62.1234 2.11281C61.8995 2.11281 61.7163 2.18595 61.7163 2.27533C61.7163 2.36472 61.5697 2.43786 61.3906 2.43786C61.2114 2.43786 61.0649 2.51099 61.0649 2.60038C61.0649 2.68977 60.9917 2.76291 60.9023 2.76291C60.7001 2.76291 59.1224 3.86937 58.7659 4.26121C58.621 4.42049 58.4567 4.55067 58.4007 4.55067C58.1519 4.55067 56.6569 5.97519 55.9352 6.89995C55.6665 7.24434 55.2818 7.69437 55.0802 7.89996C54.8786 8.10572 54.7138 8.38705 54.7138 8.52519C54.7138 8.66334 54.6495 8.77629 54.571 8.77629C54.4923 8.77629 54.2176 9.17837 53.9603 9.66985C53.703 10.1612 53.4376 10.5634 53.3703 10.5637C53.3031 10.5639 53.2482 10.7103 53.2482 10.8891C53.2482 11.0679 53.1749 11.2141 53.0853 11.2141C52.9958 11.2141 52.9225 11.397 52.9225 11.6205C52.9225 11.8439 52.8492 12.0268 52.7596 12.0268C52.6701 12.0268 52.5968 12.1609 52.5968 12.3247C52.5968 12.4887 52.5466 12.6728 52.4852 12.7341C52.1679 13.0508 51.6619 14.8963 51.5096 16.293C51.4634 16.7177 51.3592 17.065 51.2782 17.065C51.1968 17.065 51.1312 18.2253 51.1312 19.6654C51.1312 21.1216 51.1965 22.2658 51.2795 22.2658C51.3611 22.2658 51.4616 22.6862 51.5028 23.2003C51.544 23.7142 51.6539 24.3908 51.7472 24.7036C51.9887 25.5137 52.2916 26.3636 52.4558 26.6923C52.5333 26.8475 52.5968 27.1218 52.5968 27.3017C52.5968 27.4818 52.6701 27.6291 52.7596 27.6291C52.8492 27.6291 52.9225 27.7753 52.9225 27.9541C52.9225 28.1329 52.9958 28.2792 53.0853 28.2792C53.1749 28.2792 53.2482 28.462 53.2482 28.6855C53.2482 28.9089 53.3031 29.0919 53.3703 29.0921C53.4376 29.0924 53.703 29.4947 53.9603 29.986C54.2176 30.4775 54.4923 30.8795 54.571 30.8795C54.6495 30.8795 54.7138 30.9964 54.7138 31.1394C54.7138 31.2823 54.9185 31.5932 55.1685 31.8301C55.4186 32.0671 55.8399 32.553 56.1049 32.91C56.7116 33.7274 57.074 34.0887 57.8905 34.6906C58.2481 34.954 58.6593 35.3015 58.8041 35.4626C58.949 35.6235 59.1504 35.7553 59.2519 35.7553C59.3533 35.7553 59.4364 35.8284 59.4364 35.9178C59.4364 36.0072 59.5463 36.0803 59.6807 36.0803C59.815 36.0803 59.9249 36.1534 59.9249 36.2428C59.9249 36.3322 60.0034 36.4054 60.0993 36.4054C60.1954 36.4054 60.376 36.4969 60.5009 36.6085C61.0657 37.1141 61.2302 37.218 61.4651 37.218C61.6032 37.218 61.7163 37.2911 61.7163 37.3805C61.7163 37.4699 61.8995 37.543 62.1234 37.543C62.3473 37.543 62.5305 37.6162 62.5305 37.7055C62.5305 37.7949 62.6771 37.8681 62.8562 37.8681C63.0353 37.8681 63.1819 37.9412 63.1819 38.0306C63.1819 38.12 63.3172 38.1931 63.4825 38.1931C63.6479 38.1931 64.0075 38.3048 64.2816 38.4413C64.5558 38.5778 65.1533 38.7779 65.6094 38.886C66.0656 38.9942 66.4388 39.1385 66.4388 39.2068C66.4388 39.2749 66.9152 39.3308 67.4973 39.3308C68.0945 39.3308 68.5558 39.4016 68.5558 39.4933C68.5558 39.5944 69.4787 39.6558 70.9986 39.6558C72.5184 39.6558 73.4413 39.5944 73.4413 39.4933C73.4413 39.4039 73.8453 39.3308 74.3392 39.3308C74.833 39.3308 75.3643 39.2637 75.5198 39.1817C75.6754 39.0998 76.2422 38.9076 76.7796 38.7546C77.317 38.6015 77.8264 38.4127 77.9114 38.3347C77.9966 38.2568 78.2347 38.1931 78.4407 38.1931C78.6467 38.1931 78.8152 38.12 78.8152 38.0306C78.8152 37.9412 78.9618 37.8681 79.1409 37.8681C79.3201 37.8681 79.4666 37.7949 79.4666 37.7055C79.4666 37.6162 79.6498 37.543 79.8737 37.543C80.0976 37.543 80.2809 37.4699 80.2809 37.3805C80.2809 37.2911 80.4274 37.218 80.6065 37.218C80.7857 37.218 80.9322 37.1614 80.9322 37.0923C80.9322 37.0233 81.1887 36.8291 81.5022 36.6605C81.8157 36.492 82.0722 36.2926 82.0722 36.2173C82.0722 36.1419 82.1853 36.0803 82.3238 36.0803C82.4622 36.0803 82.747 35.9158 82.9566 35.7146C83.1662 35.5136 83.6085 35.1295 83.9397 34.8614C84.8399 34.1325 86.3062 32.6122 86.3062 32.4078C86.3062 32.3479 86.4352 32.1809 86.593 32.0362C86.9556 31.7039 87.628 30.7713 87.9247 30.1888C88.0501 29.9431 88.2135 29.7419 88.2879 29.7419C88.3623 29.7419 88.4232 29.5956 88.4232 29.4168C88.4232 29.238 88.4965 29.0918 88.5861 29.0918C88.6756 29.0918 88.7489 28.9089 88.7489 28.6855C88.7489 28.462 88.8222 28.2792 88.9118 28.2792C89.0013 28.2792 89.0746 28.1329 89.0746 27.9541C89.0746 27.7753 89.1306 27.6291 89.1992 27.6291C89.344 27.6291 89.8888 26.167 89.8888 25.7789C89.8888 25.6344 89.9621 25.5163 90.0517 25.5163C90.1413 25.5163 90.2145 25.2603 90.2145 24.9474C90.2145 24.6346 90.2878 24.3786 90.3774 24.3786C90.4692 24.3786 90.5402 23.9182 90.5402 23.3222C90.5402 22.7262 90.6112 22.2658 90.7031 22.2658C90.8047 22.2658 90.8659 21.3178 90.8659 19.7467C90.8659 18.1755 90.8047 17.2275 90.7031 17.2275C90.6125 17.2275 90.5402 16.7941 90.5402 16.2524C90.5402 15.7107 90.4679 15.2772 90.3774 15.2772C90.2878 15.2772 90.2145 15.0613 90.2145 14.7973C90.2145 14.5334 90.1321 14.1128 90.0313 13.8628C89.9307 13.6128 89.7887 13.2619 89.7159 13.0832C89.6431 12.9044 89.5374 12.5935 89.4809 12.3924C89.4246 12.1912 89.3101 12.0268 89.2265 12.0268C89.143 12.0268 89.0746 11.8439 89.0746 11.6205C89.0746 11.397 89.0013 11.2141 88.9118 11.2141C88.8222 11.2141 88.7489 11.0679 88.7489 10.8891C88.7489 10.7103 88.6756 10.5641 88.5861 10.5641C88.4965 10.5641 88.4232 10.4178 88.4232 10.239C88.4232 10.0602 88.3499 9.91396 88.2604 9.91396C88.1708 9.91396 88.0975 9.8392 88.0975 9.74802C88.0975 9.52601 87.2797 8.27458 86.9192 7.94466C86.7612 7.80001 86.6319 7.63293 86.6319 7.57313C86.6319 7.32235 83.5435 4.22562 83.2935 4.22562C83.2424 4.22562 83.0382 4.07675 82.8398 3.89472C82.3684 3.46208 81.2861 2.76291 81.0879 2.76291C81.0023 2.76291 80.9322 2.68977 80.9322 2.60038C80.9322 2.51099 80.7857 2.43786 80.6065 2.43786C80.4274 2.43786 80.2809 2.36472 80.2809 2.27533C80.2809 2.18595 80.1343 2.11281 79.9552 2.11281C79.776 2.11281 79.6295 2.03967 79.6295 1.95029C79.6295 1.8609 79.4463 1.78776 79.2223 1.78776C78.9984 1.78776 78.8152 1.71463 78.8152 1.62524C78.8152 1.53585 78.6827 1.46272 78.5206 1.46272C78.3586 1.46272 78.0839 1.35529 77.91 1.22413C77.7362 1.09281 77.3924 0.983107 77.146 0.980344C76.8997 0.977419 76.6982 0.902008 76.6982 0.812619C76.6982 0.723231 76.4417 0.650096 76.1282 0.650096C75.8148 0.650096 75.5583 0.57696 75.5583 0.487572C75.5583 0.397208 75.124 0.325048 74.5812 0.325048C74.0384 0.325048 73.6041 0.252887 73.6041 0.162524C73.6041 0.0607839 72.5998 0 70.9171 0C69.2344 0 68.2301 0.0607839 68.2301 0.162524ZM74.0519 5.93602C74.5222 5.99583 74.9069 6.1109 74.9069 6.19167C74.9069 6.27228 75.1267 6.33843 75.3954 6.33843C75.6641 6.33843 75.884 6.41157 75.884 6.50096C75.884 6.59034 76.0672 6.66348 76.2911 6.66348C76.515 6.66348 76.6985 6.71841 76.6989 6.78537C76.6992 6.85233 77.029 7.04249 77.4317 7.20777C77.8344 7.37306 78.1638 7.57426 78.1638 7.65471C78.1638 7.73532 78.2943 7.80115 78.4535 7.80115C78.613 7.80115 78.8489 7.94742 78.9781 8.12619C79.1072 8.30497 79.3034 8.45124 79.414 8.45124C79.6897 8.45124 82.3979 11.1371 82.3979 11.4105C82.3979 11.5312 82.5444 11.7354 82.7236 11.8642C82.9027 11.9931 83.0493 12.2286 83.0493 12.3877C83.0493 12.5467 83.1225 12.6769 83.2121 12.6769C83.3017 12.6769 83.375 12.7776 83.375 12.9008C83.375 13.0239 83.4849 13.2156 83.6192 13.327C83.7536 13.4383 83.8635 13.6666 83.8635 13.8344C83.8635 14.0022 83.9368 14.1396 84.0263 14.1396C84.1159 14.1396 84.1892 14.3224 84.1892 14.5459C84.1892 14.7694 84.2625 14.9522 84.352 14.9522C84.4416 14.9522 84.5149 15.1716 84.5149 15.4398C84.5149 15.7079 84.5812 15.9273 84.6619 15.9273C84.8914 15.9273 85.0352 17.4292 85.0352 19.8279C85.0352 22.2266 84.8914 23.7285 84.6619 23.7285C84.5812 23.7285 84.5149 23.9479 84.5149 24.2161C84.5149 24.4842 84.4416 24.7036 84.352 24.7036C84.2625 24.7036 84.1892 24.8865 84.1892 25.1099C84.1892 25.3334 84.1159 25.5163 84.0263 25.5163C83.9368 25.5163 83.8635 25.6625 83.8635 25.8413C83.8635 26.0201 83.7917 26.1663 83.7037 26.1663C83.616 26.1663 83.4981 26.3492 83.4419 26.5727C83.3857 26.7961 83.2743 26.979 83.1945 26.979C83.1146 26.979 83.0493 27.1091 83.0493 27.2681C83.0493 27.4272 82.9027 27.6627 82.7236 27.7916C82.5444 27.9205 82.3979 28.128 82.3979 28.253C82.3979 28.519 79.6671 31.2046 79.3966 31.2046C79.2955 31.2046 79.1072 31.3509 78.9781 31.5296C78.8489 31.7084 78.613 31.8547 78.4535 31.8547C78.2943 31.8547 78.1638 31.9129 78.1638 31.9839C78.1638 32.0549 77.8341 32.2488 77.431 32.4147C77.028 32.5805 76.6982 32.7785 76.6982 32.8544C76.6982 32.9303 76.5194 32.9924 76.3007 32.9924C76.082 32.9924 75.8579 33.0655 75.8025 33.1549C75.7472 33.2443 75.5231 33.3174 75.3044 33.3174C75.0857 33.3174 74.9069 33.3905 74.9069 33.4799C74.9069 33.5693 74.5038 33.6424 74.0112 33.6424C73.5186 33.6424 73.1156 33.7156 73.1156 33.805C73.1156 33.9049 72.3013 33.9675 70.9986 33.9675C69.6958 33.9675 68.8815 33.9049 68.8815 33.805C68.8815 33.7156 68.5151 33.6424 68.0673 33.6424C67.6195 33.6424 67.2531 33.5693 67.2531 33.4799C67.2531 33.3905 67.1247 33.3163 66.9681 33.315C66.4439 33.3104 63.9823 32.2503 63.8605 31.9766C63.8305 31.9095 63.6989 31.8547 63.568 31.8547C63.4371 31.8547 63.1467 31.6718 62.9228 31.4484C62.6989 31.2249 62.4539 31.0421 62.3785 31.0421C62.1997 31.0421 59.7621 28.6092 59.7621 28.4308C59.7621 28.3555 59.5789 28.1111 59.355 27.8876C59.131 27.6642 58.9478 27.3682 58.9478 27.2301C58.9478 27.0919 58.8746 26.979 58.785 26.979C58.6954 26.979 58.6222 26.9097 58.6222 26.8251C58.6222 26.7404 58.3762 26.1371 58.0758 25.4842C57.3661 23.9429 57.1565 23.2711 57.1565 22.5387C57.1565 22.2099 57.0832 21.9407 56.9937 21.9407C56.8935 21.9407 56.8308 21.1281 56.8308 19.8279C56.8308 18.5277 56.8935 17.7151 56.9937 17.7151C57.0832 17.7151 57.1565 17.3129 57.1565 16.8212C57.1565 16.3296 57.2298 15.9273 57.3194 15.9273C57.4089 15.9273 57.4822 15.785 57.4822 15.6109C57.4822 15.2621 58.6215 12.7903 58.8221 12.704C58.8913 12.6741 58.9478 12.5257 58.9478 12.3741C58.9478 12.2226 59.0944 11.9931 59.2735 11.8642C59.4527 11.7354 59.5992 11.5459 59.5992 11.4433C59.5992 11.18 62.3077 8.45124 62.5689 8.45124C62.6875 8.45124 62.8899 8.30497 63.019 8.12619C63.1482 7.94742 63.3841 7.80115 63.5436 7.80115C63.7028 7.80115 63.8333 7.74296 63.8333 7.67194C63.8333 7.60092 64.163 7.40703 64.5661 7.24109C64.9691 7.07532 65.2989 6.87736 65.2989 6.80146C65.2989 6.72556 65.4821 6.66348 65.706 6.66348C65.9299 6.66348 66.1131 6.59034 66.1131 6.50096C66.1131 6.41157 66.333 6.33843 66.6017 6.33843C66.8704 6.33843 67.0902 6.2653 67.0902 6.17591C67.0902 6.08652 67.4017 6.01225 67.7823 6.01095C68.1629 6.00948 68.5843 5.93537 68.7187 5.84598C68.9722 5.67745 72.4842 5.73677 74.0519 5.93602ZM13.1877 11.5392C13.1877 11.6286 13.0412 11.7017 12.862 11.7017C12.6829 11.7017 12.5363 11.7749 12.5363 11.8642C12.5363 11.9536 12.4326 12.0268 12.3058 12.0268C12.1789 12.0268 11.9778 12.2462 11.8589 12.5143C11.7399 12.7825 11.5873 13.0019 11.5195 13.0019C11.4518 13.0019 11.3964 13.1116 11.3964 13.2457C11.3964 13.3798 11.328 13.4895 11.2445 13.4895C11.1609 13.4895 11.0482 13.6291 10.994 13.7996C10.9398 13.9702 10.6796 14.3541 10.4157 14.6528C10.1519 14.9515 9.93486 15.2712 9.93339 15.3632C9.93193 15.4552 9.78422 15.6359 9.60509 15.7648C9.42596 15.8937 9.2794 16.1292 9.2794 16.2883C9.2794 16.4473 9.22191 16.5774 9.15172 16.5774C9.08137 16.5774 8.88514 16.8152 8.71546 17.1056C8.54577 17.3961 8.27349 17.7522 8.11031 17.8966C7.94714 18.0413 7.81377 18.2423 7.81377 18.3436C7.81377 18.4448 7.74049 18.5277 7.65092 18.5277C7.56136 18.5277 7.48807 18.64 7.48807 18.7774C7.48807 18.9145 7.33825 19.1889 7.15521 19.3868C6.45122 20.1479 6.02277 20.7298 6.02261 20.925C6.02261 21.0368 5.94917 21.1281 5.8596 21.1281C5.77003 21.1281 5.69675 21.2217 5.69675 21.336C5.69675 21.4504 5.55019 21.6493 5.37106 21.7782C5.19193 21.9071 5.04536 22.1426 5.04536 22.3017C5.04536 22.4606 4.98788 22.5908 4.91769 22.5908C4.84734 22.5908 4.65111 22.8286 4.48142 23.119C4.31174 23.4095 4.03946 23.7655 3.87628 23.91C3.71311 24.0547 3.57974 24.2609 3.57974 24.3687C3.57974 24.4763 3.48805 24.6567 3.37618 24.7696C3.2643 24.8826 3.02606 25.178 2.84692 25.4262C2.66779 25.6742 2.42971 25.9738 2.31767 26.0914C2.20563 26.2093 2.11411 26.384 2.11411 26.4799C2.11411 26.5756 2.04083 26.6539 1.95126 26.6539C1.8617 26.6539 1.78842 26.7734 1.78842 26.9193C1.78842 27.0653 1.6596 27.3029 1.50213 27.4475C1.10267 27.8142 0.32279 28.9879 0.32279 29.2224C0.32279 29.3294 0.249509 29.4168 0.159943 29.4168C-0.0761859 29.4168 -0.0410108 31.333 0.200655 31.6364C0.417242 31.9082 1.3072 32.7879 1.90469 33.3208C2.10304 33.4978 2.37792 33.6424 2.51537 33.6424C2.65297 33.6424 2.7655 33.7156 2.7655 33.805C2.7655 33.8944 2.84855 33.9675 2.95001 33.9675C3.05146 33.9675 3.2529 34.1006 3.39784 34.2635C3.54261 34.4263 3.89941 34.698 4.19042 34.8674C4.48159 35.0367 4.71967 35.2326 4.71967 35.3028C4.71967 35.3728 4.83285 35.4302 4.97127 35.4302C5.10969 35.4302 5.39597 35.6028 5.60735 35.8138C5.81873 36.0247 6.25499 36.3598 6.57694 36.5584C6.89889 36.7569 7.16238 36.9865 7.16238 37.0688C7.16238 37.1508 7.29282 37.218 7.45209 37.218C7.61151 37.218 7.84748 37.3642 7.97662 37.543C8.10575 37.7218 8.30508 37.8681 8.41972 37.8681C8.5342 37.8681 8.62801 37.9412 8.62801 38.0306C8.62801 38.12 8.74118 38.1931 8.8796 38.1931C9.01802 38.1931 9.30773 38.3576 9.52318 38.5588C10.1083 39.1047 10.3947 39.3308 10.5012 39.3308C10.5538 39.3308 10.7768 39.5104 10.9966 39.7298C11.2894 40.0218 11.3964 40.3048 11.3964 40.7862C11.3964 41.1478 11.3231 41.4436 11.2336 41.4436C11.144 41.4436 11.0707 41.623 11.0707 41.8423C11.0707 42.0615 11.0048 42.409 10.924 42.6143C10.5932 43.4563 10.2565 44.7607 10.2565 45.2003C10.2565 45.4583 10.1832 45.6692 10.0936 45.6692C10.0041 45.6692 9.93078 45.9983 9.93078 46.4006C9.93078 46.8028 9.8575 47.1319 9.76794 47.1319C9.67739 47.1319 9.60509 47.5654 9.60509 48.1071C9.60509 48.6488 9.53279 49.0822 9.44224 49.0822C9.34926 49.0822 9.2794 49.5698 9.2794 50.2199C9.2794 50.8456 9.21637 51.3576 9.13951 51.3576C8.81023 51.3576 8.46467 59.074 8.6526 62.2265C8.93497 66.9602 8.99327 67.6099 9.13641 67.6099C9.21507 67.6099 9.2794 68.1585 9.2794 68.8289C9.2794 69.5331 9.34812 70.0478 9.44224 70.0478C9.53181 70.0478 9.60509 70.45 9.60509 70.9417C9.60509 71.4333 9.67837 71.8356 9.76794 71.8356C9.8575 71.8356 9.93078 72.1603 9.93078 72.5573C9.93078 72.9544 9.99592 73.3192 10.0757 73.3685C10.1554 73.4176 10.2592 73.6961 10.3066 73.9875C10.354 74.2788 10.5162 74.956 10.6669 75.4923C10.8177 76.0287 10.9782 76.7051 11.0237 76.9957C11.0691 77.2861 11.1717 77.5239 11.2513 77.5239C11.3311 77.5239 11.3964 77.7799 11.3964 78.0927C11.3964 78.4056 11.4697 78.6616 11.5593 78.6616C11.6488 78.6616 11.7221 78.881 11.7221 79.1491C11.7221 79.4173 11.7954 79.6367 11.885 79.6367C11.9745 79.6367 12.0478 79.7739 12.0478 79.9416C12.0478 80.1092 12.231 80.6598 12.4549 81.1651C12.6788 81.6704 12.862 82.1914 12.862 82.3231C12.862 82.4545 12.9353 82.5621 13.0249 82.5621C13.1145 82.5621 13.1877 82.7815 13.1877 83.0497C13.1877 83.3179 13.261 83.5373 13.3506 83.5373C13.4401 83.5373 13.5134 83.6836 13.5134 83.8623C13.5134 84.0411 13.5867 84.1874 13.6763 84.1874C13.7658 84.1874 13.8391 84.3702 13.8391 84.5937C13.8391 84.8172 13.9124 85 14.002 85C14.0915 85 14.1645 85.0915 14.1642 85.2032C14.1632 85.459 15.3433 87.8252 15.5083 87.8983C15.5754 87.9282 15.6304 88.0927 15.6304 88.264C15.6304 88.4354 15.7037 88.5755 15.7933 88.5755C15.8829 88.5755 15.9561 88.7218 15.9561 88.9006C15.9561 89.0793 16.0221 89.2256 16.1029 89.2256C16.1835 89.2256 16.3851 89.5544 16.5507 89.9563C16.7163 90.3582 16.9068 90.6874 16.9739 90.6877C17.041 90.688 17.0961 90.8268 17.0961 90.996C17.0961 91.1652 17.199 91.343 17.3247 91.3913C17.6177 91.5034 18.236 91.3444 18.236 91.1569C18.236 91.0781 18.3826 91.0134 18.5617 91.0134C18.7408 91.0134 18.8874 90.9451 18.8874 90.8617C18.8874 90.7784 19.0335 90.664 19.2121 90.6074C19.3908 90.5508 19.6288 90.4169 19.7414 90.31C20.0941 89.9742 20.8209 89.5507 21.0441 89.5507C21.1619 89.5507 21.3638 89.4044 21.4929 89.2256C21.6221 89.0468 21.8659 88.9006 22.0349 88.9006C22.2635 88.9006 22.3121 88.8279 22.2248 88.6162C22.1601 88.4598 22.0706 88.2037 22.0255 88.0473C21.9804 87.891 21.8787 87.7629 21.7996 87.7629C21.7206 87.7629 21.6558 87.6166 21.6558 87.4379C21.6558 87.2591 21.5825 87.1128 21.4929 87.1128C21.4034 87.1128 21.3301 87.0031 21.3301 86.869C21.3301 86.7349 21.2751 86.6246 21.208 86.6239C21.0617 86.6225 20.6787 85.8354 20.6787 85.5365C20.6787 85.4201 20.6128 85.325 20.532 85.325C20.4514 85.325 20.2498 84.9963 20.0842 84.5943C19.9185 84.1924 19.728 83.8633 19.6609 83.863C19.5938 83.8627 19.5388 83.7161 19.5388 83.5373C19.5388 83.3585 19.4655 83.2122 19.3759 83.2122C19.2864 83.2122 19.2131 82.9928 19.2131 82.7247C19.2131 82.4565 19.1398 82.2371 19.0502 82.2371C18.9607 82.2371 18.8874 82.0856 18.8874 81.9005C18.8874 81.7152 18.7775 81.4541 18.6431 81.32C18.5088 81.1859 18.3988 80.9395 18.3988 80.7724C18.3988 80.6052 18.3256 80.4233 18.236 80.3681C18.1464 80.3128 18.0732 80.1257 18.0732 79.9522C18.0732 79.7786 17.9999 79.6367 17.9103 79.6367C17.8207 79.6367 17.7475 79.4173 17.7475 79.1491C17.7475 78.881 17.6742 78.6616 17.5846 78.6616C17.495 78.6616 17.4218 78.4422 17.4218 78.174C17.4218 77.9058 17.3485 77.6864 17.2589 77.6864C17.1694 77.6864 17.0961 77.5436 17.0961 77.369C17.0961 77.1945 17.0295 76.8836 16.948 76.6783C16.8665 76.473 16.679 75.8662 16.5313 75.3298C16.3836 74.7935 16.1937 74.2278 16.1094 74.0725C16.0252 73.9173 15.9561 73.5742 15.9561 73.3101C15.9561 73.046 15.8829 72.7847 15.7933 72.7294C15.7037 72.6742 15.6304 72.3043 15.6304 71.9072C15.6304 71.5102 15.5642 71.1855 15.4834 71.1855C15.4025 71.1855 15.295 70.8382 15.2448 70.4135C15.1945 69.9888 15.0803 69.1661 14.9911 68.5851C14.4014 64.7479 14.2858 63.2798 14.2804 59.565C14.2751 55.8005 14.3567 54.7589 14.9984 50.3824C15.0836 49.8014 15.1945 48.9787 15.2448 48.554C15.295 48.1293 15.4025 47.782 15.4834 47.782C15.5642 47.782 15.6304 47.4573 15.6304 47.0603C15.6304 46.6632 15.7037 46.2933 15.7933 46.238C15.8829 46.1828 15.9561 45.9432 15.9561 45.7056C15.9561 45.0711 16.453 43.8815 16.7179 43.8815C16.844 43.8815 17.0355 43.956 17.1436 44.0472C17.9764 44.7488 18.341 45.019 18.7086 45.2068C18.9413 45.3258 19.2502 45.5517 19.395 45.7087C19.5399 45.8657 19.7282 45.9943 19.8135 45.9943C19.8988 45.9943 20.2136 46.2125 20.5129 46.4792C20.8124 46.7459 21.192 47.0069 21.3565 47.0591C21.5211 47.1111 21.6558 47.222 21.6558 47.3053C21.6558 47.3887 21.7657 47.457 21.9001 47.457C22.0344 47.457 22.1443 47.5301 22.1443 47.6195C22.1443 47.7089 22.2543 47.782 22.3886 47.782C22.523 47.782 22.6329 47.8552 22.6329 47.9445C22.6329 48.0339 22.7094 48.1071 22.8031 48.1071C22.8967 48.1071 23.1498 48.2715 23.3652 48.4728C24.0185 49.0824 24.2399 49.2447 24.4174 49.2447C24.5107 49.2447 24.587 49.3179 24.587 49.4073C24.587 49.4967 24.6968 49.5698 24.831 49.5698C24.965 49.5698 25.3467 49.8258 25.6791 50.1386C26.0115 50.4515 26.3619 50.7075 26.4578 50.7075C26.5538 50.7075 26.7378 50.8537 26.8669 51.0325C26.996 51.2113 27.2159 51.3576 27.3555 51.3576C27.495 51.3576 27.7149 51.5038 27.844 51.6826C27.9731 51.8614 28.1389 52.0076 28.2125 52.0076C28.2861 52.0076 28.4348 52.0822 28.5429 52.1734C29.4495 52.9371 29.7441 53.145 29.9203 53.1452C30.0323 53.1452 30.1239 53.2184 30.1239 53.3078C30.1239 53.3972 30.2024 53.4704 30.2983 53.4704C30.3944 53.4704 30.5686 53.5617 30.6855 53.6735C30.8024 53.7853 31.0622 53.9864 31.2627 54.1205C31.4631 54.2545 31.7952 54.4923 32.0004 54.6487C32.2057 54.805 32.4376 54.9331 32.5156 54.9331C32.5936 54.9331 32.7631 55.0793 32.8923 55.2581C33.0214 55.4369 33.2025 55.5833 33.2947 55.5835C33.3868 55.5838 33.7187 55.8031 34.0322 56.0707C34.3457 56.3384 34.6538 56.5577 34.717 56.558C34.78 56.5582 35.0148 56.7412 35.2387 56.9646C35.4626 57.1881 35.7592 57.3709 35.8976 57.3709C36.036 57.3709 36.1492 57.4441 36.1492 57.5335C36.1492 57.6228 36.2251 57.696 36.3179 57.696C36.4106 57.696 36.6488 57.8455 36.8472 58.0282C37.6098 58.7308 38.1928 59.1584 38.3884 59.1585C38.5004 59.1585 38.5919 59.2318 38.5919 59.3212C38.5919 59.4106 38.675 59.4837 38.7764 59.4837C38.8779 59.4837 39.0793 59.6169 39.2243 59.7797C39.369 59.9426 39.7257 60.2143 40.0168 60.3836C40.308 60.553 40.5461 60.7488 40.5461 60.819C40.5461 60.8891 40.6765 60.9465 40.8358 60.9465C40.9952 60.9465 41.2312 61.0927 41.3603 61.2715C41.4895 61.4503 41.6552 61.5966 41.7289 61.5966C41.8025 61.5966 41.9511 61.671 42.0593 61.7622C42.8053 62.3898 43.0544 62.5717 43.1692 62.5717C43.2409 62.5717 43.4829 62.7545 43.7068 62.978C43.9307 63.2015 44.1906 63.3843 44.2843 63.3843C44.3779 63.3843 44.4544 63.4575 44.4544 63.5468C44.4544 63.6362 44.5676 63.7094 44.706 63.7094C44.8445 63.7094 45.1342 63.8738 45.3496 64.075C45.9759 64.6595 46.2228 64.847 46.3658 64.847C46.4394 64.847 46.6052 64.9933 46.7343 65.1721C46.8634 65.3509 47.0634 65.4971 47.1787 65.4971C47.2942 65.4971 47.6086 65.6928 47.8775 65.9319L48.3665 66.3668L48.3204 79.6245C48.2779 91.9003 48.2525 92.9546 47.9781 93.8575C47.8153 94.3939 47.6441 95.1074 47.598 95.4431C47.5518 95.7789 47.4485 96.094 47.3684 96.1434C47.2883 96.1929 47.2228 96.5215 47.2228 96.8738C47.2228 97.2262 47.1496 97.5143 47.06 97.5143C46.9704 97.5143 46.8971 97.8069 46.8971 98.1644C46.8971 98.522 46.8239 98.8145 46.7343 98.8145C46.6447 98.8145 46.5714 99.1315 46.5714 99.5187C46.5714 99.9062 46.5211 100.273 46.4596 100.335C46.3119 100.482 45.7785 102.533 45.7667 103C45.7614 103.201 45.6839 103.365 45.5944 103.365C45.5048 103.365 45.4315 103.694 45.4315 104.097C45.4315 104.499 45.3582 104.828 45.2687 104.828C45.1791 104.828 45.1058 105.12 45.1058 105.478C45.1058 105.836 45.0325 106.128 44.943 106.128C44.8534 106.128 44.7801 106.416 44.7801 106.769C44.7801 107.121 44.7147 107.45 44.6345 107.499C44.5544 107.548 44.4492 107.864 44.4009 108.199C44.2481 109.26 43.9066 110.516 43.771 110.516C43.699 110.516 43.6402 110.804 43.6402 111.157C43.6402 111.509 43.5669 111.842 43.4773 111.898C43.3878 111.953 43.3145 112.286 43.3145 112.639C43.3145 112.991 43.2412 113.279 43.1517 113.279C43.0621 113.279 42.9888 113.608 42.9888 114.011C42.9888 114.413 42.9155 114.742 42.826 114.742C42.7364 114.742 42.6631 114.938 42.6631 115.177C42.6631 115.417 42.5949 115.837 42.5117 116.112C42.4283 116.386 42.2384 117.05 42.0896 117.586C41.9407 118.122 41.7523 118.786 41.671 119.06C41.5898 119.335 41.5232 119.755 41.5232 119.995C41.5232 120.234 41.4499 120.43 41.3603 120.43C41.2708 120.43 41.1975 120.759 41.1975 121.162C41.1975 121.564 41.1242 121.893 41.0346 121.893C40.9451 121.893 40.8718 122.185 40.8718 122.543C40.8718 122.901 40.8062 123.193 40.726 123.193C40.6459 123.193 40.5441 123.467 40.4998 123.803C40.4555 124.138 40.2947 124.851 40.1422 125.387C39.9898 125.924 39.8274 126.637 39.7814 126.973C39.7351 127.309 39.6319 127.624 39.5517 127.673C39.4716 127.722 39.4062 128.051 39.4062 128.403C39.4062 128.756 39.3329 129.044 39.2433 129.044C39.1537 129.044 39.0805 129.337 39.0805 129.694C39.0805 130.052 39.0072 130.344 38.9176 130.344C38.8281 130.344 38.7548 130.632 38.7548 130.985C38.7548 131.337 38.6896 131.665 38.6098 131.715C38.5302 131.764 38.4312 132.042 38.3898 132.334C38.2864 133.062 37.9324 134.429 37.7585 134.771C37.6795 134.926 37.6148 135.273 37.6148 135.543C37.6148 135.812 37.5416 136.033 37.452 136.033C37.3624 136.033 37.2891 136.362 37.2891 136.764C37.2891 137.166 37.2232 137.495 37.1427 137.495C37.0621 137.495 36.9576 137.806 36.9102 138.186C36.7599 139.393 35.9183 142.843 35.6418 143.384C35.5626 143.54 35.4978 143.924 35.4978 144.238C35.4978 144.552 35.4245 144.809 35.335 144.809C35.2454 144.809 35.1721 145.138 35.1721 145.54C35.1721 145.942 35.0988 146.272 35.0093 146.272C34.9197 146.272 34.8464 146.523 34.8464 146.831C34.8464 147.138 34.781 147.43 34.7008 147.48C34.6207 147.529 34.5175 147.844 34.4716 148.18C34.3698 148.923 34.0459 150.151 33.8501 150.535C33.7711 150.691 33.7065 151.075 33.7065 151.389C33.7065 151.703 33.6332 151.96 33.5437 151.96C33.4541 151.96 33.3808 152.252 33.3808 152.61C33.3808 152.967 33.3075 153.26 33.218 153.26C33.1284 153.26 33.0551 153.589 33.0551 153.991C33.0551 154.394 32.9895 154.723 32.9094 154.723C32.8292 154.723 32.726 154.997 32.6799 155.332C32.6338 155.667 32.4721 156.38 32.3205 156.917C32.1689 157.453 32.0077 158.13 31.9621 158.422C31.9165 158.713 31.8141 158.992 31.7344 159.041C31.6546 159.09 31.5895 159.418 31.5895 159.771C31.5895 160.123 31.5162 160.411 31.4266 160.411C31.3348 160.411 31.2638 160.872 31.2638 161.467C31.2638 162.063 31.3348 162.524 31.4266 162.524C31.5162 162.524 31.5895 162.639 31.5895 162.78C31.5895 163.112 32.4654 163.987 32.7983 163.987C32.9395 163.987 33.0551 164.06 33.0551 164.149C33.0551 164.239 33.2706 164.312 33.534 164.312C33.7975 164.312 34.0583 164.385 34.1136 164.474C34.169 164.564 34.3906 164.637 34.6062 164.637C34.8218 164.637 35.2389 164.738 35.533 164.861C36.3697 165.212 37.1981 165.449 37.5857 165.449C37.7808 165.449 37.9405 165.522 37.9405 165.612C37.9405 165.701 38.197 165.774 38.5105 165.774C38.824 165.774 39.0805 165.848 39.0805 165.937C39.0805 166.026 39.3369 166.099 39.6504 166.099C39.9639 166.099 40.2204 166.173 40.2204 166.262C40.2204 166.351 40.3689 166.424 40.5505 166.424C40.8917 166.424 43.342 167.164 43.8415 167.418C43.997 167.497 44.3452 167.562 44.615 167.562C44.885 167.562 45.1058 167.635 45.1058 167.725C45.1058 167.814 45.3623 167.887 45.6758 167.887C45.9893 167.887 46.2458 167.96 46.2458 168.05C46.2458 168.139 46.4299 168.212 46.6552 168.212C46.8802 168.212 47.1917 168.278 47.3473 168.359C47.5028 168.439 48.0696 168.631 48.607 168.785C49.1444 168.939 49.7113 169.129 49.8668 169.208C50.0223 169.286 50.2972 169.35 50.4775 169.35C50.6579 169.35 50.8055 169.423 50.8055 169.512C50.8055 169.602 51.0986 169.675 51.4569 169.675C51.8151 169.675 52.1083 169.748 52.1083 169.837C52.1083 169.928 52.5426 170 53.0853 170C53.6281 170 54.0624 169.928 54.0624 169.837C54.0624 169.748 54.1795 169.675 54.3228 169.675C54.634 169.675 55.4455 168.84 55.8119 168.143C56.0653 167.661 56.2666 166.851 56.4514 165.57C56.4999 165.234 56.6051 164.919 56.6852 164.87C56.7654 164.821 56.8308 164.492 56.8308 164.14C56.8308 163.787 56.9041 163.499 56.9937 163.499C57.0832 163.499 57.1565 163.206 57.1565 162.849C57.1565 162.491 57.2298 162.199 57.3194 162.199C57.4089 162.199 57.4822 161.921 57.4822 161.581C57.4822 161.242 57.5498 160.894 57.6325 160.809C57.7835 160.654 58.0856 159.396 58.2452 158.258C58.2922 157.923 58.3963 157.648 58.4764 157.648C58.5565 157.648 58.6222 157.356 58.6222 156.998C58.6222 156.641 58.6954 156.348 58.785 156.348C58.8746 156.348 58.9478 156.019 58.9478 155.617C58.9478 155.214 59.0135 154.885 59.0936 154.885C59.1737 154.885 59.2748 154.611 59.3183 154.276C59.432 153.4 60.0549 150.954 60.2488 150.621C60.3394 150.466 60.4135 150.086 60.4135 149.778C60.4135 149.469 60.4868 149.171 60.5763 149.116C60.6659 149.06 60.7392 148.727 60.7392 148.375C60.7392 148.022 60.8124 147.734 60.902 147.734C60.9916 147.734 61.0649 147.446 61.0649 147.094C61.0649 146.741 61.1381 146.408 61.2277 146.353C61.3173 146.298 61.3906 146.015 61.3906 145.726C61.3906 145.436 61.45 145.129 61.5226 145.044C61.5953 144.959 61.7859 144.305 61.9462 143.59C62.1064 142.875 62.3035 142.122 62.3839 141.916C62.4645 141.711 62.5305 141.327 62.5305 141.063C62.5305 140.799 62.6038 140.583 62.6933 140.583C62.7829 140.583 62.8562 140.254 62.8562 139.852C62.8562 139.45 62.9295 139.12 63.019 139.12C63.1086 139.12 63.1819 138.828 63.1819 138.47C63.1819 138.113 63.2475 137.82 63.3276 137.82C63.4077 137.82 63.511 137.546 63.5571 137.211C63.6032 136.876 63.7655 136.163 63.9179 135.626C64.0704 135.09 64.2313 134.377 64.2756 134.042C64.3199 133.706 64.4216 133.432 64.5018 133.432C64.5819 133.432 64.6475 133.14 64.6475 132.782C64.6475 132.424 64.7208 132.132 64.8104 132.132C64.8999 132.132 64.9732 131.803 64.9732 131.401C64.9732 130.998 65.0465 130.669 65.136 130.669C65.2256 130.669 65.2989 130.473 65.2989 130.234C65.2989 129.994 65.3671 129.574 65.4503 129.299C65.5337 129.025 65.7236 128.361 65.8724 127.825C66.0213 127.289 66.2097 126.625 66.291 126.351C66.3722 126.076 66.4388 125.656 66.4388 125.416C66.4388 125.177 66.5121 124.981 66.6017 124.981C66.6912 124.981 66.7645 124.652 66.7645 124.25C66.7645 123.847 66.8378 123.518 66.9274 123.518C67.0169 123.518 67.0902 123.23 67.0902 122.878C67.0902 122.525 67.1554 122.197 67.2352 122.148C67.3148 122.099 67.4187 121.82 67.4661 121.529C67.5135 121.237 67.6703 120.524 67.8146 119.943C67.9588 119.362 68.121 118.612 68.1749 118.277C68.2288 117.942 68.3366 117.667 68.4145 117.667C68.4922 117.667 68.5558 117.338 68.5558 116.936C68.5558 116.534 68.6291 116.205 68.7187 116.205C68.8083 116.205 68.8815 115.875 68.8815 115.473C68.8815 115.071 68.9468 114.742 69.0266 114.742C69.1063 114.742 69.2089 114.504 69.2543 114.214C69.2997 113.923 69.4609 113.247 69.6126 112.71C69.7642 112.174 69.9259 111.461 69.972 111.126C70.018 110.791 70.1213 110.516 70.2014 110.516C70.2815 110.516 70.3472 110.187 70.3472 109.785C70.3472 109.383 70.4204 109.054 70.51 109.054C70.5996 109.054 70.6729 108.761 70.6729 108.403C70.6729 107.862 70.7271 107.753 70.9986 107.753C71.27 107.753 71.3242 107.862 71.3242 108.403C71.3242 108.761 71.3791 109.054 71.4464 109.054C71.5136 109.054 71.7022 109.657 71.8657 110.395C72.0291 111.132 72.2307 111.862 72.3135 112.017C72.3964 112.173 72.4642 112.557 72.4642 112.871C72.4642 113.185 72.5375 113.442 72.627 113.442C72.7166 113.442 72.7899 113.771 72.7899 114.173C72.7899 114.575 72.8632 114.904 72.9527 114.904C73.0423 114.904 73.1156 115.156 73.1156 115.464C73.1156 115.771 73.1888 116.068 73.2784 116.123C73.368 116.179 73.4413 116.396 73.4413 116.607C73.4413 117.096 73.8906 118.96 74.0979 119.331C74.1847 119.486 74.2555 119.87 74.2555 120.184C74.2555 120.498 74.3288 120.755 74.4183 120.755C74.5079 120.755 74.5812 121.084 74.5812 121.487C74.5812 121.889 74.6545 122.218 74.744 122.218C74.8336 122.218 74.9069 122.47 74.9069 122.777C74.9069 123.085 74.9723 123.377 75.0525 123.426C75.1326 123.476 75.2358 123.791 75.2821 124.127C75.3282 124.462 75.4899 125.176 75.6415 125.712C75.7931 126.249 75.9543 126.926 75.9999 127.217C76.0455 127.508 76.1479 127.787 76.2276 127.836C76.3074 127.885 76.3725 128.214 76.3725 128.566C76.3725 128.918 76.4458 129.206 76.5354 129.206C76.6249 129.206 76.6982 129.536 76.6982 129.938C76.6982 130.34 76.7715 130.669 76.8611 130.669C76.9506 130.669 77.0239 130.957 77.0239 131.31C77.0239 131.662 77.089 131.99 77.1688 132.04C77.2485 132.089 77.3509 132.367 77.3965 132.659C77.4421 132.95 77.6033 133.627 77.7549 134.163C77.9065 134.7 78.0682 135.413 78.1143 135.748C78.1604 136.083 78.2637 136.358 78.3438 136.358C78.4239 136.358 78.4895 136.687 78.4895 137.089C78.4895 137.491 78.5628 137.82 78.6524 137.82C78.7419 137.82 78.8152 138.113 78.8152 138.47C78.8152 138.828 78.8809 139.12 78.961 139.12C79.0411 139.12 79.1463 139.395 79.1947 139.73C79.3629 140.894 79.5681 141.815 79.7109 142.046C79.8537 142.277 80.0589 143.197 80.2271 144.362C80.2755 144.697 80.3807 144.971 80.4608 144.971C80.5409 144.971 80.6065 145.264 80.6065 145.621C80.6065 145.979 80.6798 146.272 80.7694 146.272C80.859 146.272 80.9322 146.601 80.9322 147.003C80.9322 147.405 81.0055 147.734 81.0951 147.734C81.1847 147.734 81.2579 147.882 81.2579 148.062C81.2579 148.417 81.6996 150.214 81.9163 150.741C82.0505 151.067 82.1769 151.681 82.3428 152.813C82.3918 153.148 82.4977 153.423 82.5778 153.423C82.6579 153.423 82.7236 153.752 82.7236 154.154C82.7236 154.556 82.7968 154.885 82.8864 154.885C82.976 154.885 83.0493 155.173 83.0493 155.526C83.0493 155.878 83.1144 156.206 83.1942 156.256C83.2738 156.305 83.3777 156.583 83.4251 156.875C83.4725 157.166 83.6358 157.843 83.7881 158.38C83.9404 158.916 84.1003 159.666 84.1434 160.045C84.1866 160.425 84.2879 160.736 84.3685 160.736C84.4489 160.736 84.5149 161.065 84.5149 161.467C84.5149 161.87 84.5882 162.199 84.6777 162.199C84.7673 162.199 84.8406 162.45 84.8406 162.758C84.8406 163.066 84.906 163.358 84.9862 163.407C85.0663 163.457 85.1681 163.772 85.2125 164.108C85.2568 164.443 85.4177 165.157 85.5701 165.693C85.7226 166.229 85.8849 166.943 85.931 167.278C85.9771 167.613 86.0803 167.887 86.1605 167.887C86.2406 167.887 86.3062 168.036 86.3062 168.218C86.3062 168.603 87.3199 169.675 87.685 169.675C87.8223 169.675 87.9347 169.748 87.9347 169.837C87.9347 169.928 88.369 170 88.9118 170C89.4545 170 89.8888 169.928 89.8888 169.837C89.8888 169.748 90.182 169.675 90.5402 169.675C90.8985 169.675 91.1916 169.602 91.1916 169.512C91.1916 169.423 91.3758 169.35 91.601 169.35C91.8261 169.35 92.1376 169.287 92.2931 169.209C92.8188 168.947 93.713 168.659 94.245 168.58C94.5362 168.537 94.7743 168.437 94.7743 168.357C94.7743 168.277 95.0308 168.212 95.3442 168.212C95.6577 168.212 95.9142 168.139 95.9142 168.05C95.9142 167.96 96.1707 167.887 96.4842 167.887C96.7976 167.887 97.0541 167.814 97.0541 167.725C97.0541 167.635 97.3473 167.562 97.7055 167.562C98.0638 167.562 98.3569 167.497 98.3569 167.418C98.3569 167.339 98.5584 167.236 98.8047 167.19C99.0511 167.143 99.6556 166.982 100.148 166.831C100.641 166.68 101.245 166.518 101.492 166.472C101.738 166.425 101.94 166.323 101.94 166.244C101.94 166.164 102.196 166.099 102.51 166.099C102.823 166.099 103.079 166.026 103.079 165.937C103.079 165.848 103.373 165.774 103.731 165.774C104.089 165.774 104.382 165.701 104.382 165.612C104.382 165.522 104.587 165.449 104.838 165.449C105.089 165.449 105.364 165.391 105.449 165.32C105.534 165.249 106.043 165.059 106.581 164.898C107.118 164.736 107.685 164.539 107.84 164.458C107.996 164.377 108.308 164.312 108.533 164.312C108.758 164.312 108.942 164.239 108.942 164.149C108.942 164.06 109.089 163.987 109.268 163.987C109.447 163.987 109.593 163.913 109.593 163.824C109.593 163.735 109.703 163.662 109.838 163.662C109.972 163.662 110.082 163.552 110.082 163.418C110.082 163.284 110.155 163.174 110.245 163.174C110.334 163.174 110.408 163.028 110.408 162.849C110.408 162.67 110.481 162.524 110.57 162.524C110.662 162.524 110.733 162.063 110.733 161.467C110.733 160.872 110.662 160.411 110.57 160.411C110.481 160.411 110.408 160.119 110.408 159.761C110.408 159.403 110.334 159.111 110.245 159.111C110.155 159.111 110.082 158.782 110.082 158.38C110.082 157.977 110.016 157.648 109.936 157.648C109.856 157.648 109.753 157.374 109.707 157.039C109.661 156.704 109.499 155.99 109.347 155.454C109.196 154.918 109.034 154.241 108.989 153.949C108.943 153.658 108.841 153.379 108.761 153.33C108.681 153.281 108.616 152.953 108.616 152.6C108.616 152.248 108.543 151.96 108.453 151.96C108.364 151.96 108.291 151.631 108.291 151.228C108.291 150.826 108.217 150.497 108.128 150.497C108.038 150.497 107.965 150.24 107.965 149.926C107.965 149.612 107.9 149.228 107.821 149.073C107.624 148.688 106.97 146.169 106.871 145.417C106.827 145.082 106.725 144.766 106.645 144.717C106.565 144.668 106.499 144.339 106.499 143.987C106.499 143.634 106.426 143.346 106.336 143.346C106.247 143.346 106.174 143.058 106.174 142.706C106.174 142.353 106.1 142.02 106.011 141.965C105.921 141.909 105.848 141.576 105.848 141.224C105.848 140.871 105.775 140.583 105.685 140.583C105.595 140.583 105.523 140.455 105.523 140.299C105.525 139.911 105.027 137.806 104.85 137.457C104.772 137.302 104.708 136.918 104.708 136.604C104.708 136.289 104.635 136.033 104.545 136.033C104.456 136.033 104.382 135.74 104.382 135.382C104.382 135.025 104.309 134.732 104.219 134.732C104.13 134.732 104.057 134.454 104.057 134.115C104.057 133.775 103.994 133.428 103.917 133.343C103.84 133.258 103.641 132.548 103.473 131.766C103.306 130.984 103.112 130.344 103.043 130.344C102.973 130.344 102.917 130.056 102.917 129.704C102.917 129.351 102.843 129.018 102.754 128.963C102.664 128.907 102.591 128.574 102.591 128.222C102.591 127.869 102.518 127.581 102.428 127.581C102.339 127.581 102.265 127.252 102.265 126.85C102.265 126.448 102.192 126.119 102.102 126.119C102.013 126.119 101.94 125.923 101.94 125.683C101.94 125.444 101.873 125.023 101.792 124.749C101.71 124.474 101.522 123.811 101.373 123.274C101.224 122.738 101.034 122.075 100.951 121.8C100.868 121.526 100.8 121.105 100.8 120.866C100.8 120.626 100.726 120.43 100.637 120.43C100.547 120.43 100.474 120.101 100.474 119.699C100.474 119.297 100.401 118.967 100.311 118.967C100.222 118.967 100.148 118.679 100.148 118.327C100.148 117.975 100.083 117.646 100.003 117.597C99.9237 117.548 99.8212 117.269 99.7756 116.978C99.73 116.687 99.5688 116.01 99.4172 115.473C99.2656 114.937 99.1039 114.224 99.0578 113.889C99.0117 113.553 98.9085 113.279 98.8284 113.279C98.7482 113.279 98.6826 112.95 98.6826 112.548C98.6826 112.146 98.6093 111.816 98.5198 111.816C98.4302 111.816 98.3569 111.524 98.3569 111.166C98.3569 110.809 98.2836 110.516 98.1941 110.516C98.1045 110.516 98.0312 110.259 98.0312 109.945C98.0312 109.631 97.9666 109.247 97.8876 109.092C97.6918 108.708 97.3679 107.48 97.2662 106.737C97.2202 106.401 97.117 106.086 97.0369 106.036C96.9567 105.987 96.8913 105.695 96.8913 105.387C96.8913 105.079 96.818 104.828 96.7284 104.828C96.6389 104.828 96.5656 104.499 96.5656 104.097C96.5656 103.694 96.4923 103.365 96.4027 103.365C96.3132 103.365 96.2399 103.087 96.2399 102.748C96.2399 102.408 96.1741 102.06 96.0937 101.976C96.0134 101.891 95.9101 101.529 95.8642 101.171C95.8184 100.814 95.6569 100.082 95.5053 99.5459C95.3537 99.0096 95.1925 98.3323 95.1469 98.0411C95.1013 97.7497 94.9988 97.4711 94.9192 97.422C94.8394 97.3728 94.7743 97.0445 94.7743 96.6921C94.7743 96.3398 94.701 96.0516 94.6114 96.0516C94.5219 96.0516 94.4486 95.7225 94.4486 95.3203C94.4486 94.918 94.3829 94.5889 94.3028 94.5889C93.9719 94.5889 93.9117 92.5939 93.8539 79.7531L93.7934 66.2987L94.195 65.8979C94.4158 65.6775 94.6785 65.4971 94.7785 65.4971C94.8785 65.4971 95.0529 65.4058 95.1661 65.294C95.2793 65.1823 95.5732 64.9445 95.8191 64.7658C96.0652 64.587 96.4156 64.3149 96.5982 64.1612C96.7807 64.0074 97.0678 63.8379 97.2364 63.7845C97.4047 63.7311 97.5427 63.6193 97.5427 63.536C97.5427 63.4526 97.6365 63.3843 97.751 63.3843C97.8656 63.3843 98.0649 63.238 98.1941 63.0593C98.3232 62.8805 98.4973 62.7342 98.581 62.7342C98.6648 62.7342 98.9734 62.5514 99.2671 62.3279C99.5607 62.1044 99.8628 61.9216 99.9386 61.9216C100.014 61.9216 100.182 61.7753 100.311 61.5966C100.44 61.4178 100.64 61.2715 100.754 61.2715C100.869 61.2715 100.962 61.1984 100.962 61.109C100.962 61.0196 101.054 60.9463 101.166 60.9463C101.362 60.9461 101.945 60.5185 102.707 59.8159C102.906 59.6333 103.18 59.4837 103.318 59.4837C103.455 59.4837 103.568 59.4106 103.568 59.3212C103.568 59.2318 103.651 59.1587 103.753 59.1587C103.854 59.1587 104.055 59.0256 104.2 58.8627C104.345 58.6999 104.702 58.4282 104.993 58.2588C105.284 58.0895 105.522 57.8936 105.522 57.8234C105.522 57.7534 105.632 57.696 105.766 57.696C105.901 57.696 106.011 57.6228 106.011 57.5335C106.011 57.4441 106.121 57.3709 106.255 57.3709C106.389 57.3709 106.501 57.3162 106.503 57.249C106.505 57.1819 106.834 56.9077 107.235 56.6396C107.636 56.3714 107.964 56.0972 107.965 56.0301C107.965 55.963 108.095 55.9082 108.255 55.9082C108.414 55.9082 108.65 55.7619 108.779 55.5832C108.908 55.4044 109.108 55.2581 109.222 55.2581C109.337 55.2581 109.431 55.185 109.431 55.0956C109.431 55.0062 109.543 54.9331 109.68 54.9331C109.817 54.9331 109.969 54.83 110.017 54.7042C110.066 54.5783 110.32 54.3865 110.582 54.2781C110.844 54.1697 111.059 54.0168 111.059 53.9383C111.059 53.8596 111.153 53.7954 111.267 53.7954C111.382 53.7954 111.581 53.6491 111.71 53.4704C111.84 53.2916 112.042 53.1453 112.161 53.1453C112.28 53.1453 112.553 52.9808 112.768 52.7796C113.395 52.1952 113.642 52.0076 113.785 52.0076C113.858 52.0076 114.024 51.8614 114.153 51.6826C114.282 51.5038 114.518 51.3576 114.678 51.3576C114.837 51.3576 114.967 51.3002 114.967 51.2301C114.967 51.1599 115.205 50.9641 115.497 50.7947C115.788 50.6254 116.144 50.3536 116.289 50.1908C116.434 50.0279 116.636 49.8948 116.737 49.8948C116.838 49.8948 116.922 49.8217 116.922 49.7323C116.922 49.6429 117.031 49.5698 117.166 49.5698C117.3 49.5698 117.41 49.4967 117.41 49.4073C117.41 49.3179 117.52 49.2447 117.654 49.2447C117.789 49.2447 117.899 49.1765 117.899 49.0931C117.899 49.0097 118.027 48.9004 118.184 48.8498C118.34 48.7993 118.703 48.5384 118.989 48.2701C119.275 48.0016 119.607 47.782 119.727 47.782C119.846 47.782 120.049 47.6358 120.178 47.457C120.308 47.2782 120.494 47.1319 120.592 47.1319C120.691 47.1319 121.017 46.9125 121.318 46.6444C121.619 46.3762 121.922 46.1568 121.992 46.1568C122.061 46.1568 122.286 45.9921 122.492 45.7911C122.697 45.5899 123.084 45.3157 123.352 45.1816C123.806 44.9539 124.334 44.5623 124.83 44.0846C124.946 43.973 125.192 43.8815 125.378 43.8815C125.629 43.8815 125.715 43.9851 125.715 44.2878C125.715 44.5112 125.789 44.6941 125.878 44.6941C125.968 44.6941 126.041 45.0232 126.041 45.4254C126.041 45.8277 126.107 46.1568 126.187 46.1568C126.268 46.1568 126.372 46.4677 126.419 46.8475C126.466 47.2273 126.581 47.9039 126.675 48.3509C127.52 52.3754 127.7 54.3316 127.699 59.4837C127.698 64.3473 127.482 66.7112 126.689 70.5354C126.587 71.027 126.466 71.7402 126.419 72.12C126.372 72.5 126.268 72.8107 126.187 72.8107C126.107 72.8107 126.041 73.1398 126.041 73.5421C126.041 73.9443 125.968 74.2734 125.878 74.2734C125.789 74.2734 125.715 74.5294 125.715 74.8423C125.715 75.1551 125.642 75.4111 125.552 75.4111C125.463 75.4111 125.387 75.6123 125.384 75.858C125.382 76.1038 125.272 76.447 125.14 76.6204C125.009 76.794 124.901 77.0692 124.901 77.2322C124.901 77.395 124.814 77.6676 124.707 77.8379C124.457 78.2385 124.775 78.6616 125.328 78.6616C125.541 78.6616 125.715 78.7347 125.715 78.8241C125.715 78.9135 125.935 78.9866 126.204 78.9866C126.473 78.9866 126.692 79.0597 126.692 79.1491C126.692 79.2385 126.949 79.3117 127.262 79.3117C127.576 79.3117 127.832 79.3848 127.832 79.4742C127.832 79.5636 127.971 79.6367 128.139 79.6367C128.308 79.6367 128.656 79.7459 128.913 79.8795C129.511 80.1906 129.949 80.1911 129.949 79.8805C129.949 79.7464 130.023 79.6367 130.112 79.6367C130.202 79.6367 130.275 79.4173 130.275 79.1491C130.275 78.881 130.348 78.6616 130.438 78.6616C130.527 78.6616 130.601 78.4778 130.601 78.253C130.601 78.0284 130.67 77.7175 130.754 77.5623C130.838 77.407 131.028 76.8413 131.176 76.305C131.324 75.7686 131.511 75.1618 131.593 74.9565C131.674 74.7512 131.741 74.3306 131.741 74.022C131.741 73.7134 131.814 73.4608 131.903 73.4608C131.993 73.4608 132.066 73.0951 132.066 72.6482C132.066 72.2012 132.133 71.8356 132.213 71.8356C132.294 71.8356 132.397 71.4881 132.442 71.0636C132.606 69.5042 132.868 67.7616 132.961 67.6112C133.186 67.2478 133.428 63.1825 133.434 59.6463C133.441 56.1271 133.188 51.7219 132.957 51.3499C132.858 51.1889 132.6 49.4861 132.448 47.9852C132.401 47.516 132.295 47.1319 132.214 47.1319C132.133 47.1319 132.066 46.7297 132.066 46.238C132.066 45.7464 131.993 45.3442 131.903 45.3442C131.814 45.3442 131.741 45.0926 131.741 44.7849C131.741 44.4773 131.667 44.1805 131.578 44.1252C131.488 44.07 131.415 43.8784 131.415 43.6993C131.415 43.3324 130.982 41.8356 130.752 41.4052C130.42 40.7852 130.697 39.6558 131.181 39.6558C131.244 39.6558 131.414 39.5204 131.559 39.3548C131.703 39.1892 132.06 38.9315 132.351 38.7818C132.642 38.6323 132.881 38.4385 132.881 38.3514C132.881 38.2643 132.99 38.1931 133.125 38.1931C133.259 38.1931 133.369 38.12 133.369 38.0306C133.369 37.9412 133.445 37.8681 133.539 37.8681C133.632 37.8681 133.866 37.7218 134.058 37.543C134.25 37.3642 134.504 37.218 134.621 37.218C134.739 37.218 134.835 37.1606 134.835 37.0906C134.835 37.0203 135.073 36.8245 135.364 36.6551C135.655 36.4858 136.012 36.2141 136.157 36.0512C136.301 35.8884 136.503 35.7553 136.604 35.7553C136.706 35.7553 136.789 35.6821 136.789 35.5927C136.789 35.5033 136.902 35.4302 137.04 35.4302C137.179 35.4302 137.469 35.2657 137.684 35.0645C138.31 34.4801 138.557 34.2925 138.7 34.2925C138.774 34.2925 138.94 34.1463 139.069 33.9675C139.198 33.7887 139.418 33.6424 139.557 33.6424C139.697 33.6424 139.917 33.4962 140.046 33.3174C140.175 33.1386 140.356 32.9912 140.448 32.9897C140.736 32.9854 141.674 32.0691 141.674 31.7926C141.674 31.648 141.748 31.5296 141.837 31.5296C141.929 31.5296 142 31.0692 142 30.4732C142 29.8773 141.929 29.4168 141.837 29.4168C141.748 29.4168 141.674 29.2889 141.674 29.1324C141.674 28.9759 141.509 28.6496 141.308 28.4071C140.41 27.3258 140.213 27.0476 140.211 26.8571C140.21 26.7454 140.135 26.6539 140.046 26.6539C139.956 26.6539 139.883 26.5442 139.883 26.4101C139.883 26.2761 139.815 26.1663 139.731 26.1663C139.648 26.1663 139.535 26.0267 139.481 25.8563C139.426 25.6856 139.166 25.3017 138.902 25.003C138.639 24.7043 138.421 24.3846 138.42 24.2926C138.419 24.2006 138.271 24.0199 138.092 23.891C137.913 23.7621 137.766 23.5266 137.766 23.3675C137.766 23.2086 137.708 23.0784 137.638 23.0784C137.568 23.0784 137.372 22.8406 137.202 22.5502C137.032 22.2598 136.76 21.9037 136.597 21.7592C136.434 21.6145 136.3 21.4135 136.3 21.3122C136.3 21.211 136.227 21.1281 136.137 21.1281C136.048 21.1281 135.975 21.0158 135.975 20.8785C135.975 20.7413 135.827 20.467 135.648 20.269C134.998 19.5541 134.509 18.8835 134.509 18.7075C134.509 18.6087 134.436 18.5277 134.346 18.5277C134.257 18.5277 134.183 18.4341 134.183 18.3199C134.183 18.2054 134.037 18.0065 133.858 17.8776C133.679 17.7487 133.532 17.5133 133.532 17.3541C133.532 17.1952 133.474 17.065 133.404 17.065C133.334 17.065 133.138 16.8272 132.968 16.5368C132.798 16.2464 132.526 15.8903 132.363 15.7458C132.2 15.6012 132.066 15.3635 132.066 15.2176C132.066 15.0717 131.993 14.9522 131.903 14.9522C131.814 14.9522 131.741 14.8758 131.741 14.7824C131.741 14.6889 131.576 14.4363 131.374 14.2213C130.763 13.5693 130.601 13.3484 130.601 13.1713C130.601 13.0781 130.527 13.0019 130.438 13.0019C130.348 13.0019 130.275 12.887 130.275 12.7466C130.275 12.4547 129.895 12.0268 129.635 12.0268C129.539 12.0268 129.461 11.9536 129.461 11.8642C129.461 11.7749 129.314 11.7017 129.135 11.7017C128.956 11.7017 128.809 11.6286 128.809 11.5392C128.809 11.3268 126.905 11.3268 126.774 11.5392C126.718 11.6286 126.547 11.7017 126.393 11.7017C126.239 11.7017 126.007 11.848 125.878 12.0268C125.749 12.2055 125.583 12.3518 125.51 12.3518C125.365 12.3518 125.093 12.5535 124.471 13.1238C124.252 13.3248 123.965 13.4895 123.835 13.4895C123.705 13.4895 123.598 13.5626 123.598 13.652C123.598 13.7414 123.504 13.8145 123.39 13.8145C123.275 13.8145 123.076 13.9608 122.947 14.1396C122.818 14.3184 122.615 14.4646 122.496 14.4646C122.378 14.4646 122.104 14.6293 121.889 14.8303C121.263 15.4147 121.016 15.6023 120.873 15.6023C120.799 15.6023 120.633 15.7486 120.504 15.9273C120.375 16.1061 120.139 16.2524 119.98 16.2524C119.82 16.2524 119.688 16.3073 119.686 16.3743C119.684 16.4412 119.355 16.7156 118.954 16.9837C118.553 17.2519 118.225 17.5263 118.225 17.5932C118.224 17.6602 118.114 17.7151 117.98 17.7151C117.846 17.7151 117.736 17.7882 117.736 17.8776C117.736 17.967 117.626 18.0402 117.491 18.0402C117.357 18.0402 117.247 18.1133 117.247 18.2027C117.247 18.2921 117.171 18.3652 117.078 18.3652C116.984 18.3652 116.819 18.4398 116.711 18.531C115.878 19.2326 115.514 19.5027 115.146 19.6906C114.913 19.8095 114.605 20.0355 114.46 20.1925C114.315 20.3495 114.139 20.478 114.069 20.478C114 20.478 113.629 20.734 113.247 21.0468C112.864 21.3597 112.488 21.6157 112.411 21.6157C112.334 21.6157 112.165 21.7619 112.036 21.9407C111.907 22.1195 111.743 22.2658 111.671 22.2658C111.477 22.2658 110.203 23.1117 109.9 23.4418C109.755 23.5994 109.554 23.7285 109.452 23.7285C109.351 23.7285 109.268 23.8016 109.268 23.891C109.268 23.9804 109.155 24.0535 109.016 24.0535C108.878 24.0535 108.594 24.218 108.385 24.4192C108.177 24.6204 107.801 24.9312 107.551 25.1099C107.301 25.2887 107.004 25.5265 106.891 25.6381C106.778 25.75 106.586 25.8413 106.465 25.8413C106.344 25.8413 106.14 25.9876 106.011 26.1663C105.882 26.3451 105.698 26.4914 105.602 26.4914C105.506 26.4914 105.155 26.7474 104.823 27.0602C104.491 27.3731 104.109 27.6291 103.975 27.6291C103.841 27.6291 103.731 27.7022 103.731 27.7916C103.731 27.881 103.621 27.9541 103.487 27.9541C103.352 27.9541 103.242 28.0149 103.242 28.0892C103.242 28.1634 103.043 28.3281 102.799 28.4548C102.556 28.5816 102.237 28.7952 102.091 28.9293C101.533 29.442 101.116 29.7419 100.961 29.7419C100.872 29.7419 100.8 29.8061 100.8 29.8847C100.8 29.9632 100.58 30.1184 100.311 30.2294C100.042 30.3404 99.8225 30.4799 99.8225 30.5392C99.8225 30.5984 99.5843 30.7854 99.2933 30.9548C99.0021 31.1241 98.6455 31.3959 98.5007 31.5587C98.3558 31.7216 98.1491 31.8547 98.0411 31.8547C97.9333 31.8547 97.7526 31.9462 97.6394 32.0578C97.5262 32.1697 97.229 32.4073 96.9791 32.586C96.7291 32.7648 96.3539 33.0756 96.1454 33.2768C95.9368 33.4778 95.6528 33.6424 95.5144 33.6424C95.376 33.6424 95.2628 33.7156 95.2628 33.805C95.2628 33.8944 95.1798 33.9675 95.0783 33.9675C94.9768 33.9675 94.7754 34.1006 94.6305 34.2635C94.4857 34.4263 94.1291 34.698 93.8379 34.8674C93.5467 35.0367 93.3086 35.2326 93.3086 35.3028C93.3086 35.3728 93.1987 35.4302 93.0644 35.4302C92.93 35.4302 92.8201 35.5033 92.8201 35.5927C92.8201 35.6821 92.7102 35.7553 92.5758 35.7553C92.4415 35.7553 92.3314 35.8102 92.3312 35.8771C92.3311 35.9443 92.0013 36.2069 91.5984 36.4609C91.1955 36.715 90.8659 36.9891 90.8659 37.0704C90.8659 37.1515 90.7355 37.218 90.5762 37.218C90.4168 37.218 90.1808 37.3642 90.0517 37.543C89.9226 37.7218 89.7232 37.8681 89.6086 37.8681C89.4941 37.8681 89.4003 37.9412 89.4003 38.0306C89.4003 38.12 89.3088 38.1933 89.1967 38.1933C89.0205 38.1934 88.726 38.4013 87.8194 39.165C87.7112 39.2562 87.5626 39.3308 87.489 39.3308C87.4154 39.3308 87.2496 39.4771 87.1204 39.6558C86.9913 39.8346 86.7553 39.9809 86.5959 39.9809C86.4366 39.9809 86.3057 40.0356 86.3051 40.1028C86.3044 40.1699 86.0338 40.4075 85.7035 40.631C85.3734 40.8544 84.9375 41.2018 84.7351 41.403C84.5325 41.6042 84.2535 41.7686 84.1151 41.7686C83.9767 41.7686 83.8635 41.826 83.8635 41.8961C83.8635 41.9663 83.6254 42.1621 83.3342 42.3315C83.0431 42.5008 82.6864 42.7725 82.5417 42.9354C82.3967 43.0982 82.1953 43.2314 82.0938 43.2314C81.9924 43.2314 81.9093 43.3045 81.9093 43.3939C81.9093 43.4833 81.7994 43.5564 81.6651 43.5564C81.5307 43.5564 81.4208 43.6295 81.4208 43.7189C81.4208 43.8083 81.3444 43.8815 81.2511 43.8815C81.1578 43.8815 80.9928 43.9556 80.8847 44.0461C80.7766 44.1368 80.3582 44.4651 79.9552 44.776L79.2223 45.3411L71.1099 45.3425C62.7355 45.3442 62.701 45.3417 61.9807 44.6721C61.8016 44.5054 61.5987 44.369 61.5301 44.369C61.4616 44.369 61.2222 44.1862 60.9983 43.9627C60.7743 43.7392 60.5092 43.5564 60.4092 43.5564C60.3092 43.5564 60.1348 43.4651 60.0217 43.3532C59.9085 43.2416 59.6145 43.0038 59.3686 42.825C59.1227 42.6463 58.7259 42.3355 58.4868 42.1345C58.2478 41.9334 57.9607 41.769 57.8486 41.7688C57.7367 41.7688 57.6451 41.6955 57.6451 41.6061C57.6451 41.5167 57.562 41.4436 57.4606 41.4436C57.3591 41.4436 57.1577 41.3105 57.0127 41.1476C56.868 40.9848 56.5113 40.7131 56.2202 40.5437C55.929 40.3744 55.6909 40.1785 55.6909 40.1083C55.6909 40.0382 55.5605 39.9809 55.4012 39.9809C55.2418 39.9809 55.0058 39.8346 54.8767 39.6558C54.7475 39.4771 54.5853 39.3308 54.5163 39.3308C54.4 39.3308 53.8186 38.8769 53.3195 38.3963C53.2036 38.2846 53.0096 38.1931 52.8886 38.1931C52.7676 38.1931 52.5631 38.0468 52.434 37.8681C52.3048 37.6893 52.1055 37.543 51.9908 37.543C51.8764 37.543 51.7826 37.4699 51.7826 37.3805C51.7826 37.2911 51.636 37.218 51.4569 37.218C51.2777 37.218 51.1312 37.1172 51.1312 36.9939C51.1312 36.8707 50.9113 36.6789 50.6426 36.5679C50.3739 36.4569 50.1541 36.3017 50.1541 36.2232C50.1541 36.1445 50.0603 36.0803 49.9458 36.0803C49.8312 36.0803 49.6318 35.934 49.5027 35.7553C49.3736 35.5765 49.1376 35.4302 48.9782 35.4302C48.8189 35.4302 48.688 35.3753 48.6873 35.3083C48.6867 35.2414 48.416 35.0036 48.0858 34.7801C47.7557 34.5566 47.3197 34.2093 47.1173 34.0081C46.9147 33.8069 46.6358 33.6424 46.4974 33.6424C46.3589 33.6424 46.2458 33.5693 46.2458 33.4799C46.2458 33.3905 46.1694 33.3174 46.0761 33.3174C45.8986 33.3174 45.6773 33.155 45.0239 32.5454C44.8085 32.3444 44.5554 32.1797 44.4618 32.1797C44.3681 32.1797 44.2916 32.1066 44.2916 32.0172C44.2916 31.9278 44.1791 31.8547 44.0414 31.8547C43.904 31.8547 43.6291 31.7058 43.4308 31.5236C42.7771 30.9236 41.6077 30.0702 41.437 30.0685C41.3449 30.0676 41.1638 29.9206 41.0346 29.7419C40.9055 29.5631 40.7194 29.4168 40.6208 29.4168C40.5225 29.4168 40.1969 29.1986 39.8976 28.9319C39.5982 28.6652 39.2186 28.4041 39.0541 28.352C38.8894 28.3 38.7548 28.1891 38.7548 28.1057C38.7548 28.0224 38.6448 27.9541 38.5105 27.9541C38.3761 27.9541 38.2662 27.8933 38.2662 27.8191C38.2662 27.7448 38.0646 27.5801 37.8184 27.4534C37.5722 27.3266 37.2092 27.0765 37.012 26.8977C36.3594 26.3061 36.1647 26.1663 35.9932 26.1663C35.8999 26.1663 35.8235 26.0932 35.8235 26.0038C35.8235 25.9144 35.7129 25.8413 35.5778 25.8413C35.4426 25.8413 35.1019 25.6219 34.8209 25.3537C34.5396 25.0856 34.2506 24.8662 34.1783 24.8662C34.1061 24.8662 33.8638 24.6833 33.6399 24.4598C33.416 24.2364 33.1509 24.0535 33.0509 24.0535C32.9509 24.0535 32.7765 23.962 32.6633 23.8504C32.5501 23.7387 32.2562 23.501 32.0103 23.3222C31.7644 23.1434 31.3675 22.8327 31.1285 22.6316C30.8894 22.4306 30.6023 22.2661 30.4903 22.2659C30.3784 22.2659 30.2867 22.1926 30.2867 22.1032C30.2867 22.0139 30.1929 21.9407 30.0784 21.9407C29.9638 21.9407 29.7645 21.7945 29.6353 21.6157C29.5062 21.4369 29.3176 21.2906 29.216 21.2906C29.1145 21.2906 28.8338 21.1078 28.5923 20.8843C28.3506 20.6609 28.1018 20.4778 28.0391 20.4777C27.9766 20.4774 27.6689 20.2581 27.3555 19.9904C27.042 19.7228 26.694 19.5035 26.5819 19.5032C26.4701 19.503 26.3784 19.4297 26.3784 19.3403C26.3784 19.251 26.302 19.1778 26.2087 19.1778C26.0312 19.1778 25.8099 19.0155 25.1565 18.4058C24.9411 18.2046 24.688 18.0402 24.5944 18.0402C24.5007 18.0402 24.4242 17.967 24.4242 17.8776C24.4242 17.7882 24.311 17.7151 24.1726 17.7151C24.0342 17.7151 23.7376 17.5323 23.5137 17.3088C23.2898 17.0853 23.0475 16.9025 22.9753 16.9025C22.903 16.9025 22.614 16.6831 22.3328 16.4149C22.0517 16.1467 21.7271 15.9273 21.6118 15.9273C21.4964 15.9273 21.2964 15.7811 21.1673 15.6023C21.0381 15.4235 20.8541 15.2772 20.7582 15.2772C20.6623 15.2772 20.3118 15.0213 19.9794 14.7084C19.6471 14.3956 19.2654 14.1396 19.1313 14.1396C18.9971 14.1396 18.8874 14.0664 18.8874 13.9771C18.8874 13.8877 18.811 13.8145 18.7177 13.8145C18.6244 13.8145 18.4594 13.7401 18.3513 13.6489C17.6053 13.0213 17.3561 12.8394 17.2413 12.8394C17.1697 12.8394 16.9277 12.6565 16.7038 12.4331C16.4799 12.2096 16.2199 12.0268 16.1263 12.0268C16.0327 12.0268 15.9561 11.9536 15.9561 11.8642C15.9561 11.7749 15.8096 11.7017 15.6304 11.7017C15.4513 11.7017 15.3047 11.6286 15.3047 11.5392C15.3047 11.4475 14.8434 11.3767 14.2462 11.3767C13.6491 11.3767 13.1877 11.4475 13.1877 11.5392ZM15.5088 18.5497C15.8469 18.7304 16.063 18.8905 16.5201 19.2997C16.645 19.4115 16.8095 19.5029 16.8857 19.5029C16.9619 19.5029 17.1298 19.6491 17.2589 19.8279C17.3881 20.0067 17.624 20.153 17.7834 20.153C17.9427 20.153 18.0748 20.2079 18.0767 20.2749C18.0787 20.3418 18.4083 20.6162 18.8092 20.8843C19.2102 21.1525 19.5383 21.4268 19.5385 21.4938C19.5386 21.5607 19.6487 21.6157 19.7831 21.6157C19.9174 21.6157 20.0273 21.6888 20.0273 21.7782C20.0273 21.8676 20.1372 21.9407 20.2716 21.9407C20.4059 21.9407 20.5159 22.0139 20.5159 22.1032C20.5159 22.1926 20.5922 22.2658 20.6856 22.2658C20.7789 22.2658 20.9438 22.3404 21.052 22.4315C21.8848 23.1332 22.2494 23.4033 22.6169 23.5912C22.8496 23.7101 23.1586 23.936 23.3033 24.093C23.4483 24.25 23.6315 24.3797 23.7104 24.3812C23.7896 24.3826 24.1023 24.6021 24.4056 24.8688C24.7089 25.1355 25.017 25.3537 25.0902 25.3537C25.1637 25.3537 25.4068 25.5366 25.6307 25.76C25.8547 25.9835 26.1198 26.1663 26.2198 26.1663C26.3197 26.1663 26.4942 26.2578 26.6073 26.3695C26.7205 26.4813 27.0166 26.7189 27.2652 26.8977C27.5137 27.0765 27.8139 27.3143 27.9318 27.4259C28.0498 27.5377 28.2249 27.6291 28.321 27.6291C28.4169 27.6291 28.4954 27.7022 28.4954 27.7916C28.4954 27.881 28.5871 27.9543 28.6989 27.9544C28.811 27.9548 29.159 28.1776 29.4725 28.45C29.786 28.7222 30.244 29.0669 30.4903 29.2159C30.7365 29.365 30.9381 29.5442 30.9381 29.6145C30.9381 29.6845 31.0487 29.7419 31.1838 29.7419C31.319 29.7419 31.6597 29.9613 31.9407 30.2294C32.222 30.4976 32.511 30.717 32.5833 30.717C32.6555 30.717 32.8978 30.8999 33.1217 31.1233C33.3456 31.3468 33.6422 31.5296 33.7806 31.5296C33.919 31.5296 34.0322 31.6028 34.0322 31.6922C34.0322 31.7815 34.1087 31.8547 34.2024 31.8547C34.296 31.8547 34.5491 32.0192 34.7645 32.2204C35.4179 32.83 35.6392 32.9924 35.8167 32.9924C35.91 32.9924 35.9864 33.0655 35.9864 33.1549C35.9864 33.2443 36.0963 33.3174 36.2306 33.3174C36.365 33.3174 36.4749 33.3905 36.4749 33.4799C36.4749 33.5693 36.5687 33.6424 36.6832 33.6424C36.7978 33.6424 36.9972 33.7887 37.1263 33.9675C37.2554 34.1463 37.458 34.2925 37.5764 34.2925C37.695 34.2925 37.9895 34.4754 38.2309 34.6989C38.4724 34.9223 38.7461 35.1052 38.8393 35.1052C38.9324 35.1052 39.1142 35.2514 39.2433 35.4302C39.3724 35.609 39.5718 35.7553 39.6864 35.7553C39.8009 35.7553 39.8947 35.8284 39.8947 35.9178C39.8947 36.0072 39.9864 36.0805 40.0983 36.0805C40.2938 36.0806 40.8768 36.5082 41.6394 37.2108C41.8378 37.3935 42.076 37.543 42.1687 37.543C42.2615 37.543 42.3374 37.6162 42.3374 37.7055C42.3374 37.7949 42.4506 37.8681 42.589 37.8681C42.7274 37.8681 43.024 38.0509 43.2479 38.2744C43.4718 38.4978 43.7141 38.6807 43.7863 38.6807C43.8586 38.6807 44.1476 38.9001 44.4289 39.1683C44.7099 39.4364 45.0506 39.6558 45.1858 39.6558C45.3209 39.6558 45.4315 39.7132 45.4315 39.7832C45.4315 39.8535 45.6331 40.0306 45.8793 40.177C46.1256 40.3236 46.4737 40.577 46.6529 40.7404C46.832 40.9037 47.1802 41.1411 47.4264 41.2679C47.6726 41.3947 47.8742 41.5593 47.8742 41.6336C47.8742 41.7079 47.9841 41.7686 48.1185 41.7686C48.2528 41.7686 48.3628 41.8369 48.3628 41.9203C48.3628 42.0037 48.5027 42.1161 48.6735 42.1702C48.8445 42.2244 49.2291 42.4841 49.5284 42.7474C49.8277 43.0106 50.1481 43.2273 50.2402 43.2288C50.3324 43.2302 50.5135 43.3776 50.6426 43.5564C50.7718 43.7352 50.9709 43.8815 51.0852 43.8815C51.1997 43.8815 51.5652 44.1374 51.8975 44.4503C52.2299 44.7631 52.5804 45.0191 52.6763 45.0191C52.7722 45.0191 52.9562 45.1654 53.0853 45.3442C53.2145 45.5229 53.419 45.6692 53.54 45.6692C53.661 45.6692 53.8525 45.7607 53.9657 45.8724C54.0789 45.9842 54.3749 46.2218 54.6236 46.4006C54.8721 46.5793 55.1722 46.8171 55.2901 46.9288C55.4082 47.0406 55.5833 47.1319 55.6793 47.1319C55.7753 47.1319 55.8537 47.2051 55.8537 47.2945C55.8537 47.3838 55.9637 47.457 56.098 47.457C56.2324 47.457 56.3423 47.5301 56.3423 47.6195C56.3423 47.7089 56.4208 47.782 56.5167 47.782C56.6128 47.782 56.7878 47.8735 56.9059 47.9852C57.0238 48.097 57.3239 48.3346 57.5724 48.5134C57.8211 48.6922 58.1172 48.9299 58.2303 49.0416C58.3435 49.1534 58.535 49.2447 58.656 49.2447C58.777 49.2447 58.9816 49.391 59.1107 49.5698C59.2398 49.7486 59.4216 49.8948 59.5147 49.8948C59.6079 49.8948 59.8816 50.0777 60.1231 50.3011C60.3645 50.5246 60.6752 50.7075 60.8134 50.7075C60.9517 50.7075 61.0649 50.7806 61.0649 50.87C61.0649 50.9766 64.4847 51.0325 70.9986 51.0325C77.5124 51.0325 80.9322 50.9766 80.9322 50.87C80.9322 50.7806 81.0471 50.7075 81.1874 50.7075C81.4374 50.7075 82.5894 49.9321 82.6964 49.6917C82.7263 49.6246 82.8545 49.5698 82.9814 49.5698C83.1084 49.5698 83.2121 49.4967 83.2121 49.4073C83.2121 49.3179 83.322 49.2447 83.4564 49.2447C83.5907 49.2447 83.7006 49.1716 83.7006 49.0822C83.7006 48.9928 83.777 48.9197 83.8703 48.9197C84.0478 48.9197 84.2691 48.7573 84.9225 48.1477C85.1379 47.9465 85.391 47.782 85.4846 47.782C85.5783 47.782 85.6548 47.7089 85.6548 47.6195C85.6548 47.5301 85.768 47.457 85.9064 47.457C86.0448 47.457 86.3345 47.2925 86.55 47.0913C87.1763 46.5069 87.4232 46.3193 87.5662 46.3193C87.6398 46.3193 87.8055 46.173 87.9347 45.9943C88.0638 45.8155 88.2837 45.6692 88.4232 45.6692C88.5628 45.6692 88.7826 45.5229 88.9118 45.3442C89.0409 45.1654 89.2249 45.0191 89.3208 45.0191C89.4168 45.0191 89.7672 44.7631 90.0996 44.4503C90.4319 44.1374 90.8137 43.8815 90.9477 43.8815C91.0819 43.8815 91.1916 43.8083 91.1916 43.7189C91.1916 43.6295 91.3015 43.5564 91.4359 43.5564C91.5702 43.5564 91.6802 43.4922 91.6802 43.4135C91.6802 43.335 91.9 43.1798 92.1687 43.0688C92.4374 42.9578 92.6573 42.7839 92.6573 42.6825C92.6573 42.5811 92.8587 42.4082 93.1051 42.2983C93.3515 42.1883 93.7658 41.9146 94.0261 41.6898C94.2864 41.465 94.5497 41.2811 94.6114 41.2811C94.6731 41.2811 94.9365 41.0984 95.1967 40.8749C95.4571 40.6516 95.7216 40.4688 95.7847 40.4686C95.8478 40.4686 96.0826 40.2856 96.3065 40.0621C96.5304 39.8387 96.7955 39.6558 96.8955 39.6558C96.9955 39.6558 97.1699 39.5645 97.2831 39.4527C97.3963 39.341 97.6902 39.1032 97.9361 38.9245C98.182 38.7457 98.5789 38.435 98.8179 38.2339C99.057 38.0329 99.3443 37.8684 99.4561 37.8682C99.5682 37.8682 99.6597 37.7949 99.6597 37.7055C99.6597 37.6162 99.7427 37.543 99.8442 37.543C99.9456 37.543 100.147 37.4099 100.292 37.2471C100.437 37.0842 100.793 36.8125 101.085 36.6431C101.376 36.4738 101.614 36.2779 101.614 36.2077C101.614 36.1377 101.744 36.0803 101.904 36.0803C102.063 36.0803 102.299 35.934 102.428 35.7553C102.557 35.5765 102.719 35.4302 102.788 35.4302C102.918 35.4302 103.4 35.0665 103.918 34.577C104.084 34.4204 104.313 34.2925 104.428 34.2925C104.542 34.2925 104.742 34.1463 104.871 33.9675C105 33.7887 105.199 33.6424 105.314 33.6424C105.428 33.6424 105.522 33.5693 105.522 33.4799C105.522 33.3905 105.614 33.3172 105.726 33.3172C105.902 33.3171 106.197 33.1092 107.103 32.3455C107.211 32.2543 107.36 32.1797 107.434 32.1797C107.507 32.1797 107.673 32.0335 107.802 31.8547C107.931 31.6759 108.167 31.5296 108.327 31.5296C108.486 31.5296 108.617 31.4747 108.617 31.4077C108.618 31.3408 108.889 31.103 109.219 30.8795C109.549 30.6561 109.985 30.3088 110.187 30.1076C110.39 29.9063 110.669 29.7419 110.807 29.7419C110.946 29.7419 111.059 29.6687 111.059 29.5793C111.059 29.49 111.135 29.4168 111.229 29.4168C111.4 29.4168 111.595 29.2771 112.247 28.6855C112.445 28.5067 112.808 28.2566 113.054 28.1298C113.3 28.003 113.502 27.8384 113.502 27.7641C113.502 27.6898 113.578 27.6291 113.671 27.6291C113.765 27.6291 113.93 27.555 114.038 27.4644C114.754 26.8645 115.723 26.1693 115.844 26.168C115.923 26.167 116.106 26.0378 116.251 25.8808C116.396 25.7238 116.705 25.4979 116.937 25.3789C117.305 25.191 117.67 24.9209 118.502 24.2193C118.611 24.1281 118.776 24.0535 118.869 24.0535C118.962 24.0535 119.039 23.9804 119.039 23.891C119.039 23.8016 119.148 23.7285 119.283 23.7285C119.417 23.7285 119.527 23.6554 119.527 23.566C119.527 23.4766 119.606 23.4034 119.701 23.4034C119.798 23.4034 119.973 23.3121 120.091 23.2003C120.209 23.0886 120.509 22.8509 120.757 22.6721C121.006 22.4933 121.302 22.2557 121.415 22.1439C121.528 22.0322 121.703 21.9407 121.803 21.9407C121.903 21.9407 122.168 21.7579 122.392 21.5344C122.616 21.3109 122.858 21.1281 122.93 21.1281C123.002 21.1281 123.291 20.9087 123.573 20.6405C123.854 20.3724 124.178 20.153 124.294 20.153C124.409 20.153 124.609 20.0067 124.738 19.8279C124.867 19.6491 125.049 19.5029 125.142 19.5029C125.235 19.5029 125.498 19.3301 125.726 19.119C126.525 18.3795 127.507 18.0983 127.507 18.609C127.507 18.7431 127.58 18.8528 127.669 18.8528C127.759 18.8528 127.832 18.9625 127.832 19.0966C127.832 19.2306 127.906 19.3403 127.995 19.3403C128.085 19.3403 128.158 19.4166 128.158 19.5097C128.158 19.6028 128.232 19.7675 128.323 19.8754C128.869 20.526 129.461 21.3543 129.461 21.4681C129.461 21.5411 129.644 21.7837 129.868 22.0072C130.092 22.2307 130.275 22.5266 130.275 22.6648C130.275 22.8029 130.348 22.9159 130.438 22.9159C130.527 22.9159 130.601 22.9921 130.601 23.0852C130.601 23.2624 130.763 23.4832 131.374 24.1353C131.576 24.3503 131.741 24.6029 131.741 24.6963C131.741 24.7898 131.814 24.8662 131.903 24.8662C131.993 24.8662 132.066 24.9856 132.066 25.1316C132.066 25.2775 132.2 25.5151 132.363 25.6598C132.526 25.8042 132.798 26.1602 132.968 26.4508C133.138 26.7412 133.334 26.979 133.404 26.979C133.474 26.979 133.532 27.0749 133.532 27.192C133.532 27.3094 133.679 27.5623 133.858 27.7542C134.037 27.946 134.183 28.1792 134.183 28.2723C134.183 28.3655 134.257 28.4417 134.346 28.4417C134.436 28.4417 134.509 28.5283 134.509 28.6344C134.509 28.7404 134.658 28.985 134.839 29.1779C135.162 29.5202 135.141 30.0669 134.806 30.0669C134.719 30.0669 134.552 30.1584 134.434 30.2701C134.316 30.3819 134.016 30.6195 133.767 30.7983C133.519 30.9771 133.223 31.2148 133.11 31.3265C132.996 31.4381 132.822 31.5296 132.722 31.5296C132.622 31.5296 132.363 31.7068 132.146 31.9233C131.929 32.1399 131.602 32.3642 131.42 32.4219C131.238 32.4796 131.089 32.593 131.089 32.6741C131.089 32.7552 130.851 32.9439 130.56 33.0934C130.269 33.2431 129.921 33.4832 129.786 33.627C129.652 33.7708 129.352 33.9859 129.119 34.1048C128.752 34.2927 128.387 34.5628 127.554 35.2644C127.446 35.3556 127.281 35.4302 127.188 35.4302C127.094 35.4302 127.018 35.5033 127.018 35.5927C127.018 35.6821 126.908 35.7553 126.774 35.7553C126.639 35.7553 126.53 35.8284 126.53 35.9178C126.53 36.0072 126.42 36.0803 126.285 36.0803C126.151 36.0803 126.041 36.1351 126.041 36.2022C126.04 36.2693 125.712 36.5435 125.311 36.8117C124.91 37.0798 124.581 37.354 124.579 37.4211C124.577 37.4882 124.445 37.543 124.286 37.543C124.126 37.543 123.89 37.6893 123.761 37.8681C123.632 38.0468 123.466 38.1931 123.393 38.1931C123.25 38.1931 123.003 38.3807 122.376 38.9651C122.161 39.1663 121.871 39.3308 121.733 39.3308C121.594 39.3308 121.481 39.4039 121.481 39.4933C121.481 39.5827 121.405 39.6558 121.311 39.6558C121.217 39.6558 120.963 39.833 120.746 40.0495C120.529 40.2661 120.21 40.4883 120.036 40.5432C119.862 40.5983 119.679 40.7503 119.629 40.8809C119.578 41.0116 119.425 41.1185 119.288 41.1185C119.151 41.1185 119.039 41.1917 119.039 41.2811C119.039 41.3705 118.945 41.4436 118.83 41.4436C118.716 41.4436 118.516 41.5899 118.387 41.7686C118.258 41.9474 118.022 42.0937 117.863 42.0937C117.703 42.0937 117.573 42.1485 117.573 42.2156C117.572 42.2827 117.244 42.5569 116.843 42.825C116.442 43.0932 116.113 43.3674 116.111 43.4345C116.109 43.5016 115.997 43.5564 115.863 43.5564C115.729 43.5564 115.619 43.6295 115.619 43.7189C115.619 43.8083 115.509 43.8815 115.374 43.8815C115.24 43.8815 115.13 43.9546 115.13 44.044C115.13 44.1334 115.054 44.2065 114.961 44.2065C114.783 44.2065 114.562 44.3689 113.908 44.9785C113.693 45.1797 113.44 45.3442 113.346 45.3442C113.253 45.3442 113.176 45.4173 113.176 45.5067C113.176 45.5961 113.063 45.6692 112.924 45.6692C112.786 45.6692 112.496 45.8337 112.281 46.0349C111.655 46.6193 111.408 46.8069 111.265 46.8069C111.191 46.8069 111.025 46.9532 110.896 47.1319C110.767 47.3107 110.547 47.457 110.408 47.457C110.268 47.457 110.048 47.6032 109.919 47.782C109.79 47.9608 109.609 48.1082 109.517 48.1097C109.425 48.1111 109.104 48.3278 108.805 48.5911C108.506 48.8544 108.121 49.1141 107.95 49.1682C107.779 49.2223 107.639 49.3348 107.639 49.4182C107.639 49.5015 107.529 49.5698 107.395 49.5698C107.261 49.5698 107.151 49.634 107.151 49.7126C107.151 49.7911 106.931 49.9464 106.662 50.0574C106.393 50.1684 106.174 50.3169 106.174 50.3871C106.174 50.4575 105.844 50.7229 105.441 50.9769C105.038 51.2309 104.708 51.4848 104.708 51.541C104.708 51.5971 104.488 51.7341 104.219 51.8451C103.951 51.9561 103.731 52.0956 103.731 52.1549C103.731 52.2141 103.493 52.4011 103.202 52.5705C102.91 52.7398 102.554 53.0116 102.409 53.1744C102.264 53.3373 102.026 53.4704 101.88 53.4704C101.734 53.4704 101.614 53.5435 101.614 53.6329C101.614 53.7223 101.537 53.7954 101.444 53.7954C101.35 53.7954 101.097 53.96 100.882 54.1611C100.228 54.7707 100.007 54.9331 99.8294 54.9331C99.7361 54.9331 99.6597 55.0062 99.6597 55.0956C99.6597 55.185 99.5498 55.2581 99.4154 55.2581C99.2811 55.2581 99.1711 55.3313 99.1711 55.4206C99.1711 55.51 99.0881 55.5832 98.9866 55.5832C98.8852 55.5832 98.6837 55.7163 98.5388 55.8791C98.394 56.042 98.0374 56.3137 97.7462 56.4831C97.4551 56.6524 97.217 56.8483 97.217 56.9185C97.217 56.9885 97.0865 57.0459 96.9273 57.0459C96.7678 57.0459 96.5319 57.1922 96.4027 57.3709C96.2736 57.5497 96.1078 57.696 96.0342 57.696C95.8893 57.696 95.618 57.8977 94.9956 58.468C94.7762 58.6692 94.5062 58.8337 94.3956 58.8337C94.2852 58.8337 94.0892 58.9799 93.96 59.1587C93.8309 59.3375 93.6316 59.4837 93.5169 59.4837C93.4024 59.4837 93.3086 59.5569 93.3086 59.6463C93.3086 59.7357 93.2171 59.809 93.1051 59.809C92.9289 59.8091 92.6343 60.017 91.7277 60.7807C91.6196 60.8719 91.4709 60.9465 91.3973 60.9465C91.3237 60.9465 91.1579 61.0927 91.0288 61.2715C90.8996 61.4503 90.6637 61.5966 90.5042 61.5966C90.345 61.5966 90.2145 61.6539 90.2145 61.724C90.2145 61.7942 89.9765 61.9918 89.6854 62.1634C88.9785 62.5802 88.4232 63.1498 88.4232 63.4583C88.4232 63.5964 88.3499 63.7094 88.2604 63.7094C88.1531 63.7094 88.0975 68.8528 88.0975 78.8145C88.0975 88.7093 88.1537 93.9543 88.2604 94.0201C88.3499 94.0753 88.4232 94.4087 88.4232 94.761C88.4232 95.1134 88.4965 95.4015 88.5861 95.4015C88.6756 95.4015 88.7489 95.6941 88.7489 96.0516C88.7489 96.4092 88.8222 96.7017 88.9118 96.7017C89.0013 96.7017 89.0746 96.9587 89.0746 97.2728C89.0746 97.5868 89.1455 97.9709 89.2322 98.1261C89.4415 98.5007 89.8888 100.363 89.8888 100.859C89.8888 101.075 89.9621 101.252 90.0517 101.252C90.1413 101.252 90.2145 101.581 90.2145 101.984C90.2145 102.386 90.2878 102.715 90.3774 102.715C90.467 102.715 90.5402 103.008 90.5402 103.365C90.5402 103.723 90.6135 104.015 90.7031 104.015C90.7926 104.015 90.8659 104.293 90.8659 104.633C90.8659 104.973 90.9286 105.32 91.0053 105.405C91.082 105.49 91.2817 106.199 91.4491 106.981C91.6167 107.764 91.8103 108.403 91.8797 108.403C91.949 108.403 92.0059 108.692 92.0059 109.044C92.0059 109.396 92.0791 109.73 92.1687 109.785C92.2583 109.84 92.3316 110.173 92.3316 110.526C92.3316 110.878 92.4048 111.166 92.4944 111.166C92.584 111.166 92.6573 111.495 92.6573 111.898C92.6573 112.3 92.7229 112.629 92.803 112.629C92.8831 112.629 92.9841 112.903 93.0271 113.239C93.0997 113.802 93.5995 115.776 93.9665 116.947C94.0525 117.222 94.1229 117.643 94.1229 117.882C94.1229 118.121 94.1962 118.317 94.2857 118.317C94.3753 118.317 94.4486 118.647 94.4486 119.049C94.4486 119.451 94.5219 119.78 94.6114 119.78C94.701 119.78 94.7743 120.073 94.7743 120.43C94.7743 120.788 94.8399 121.08 94.92 121.08C95.0001 121.08 95.1034 121.355 95.1495 121.69C95.1956 122.025 95.3579 122.738 95.5103 123.274C95.6628 123.811 95.8237 124.524 95.868 124.859C95.9122 125.194 96.014 125.468 96.0941 125.468C96.1743 125.468 96.2399 125.761 96.2399 126.119C96.2399 126.476 96.3132 126.769 96.4027 126.769C96.4923 126.769 96.5656 127.098 96.5656 127.5C96.5656 127.902 96.6389 128.231 96.7284 128.231C96.818 128.231 96.8913 128.52 96.8913 128.872C96.8913 129.224 96.9546 129.552 97.0321 129.599C97.1097 129.647 97.2176 129.962 97.2722 130.3C97.3267 130.637 97.4928 131.315 97.6412 131.807C97.7897 132.299 97.9459 132.975 97.9882 133.31C98.0307 133.645 98.131 133.92 98.2112 133.92C98.2913 133.92 98.3569 134.249 98.3569 134.651C98.3569 135.053 98.4302 135.382 98.5198 135.382C98.6093 135.382 98.6826 135.671 98.6826 136.023C98.6826 136.375 98.7477 136.704 98.8275 136.753C98.9072 136.802 99.0089 137.08 99.0537 137.372C99.0985 137.663 99.2899 138.51 99.4789 139.253C99.6678 139.996 99.8225 140.745 99.8225 140.918C99.8225 141.092 99.8958 141.233 99.9854 141.233C100.075 141.233 100.148 141.562 100.148 141.965C100.148 142.367 100.222 142.696 100.311 142.696C100.401 142.696 100.474 143.025 100.474 143.427C100.474 143.83 100.547 144.159 100.637 144.159C100.726 144.159 100.8 144.318 100.8 144.513C100.8 144.873 100.884 145.208 101.352 146.7C101.496 147.159 101.614 147.721 101.614 147.95C101.614 148.178 101.687 148.41 101.777 148.466C101.866 148.521 101.94 148.854 101.94 149.207C101.94 149.559 102.013 149.847 102.102 149.847C102.192 149.847 102.265 150.14 102.265 150.497C102.265 150.855 102.339 151.147 102.428 151.147C102.518 151.147 102.591 151.476 102.591 151.879C102.591 152.281 102.657 152.61 102.737 152.61C102.817 152.61 102.92 152.884 102.966 153.219C103.012 153.555 103.174 154.268 103.326 154.804C103.477 155.34 103.638 156.018 103.684 156.309C103.73 156.6 103.832 156.879 103.912 156.928C103.991 156.977 104.057 157.305 104.057 157.658C104.057 158.01 104.13 158.298 104.219 158.298C104.309 158.298 104.382 158.627 104.382 159.03C104.382 159.734 104.364 159.761 103.894 159.761C103.625 159.761 103.405 159.834 103.405 159.924C103.405 160.013 103.149 160.086 102.835 160.086C102.522 160.086 102.265 160.159 102.265 160.249C102.265 160.338 102.081 160.411 101.856 160.411C101.631 160.411 101.319 160.482 101.164 160.568C100.806 160.766 98.6101 161.398 97.9091 161.504C97.6179 161.548 97.3798 161.65 97.3798 161.729C97.3798 161.809 97.1233 161.874 96.8099 161.874C96.4964 161.874 96.2399 161.947 96.2399 162.036C96.2399 162.126 95.9834 162.199 95.6699 162.199C95.3564 162.199 95.1 162.272 95.1 162.361C95.1 162.451 94.935 162.525 94.7336 162.527C94.5321 162.529 93.8542 162.712 93.2272 162.933C92.6003 163.154 91.9223 163.335 91.7209 163.336C91.5194 163.336 91.3545 163.41 91.3545 163.499C91.3545 163.588 91.2446 163.662 91.1102 163.662C90.9583 163.662 90.8659 163.508 90.8659 163.255C90.8659 163.032 90.7926 162.849 90.7031 162.849C90.6135 162.849 90.5402 162.52 90.5402 162.118C90.5402 161.715 90.467 161.386 90.3774 161.386C90.2878 161.386 90.2145 161.094 90.2145 160.736C90.2145 160.379 90.1489 160.086 90.0688 160.086C89.9887 160.086 89.8846 159.812 89.8375 159.477C89.678 158.338 89.3759 157.08 89.2249 156.925C89.1422 156.84 89.0746 156.493 89.0746 156.153C89.0746 155.813 89.0013 155.535 88.9118 155.535C88.8222 155.535 88.7489 155.206 88.7489 154.804C88.7489 154.402 88.6756 154.073 88.5861 154.073C88.4965 154.073 88.4232 153.821 88.4232 153.513C88.4232 153.206 88.3578 152.914 88.2776 152.864C88.1975 152.815 88.0957 152.5 88.0513 152.164C88.007 151.828 87.8461 151.115 87.6937 150.578C87.5412 150.042 87.3789 149.329 87.3328 148.994C87.2867 148.658 87.1835 148.384 87.1033 148.384C87.0232 148.384 86.9576 148.092 86.9576 147.734C86.9576 147.377 86.8843 147.084 86.7947 147.084C86.7052 147.084 86.6319 146.755 86.6319 146.353C86.6319 145.951 86.5586 145.621 86.4691 145.621C86.3795 145.621 86.3062 145.292 86.3062 144.89C86.3062 144.488 86.2329 144.159 86.1434 144.159C86.0538 144.159 85.9805 144.011 85.9805 143.832C85.9805 143.652 85.8243 142.975 85.6336 142.328C85.4428 141.681 85.2519 140.878 85.2094 140.543C85.1669 140.207 85.0664 139.933 84.9863 139.933C84.9062 139.933 84.8406 139.604 84.8406 139.202C84.8406 138.799 84.7673 138.47 84.6777 138.47C84.5882 138.47 84.5149 138.141 84.5149 137.739C84.5149 137.337 84.4496 137.008 84.3698 137.008C84.2902 137.008 84.1843 136.77 84.1346 136.479C83.8987 135.098 83.751 134.457 83.6192 134.245C83.4764 134.014 83.2712 133.093 83.103 131.929C83.0546 131.594 82.9494 131.319 82.8693 131.319C82.7892 131.319 82.7236 131.027 82.7236 130.669C82.7236 130.312 82.6503 130.019 82.5607 130.019C82.4711 130.019 82.3979 129.69 82.3979 129.288C82.3979 128.886 82.3246 128.556 82.235 128.556C82.1455 128.556 82.0722 128.299 82.0722 127.985C82.0722 127.671 82 127.287 81.9118 127.132C81.7191 126.793 81.0905 124.333 80.9782 123.478C80.934 123.142 80.8324 122.868 80.7523 122.868C80.6722 122.868 80.6065 122.539 80.6065 122.137C80.6065 121.734 80.5333 121.405 80.4437 121.405C80.3541 121.405 80.2809 121.117 80.2809 120.765C80.2809 120.412 80.2076 120.079 80.118 120.024C80.0284 119.969 79.954 119.763 79.9527 119.567C79.9514 119.372 79.8446 118.919 79.7156 118.561C79.5865 118.204 79.4777 117.673 79.4738 117.383C79.4699 117.092 79.3933 116.855 79.3038 116.855C79.2142 116.855 79.1409 116.562 79.1409 116.205C79.1409 115.847 79.0676 115.554 78.9781 115.554C78.8885 115.554 78.8152 115.225 78.8152 114.823C78.8152 114.421 78.7496 114.092 78.6695 114.092C78.5894 114.092 78.4853 113.818 78.4384 113.482C78.3446 112.811 78.2039 112.209 77.6921 110.287C77.5037 109.58 77.3496 108.867 77.3496 108.702C77.3496 108.538 77.2763 108.403 77.1868 108.403C77.0972 108.403 77.0239 108.074 77.0239 107.672C77.0239 107.27 76.9506 106.941 76.8611 106.941C76.7715 106.941 76.6982 106.648 76.6982 106.291C76.6982 105.933 76.6249 105.641 76.5354 105.641C76.4458 105.641 76.3725 105.311 76.3725 104.909C76.3725 104.507 76.3069 104.178 76.2268 104.178C76.1466 104.178 76.0414 103.904 75.9932 103.568C75.8403 102.508 75.4988 101.252 75.3633 101.252C75.2914 101.252 75.2326 101.106 75.2326 100.927C75.2326 100.749 75.1593 100.602 75.0697 100.602C74.9802 100.602 74.9069 100.461 74.9069 100.288C74.9069 100.115 74.7603 99.9277 74.5812 99.8709C74.4021 99.8142 74.2555 99.6996 74.2555 99.6163C74.2555 99.5329 74.1089 99.4646 73.9298 99.4646C73.7507 99.4646 73.6041 99.3915 73.6041 99.3021C73.6041 99.201 72.6827 99.1396 71.1658 99.1396C68.9053 99.1396 68.6767 99.1677 68.031 99.5246C67.648 99.7364 67.2622 100.065 67.1738 100.256C67.0853 100.446 66.957 100.602 66.8888 100.602C66.8204 100.602 66.7645 100.749 66.7645 100.927C66.7645 101.106 66.6912 101.252 66.6017 101.252C66.5121 101.252 66.4388 101.448 66.4388 101.688C66.4388 102.126 66.3651 102.429 65.8863 103.956C65.7423 104.415 65.6246 104.977 65.6246 105.206C65.6246 105.434 65.5591 105.662 65.479 105.711C65.3989 105.761 65.289 106.094 65.2347 106.452C65.1805 106.81 65.0917 107.396 65.0375 107.753C64.9833 108.111 64.8734 108.403 64.7933 108.403C64.7131 108.403 64.6475 108.733 64.6475 109.135C64.6475 109.537 64.5742 109.866 64.4847 109.866C64.3951 109.866 64.3218 110.123 64.3218 110.437C64.3218 110.751 64.2477 111.135 64.1572 111.291C63.9632 111.623 63.3403 114.069 63.2267 114.945C63.1832 115.28 63.082 115.554 63.0019 115.554C62.9218 115.554 62.8562 115.884 62.8562 116.286C62.8562 116.688 62.7902 117.017 62.7098 117.017C62.6292 117.017 62.5282 117.328 62.4852 117.708C62.3869 118.578 61.764 121.069 61.551 121.444C61.4627 121.599 61.3906 121.983 61.3906 122.297C61.3906 122.611 61.3173 122.868 61.2277 122.868C61.1381 122.868 61.0649 123.197 61.0649 123.599C61.0649 124.002 60.9916 124.331 60.902 124.331C60.8124 124.331 60.7392 124.582 60.7392 124.89C60.7392 125.198 60.6737 125.49 60.5936 125.539C60.5135 125.589 60.4117 125.904 60.3672 126.239C60.3229 126.575 60.162 127.289 60.0096 127.825C59.8572 128.361 59.6948 129.075 59.6487 129.41C59.6027 129.745 59.4994 130.019 59.4193 130.019C59.3392 130.019 59.2735 130.312 59.2735 130.669C59.2735 131.027 59.2003 131.319 59.1107 131.319C59.0211 131.319 58.9478 131.648 58.9478 132.051C58.9478 132.453 58.8746 132.782 58.785 132.782C58.6954 132.782 58.6222 133.111 58.6222 133.513C58.6222 133.916 58.5489 134.245 58.4593 134.245C58.3697 134.245 58.2965 134.392 58.2965 134.572C58.2965 134.752 58.1403 135.428 57.9496 136.075C57.7587 136.722 57.5679 137.526 57.5254 137.861C57.4829 138.196 57.3824 138.47 57.3023 138.47C57.2222 138.47 57.1565 138.799 57.1565 139.202C57.1565 139.604 57.0832 139.933 56.9937 139.933C56.9041 139.933 56.8308 140.221 56.8308 140.574C56.8308 140.926 56.7575 141.259 56.668 141.315C56.5784 141.37 56.5051 141.662 56.5051 141.965C56.5051 142.267 56.4319 142.559 56.3423 142.615C56.2527 142.67 56.1794 142.935 56.1794 143.204C56.1794 143.473 56.0926 143.852 55.9866 144.048C55.7972 144.396 55.593 145.269 55.4189 146.475C55.3706 146.81 55.2654 147.084 55.1853 147.084C55.1051 147.084 55.0395 147.377 55.0395 147.734C55.0395 148.092 54.9662 148.384 54.8767 148.384C54.7871 148.384 54.7138 148.713 54.7138 149.116C54.7138 149.518 54.6482 149.847 54.5681 149.847C54.4879 149.847 54.3853 150.121 54.3401 150.456C54.295 150.792 54.0592 151.797 53.8162 152.691C53.5732 153.585 53.3384 154.591 53.2943 154.926C53.2501 155.261 53.1484 155.535 53.0682 155.535C52.9881 155.535 52.9225 155.864 52.9225 156.267C52.9225 156.669 52.8565 156.998 52.7761 156.998C52.6955 156.998 52.5942 157.309 52.551 157.689C52.5079 158.069 52.348 158.818 52.1957 159.355C52.0434 159.891 51.8801 160.568 51.8327 160.859C51.7853 161.151 51.6814 161.429 51.6018 161.479C51.522 161.528 51.4569 161.856 51.4569 162.208C51.4569 162.561 51.3836 162.849 51.294 162.849C51.2045 162.849 51.1312 163.04 51.1312 163.273C51.1312 163.612 51.0748 163.673 50.8462 163.579C50.6895 163.514 50.3414 163.406 50.0727 163.339C49.804 163.271 49.1285 163.06 48.5715 162.87C48.0144 162.68 47.4099 162.524 47.228 162.524C47.046 162.524 46.8971 162.451 46.8971 162.361C46.8971 162.272 46.6407 162.199 46.3272 162.199C46.0137 162.199 45.7572 162.126 45.7572 162.036C45.7572 161.947 45.5374 161.874 45.2687 161.874C45 161.874 44.7801 161.801 44.7801 161.711C44.7801 161.622 44.594 161.549 44.3663 161.549C43.9175 161.549 42.093 161.023 41.2327 160.646C40.9386 160.517 40.5215 160.411 40.3059 160.411C40.0903 160.411 39.8686 160.338 39.8133 160.249C39.7579 160.159 39.4972 160.086 39.2337 160.086C38.9702 160.086 38.7548 160.013 38.7548 159.924C38.7548 159.834 38.4983 159.761 38.1848 159.761C37.6753 159.761 37.6148 159.715 37.6148 159.326C37.6148 159.086 37.6814 158.666 37.7627 158.391C37.844 158.117 38.0324 157.453 38.1812 156.917C38.3301 156.38 38.5199 155.717 38.6033 155.443C38.6865 155.168 38.7548 154.747 38.7548 154.508C38.7548 154.269 38.8281 154.073 38.9176 154.073C39.0072 154.073 39.0805 153.744 39.0805 153.341C39.0805 152.939 39.1537 152.61 39.2433 152.61C39.3329 152.61 39.4062 152.322 39.4062 151.969C39.4062 151.617 39.4794 151.284 39.569 151.228C39.6586 151.173 39.7319 150.84 39.7319 150.488C39.7319 150.135 39.7887 149.847 39.8581 149.847C39.9274 149.847 40.1211 149.207 40.2886 148.425C40.456 147.643 40.6557 146.933 40.7324 146.848C40.8091 146.764 40.8718 146.416 40.8718 146.076C40.8718 145.737 40.9451 145.459 41.0346 145.459C41.1242 145.459 41.1975 145.166 41.1975 144.809C41.1975 144.451 41.2708 144.159 41.3603 144.159C41.4499 144.159 41.5232 143.83 41.5232 143.427C41.5232 143.025 41.5965 142.696 41.686 142.696C41.7756 142.696 41.8489 142.543 41.8489 142.357C41.8489 141.934 42.3263 139.95 42.5196 139.57C42.5986 139.414 42.6631 139.03 42.6631 138.716C42.6631 138.402 42.7364 138.145 42.826 138.145C42.9155 138.145 42.9888 137.853 42.9888 137.495C42.9888 137.138 43.0621 136.845 43.1517 136.845C43.2412 136.845 43.3145 136.557 43.3145 136.205C43.3145 135.852 43.38 135.524 43.4601 135.474C43.5402 135.425 43.6434 135.11 43.6897 134.774C43.7358 134.438 43.8975 133.725 44.0491 133.188C44.2007 132.652 44.3619 131.975 44.4075 131.684C44.4531 131.392 44.5556 131.114 44.6352 131.064C44.715 131.015 44.7801 130.687 44.7801 130.335C44.7801 129.982 44.8534 129.694 44.943 129.694C45.0325 129.694 45.1058 129.365 45.1058 128.963C45.1058 128.56 45.1791 128.231 45.2687 128.231C45.3582 128.231 45.4315 127.943 45.4315 127.591C45.4315 127.238 45.4967 126.91 45.5765 126.861C45.6561 126.812 45.7585 126.533 45.8041 126.242C45.8497 125.951 46.0109 125.273 46.1625 124.737C46.3141 124.201 46.4759 123.488 46.5219 123.152C46.568 122.817 46.6713 122.543 46.7514 122.543C46.8315 122.543 46.8971 122.214 46.8971 121.812C46.8971 121.409 46.9704 121.08 47.06 121.08C47.1496 121.08 47.2228 120.788 47.2228 120.43C47.2228 120.073 47.2885 119.78 47.3686 119.78C47.4487 119.78 47.5505 119.506 47.5948 119.171C47.6391 118.836 47.8 118.122 47.9524 117.586C48.1048 117.05 48.2672 116.336 48.3133 116C48.3595 115.665 48.4628 115.35 48.5429 115.3C48.623 115.251 48.6885 114.959 48.6885 114.651C48.6885 114.343 48.7617 114.092 48.8513 114.092C48.9409 114.092 49.0142 113.763 49.0142 113.36C49.0142 112.958 49.0874 112.629 49.177 112.629C49.2666 112.629 49.3399 112.3 49.3399 111.898C49.3399 111.495 49.4131 111.166 49.5027 111.166C49.5923 111.166 49.6655 111.019 49.6655 110.839C49.6655 110.659 49.8198 109.983 50.008 109.336C50.3817 108.053 50.6151 107.033 50.7517 106.087C50.8001 105.752 50.9053 105.478 50.9854 105.478C51.0655 105.478 51.1312 105.149 51.1312 104.747C51.1312 104.344 51.2045 104.015 51.294 104.015C51.3836 104.015 51.4569 103.723 51.4569 103.365C51.4569 103.008 51.5225 102.715 51.6026 102.715C51.6827 102.715 51.7811 102.441 51.8212 102.106C51.9104 101.358 52.2589 99.9707 52.4532 99.5888C52.5321 99.4336 52.5968 99.0495 52.5968 98.7355C52.5968 98.4214 52.6701 98.1644 52.7596 98.1644C52.8492 98.1644 52.9225 97.8353 52.9225 97.4331C52.9225 97.0308 52.9958 96.7017 53.0853 96.7017C53.1749 96.7017 53.2482 96.4813 53.2482 96.2119C53.2482 95.9426 53.315 95.5951 53.3967 95.4399C53.9439 94.3999 53.981 93.3375 53.981 78.7428C53.981 70.7873 53.925 64.0785 53.8566 63.8343C53.7346 63.3993 52.7153 62.2467 52.4527 62.2467C52.3794 62.2467 52.0894 62.0272 51.8081 61.7591C51.5271 61.4909 51.2025 61.2715 51.0872 61.2715C50.9717 61.2715 50.7718 61.1252 50.6426 60.9465C50.5135 60.7677 50.3295 60.6214 50.2336 60.6214C50.1376 60.6214 49.7872 60.3654 49.4548 60.0526C49.1224 59.7397 48.7407 59.4837 48.6067 59.4837C48.4725 59.4837 48.3628 59.4106 48.3628 59.3212C48.3628 59.2318 48.2864 59.1587 48.1931 59.1587C48.0998 59.1587 47.9348 59.0843 47.8267 58.9931C47.0678 58.3545 46.8224 58.1818 46.5521 58.0961C46.3837 58.0428 46.2458 57.931 46.2458 57.8476C46.2458 57.7642 46.1692 57.696 46.0756 57.696C45.9819 57.696 45.722 57.5131 45.4981 57.2897C45.2742 57.0662 45.0311 56.8834 44.9576 56.8834C44.8843 56.8834 44.5762 56.6651 44.273 56.3984C43.9696 56.1317 43.6462 55.9123 43.554 55.9108C43.4619 55.9094 43.2808 55.7619 43.1517 55.5832C43.0225 55.4044 42.7865 55.2581 42.6271 55.2581C42.4679 55.2581 42.3374 55.2008 42.3374 55.1307C42.3374 55.0605 42.0993 54.8647 41.8082 54.6953C41.517 54.526 41.1603 54.2542 41.0156 54.0914C40.8706 53.9285 40.6692 53.7954 40.5677 53.7954C40.4663 53.7954 40.3832 53.7223 40.3832 53.6329C40.3832 53.5435 40.2701 53.4704 40.1316 53.4704C39.9932 53.4704 39.6967 53.2875 39.4728 53.0641C39.2488 52.8406 39.014 52.6574 38.951 52.6569C38.8878 52.6566 38.602 52.4372 38.3157 52.1694C38.0296 51.9017 37.6976 51.6826 37.5782 51.6826C37.4588 51.6826 37.2554 51.5363 37.1263 51.3576C36.9972 51.1788 36.811 51.0325 36.7125 51.0325C36.6141 51.0325 36.2886 50.8142 35.9893 50.5475C35.6898 50.2808 35.3102 50.0198 35.1457 49.9676C34.9811 49.9156 34.8464 49.8048 34.8464 49.7214C34.8464 49.6381 34.7526 49.5698 34.6382 49.5698C34.5235 49.5698 34.3242 49.4235 34.195 49.2447C34.0659 49.066 33.8848 48.9195 33.7926 48.9195C33.6477 48.9194 33.3388 48.6954 32.4513 47.9478C32.3431 47.8566 32.1782 47.782 32.0849 47.782C31.9916 47.782 31.9152 47.7089 31.9152 47.6195C31.9152 47.5301 31.8054 47.457 31.6712 47.457C31.5372 47.457 31.1555 47.201 30.8231 46.8881C30.4908 46.5753 30.1403 46.3193 30.0444 46.3193C29.9485 46.3193 29.7645 46.173 29.6353 45.9943C29.5062 45.8155 29.2863 45.6692 29.1468 45.6692C29.0072 45.6692 28.7874 45.5229 28.6582 45.3442C28.5291 45.1654 28.3633 45.0191 28.2897 45.0191C28.1467 45.0191 27.8999 44.8316 27.2735 44.2471C27.0581 44.0461 26.7684 43.8815 26.63 43.8815C26.4915 43.8815 26.3784 43.8083 26.3784 43.7189C26.3784 43.6295 26.3025 43.5564 26.2097 43.5564C26.117 43.5564 25.8788 43.4069 25.6804 43.2242C24.9178 42.5216 24.3348 42.094 24.1392 42.0939C24.0273 42.0939 23.9357 42.0206 23.9357 41.9312C23.9357 41.8418 23.8419 41.7686 23.7274 41.7686C23.6127 41.7686 23.4134 41.6224 23.2843 41.4436C23.1551 41.2648 22.9192 41.1185 22.7597 41.1185C22.6005 41.1185 22.47 41.0474 22.47 40.9602C22.47 40.8731 22.2318 40.6794 21.9408 40.5299C21.6498 40.3802 21.293 40.1224 21.1482 39.9568C21.0033 39.7912 20.8018 39.6558 20.7004 39.6558C20.5989 39.6558 20.5159 39.5827 20.5159 39.4933C20.5159 39.4039 20.4243 39.3306 20.3123 39.3306C20.1167 39.3305 19.5337 38.9029 18.7711 38.2003C18.5728 38.0176 18.3345 37.8681 18.2419 37.8681C18.149 37.8681 18.0732 37.7949 18.0732 37.7055C18.0732 37.6162 17.96 37.543 17.8216 37.543C17.6831 37.543 17.3866 37.3602 17.1627 37.1367C16.9388 36.9132 16.6964 36.7304 16.6243 36.7304C16.552 36.7304 16.2629 36.511 15.9817 36.2428C15.7006 35.9747 15.36 35.7553 15.2248 35.7553C15.0896 35.7553 14.9791 35.6821 14.9791 35.5927C14.9791 35.5033 14.9063 35.4302 14.8175 35.4302C14.7286 35.4302 14.4903 35.2883 14.2883 35.1151C14.086 34.9417 13.7469 34.6512 13.5348 34.4697C13.3226 34.2882 13.0112 34.0961 12.8427 34.0426C12.6743 33.9893 12.5363 33.8775 12.5363 33.7941C12.5363 33.7107 12.4264 33.6424 12.2921 33.6424C12.1577 33.6424 12.0478 33.5742 12.0478 33.4908C12.0478 33.4074 11.9131 33.2966 11.7485 33.2446C11.584 33.1924 11.2044 32.9314 10.9049 32.6647C10.6056 32.398 10.2801 32.1797 10.1817 32.1797C10.0832 32.1797 9.89708 32.0335 9.76794 31.8547C9.6388 31.6759 9.4354 31.5296 9.31604 31.5296C9.19667 31.5296 8.86462 31.3106 8.5785 31.0429C8.29221 30.775 8.01081 30.5556 7.95317 30.5553C7.89536 30.5548 7.61119 30.3335 7.32148 30.0635L6.79483 29.5724L7.14137 29.2723C7.33207 29.1074 7.48807 28.853 7.48807 28.7071C7.48807 28.5611 7.56136 28.4417 7.65092 28.4417C7.74049 28.4417 7.81377 28.332 7.81377 28.1979C7.81377 28.0638 7.86881 27.9539 7.9359 27.9538C8.003 27.9536 8.27788 27.6261 8.54658 27.226C8.81528 26.8259 9.09017 26.4969 9.15726 26.495C9.22435 26.493 9.2794 26.3612 9.2794 26.2023C9.2794 26.0432 9.42596 25.8077 9.60509 25.6788C9.78422 25.5499 9.93078 25.3641 9.93078 25.2658C9.93078 25.1676 10.1495 24.8428 10.4167 24.544C10.684 24.2452 10.9455 23.8663 10.9978 23.7022C11.0499 23.5378 11.1609 23.4034 11.2445 23.4034C11.328 23.4034 11.3964 23.2937 11.3964 23.1597C11.3964 23.0256 11.4697 22.9159 11.5593 22.9159C11.6488 22.9159 11.7221 22.8062 11.7221 22.6721C11.7221 22.538 11.7954 22.4283 11.885 22.4283C11.9745 22.4283 12.0478 22.35 12.0478 22.2542C12.0478 22.1583 12.1395 21.9836 12.2514 21.8658C12.3634 21.7481 12.6015 21.4486 12.7806 21.2006C12.9597 20.9524 13.198 20.657 13.3099 20.544C13.4219 20.431 13.5134 20.2238 13.5134 20.0832C13.5134 19.9428 13.5685 19.8263 13.6356 19.8243C13.7027 19.8224 13.9775 19.4934 14.2462 19.0933C14.7599 18.3285 14.9452 18.2487 15.5088 18.5497ZM122.133 84.2686C122.133 84.4921 122.059 84.6749 121.97 84.6749C121.88 84.6749 121.807 84.7877 121.807 84.9256C121.807 85.0634 121.731 85.2646 121.639 85.3725C121.365 85.692 120.341 87.465 120.341 87.62C120.341 87.6987 120.268 87.7629 120.178 87.7629C120.089 87.7629 120.016 87.8752 120.016 88.0124C120.016 88.1497 119.904 88.4318 119.768 88.6396C119.475 89.0855 119.603 89.5507 120.02 89.5507C120.182 89.5507 120.339 89.6054 120.368 89.6726C120.447 89.8479 121.769 90.6883 121.966 90.6883C122.058 90.6883 122.133 90.7615 122.133 90.8509C122.133 90.9402 122.279 91.0134 122.458 91.0134C122.637 91.0134 122.784 91.0708 122.784 91.1408C122.784 91.211 123.022 91.4065 123.313 91.5755C123.604 91.7446 123.891 91.955 123.95 92.0433C124.086 92.2469 124.492 91.8556 124.646 91.3724C124.708 91.1761 124.847 90.9235 124.954 90.8112C125.311 90.438 125.715 89.728 125.715 89.4751C125.715 89.3379 125.789 89.2256 125.878 89.2256C125.968 89.2256 126.041 89.0793 126.041 88.9006C126.041 88.7218 126.097 88.5755 126.165 88.5755C126.234 88.5755 126.418 88.3013 126.576 87.9661C126.733 87.6309 127.014 87.1034 127.2 86.7939L127.539 86.2314L127.179 85.9407C126.981 85.7809 126.717 85.6501 126.593 85.6501C126.468 85.6501 126.367 85.577 126.367 85.4876C126.367 85.3982 126.22 85.325 126.041 85.325C125.862 85.325 125.715 85.2519 125.715 85.1625C125.715 85.0731 125.532 85 125.308 85C125.084 85 124.901 84.9269 124.901 84.8375C124.901 84.7481 124.754 84.6749 124.575 84.6749C124.396 84.6749 124.25 84.6018 124.25 84.5124C124.25 84.423 124.148 84.3499 124.024 84.3499C123.9 84.3499 123.588 84.2407 123.332 84.1071C122.594 83.7232 122.133 83.7855 122.133 84.2686ZM24.9127 92.924C24.9127 92.9916 24.676 93.1515 24.3864 93.2793C24.0969 93.4072 23.6974 93.6628 23.4986 93.8471C22.8706 94.4298 22.6514 94.5889 22.4769 94.5889C22.3836 94.5889 22.3072 94.662 22.3072 94.7514C22.3072 94.8408 22.1973 94.914 22.0629 94.914C21.9286 94.914 21.8186 94.9871 21.8186 95.0765C21.8186 95.1659 21.7421 95.239 21.6485 95.239C21.3632 95.239 20.5937 96.1028 20.6518 96.3578C20.6818 96.4893 20.9199 96.7961 21.1811 97.0396C21.4421 97.2831 21.6558 97.5494 21.6558 97.6317C21.6558 97.7139 21.9856 98.1248 22.3886 98.5446C22.7917 98.9644 23.1214 99.3796 23.1214 99.4676C23.1214 99.5553 23.1947 99.6271 23.2843 99.6271C23.3738 99.6271 23.4471 99.7369 23.4471 99.8709C23.4471 100.005 23.508 100.115 23.5824 100.115C23.6569 100.115 23.8158 100.298 23.9357 100.521C24.0555 100.744 24.2877 100.927 24.4517 100.927C24.6157 100.927 25.3545 100.347 26.0934 99.6374C26.8322 98.9278 27.675 98.1297 27.9661 97.8636C28.2573 97.5974 28.4954 97.3027 28.4954 97.2086C28.4954 97.1145 28.2389 96.7817 27.9254 96.4688C27.6119 96.156 27.3555 95.8579 27.3555 95.8064C27.3555 95.755 27.2809 95.6245 27.1895 95.5166C27.0983 95.4087 26.8733 95.1374 26.6896 94.914C26.5057 94.6905 26.1773 94.3071 25.9597 94.0622C25.7421 93.8171 25.5641 93.5375 25.5641 93.441C25.5641 93.2572 25.1661 92.8011 25.0057 92.8011C24.9546 92.8011 24.9127 92.8564 24.9127 92.924ZM116.57 93.2887C116.451 93.5569 116.298 93.7763 116.23 93.7763C116.163 93.7763 116.107 93.8519 116.107 93.9442C116.107 94.0367 115.869 94.3617 115.578 94.6668C114.896 95.3819 114.642 95.6905 114.642 95.8052C114.642 95.8561 114.33 96.2133 113.95 96.5992C113.109 97.4513 112.525 98.1336 112.525 98.2629C112.525 98.3793 111.761 99.0994 111.166 99.5438C110.928 99.7214 110.733 99.9259 110.733 99.9982C110.733 100.143 109.985 100.927 109.846 100.927C109.725 100.927 109.022 101.53 108.188 102.349C107.801 102.729 107.441 103.04 107.388 103.04C107.334 103.04 107.182 103.148 107.05 103.28C106.917 103.412 106.656 103.627 106.469 103.758C106.155 103.977 106.15 104.015 106.396 104.261C106.542 104.407 106.662 104.579 106.662 104.644C106.662 104.708 106.955 105.075 107.314 105.458C107.672 105.842 107.965 106.222 107.965 106.304C107.965 106.386 108.255 106.751 108.609 107.115C108.964 107.48 109.298 107.919 109.353 108.091C109.536 108.667 109.935 108.458 111.477 106.981C111.687 106.78 111.9 106.616 111.95 106.616C112.069 106.616 118.224 100.488 118.224 100.369C118.224 100.256 118.801 99.5734 119.486 98.8763C119.778 98.5802 120.016 98.2623 120.016 98.1698C120.016 98.0775 120.089 98.0019 120.178 98.0019C120.268 98.0019 120.341 97.8922 120.341 97.7581C120.341 97.624 120.415 97.5143 120.504 97.5143C120.594 97.5143 120.667 97.438 120.667 97.3445C120.667 97.2511 120.85 96.9917 121.074 96.7682C121.298 96.5447 121.481 96.3074 121.481 96.2406C121.481 96.0284 120.177 94.914 119.929 94.914C119.797 94.914 119.69 94.8408 119.69 94.7514C119.69 94.662 119.614 94.5889 119.521 94.5889C119.429 94.5889 119.19 94.4394 118.992 94.2567C118.229 93.5541 117.646 93.1265 117.451 93.1264C117.339 93.1264 117.247 93.0531 117.247 92.9637C117.247 92.6042 116.772 92.832 116.57 93.2887Z" fill="#0BC481"/>
</svg>
