<?xml version="1.0" standalone="no"?>
<!DOCTYPE svg PUBLIC "-//W3C//DTD SVG 20010904//EN"
 "http://www.w3.org/TR/2001/REC-SVG-20010904/DTD/svg10.dtd">
<svg version="1.0" xmlns="http://www.w3.org/2000/svg"
 width="700.000000pt" height="700.000000pt" viewBox="0 0 700.000000 700.000000"
 preserveAspectRatio="xMidYMid meet">
<metadata>
Created by potrace 1.11, written by Peter Selinger 2001-2013
</metadata>
<g transform="translate(0.000000,700.000000) scale(0.100000,-0.100000)"
fill="#000000" stroke="none">
<path d="M3223 5906 c-23 -8 -57 -23 -76 -35 -47 -29 -131 -139 -159 -209
l-23 -57 -3 -1052 -3 -1053 206 0 205 0 0 1210 0 1210 -52 -1 c-29 0 -72 -6
-95 -13z"/>
<path d="M3770 4410 l0 -910 200 0 200 0 0 636 0 635 30 44 c93 136 252 198
424 165 106 -20 165 -70 205 -172 14 -38 16 -117 19 -675 l3 -633 200 0 200 0
-3 668 c-4 653 -4 669 -26 747 -47 171 -130 282 -255 343 -199 98 -494 72
-680 -61 -35 -25 -78 -62 -95 -82 l-32 -36 0 121 0 120 -195 0 -195 0 0 -910z"/>
<path d="M2940 1870 l0 -1200 780 0 780 0 -2 167 -3 168 -572 3 -573 2 0 365
0 365 490 0 490 0 0 165 0 165 -490 0 -490 0 0 330 0 330 570 0 570 0 -2 168
-3 167 -772 3 -773 2 0 -1200z"/>
<path d="M4850 1580 l0 -910 200 0 200 0 0 641 0 641 36 49 c42 58 96 102 161
132 41 18 66 22 163 22 96 0 122 -3 160 -21 57 -27 97 -67 124 -124 20 -44 21
-61 26 -690 l5 -645 200 0 200 0 0 655 c0 644 -1 656 -23 743 -53 213 -158
334 -336 390 -60 18 -93 22 -211 22 -127 -1 -148 -3 -219 -28 -103 -36 -155
-68 -233 -140 l-63 -59 0 116 0 116 -195 0 -195 0 0 -910z"/>
</g>
</svg>
